<?xml version="1.0" encoding="UTF-8" standalone="no"?>
<!-- Created with Inkscape (http://www.inkscape.org/) -->

<svg
   width="210mm"
   height="297mm"
   viewBox="0 0 210 297"
   version="1.1"
   id="svg1"
   inkscape:version="1.4.3 (0d15f75042, 2025-12-25)"
   sodipodi:docname="footprintIHM.svg"
   xmlns:inkscape="http://www.inkscape.org/namespaces/inkscape"
   xmlns:sodipodi="http://sodipodi.sourceforge.net/DTD/sodipodi-0.dtd"
   xmlns="http://www.w3.org/2000/svg"
   xmlns:svg="http://www.w3.org/2000/svg">
  <sodipodi:namedview
     id="namedview1"
     pagecolor="#ffffff"
     bordercolor="#000000"
     borderopacity="0.25"
     inkscape:showpageshadow="2"
     inkscape:pageopacity="0.0"
     inkscape:pagecheckerboard="0"
     inkscape:deskcolor="#d1d1d1"
     inkscape:document-units="mm"
     inkscape:zoom="0.95482937"
     inkscape:cx="526.27204"
     inkscape:cy="615.81683"
     inkscape:window-width="1536"
     inkscape:window-height="821"
     inkscape:window-x="0"
     inkscape:window-y="0"
     inkscape:window-maximized="1"
     inkscape:current-layer="layer1" />
  <defs
     id="defs1" />
  <g
     inkscape:label="Layer 1"
     inkscape:groupmode="layer"
     id="layer1">
    <path
       id="ellipse26"
       style="fill:none;stroke:#000000;stroke-width:0.739925;stroke-linecap:square;stroke-miterlimit:3.9"
       d="m 124.75007,114.23013 a 2.7442701,0.91475666 0 0 1 -2.74427,0.91476 2.7442701,0.91475666 0 0 1 -2.74427,-0.91476 2.7442701,0.91475666 0 0 1 2.74427,-0.91475 2.7442701,0.91475666 0 0 1 2.74427,0.91475 z" />
    <path
       style="fill:none;fill-opacity:1;stroke:#000000;stroke-width:0.739925;stroke-linecap:square;stroke-miterlimit:3.9;stroke-dasharray:none;stroke-opacity:1"
       d="m 119.27914,116.12138 c 0,0 0.0325,0.69701 2.92451,0.72345 2.53612,0.0232 2.54282,-0.8028 2.54282,-0.8028"
       id="path26"
       sodipodi:nodetypes="csc" />
    <path
       style="fill:none;fill-opacity:1;stroke:#000000;stroke-width:0.739925;stroke-linecap:square;stroke-miterlimit:3.9;stroke-dasharray:none;stroke-opacity:1"
       d="m 119.23108,114.84739 -1.88107,3.3709 h 9.25323 l -1.82173,-3.41165"
       id="path27"
       sodipodi:nodetypes="cccc" />
    <path
       style="fill:none;fill-opacity:1;stroke:#000000;stroke-width:0.739925;stroke-linecap:square;stroke-miterlimit:3.9;stroke-dasharray:none;stroke-opacity:1"
       d="m 117.25903,118.5275 v 1.85038 h 9.42533 v -1.8718"
       id="path28"
       sodipodi:nodetypes="cccc" />
    <path
       style="fill:none;fill-opacity:1;stroke:#000000;stroke-width:0.719772;stroke-linecap:square;stroke-miterlimit:3.9;stroke-dasharray:none;stroke-opacity:1"
       d="m 118.51643,111.06761 0.86216,0.92485"
       id="path29"
       sodipodi:nodetypes="cc" />
    <path
       style="fill:none;fill-opacity:1;stroke:#000000;stroke-width:0.719772;stroke-linecap:square;stroke-miterlimit:3.9;stroke-dasharray:none;stroke-opacity:1"
       d="m 125.28424,110.95746 -0.93427,1.02744"
       id="path30"
       sodipodi:nodetypes="cc" />
    <path
       style="fill:none;fill-opacity:1;stroke:#000000;stroke-width:0.719772;stroke-linecap:square;stroke-miterlimit:3.9;stroke-dasharray:none;stroke-opacity:1"
       d="m 121.96621,110.05259 0.009,1.16029"
       id="path31"
       sodipodi:nodetypes="cc" />
    <path
       style="font-weight:bold;font-size:3.04704px;font-family:'Noto Color Emoji';-inkscape-font-specification:'Noto Color Emoji';text-align:center;text-anchor:middle;fill:#1a1a1a;stroke-width:0.615;stroke-linecap:square;stroke-miterlimit:3.9"
       d="m 131.56935,112.40482 q -0.15771,0.0818 -0.32881,0.12349 -0.1711,0.0416 -0.35708,0.0416 -0.55495,0 -0.87929,-0.30946 -0.32435,-0.31095 -0.32435,-0.8421 0,-0.53264 0.32435,-0.8421 0.32434,-0.31096 0.87929,-0.31096 0.18598,0 0.35708,0.0417 0.1711,0.0417 0.32881,0.12349 v 0.45973 q -0.1592,-0.10861 -0.31393,-0.15919 -0.15473,-0.0506 -0.32583,-0.0506 -0.30649,0 -0.48205,0.19639 -0.17557,0.19639 -0.17557,0.54157 0,0.34368 0.17557,0.54007 0.17556,0.19639 0.48205,0.19639 0.1711,0 0.32583,-0.0506 0.15473,-0.0506 0.31393,-0.1592 z m 0.47461,-2.09931 h 0.57281 v 1.78835 h 1.00576 v 0.43296 h -1.57857 z m 1.94159,0 h 0.57281 v 2.22131 h -0.57281 z m 2.89529,2.09931 q -0.15771,0.0818 -0.32881,0.12349 -0.1711,0.0416 -0.35707,0.0416 -0.55496,0 -0.8793,-0.30946 -0.32435,-0.31095 -0.32435,-0.8421 0,-0.53264 0.32435,-0.8421 0.32434,-0.31096 0.8793,-0.31096 0.18597,0 0.35707,0.0417 0.1711,0.0417 0.32881,0.12349 v 0.45973 q -0.1592,-0.10861 -0.31393,-0.15919 -0.15473,-0.0506 -0.32583,-0.0506 -0.30649,0 -0.48205,0.19639 -0.17557,0.19639 -0.17557,0.54157 0,0.34368 0.17557,0.54007 0.17556,0.19639 0.48205,0.19639 0.1711,0 0.32583,-0.0506 0.15473,-0.0506 0.31393,-0.1592 z m 0.47461,-2.09931 h 0.57281 v 0.81086 l 0.82573,-0.81086 h 0.66505 l -1.06973,1.05189 1.17983,1.16942 h -0.71712 l -0.88376,-0.87484 v 0.87484 h -0.57281 z"
       id="text31"
       aria-label="CLICK" />
    <path
       style="fill:#1a1a1a;fill-opacity:1;stroke:none;stroke-width:0.707964;stroke-linecap:square;stroke-miterlimit:3.9;stroke-dasharray:0.707964, 2.12389"
       d="m 152.67428,102.11883 c 0.6891,0.52708 1.66515,1.59615 2.169,2.37569 1.8128,2.80476 1.70655,1.35799 1.79174,24.39685 0.049,13.26358 -0.0103,21.31285 -0.16653,22.59494 -0.31522,2.58658 -1.27899,4.58798 -3.04022,6.31342 -1.19218,1.16795 -1.31108,1.23218 -1.38123,0.74619 -0.0538,-0.37269 0.2488,-0.87982 1.01149,-1.69518 0.59854,-0.63989 1.37064,-1.76592 1.71577,-2.50229 l 0.62752,-1.33885 v -22.71693 -22.71693 l -0.76661,-1.55722 c -0.5048,-1.02539 -1.21016,-1.96259 -2.06533,-2.74416 -0.88849,-0.81202 -1.27499,-1.33334 -1.22361,-1.6504 0.0674,-0.41589 0.20371,-0.36508 1.32801,0.49487 z"
       id="path32" />
    <path
       style="font-weight:bold;font-size:4.93889px;font-family:'Noto Fangsong KSS Rotated';-inkscape-font-specification:'Noto Fangsong KSS Rotated Italic';fill:#1a1a1a;stroke-width:0.8;stroke-linecap:square;stroke-miterlimit:3.9;stroke-dasharray:0.799999, 2.4"
       d="m 52.995516,132.92132 h 0.928453 v 3.60047 h -0.928453 z m 1.837614,0 h 1.036974 l 1.309481,2.46944 v -2.46944 h 0.880222 v 3.60047 h -1.036974 l -1.309481,-2.46945 v 2.46945 H 54.83313 Z m 4.133426,0 h 0.928454 v 3.60047 h -0.928454 z m 1.408356,0 h 3.318317 v 0.70177 h -1.193726 v 2.8987 h -0.928454 v -2.8987 h -1.196137 z"
       id="text39"
       aria-label="INIT " />
    <path
       style="font-weight:bold;font-size:4.93889px;font-family:'Noto Fangsong KSS Rotated';-inkscape-font-specification:'Noto Fangsong KSS Rotated Italic';fill:#1a1a1a;stroke-width:0.8;stroke-linecap:square;stroke-miterlimit:3.9;stroke-dasharray:0.799999, 2.4"
       d="m 93.601022,133.06379 v 0.76206 q -0.296623,-0.13264 -0.578776,-0.20016 -0.282154,-0.0675 -0.532957,-0.0675 -0.332796,0 -0.491959,0.0916 -0.159164,0.0916 -0.159164,0.28457 0,0.14469 0.106109,0.22669 0.108521,0.0796 0.390674,0.13745 l 0.395497,0.0796 q 0.60048,0.12057 0.853695,0.36655 0.253215,0.24598 0.253215,0.69936 0,0.59566 -0.354501,0.88746 -0.352089,0.28938 -1.07797,0.28938 -0.342443,0 -0.687297,-0.0651 -0.344854,-0.0651 -0.689708,-0.19292 v -0.78376 q 0.344854,0.18328 0.665592,0.27733 0.32315,0.0916 0.622185,0.0916 0.303857,0 0.465432,-0.10129 0.161575,-0.10128 0.161575,-0.28939 0,-0.16881 -0.110932,-0.26045 -0.108521,-0.0916 -0.436494,-0.16398 l -0.359323,-0.0796 q -0.540191,-0.11576 -0.790994,-0.36897 -0.248392,-0.25322 -0.248392,-0.68248 0,-0.53778 0.347266,-0.82717 0.347266,-0.28938 0.998389,-0.28938 0.296623,0 0.610126,0.0458 0.313504,0.0434 0.648712,0.13263 z m 0.622184,-0.11334 h 3.318317 v 0.70176 h -1.193726 v 2.89871 h -0.928453 v -2.89871 h -1.196138 z m 5.59966,2.94452 h -1.451764 l -0.229098,0.65595 h -0.933277 l 1.333597,-3.60047 h 1.106909 l 1.333597,3.60047 h -0.93328 z m -1.220253,-0.668 h 0.986331 l -0.49196,-1.43247 z m 4.176837,-0.68006 q 0.2918,0 0.4172,-0.10852 0.12781,-0.10852 0.12781,-0.35692 0,-0.24598 -0.12781,-0.35209 -0.1254,-0.1061 -0.4172,-0.1061 h -0.39068 v 0.92363 z m -0.39068,0.64147 v 1.36254 h -0.92845 v -3.60047 h 1.418 q 0.71141,0 1.0418,0.23874 0.3328,0.23875 0.3328,0.75482 0,0.35692 -0.17364,0.58602 -0.17122,0.22909 -0.51848,0.33761 0.19051,0.0434 0.34003,0.19775 0.15193,0.15193 0.30627,0.46302 l 0.50401,1.02251 h -0.98874 l -0.4389,-0.89469 q -0.13264,-0.2701 -0.2701,-0.36897 -0.13505,-0.0989 -0.36174,-0.0989 z m 2.22347,-2.23793 h 3.31832 v 0.70176 h -1.19373 v 2.89871 h -0.92845 v -2.89871 h -1.19614 z"
       id="text47"
       aria-label="START" />
    <g
       id="text50"
       style="font-style:oblique;font-size:4.93889px;font-family:Norasi;-inkscape-font-specification:'Norasi Oblique';text-align:center;text-anchor:middle;fill:#1a1a1a;stroke-width:0.799999;stroke-linecap:square;stroke-miterlimit:3.9;stroke-dasharray:0.799999, 2.4"
       aria-label="PAUSE /&#10;RESUME">
      <path
         style="font-style:normal;font-weight:bold;font-family:'Noto Fangsong KSS Rotated';-inkscape-font-specification:'Noto Fangsong KSS Rotated Italic';stroke-width:0.8"
         d="m 125.42027,129.74645 h 1.54099 q 0.6873,0 1.05386,0.30627 0.36897,0.30386 0.36897,0.86817 0,0.56672 -0.36897,0.87298 -0.36656,0.30386 -1.05386,0.30386 h -0.61253 v 1.24919 h -0.92846 z m 0.92846,0.67283 v 1.00562 h 0.51366 q 0.27009,0 0.4172,-0.13022 0.14711,-0.13264 0.14711,-0.37379 0,-0.24116 -0.14711,-0.37138 -0.14711,-0.13023 -0.4172,-0.13023 z m 4.42281,2.2717 h -1.45176 l -0.2291,0.65594 h -0.93328 l 1.3336,-3.60047 h 1.10691 l 1.33359,3.60047 h -0.93327 z m -1.22025,-0.66801 h 0.98633 l -0.49196,-1.43247 z m 2.70578,-2.27652 h 0.92845 v 2.15836 q 0,0.44614 0.14469,0.63906 0.14711,0.19052 0.47749,0.19052 0.3328,0 0.47749,-0.19052 0.14711,-0.19292 0.14711,-0.63906 v -2.15836 h 0.92845 v 2.15836 q 0,0.76446 -0.38344,1.13826 -0.38344,0.37379 -1.16961,0.37379 -0.78376,0 -1.1672,-0.37379 -0.38343,-0.3738 -0.38343,-1.13826 z m 6.51605,0.11335 v 0.76205 q -0.29662,-0.13263 -0.57878,-0.20016 -0.28215,-0.0675 -0.53295,-0.0675 -0.3328,0 -0.49196,0.0916 -0.15917,0.0916 -0.15917,0.28456 0,0.1447 0.10611,0.22669 0.10852,0.0796 0.39068,0.13746 l 0.39549,0.0796 q 0.60048,0.12058 0.8537,0.36656 0.25321,0.24598 0.25321,0.69935 0,0.59566 -0.3545,0.88746 -0.35209,0.28939 -1.07797,0.28939 -0.34244,0 -0.68729,-0.0651 -0.34486,-0.0651 -0.68971,-0.19293 v -0.78376 q 0.34485,0.18328 0.66559,0.27733 0.32315,0.0916 0.62218,0.0916 0.30386,0 0.46544,-0.10128 0.16157,-0.10129 0.16157,-0.28939 0,-0.16881 -0.11093,-0.26045 -0.10852,-0.0916 -0.43649,-0.16399 l -0.35933,-0.0796 q -0.54019,-0.11575 -0.79099,-0.36897 -0.24839,-0.25321 -0.24839,-0.68247 0,-0.53778 0.34726,-0.82717 0.34727,-0.28939 0.99839,-0.28939 0.29662,0 0.61013,0.0458 0.3135,0.0434 0.64871,0.13264 z m 1.05144,-0.11335 h 2.50562 v 0.70177 h -1.57716 v 0.67042 h 1.48311 v 0.70176 h -1.48311 v 0.82476 h 1.63022 v 0.70176 h -2.55868 z m 5.90834,0 h 0.53537 l -1.27089,4.05867 h -0.53296 z"
         id="path2" />
      <path
         style="font-style:normal;font-weight:bold;font-family:'Noto Fangsong KSS Rotated';-inkscape-font-specification:'Noto Fangsong KSS Rotated Italic';stroke-width:0.8"
         d="m 125.87365,137.74446 q 0.2918,0 0.4172,-0.10852 0.12781,-0.10852 0.12781,-0.35692 0,-0.24598 -0.12781,-0.35208 -0.1254,-0.10611 -0.4172,-0.10611 h -0.39068 v 0.92363 z m -0.39068,0.64147 v 1.36254 h -0.92845 V 136.148 h 1.418 q 0.71141,0 1.0418,0.23874 0.33279,0.23875 0.33279,0.75482 0,0.35692 -0.17363,0.58602 -0.17122,0.22909 -0.51849,0.33762 0.19052,0.0434 0.34004,0.19774 0.15192,0.15193 0.30626,0.46302 l 0.50402,1.02251 h -0.98874 l -0.43891,-0.89469 q -0.13263,-0.2701 -0.27009,-0.36897 -0.13505,-0.0989 -0.36174,-0.0989 z m 2.87459,-2.23793 h 2.50562 v 0.70177 h -1.57717 v 0.67041 h 1.48312 v 0.70177 h -1.48312 v 0.82475 h 1.63022 v 0.70177 h -2.55867 z m 5.8794,0.11334 v 0.76206 q -0.29662,-0.13264 -0.57877,-0.20016 -0.28216,-0.0675 -0.53296,-0.0675 -0.3328,0 -0.49196,0.0916 -0.15916,0.0916 -0.15916,0.28457 0,0.14469 0.10611,0.22669 0.10852,0.0796 0.39067,0.13746 l 0.3955,0.0796 q 0.60048,0.12058 0.85369,0.36656 0.25322,0.24597 0.25322,0.69935 0,0.59566 -0.3545,0.88746 -0.35209,0.28938 -1.07798,0.28938 -0.34244,0 -0.68729,-0.0651 -0.34486,-0.0651 -0.68971,-0.19292 v -0.78376 q 0.34485,0.18328 0.66559,0.27733 0.32315,0.0916 0.62219,0.0916 0.30385,0 0.46543,-0.10129 0.16157,-0.10128 0.16157,-0.28939 0,-0.16881 -0.11093,-0.26045 -0.10852,-0.0916 -0.43649,-0.16398 l -0.35933,-0.0796 q -0.54019,-0.11576 -0.79099,-0.36897 -0.24839,-0.25322 -0.24839,-0.68248 0,-0.53778 0.34726,-0.82717 0.34727,-0.28938 0.99839,-0.28938 0.29663,0 0.61013,0.0458 0.3135,0.0434 0.64871,0.13263 z m 1.05145,-0.11334 h 0.92845 v 2.15835 q 0,0.44614 0.14469,0.63907 0.14711,0.19051 0.47749,0.19051 0.3328,0 0.47749,-0.19051 0.14711,-0.19293 0.14711,-0.63907 V 136.148 h 0.92845 v 2.15835 q 0,0.76447 -0.38344,1.13826 -0.38344,0.37379 -1.16961,0.37379 -0.78376,0 -1.1672,-0.37379 -0.38343,-0.37379 -0.38343,-1.13826 z m 4.01043,0 h 1.18167 l 0.81993,1.92684 0.82476,-1.92684 h 1.17926 v 3.60047 h -0.87782 v -2.63343 l -0.82957,1.94131 h -0.58843 l -0.82958,-1.94131 v 2.63343 h -0.88022 z m 4.91478,0 h 2.50562 v 0.70177 h -1.57717 v 0.67041 h 1.48311 v 0.70177 h -1.48311 v 0.82475 h 1.63022 v 0.70177 h -2.55867 z"
         id="path3" />
    </g>
    <path
       style="font-weight:bold;font-size:4.93889px;font-family:'Noto Fangsong KSS Rotated';-inkscape-font-specification:'Noto Fangsong KSS Rotated Italic';text-align:center;text-anchor:middle;fill:#1a1a1a;stroke-width:0.8;stroke-linecap:square;stroke-miterlimit:3.9;stroke-dasharray:0.799999, 2.4"
       d="m 117.77097,103.10138 v 0.76206 q -0.29663,-0.13264 -0.57878,-0.20016 -0.28215,-0.0675 -0.53296,-0.0675 -0.33279,0 -0.49196,0.0916 -0.15916,0.0916 -0.15916,0.28457 0,0.14469 0.10611,0.22669 0.10852,0.0796 0.39067,0.13745 l 0.3955,0.0796 q 0.60048,0.12057 0.8537,0.36655 0.25321,0.24598 0.25321,0.69936 0,0.59566 -0.3545,0.88746 -0.35209,0.28938 -1.07797,0.28938 -0.34244,0 -0.6873,-0.0651 -0.34485,-0.0651 -0.68971,-0.19292 v -0.78376 q 0.34486,0.18328 0.6656,0.27733 0.32315,0.0916 0.62218,0.0916 0.30386,0 0.46543,-0.10129 0.16158,-0.10128 0.16158,-0.28939 0,-0.16881 -0.11093,-0.26045 -0.10852,-0.0916 -0.4365,-0.16398 l -0.35932,-0.0796 q -0.54019,-0.11576 -0.791,-0.36897 -0.24839,-0.25322 -0.24839,-0.68248 0,-0.53778 0.34727,-0.82717 0.34726,-0.28938 0.99839,-0.28938 0.29662,0 0.61012,0.0458 0.31351,0.0434 0.64872,0.13263 z m 1.05144,-0.11334 h 2.50562 v 0.70176 h -1.57717 v 0.67042 h 1.48312 v 0.70177 h -1.48312 v 0.82475 h 1.63022 v 0.70177 h -2.55867 z m 3.37378,0 h 0.92846 v 2.8987 h 1.63022 v 0.70177 h -2.55868 z m 3.1471,0 h 2.50562 v 0.70176 h -1.57717 v 0.67042 h 1.48311 v 0.70177 h -1.48311 v 0.82475 h 1.63022 v 0.70177 h -2.55867 z m 6.22908,3.40272 q -0.25563,0.13264 -0.53296,0.20016 -0.27733,0.0675 -0.57878,0.0675 -0.89951,0 -1.42523,-0.5016 -0.52572,-0.50402 -0.52572,-1.36495 0,-0.86334 0.52572,-1.36495 0.52572,-0.50401 1.42523,-0.50401 0.30145,0 0.57878,0.0675 0.27733,0.0675 0.53296,0.20016 v 0.74517 q -0.25804,-0.17604 -0.50884,-0.25803 -0.25081,-0.082 -0.52814,-0.082 -0.49678,0 -0.78135,0.31833 -0.28456,0.31833 -0.28456,0.87781 0,0.55707 0.28456,0.8754 0.28457,0.31833 0.78135,0.31833 0.27733,0 0.52814,-0.082 0.2508,-0.082 0.50884,-0.25803 z m 0.34003,-3.40272 h 3.31831 v 0.70176 h -1.19372 v 2.89871 h -0.92845 v -2.89871 h -1.19614 z"
       id="text52"
       aria-label="SELECT" />
    <path
       style="font-weight:bold;font-size:3.52778px;font-family:'Noto Fangsong KSS Rotated';-inkscape-font-specification:'Noto Fangsong KSS Rotated Bold Italic';text-align:center;text-anchor:middle;fill:#1a1a1a;stroke-width:0.288;stroke-linecap:square;stroke-miterlimit:3.9"
       d="m 129.7479,94.601536 h 1.10071 q 0.49092,0 0.75275,0.218764 0.26355,0.217041 0.26355,0.620118 0,0.404799 -0.26355,0.623562 -0.26183,0.217041 -0.75275,0.217041 h -0.43753 v 0.892281 h -0.66318 z m 0.66318,0.480591 v 0.718303 h 0.3669 q 0.19293,0 0.298,-0.09302 0.10508,-0.09474 0.10508,-0.266995 0,-0.172255 -0.10508,-0.265273 -0.10507,-0.09302 -0.298,-0.09302 z m 3.09714,-0.04651 q -0.30317,0 -0.47025,0.223931 -0.16709,0.223931 -0.16709,0.630453 0,0.404799 0.16709,0.62873 0.16708,0.223931 0.47025,0.223931 0.30489,0 0.47198,-0.223931 0.16709,-0.223931 0.16709,-0.62873 0,-0.406522 -0.16709,-0.630453 -0.16709,-0.223931 -0.47198,-0.223931 z m 0,-0.480592 q 0.62012,0 0.97152,0.354846 0.3514,0.354845 0.3514,0.98013 0,0.623562 -0.3514,0.978408 -0.3514,0.354845 -0.97152,0.354845 -0.61839,0 -0.97152,-0.354845 -0.3514,-0.354846 -0.3514,-0.978408 0,-0.625285 0.3514,-0.98013 0.35313,-0.354846 0.97152,-0.354846 z m 1.60542,0.04651 h 0.63562 l 0.44442,1.868966 0.44097,-1.868966 h 0.63906 l 0.44098,1.868966 0.44441,-1.868966 h 0.63046 l -0.60634,2.571766 h -0.76481 l -0.46681,-1.955093 -0.46165,1.955093 h -0.76481 z m 4.11,0 h 1.78973 v 0.501262 h -1.12655 v 0.478869 h 1.05937 v 0.501261 h -1.05937 v 0.589112 h 1.16444 v 0.501262 h -1.82762 z m 3.35208,1.140328 q 0.20843,0 0.298,-0.07752 0.0913,-0.07752 0.0913,-0.254937 0,-0.1757 -0.0913,-0.251492 -0.0896,-0.07579 -0.298,-0.07579 h -0.27905 v 0.659737 z m -0.27905,0.458198 v 0.97324 h -0.66318 v -2.571766 h 1.01285 q 0.50816,0 0.74415,0.170533 0.23771,0.170532 0.23771,0.539157 0,0.254938 -0.12403,0.41858 -0.1223,0.163642 -0.37034,0.241157 0.13608,0.03101 0.24288,0.141249 0.10852,0.10852 0.21876,0.330729 l 0.36001,0.730361 h -0.70624 l -0.31351,-0.639066 q -0.0947,-0.192925 -0.19292,-0.26355 -0.0965,-0.07062 -0.25838,-0.07062 z"
       id="text54"
       aria-label="POWER" />
    <g
       id="text57"
       style="font-style:oblique;font-size:4.93889px;font-family:Norasi;-inkscape-font-specification:'Norasi Oblique';text-align:center;text-anchor:middle;fill:#1a1a1a;stroke-width:0.799999;stroke-linecap:square;stroke-miterlimit:3.9;stroke-dasharray:0.799999, 2.4"
       aria-label="MEC 22-3">
      <path
         style="font-style:normal;font-weight:bold;font-family:'Noto Fangsong KSS Rotated';-inkscape-font-specification:'Noto Fangsong KSS Rotated Bold';stroke-width:0.8"
         d="m 51.716069,95.050531 h 1.181668 l 0.819933,1.926842 0.824756,-1.926842 h 1.179256 v 3.60047 h -0.87781 v -2.633432 l -0.82958,1.941312 H 53.42587 l -0.829579,-1.941312 v 2.633432 h -0.880222 z m 4.914774,0 h 2.505619 v 0.701766 h -1.577165 v 0.670416 h 1.483114 v 0.701766 h -1.483114 v 0.824756 h 1.630219 v 0.701766 h -2.558673 z m 6.229079,3.402721 q -0.255627,0.132637 -0.532957,0.200161 -0.27733,0.06752 -0.578776,0.06752 -0.899515,0 -1.425236,-0.501606 -0.525722,-0.504017 -0.525722,-1.364947 0,-0.863341 0.525722,-1.364947 0.525721,-0.504017 1.425236,-0.504017 0.301446,0 0.578776,0.06752 0.27733,0.06752 0.532957,0.200161 v 0.745174 q -0.258038,-0.176045 -0.508841,-0.258038 -0.250803,-0.08199 -0.528133,-0.08199 -0.496783,0 -0.781348,0.318327 -0.284565,0.318327 -0.284565,0.87781 0,0.557072 0.284565,0.875399 0.284565,0.318327 0.781348,0.318327 0.27733,0 0.528133,-0.08199 0.250803,-0.08199 0.508841,-0.258038 z"
         id="path4" />
      <path
         style="font-style:normal;font-weight:bold;font-family:'Adwaita Sans';-inkscape-font-specification:'Adwaita Sans Bold';stroke-width:0.8"
         d="m 65.08821,98.651001 v -0.545014 l 1.316716,-1.126202 q 0.159163,-0.139871 0.284565,-0.262861 0.125401,-0.12299 0.195336,-0.258038 0.07235,-0.135048 0.07235,-0.301446 0,-0.171221 -0.07235,-0.296622 -0.06994,-0.127814 -0.20016,-0.197749 -0.127813,-0.06993 -0.306269,-0.06993 -0.192925,0 -0.332796,0.0844 -0.137459,0.08441 -0.214629,0.241157 -0.07476,0.15434 -0.07476,0.373793 H 65.07374 q 0,-0.390674 0.159164,-0.680062 0.161575,-0.2918 0.453375,-0.450963 0.291799,-0.161575 0.692119,-0.161575 0.36897,0 0.655947,0.137459 0.286976,0.13746 0.448551,0.390674 0.163987,0.250803 0.163987,0.590834 0,0.250803 -0.09405,0.458198 -0.09405,0.207395 -0.272507,0.402732 -0.176045,0.192925 -0.426848,0.407555 l -0.762055,0.663181 v 0.0048 h 1.572342 v 0.595657 z m 2.956582,0 v -0.545014 l 1.316716,-1.126202 q 0.159163,-0.139871 0.284565,-0.262861 0.125401,-0.12299 0.195337,-0.258038 0.07235,-0.135048 0.07235,-0.301446 0,-0.171221 -0.07235,-0.296622 -0.06994,-0.127814 -0.200161,-0.197749 -0.127813,-0.06993 -0.306269,-0.06993 -0.192925,0 -0.332796,0.0844 -0.137459,0.08441 -0.214629,0.241157 -0.07476,0.15434 -0.07476,0.373793 h -0.682474 q 0,-0.390674 0.159164,-0.680062 0.161575,-0.2918 0.453375,-0.450963 0.291799,-0.161575 0.692119,-0.161575 0.36897,0 0.655947,0.137459 0.286976,0.13746 0.448551,0.390674 0.163987,0.250803 0.163987,0.590834 0,0.250803 -0.09405,0.458198 -0.09405,0.207395 -0.272507,0.402732 -0.176045,0.192925 -0.426848,0.407555 l -0.762055,0.663181 v 0.0048 h 1.572342 v 0.595657 z m 4.67844,-2.081183 v 0.56913 h -1.632631 v -0.56913 z m 1.795224,2.139061 q -0.448551,0 -0.752409,-0.16881 -0.303857,-0.16881 -0.460609,-0.450963 -0.15434,-0.282154 -0.15434,-0.624596 h 0.709 q 0,0.207395 0.07717,0.356912 0.07958,0.149517 0.224275,0.229099 0.147106,0.07958 0.349678,0.07958 0.192925,0 0.337619,-0.06511 0.144694,-0.06752 0.226687,-0.188102 0.08199,-0.120579 0.08199,-0.279742 0,-0.15434 -0.08923,-0.267684 -0.08682,-0.113344 -0.24598,-0.176044 -0.156752,-0.0627 -0.371382,-0.0627 h -0.320738 v -0.542603 h 0.320738 q 0.195337,0 0.33762,-0.05788 0.142282,-0.05788 0.219452,-0.161575 0.07717,-0.106109 0.07717,-0.250803 0,-0.154341 -0.07235,-0.270096 -0.07235,-0.115755 -0.202572,-0.178456 -0.127813,-0.0627 -0.299034,-0.0627 -0.176045,0 -0.308681,0.06994 -0.132636,0.06994 -0.207395,0.197748 -0.07235,0.127813 -0.07235,0.301446 h -0.699354 q 0,-0.327973 0.156751,-0.583599 0.159164,-0.258038 0.448552,-0.405143 0.289388,-0.147106 0.682474,-0.147106 0.368969,0 0.653534,0.130225 0.286977,0.127813 0.448552,0.3545 0.163986,0.224276 0.163986,0.518487 0,0.301446 -0.190513,0.508841 -0.190514,0.204983 -0.494372,0.267684 v 0.0072 q 0.250803,0.03135 0.429259,0.154341 0.178456,0.120578 0.272507,0.301446 0.09405,0.180867 0.09405,0.395497 0,0.30868 -0.176045,0.552249 -0.173633,0.241156 -0.482313,0.381027 -0.308681,0.13746 -0.711413,0.13746 z"
         id="path5" />
    </g>
    <path
       style="fill:#1a1a1a;fill-opacity:1;stroke:none;stroke-width:0.707964;stroke-linecap:square;stroke-miterlimit:3.9;stroke-dasharray:0.707964, 2.12389"
       d="m 43.13585,158.08317 c -0.6891,-0.52708 -1.66515,-1.59614 -2.169,-2.37569 -1.8128,-2.80476 -1.70655,-1.35799 -1.79174,-24.39685 -0.049,-13.26358 0.0103,-21.31285 0.16653,-22.59494 0.31522,-2.58658 1.27899,-4.58797 3.04022,-6.31342 1.19218,-1.16795 1.31108,-1.23218 1.38123,-0.74619 0.0538,0.37269 -0.2488,0.87982 -1.01149,1.69519 -0.59854,0.63989 -1.37064,1.76591 -1.71577,2.50228 l -0.62752,1.33885 v 22.71693 22.71693 l 0.76661,1.55722 c 0.5048,1.02539 1.21016,1.9626 2.06533,2.74417 0.88849,0.81201 1.27499,1.33333 1.22361,1.65039 -0.0674,0.41589 -0.20371,0.36508 -1.32801,-0.49487 z"
       id="path57" />
  </g>
</svg>
