%TF.GenerationSoftware,KiCad,Pcbnew,10.0.0*%
%TF.CreationDate,2026-05-04T11:50:20+02:00*%
%TF.ProjectId,IHM2_2copperZones,49484d32-5f32-4636-9f70-7065725a6f6e,4*%
%TF.SameCoordinates,Original*%
%TF.FileFunction,Copper,L1,Top*%
%TF.FilePolarity,Positive*%
%FSLAX46Y46*%
G04 Gerber Fmt 4.6, Leading zero omitted, Abs format (unit mm)*
G04 Created by KiCad (PCBNEW 10.0.0) date 2026-05-04 11:50:20*
%MOMM*%
%LPD*%
G01*
G04 APERTURE LIST*
G04 Aperture macros list*
%AMRoundRect*
0 Rectangle with rounded corners*
0 $1 Rounding radius*
0 $2 $3 $4 $5 $6 $7 $8 $9 X,Y pos of 4 corners*
0 Add a 4 corners polygon primitive as box body*
4,1,4,$2,$3,$4,$5,$6,$7,$8,$9,$2,$3,0*
0 Add four circle primitives for the rounded corners*
1,1,$1+$1,$2,$3*
1,1,$1+$1,$4,$5*
1,1,$1+$1,$6,$7*
1,1,$1+$1,$8,$9*
0 Add four rect primitives between the rounded corners*
20,1,$1+$1,$2,$3,$4,$5,0*
20,1,$1+$1,$4,$5,$6,$7,0*
20,1,$1+$1,$6,$7,$8,$9,0*
20,1,$1+$1,$8,$9,$2,$3,0*%
G04 Aperture macros list end*
%ADD10C,0.150000*%
%ADD11C,0.300000*%
%ADD12C,0.400000*%
%TA.AperFunction,SMDPad,CuDef*%
%ADD13RoundRect,0.250000X-0.375000X-0.625000X0.375000X-0.625000X0.375000X0.625000X-0.375000X0.625000X0*%
%TD*%
%TA.AperFunction,ComponentPad*%
%ADD14C,2.000000*%
%TD*%
%TA.AperFunction,ComponentPad*%
%ADD15RoundRect,0.190500X1.079500X0.444500X-1.079500X0.444500X-1.079500X-0.444500X1.079500X-0.444500X0*%
%TD*%
%TA.AperFunction,SMDPad,CuDef*%
%ADD16RoundRect,0.250000X0.312500X0.625000X-0.312500X0.625000X-0.312500X-0.625000X0.312500X-0.625000X0*%
%TD*%
%TA.AperFunction,SMDPad,CuDef*%
%ADD17RoundRect,0.250000X-0.325000X-0.650000X0.325000X-0.650000X0.325000X0.650000X-0.325000X0.650000X0*%
%TD*%
%TA.AperFunction,ComponentPad*%
%ADD18C,1.500000*%
%TD*%
%TA.AperFunction,ComponentPad*%
%ADD19C,1.700000*%
%TD*%
%TA.AperFunction,SMDPad,CuDef*%
%ADD20RoundRect,0.250000X-0.650000X0.325000X-0.650000X-0.325000X0.650000X-0.325000X0.650000X0.325000X0*%
%TD*%
%TA.AperFunction,SMDPad,CuDef*%
%ADD21RoundRect,0.250000X0.650000X-0.325000X0.650000X0.325000X-0.650000X0.325000X-0.650000X-0.325000X0*%
%TD*%
%TA.AperFunction,Conductor*%
%ADD22C,0.600000*%
%TD*%
G04 APERTURE END LIST*
D10*
X177002200Y-166007200D02*
X285002200Y-166007200D01*
X285002200Y-198007200D01*
X177002200Y-198007200D01*
X177002200Y-166007200D01*
X10000000Y-10000000D02*
X287002200Y-10000000D01*
X287002200Y-200007200D01*
X10000000Y-200007200D01*
X10000000Y-10000000D01*
X12000000Y-12000000D02*
X285002200Y-12000000D01*
X285002200Y-198007200D01*
X12000000Y-198007200D01*
X12000000Y-12000000D01*
X60000000Y-12000000D02*
X60000000Y-10000000D01*
X110000000Y-12000000D02*
X110000000Y-10000000D01*
X160000000Y-12000000D02*
X160000000Y-10000000D01*
X210000000Y-12000000D02*
X210000000Y-10000000D01*
X260000000Y-12000000D02*
X260000000Y-10000000D01*
X36089160Y-11593604D02*
X35346303Y-11593604D01*
X35717731Y-11593604D02*
X35717731Y-10293604D01*
X35717731Y-10293604D02*
X35593922Y-10479319D01*
X35593922Y-10479319D02*
X35470112Y-10603128D01*
X35470112Y-10603128D02*
X35346303Y-10665033D01*
X85346303Y-10417414D02*
X85408207Y-10355509D01*
X85408207Y-10355509D02*
X85532017Y-10293604D01*
X85532017Y-10293604D02*
X85841541Y-10293604D01*
X85841541Y-10293604D02*
X85965350Y-10355509D01*
X85965350Y-10355509D02*
X86027255Y-10417414D01*
X86027255Y-10417414D02*
X86089160Y-10541223D01*
X86089160Y-10541223D02*
X86089160Y-10665033D01*
X86089160Y-10665033D02*
X86027255Y-10850747D01*
X86027255Y-10850747D02*
X85284398Y-11593604D01*
X85284398Y-11593604D02*
X86089160Y-11593604D01*
X135284398Y-10293604D02*
X136089160Y-10293604D01*
X136089160Y-10293604D02*
X135655826Y-10788842D01*
X135655826Y-10788842D02*
X135841541Y-10788842D01*
X135841541Y-10788842D02*
X135965350Y-10850747D01*
X135965350Y-10850747D02*
X136027255Y-10912652D01*
X136027255Y-10912652D02*
X136089160Y-11036461D01*
X136089160Y-11036461D02*
X136089160Y-11345985D01*
X136089160Y-11345985D02*
X136027255Y-11469795D01*
X136027255Y-11469795D02*
X135965350Y-11531700D01*
X135965350Y-11531700D02*
X135841541Y-11593604D01*
X135841541Y-11593604D02*
X135470112Y-11593604D01*
X135470112Y-11593604D02*
X135346303Y-11531700D01*
X135346303Y-11531700D02*
X135284398Y-11469795D01*
X185965350Y-10726938D02*
X185965350Y-11593604D01*
X185655826Y-10231700D02*
X185346303Y-11160271D01*
X185346303Y-11160271D02*
X186151064Y-11160271D01*
X236027255Y-10293604D02*
X235408207Y-10293604D01*
X235408207Y-10293604D02*
X235346303Y-10912652D01*
X235346303Y-10912652D02*
X235408207Y-10850747D01*
X235408207Y-10850747D02*
X235532017Y-10788842D01*
X235532017Y-10788842D02*
X235841541Y-10788842D01*
X235841541Y-10788842D02*
X235965350Y-10850747D01*
X235965350Y-10850747D02*
X236027255Y-10912652D01*
X236027255Y-10912652D02*
X236089160Y-11036461D01*
X236089160Y-11036461D02*
X236089160Y-11345985D01*
X236089160Y-11345985D02*
X236027255Y-11469795D01*
X236027255Y-11469795D02*
X235965350Y-11531700D01*
X235965350Y-11531700D02*
X235841541Y-11593604D01*
X235841541Y-11593604D02*
X235532017Y-11593604D01*
X235532017Y-11593604D02*
X235408207Y-11531700D01*
X235408207Y-11531700D02*
X235346303Y-11469795D01*
X285965350Y-10293604D02*
X285717731Y-10293604D01*
X285717731Y-10293604D02*
X285593922Y-10355509D01*
X285593922Y-10355509D02*
X285532017Y-10417414D01*
X285532017Y-10417414D02*
X285408207Y-10603128D01*
X285408207Y-10603128D02*
X285346303Y-10850747D01*
X285346303Y-10850747D02*
X285346303Y-11345985D01*
X285346303Y-11345985D02*
X285408207Y-11469795D01*
X285408207Y-11469795D02*
X285470112Y-11531700D01*
X285470112Y-11531700D02*
X285593922Y-11593604D01*
X285593922Y-11593604D02*
X285841541Y-11593604D01*
X285841541Y-11593604D02*
X285965350Y-11531700D01*
X285965350Y-11531700D02*
X286027255Y-11469795D01*
X286027255Y-11469795D02*
X286089160Y-11345985D01*
X286089160Y-11345985D02*
X286089160Y-11036461D01*
X286089160Y-11036461D02*
X286027255Y-10912652D01*
X286027255Y-10912652D02*
X285965350Y-10850747D01*
X285965350Y-10850747D02*
X285841541Y-10788842D01*
X285841541Y-10788842D02*
X285593922Y-10788842D01*
X285593922Y-10788842D02*
X285470112Y-10850747D01*
X285470112Y-10850747D02*
X285408207Y-10912652D01*
X285408207Y-10912652D02*
X285346303Y-11036461D01*
X60000000Y-198007200D02*
X60000000Y-200007200D01*
X110000000Y-198007200D02*
X110000000Y-200007200D01*
X160000000Y-198007200D02*
X160000000Y-200007200D01*
X210000000Y-198007200D02*
X210000000Y-200007200D01*
X260000000Y-198007200D02*
X260000000Y-200007200D01*
X36089160Y-199600804D02*
X35346303Y-199600804D01*
X35717731Y-199600804D02*
X35717731Y-198300804D01*
X35717731Y-198300804D02*
X35593922Y-198486519D01*
X35593922Y-198486519D02*
X35470112Y-198610328D01*
X35470112Y-198610328D02*
X35346303Y-198672233D01*
X85346303Y-198424614D02*
X85408207Y-198362709D01*
X85408207Y-198362709D02*
X85532017Y-198300804D01*
X85532017Y-198300804D02*
X85841541Y-198300804D01*
X85841541Y-198300804D02*
X85965350Y-198362709D01*
X85965350Y-198362709D02*
X86027255Y-198424614D01*
X86027255Y-198424614D02*
X86089160Y-198548423D01*
X86089160Y-198548423D02*
X86089160Y-198672233D01*
X86089160Y-198672233D02*
X86027255Y-198857947D01*
X86027255Y-198857947D02*
X85284398Y-199600804D01*
X85284398Y-199600804D02*
X86089160Y-199600804D01*
X135284398Y-198300804D02*
X136089160Y-198300804D01*
X136089160Y-198300804D02*
X135655826Y-198796042D01*
X135655826Y-198796042D02*
X135841541Y-198796042D01*
X135841541Y-198796042D02*
X135965350Y-198857947D01*
X135965350Y-198857947D02*
X136027255Y-198919852D01*
X136027255Y-198919852D02*
X136089160Y-199043661D01*
X136089160Y-199043661D02*
X136089160Y-199353185D01*
X136089160Y-199353185D02*
X136027255Y-199476995D01*
X136027255Y-199476995D02*
X135965350Y-199538900D01*
X135965350Y-199538900D02*
X135841541Y-199600804D01*
X135841541Y-199600804D02*
X135470112Y-199600804D01*
X135470112Y-199600804D02*
X135346303Y-199538900D01*
X135346303Y-199538900D02*
X135284398Y-199476995D01*
X185965350Y-198734138D02*
X185965350Y-199600804D01*
X185655826Y-198238900D02*
X185346303Y-199167471D01*
X185346303Y-199167471D02*
X186151064Y-199167471D01*
X236027255Y-198300804D02*
X235408207Y-198300804D01*
X235408207Y-198300804D02*
X235346303Y-198919852D01*
X235346303Y-198919852D02*
X235408207Y-198857947D01*
X235408207Y-198857947D02*
X235532017Y-198796042D01*
X235532017Y-198796042D02*
X235841541Y-198796042D01*
X235841541Y-198796042D02*
X235965350Y-198857947D01*
X235965350Y-198857947D02*
X236027255Y-198919852D01*
X236027255Y-198919852D02*
X236089160Y-199043661D01*
X236089160Y-199043661D02*
X236089160Y-199353185D01*
X236089160Y-199353185D02*
X236027255Y-199476995D01*
X236027255Y-199476995D02*
X235965350Y-199538900D01*
X235965350Y-199538900D02*
X235841541Y-199600804D01*
X235841541Y-199600804D02*
X235532017Y-199600804D01*
X235532017Y-199600804D02*
X235408207Y-199538900D01*
X235408207Y-199538900D02*
X235346303Y-199476995D01*
X285965350Y-198300804D02*
X285717731Y-198300804D01*
X285717731Y-198300804D02*
X285593922Y-198362709D01*
X285593922Y-198362709D02*
X285532017Y-198424614D01*
X285532017Y-198424614D02*
X285408207Y-198610328D01*
X285408207Y-198610328D02*
X285346303Y-198857947D01*
X285346303Y-198857947D02*
X285346303Y-199353185D01*
X285346303Y-199353185D02*
X285408207Y-199476995D01*
X285408207Y-199476995D02*
X285470112Y-199538900D01*
X285470112Y-199538900D02*
X285593922Y-199600804D01*
X285593922Y-199600804D02*
X285841541Y-199600804D01*
X285841541Y-199600804D02*
X285965350Y-199538900D01*
X285965350Y-199538900D02*
X286027255Y-199476995D01*
X286027255Y-199476995D02*
X286089160Y-199353185D01*
X286089160Y-199353185D02*
X286089160Y-199043661D01*
X286089160Y-199043661D02*
X286027255Y-198919852D01*
X286027255Y-198919852D02*
X285965350Y-198857947D01*
X285965350Y-198857947D02*
X285841541Y-198796042D01*
X285841541Y-198796042D02*
X285593922Y-198796042D01*
X285593922Y-198796042D02*
X285470112Y-198857947D01*
X285470112Y-198857947D02*
X285408207Y-198919852D01*
X285408207Y-198919852D02*
X285346303Y-199043661D01*
X10000000Y-60000000D02*
X12000000Y-60000000D01*
X10000000Y-110000000D02*
X12000000Y-110000000D01*
X10000000Y-160000000D02*
X12000000Y-160000000D01*
X10690476Y-35222176D02*
X11309523Y-35222176D01*
X10566666Y-35593604D02*
X10999999Y-34293604D01*
X10999999Y-34293604D02*
X11433333Y-35593604D01*
X11092857Y-84912652D02*
X11278571Y-84974557D01*
X11278571Y-84974557D02*
X11340476Y-85036461D01*
X11340476Y-85036461D02*
X11402380Y-85160271D01*
X11402380Y-85160271D02*
X11402380Y-85345985D01*
X11402380Y-85345985D02*
X11340476Y-85469795D01*
X11340476Y-85469795D02*
X11278571Y-85531700D01*
X11278571Y-85531700D02*
X11154761Y-85593604D01*
X11154761Y-85593604D02*
X10659523Y-85593604D01*
X10659523Y-85593604D02*
X10659523Y-84293604D01*
X10659523Y-84293604D02*
X11092857Y-84293604D01*
X11092857Y-84293604D02*
X11216666Y-84355509D01*
X11216666Y-84355509D02*
X11278571Y-84417414D01*
X11278571Y-84417414D02*
X11340476Y-84541223D01*
X11340476Y-84541223D02*
X11340476Y-84665033D01*
X11340476Y-84665033D02*
X11278571Y-84788842D01*
X11278571Y-84788842D02*
X11216666Y-84850747D01*
X11216666Y-84850747D02*
X11092857Y-84912652D01*
X11092857Y-84912652D02*
X10659523Y-84912652D01*
X11402380Y-135469795D02*
X11340476Y-135531700D01*
X11340476Y-135531700D02*
X11154761Y-135593604D01*
X11154761Y-135593604D02*
X11030952Y-135593604D01*
X11030952Y-135593604D02*
X10845238Y-135531700D01*
X10845238Y-135531700D02*
X10721428Y-135407890D01*
X10721428Y-135407890D02*
X10659523Y-135284080D01*
X10659523Y-135284080D02*
X10597619Y-135036461D01*
X10597619Y-135036461D02*
X10597619Y-134850747D01*
X10597619Y-134850747D02*
X10659523Y-134603128D01*
X10659523Y-134603128D02*
X10721428Y-134479319D01*
X10721428Y-134479319D02*
X10845238Y-134355509D01*
X10845238Y-134355509D02*
X11030952Y-134293604D01*
X11030952Y-134293604D02*
X11154761Y-134293604D01*
X11154761Y-134293604D02*
X11340476Y-134355509D01*
X11340476Y-134355509D02*
X11402380Y-134417414D01*
X10659523Y-185593604D02*
X10659523Y-184293604D01*
X10659523Y-184293604D02*
X10969047Y-184293604D01*
X10969047Y-184293604D02*
X11154761Y-184355509D01*
X11154761Y-184355509D02*
X11278571Y-184479319D01*
X11278571Y-184479319D02*
X11340476Y-184603128D01*
X11340476Y-184603128D02*
X11402380Y-184850747D01*
X11402380Y-184850747D02*
X11402380Y-185036461D01*
X11402380Y-185036461D02*
X11340476Y-185284080D01*
X11340476Y-185284080D02*
X11278571Y-185407890D01*
X11278571Y-185407890D02*
X11154761Y-185531700D01*
X11154761Y-185531700D02*
X10969047Y-185593604D01*
X10969047Y-185593604D02*
X10659523Y-185593604D01*
X287002200Y-60000000D02*
X285002200Y-60000000D01*
X287002200Y-110000000D02*
X285002200Y-110000000D01*
X287002200Y-160000000D02*
X285002200Y-160000000D01*
X285692676Y-35222176D02*
X286311723Y-35222176D01*
X285568866Y-35593604D02*
X286002199Y-34293604D01*
X286002199Y-34293604D02*
X286435533Y-35593604D01*
X286095057Y-84912652D02*
X286280771Y-84974557D01*
X286280771Y-84974557D02*
X286342676Y-85036461D01*
X286342676Y-85036461D02*
X286404580Y-85160271D01*
X286404580Y-85160271D02*
X286404580Y-85345985D01*
X286404580Y-85345985D02*
X286342676Y-85469795D01*
X286342676Y-85469795D02*
X286280771Y-85531700D01*
X286280771Y-85531700D02*
X286156961Y-85593604D01*
X286156961Y-85593604D02*
X285661723Y-85593604D01*
X285661723Y-85593604D02*
X285661723Y-84293604D01*
X285661723Y-84293604D02*
X286095057Y-84293604D01*
X286095057Y-84293604D02*
X286218866Y-84355509D01*
X286218866Y-84355509D02*
X286280771Y-84417414D01*
X286280771Y-84417414D02*
X286342676Y-84541223D01*
X286342676Y-84541223D02*
X286342676Y-84665033D01*
X286342676Y-84665033D02*
X286280771Y-84788842D01*
X286280771Y-84788842D02*
X286218866Y-84850747D01*
X286218866Y-84850747D02*
X286095057Y-84912652D01*
X286095057Y-84912652D02*
X285661723Y-84912652D01*
X286404580Y-135469795D02*
X286342676Y-135531700D01*
X286342676Y-135531700D02*
X286156961Y-135593604D01*
X286156961Y-135593604D02*
X286033152Y-135593604D01*
X286033152Y-135593604D02*
X285847438Y-135531700D01*
X285847438Y-135531700D02*
X285723628Y-135407890D01*
X285723628Y-135407890D02*
X285661723Y-135284080D01*
X285661723Y-135284080D02*
X285599819Y-135036461D01*
X285599819Y-135036461D02*
X285599819Y-134850747D01*
X285599819Y-134850747D02*
X285661723Y-134603128D01*
X285661723Y-134603128D02*
X285723628Y-134479319D01*
X285723628Y-134479319D02*
X285847438Y-134355509D01*
X285847438Y-134355509D02*
X286033152Y-134293604D01*
X286033152Y-134293604D02*
X286156961Y-134293604D01*
X286156961Y-134293604D02*
X286342676Y-134355509D01*
X286342676Y-134355509D02*
X286404580Y-134417414D01*
X285661723Y-185593604D02*
X285661723Y-184293604D01*
X285661723Y-184293604D02*
X285971247Y-184293604D01*
X285971247Y-184293604D02*
X286156961Y-184355509D01*
X286156961Y-184355509D02*
X286280771Y-184479319D01*
X286280771Y-184479319D02*
X286342676Y-184603128D01*
X286342676Y-184603128D02*
X286404580Y-184850747D01*
X286404580Y-184850747D02*
X286404580Y-185036461D01*
X286404580Y-185036461D02*
X286342676Y-185284080D01*
X286342676Y-185284080D02*
X286280771Y-185407890D01*
X286280771Y-185407890D02*
X286156961Y-185531700D01*
X286156961Y-185531700D02*
X285971247Y-185593604D01*
X285971247Y-185593604D02*
X285661723Y-185593604D01*
X200458026Y-193793328D02*
X200458026Y-192293328D01*
X200458026Y-192293328D02*
X200815169Y-192293328D01*
X200815169Y-192293328D02*
X201029455Y-192364757D01*
X201029455Y-192364757D02*
X201172312Y-192507614D01*
X201172312Y-192507614D02*
X201243741Y-192650471D01*
X201243741Y-192650471D02*
X201315169Y-192936185D01*
X201315169Y-192936185D02*
X201315169Y-193150471D01*
X201315169Y-193150471D02*
X201243741Y-193436185D01*
X201243741Y-193436185D02*
X201172312Y-193579042D01*
X201172312Y-193579042D02*
X201029455Y-193721900D01*
X201029455Y-193721900D02*
X200815169Y-193793328D01*
X200815169Y-193793328D02*
X200458026Y-193793328D01*
X202600884Y-193793328D02*
X202600884Y-193007614D01*
X202600884Y-193007614D02*
X202529455Y-192864757D01*
X202529455Y-192864757D02*
X202386598Y-192793328D01*
X202386598Y-192793328D02*
X202100884Y-192793328D01*
X202100884Y-192793328D02*
X201958026Y-192864757D01*
X202600884Y-193721900D02*
X202458026Y-193793328D01*
X202458026Y-193793328D02*
X202100884Y-193793328D01*
X202100884Y-193793328D02*
X201958026Y-193721900D01*
X201958026Y-193721900D02*
X201886598Y-193579042D01*
X201886598Y-193579042D02*
X201886598Y-193436185D01*
X201886598Y-193436185D02*
X201958026Y-193293328D01*
X201958026Y-193293328D02*
X202100884Y-193221900D01*
X202100884Y-193221900D02*
X202458026Y-193221900D01*
X202458026Y-193221900D02*
X202600884Y-193150471D01*
X203100884Y-192793328D02*
X203672312Y-192793328D01*
X203315169Y-192293328D02*
X203315169Y-193579042D01*
X203315169Y-193579042D02*
X203386598Y-193721900D01*
X203386598Y-193721900D02*
X203529455Y-193793328D01*
X203529455Y-193793328D02*
X203672312Y-193793328D01*
X204743741Y-193721900D02*
X204600884Y-193793328D01*
X204600884Y-193793328D02*
X204315170Y-193793328D01*
X204315170Y-193793328D02*
X204172312Y-193721900D01*
X204172312Y-193721900D02*
X204100884Y-193579042D01*
X204100884Y-193579042D02*
X204100884Y-193007614D01*
X204100884Y-193007614D02*
X204172312Y-192864757D01*
X204172312Y-192864757D02*
X204315170Y-192793328D01*
X204315170Y-192793328D02*
X204600884Y-192793328D01*
X204600884Y-192793328D02*
X204743741Y-192864757D01*
X204743741Y-192864757D02*
X204815170Y-193007614D01*
X204815170Y-193007614D02*
X204815170Y-193150471D01*
X204815170Y-193150471D02*
X204100884Y-193293328D01*
X205458026Y-193650471D02*
X205529455Y-193721900D01*
X205529455Y-193721900D02*
X205458026Y-193793328D01*
X205458026Y-193793328D02*
X205386598Y-193721900D01*
X205386598Y-193721900D02*
X205458026Y-193650471D01*
X205458026Y-193650471D02*
X205458026Y-193793328D01*
X205458026Y-192864757D02*
X205529455Y-192936185D01*
X205529455Y-192936185D02*
X205458026Y-193007614D01*
X205458026Y-193007614D02*
X205386598Y-192936185D01*
X205386598Y-192936185D02*
X205458026Y-192864757D01*
X205458026Y-192864757D02*
X205458026Y-193007614D01*
X207243741Y-192436185D02*
X207315169Y-192364757D01*
X207315169Y-192364757D02*
X207458027Y-192293328D01*
X207458027Y-192293328D02*
X207815169Y-192293328D01*
X207815169Y-192293328D02*
X207958027Y-192364757D01*
X207958027Y-192364757D02*
X208029455Y-192436185D01*
X208029455Y-192436185D02*
X208100884Y-192579042D01*
X208100884Y-192579042D02*
X208100884Y-192721900D01*
X208100884Y-192721900D02*
X208029455Y-192936185D01*
X208029455Y-192936185D02*
X207172312Y-193793328D01*
X207172312Y-193793328D02*
X208100884Y-193793328D01*
X209029455Y-192293328D02*
X209172312Y-192293328D01*
X209172312Y-192293328D02*
X209315169Y-192364757D01*
X209315169Y-192364757D02*
X209386598Y-192436185D01*
X209386598Y-192436185D02*
X209458026Y-192579042D01*
X209458026Y-192579042D02*
X209529455Y-192864757D01*
X209529455Y-192864757D02*
X209529455Y-193221900D01*
X209529455Y-193221900D02*
X209458026Y-193507614D01*
X209458026Y-193507614D02*
X209386598Y-193650471D01*
X209386598Y-193650471D02*
X209315169Y-193721900D01*
X209315169Y-193721900D02*
X209172312Y-193793328D01*
X209172312Y-193793328D02*
X209029455Y-193793328D01*
X209029455Y-193793328D02*
X208886598Y-193721900D01*
X208886598Y-193721900D02*
X208815169Y-193650471D01*
X208815169Y-193650471D02*
X208743740Y-193507614D01*
X208743740Y-193507614D02*
X208672312Y-193221900D01*
X208672312Y-193221900D02*
X208672312Y-192864757D01*
X208672312Y-192864757D02*
X208743740Y-192579042D01*
X208743740Y-192579042D02*
X208815169Y-192436185D01*
X208815169Y-192436185D02*
X208886598Y-192364757D01*
X208886598Y-192364757D02*
X209029455Y-192293328D01*
X210100883Y-192436185D02*
X210172311Y-192364757D01*
X210172311Y-192364757D02*
X210315169Y-192293328D01*
X210315169Y-192293328D02*
X210672311Y-192293328D01*
X210672311Y-192293328D02*
X210815169Y-192364757D01*
X210815169Y-192364757D02*
X210886597Y-192436185D01*
X210886597Y-192436185D02*
X210958026Y-192579042D01*
X210958026Y-192579042D02*
X210958026Y-192721900D01*
X210958026Y-192721900D02*
X210886597Y-192936185D01*
X210886597Y-192936185D02*
X210029454Y-193793328D01*
X210029454Y-193793328D02*
X210958026Y-193793328D01*
X212243740Y-192293328D02*
X211958025Y-192293328D01*
X211958025Y-192293328D02*
X211815168Y-192364757D01*
X211815168Y-192364757D02*
X211743740Y-192436185D01*
X211743740Y-192436185D02*
X211600882Y-192650471D01*
X211600882Y-192650471D02*
X211529454Y-192936185D01*
X211529454Y-192936185D02*
X211529454Y-193507614D01*
X211529454Y-193507614D02*
X211600882Y-193650471D01*
X211600882Y-193650471D02*
X211672311Y-193721900D01*
X211672311Y-193721900D02*
X211815168Y-193793328D01*
X211815168Y-193793328D02*
X212100882Y-193793328D01*
X212100882Y-193793328D02*
X212243740Y-193721900D01*
X212243740Y-193721900D02*
X212315168Y-193650471D01*
X212315168Y-193650471D02*
X212386597Y-193507614D01*
X212386597Y-193507614D02*
X212386597Y-193150471D01*
X212386597Y-193150471D02*
X212315168Y-193007614D01*
X212315168Y-193007614D02*
X212243740Y-192936185D01*
X212243740Y-192936185D02*
X212100882Y-192864757D01*
X212100882Y-192864757D02*
X211815168Y-192864757D01*
X211815168Y-192864757D02*
X211672311Y-192936185D01*
X211672311Y-192936185D02*
X211600882Y-193007614D01*
X211600882Y-193007614D02*
X211529454Y-193150471D01*
X213029453Y-193221900D02*
X214172311Y-193221900D01*
X215172311Y-192293328D02*
X215315168Y-192293328D01*
X215315168Y-192293328D02*
X215458025Y-192364757D01*
X215458025Y-192364757D02*
X215529454Y-192436185D01*
X215529454Y-192436185D02*
X215600882Y-192579042D01*
X215600882Y-192579042D02*
X215672311Y-192864757D01*
X215672311Y-192864757D02*
X215672311Y-193221900D01*
X215672311Y-193221900D02*
X215600882Y-193507614D01*
X215600882Y-193507614D02*
X215529454Y-193650471D01*
X215529454Y-193650471D02*
X215458025Y-193721900D01*
X215458025Y-193721900D02*
X215315168Y-193793328D01*
X215315168Y-193793328D02*
X215172311Y-193793328D01*
X215172311Y-193793328D02*
X215029454Y-193721900D01*
X215029454Y-193721900D02*
X214958025Y-193650471D01*
X214958025Y-193650471D02*
X214886596Y-193507614D01*
X214886596Y-193507614D02*
X214815168Y-193221900D01*
X214815168Y-193221900D02*
X214815168Y-192864757D01*
X214815168Y-192864757D02*
X214886596Y-192579042D01*
X214886596Y-192579042D02*
X214958025Y-192436185D01*
X214958025Y-192436185D02*
X215029454Y-192364757D01*
X215029454Y-192364757D02*
X215172311Y-192293328D01*
X217029453Y-192293328D02*
X216315167Y-192293328D01*
X216315167Y-192293328D02*
X216243739Y-193007614D01*
X216243739Y-193007614D02*
X216315167Y-192936185D01*
X216315167Y-192936185D02*
X216458025Y-192864757D01*
X216458025Y-192864757D02*
X216815167Y-192864757D01*
X216815167Y-192864757D02*
X216958025Y-192936185D01*
X216958025Y-192936185D02*
X217029453Y-193007614D01*
X217029453Y-193007614D02*
X217100882Y-193150471D01*
X217100882Y-193150471D02*
X217100882Y-193507614D01*
X217100882Y-193507614D02*
X217029453Y-193650471D01*
X217029453Y-193650471D02*
X216958025Y-193721900D01*
X216958025Y-193721900D02*
X216815167Y-193793328D01*
X216815167Y-193793328D02*
X216458025Y-193793328D01*
X216458025Y-193793328D02*
X216315167Y-193721900D01*
X216315167Y-193721900D02*
X216243739Y-193650471D01*
X217743738Y-193221900D02*
X218886596Y-193221900D01*
X219886596Y-192293328D02*
X220029453Y-192293328D01*
X220029453Y-192293328D02*
X220172310Y-192364757D01*
X220172310Y-192364757D02*
X220243739Y-192436185D01*
X220243739Y-192436185D02*
X220315167Y-192579042D01*
X220315167Y-192579042D02*
X220386596Y-192864757D01*
X220386596Y-192864757D02*
X220386596Y-193221900D01*
X220386596Y-193221900D02*
X220315167Y-193507614D01*
X220315167Y-193507614D02*
X220243739Y-193650471D01*
X220243739Y-193650471D02*
X220172310Y-193721900D01*
X220172310Y-193721900D02*
X220029453Y-193793328D01*
X220029453Y-193793328D02*
X219886596Y-193793328D01*
X219886596Y-193793328D02*
X219743739Y-193721900D01*
X219743739Y-193721900D02*
X219672310Y-193650471D01*
X219672310Y-193650471D02*
X219600881Y-193507614D01*
X219600881Y-193507614D02*
X219529453Y-193221900D01*
X219529453Y-193221900D02*
X219529453Y-192864757D01*
X219529453Y-192864757D02*
X219600881Y-192579042D01*
X219600881Y-192579042D02*
X219672310Y-192436185D01*
X219672310Y-192436185D02*
X219743739Y-192364757D01*
X219743739Y-192364757D02*
X219886596Y-192293328D01*
X221672310Y-192793328D02*
X221672310Y-193793328D01*
X221315167Y-192221900D02*
X220958024Y-193293328D01*
X220958024Y-193293328D02*
X221886595Y-193293328D01*
X177002200Y-194507200D02*
X285002200Y-194507200D01*
X178458026Y-196593328D02*
X178458026Y-195093328D01*
X179315169Y-196593328D02*
X178672312Y-195736185D01*
X179315169Y-195093328D02*
X178458026Y-195950471D01*
X179958026Y-196593328D02*
X179958026Y-195593328D01*
X179958026Y-195093328D02*
X179886598Y-195164757D01*
X179886598Y-195164757D02*
X179958026Y-195236185D01*
X179958026Y-195236185D02*
X180029455Y-195164757D01*
X180029455Y-195164757D02*
X179958026Y-195093328D01*
X179958026Y-195093328D02*
X179958026Y-195236185D01*
X181529455Y-196450471D02*
X181458027Y-196521900D01*
X181458027Y-196521900D02*
X181243741Y-196593328D01*
X181243741Y-196593328D02*
X181100884Y-196593328D01*
X181100884Y-196593328D02*
X180886598Y-196521900D01*
X180886598Y-196521900D02*
X180743741Y-196379042D01*
X180743741Y-196379042D02*
X180672312Y-196236185D01*
X180672312Y-196236185D02*
X180600884Y-195950471D01*
X180600884Y-195950471D02*
X180600884Y-195736185D01*
X180600884Y-195736185D02*
X180672312Y-195450471D01*
X180672312Y-195450471D02*
X180743741Y-195307614D01*
X180743741Y-195307614D02*
X180886598Y-195164757D01*
X180886598Y-195164757D02*
X181100884Y-195093328D01*
X181100884Y-195093328D02*
X181243741Y-195093328D01*
X181243741Y-195093328D02*
X181458027Y-195164757D01*
X181458027Y-195164757D02*
X181529455Y-195236185D01*
X182815170Y-196593328D02*
X182815170Y-195807614D01*
X182815170Y-195807614D02*
X182743741Y-195664757D01*
X182743741Y-195664757D02*
X182600884Y-195593328D01*
X182600884Y-195593328D02*
X182315170Y-195593328D01*
X182315170Y-195593328D02*
X182172312Y-195664757D01*
X182815170Y-196521900D02*
X182672312Y-196593328D01*
X182672312Y-196593328D02*
X182315170Y-196593328D01*
X182315170Y-196593328D02*
X182172312Y-196521900D01*
X182172312Y-196521900D02*
X182100884Y-196379042D01*
X182100884Y-196379042D02*
X182100884Y-196236185D01*
X182100884Y-196236185D02*
X182172312Y-196093328D01*
X182172312Y-196093328D02*
X182315170Y-196021900D01*
X182315170Y-196021900D02*
X182672312Y-196021900D01*
X182672312Y-196021900D02*
X182815170Y-195950471D01*
X184172313Y-196593328D02*
X184172313Y-195093328D01*
X184172313Y-196521900D02*
X184029455Y-196593328D01*
X184029455Y-196593328D02*
X183743741Y-196593328D01*
X183743741Y-196593328D02*
X183600884Y-196521900D01*
X183600884Y-196521900D02*
X183529455Y-196450471D01*
X183529455Y-196450471D02*
X183458027Y-196307614D01*
X183458027Y-196307614D02*
X183458027Y-195879042D01*
X183458027Y-195879042D02*
X183529455Y-195736185D01*
X183529455Y-195736185D02*
X183600884Y-195664757D01*
X183600884Y-195664757D02*
X183743741Y-195593328D01*
X183743741Y-195593328D02*
X184029455Y-195593328D01*
X184029455Y-195593328D02*
X184172313Y-195664757D01*
X186029455Y-195807614D02*
X186529455Y-195807614D01*
X186743741Y-196593328D02*
X186029455Y-196593328D01*
X186029455Y-196593328D02*
X186029455Y-195093328D01*
X186029455Y-195093328D02*
X186743741Y-195093328D01*
X187386598Y-196450471D02*
X187458027Y-196521900D01*
X187458027Y-196521900D02*
X187386598Y-196593328D01*
X187386598Y-196593328D02*
X187315170Y-196521900D01*
X187315170Y-196521900D02*
X187386598Y-196450471D01*
X187386598Y-196450471D02*
X187386598Y-196593328D01*
X188100884Y-196593328D02*
X188100884Y-195093328D01*
X188100884Y-195093328D02*
X188458027Y-195093328D01*
X188458027Y-195093328D02*
X188672313Y-195164757D01*
X188672313Y-195164757D02*
X188815170Y-195307614D01*
X188815170Y-195307614D02*
X188886599Y-195450471D01*
X188886599Y-195450471D02*
X188958027Y-195736185D01*
X188958027Y-195736185D02*
X188958027Y-195950471D01*
X188958027Y-195950471D02*
X188886599Y-196236185D01*
X188886599Y-196236185D02*
X188815170Y-196379042D01*
X188815170Y-196379042D02*
X188672313Y-196521900D01*
X188672313Y-196521900D02*
X188458027Y-196593328D01*
X188458027Y-196593328D02*
X188100884Y-196593328D01*
X189600884Y-196450471D02*
X189672313Y-196521900D01*
X189672313Y-196521900D02*
X189600884Y-196593328D01*
X189600884Y-196593328D02*
X189529456Y-196521900D01*
X189529456Y-196521900D02*
X189600884Y-196450471D01*
X189600884Y-196450471D02*
X189600884Y-196593328D01*
X190243742Y-196164757D02*
X190958028Y-196164757D01*
X190100885Y-196593328D02*
X190600885Y-195093328D01*
X190600885Y-195093328D02*
X191100885Y-196593328D01*
X191600884Y-196450471D02*
X191672313Y-196521900D01*
X191672313Y-196521900D02*
X191600884Y-196593328D01*
X191600884Y-196593328D02*
X191529456Y-196521900D01*
X191529456Y-196521900D02*
X191600884Y-196450471D01*
X191600884Y-196450471D02*
X191600884Y-196593328D01*
X194243742Y-196593328D02*
X193386599Y-196593328D01*
X193815170Y-196593328D02*
X193815170Y-195093328D01*
X193815170Y-195093328D02*
X193672313Y-195307614D01*
X193672313Y-195307614D02*
X193529456Y-195450471D01*
X193529456Y-195450471D02*
X193386599Y-195521900D01*
X195172313Y-195093328D02*
X195315170Y-195093328D01*
X195315170Y-195093328D02*
X195458027Y-195164757D01*
X195458027Y-195164757D02*
X195529456Y-195236185D01*
X195529456Y-195236185D02*
X195600884Y-195379042D01*
X195600884Y-195379042D02*
X195672313Y-195664757D01*
X195672313Y-195664757D02*
X195672313Y-196021900D01*
X195672313Y-196021900D02*
X195600884Y-196307614D01*
X195600884Y-196307614D02*
X195529456Y-196450471D01*
X195529456Y-196450471D02*
X195458027Y-196521900D01*
X195458027Y-196521900D02*
X195315170Y-196593328D01*
X195315170Y-196593328D02*
X195172313Y-196593328D01*
X195172313Y-196593328D02*
X195029456Y-196521900D01*
X195029456Y-196521900D02*
X194958027Y-196450471D01*
X194958027Y-196450471D02*
X194886598Y-196307614D01*
X194886598Y-196307614D02*
X194815170Y-196021900D01*
X194815170Y-196021900D02*
X194815170Y-195664757D01*
X194815170Y-195664757D02*
X194886598Y-195379042D01*
X194886598Y-195379042D02*
X194958027Y-195236185D01*
X194958027Y-195236185D02*
X195029456Y-195164757D01*
X195029456Y-195164757D02*
X195172313Y-195093328D01*
X196315169Y-196450471D02*
X196386598Y-196521900D01*
X196386598Y-196521900D02*
X196315169Y-196593328D01*
X196315169Y-196593328D02*
X196243741Y-196521900D01*
X196243741Y-196521900D02*
X196315169Y-196450471D01*
X196315169Y-196450471D02*
X196315169Y-196593328D01*
X197315170Y-195093328D02*
X197458027Y-195093328D01*
X197458027Y-195093328D02*
X197600884Y-195164757D01*
X197600884Y-195164757D02*
X197672313Y-195236185D01*
X197672313Y-195236185D02*
X197743741Y-195379042D01*
X197743741Y-195379042D02*
X197815170Y-195664757D01*
X197815170Y-195664757D02*
X197815170Y-196021900D01*
X197815170Y-196021900D02*
X197743741Y-196307614D01*
X197743741Y-196307614D02*
X197672313Y-196450471D01*
X197672313Y-196450471D02*
X197600884Y-196521900D01*
X197600884Y-196521900D02*
X197458027Y-196593328D01*
X197458027Y-196593328D02*
X197315170Y-196593328D01*
X197315170Y-196593328D02*
X197172313Y-196521900D01*
X197172313Y-196521900D02*
X197100884Y-196450471D01*
X197100884Y-196450471D02*
X197029455Y-196307614D01*
X197029455Y-196307614D02*
X196958027Y-196021900D01*
X196958027Y-196021900D02*
X196958027Y-195664757D01*
X196958027Y-195664757D02*
X197029455Y-195379042D01*
X197029455Y-195379042D02*
X197100884Y-195236185D01*
X197100884Y-195236185D02*
X197172313Y-195164757D01*
X197172313Y-195164757D02*
X197315170Y-195093328D01*
X198458026Y-196450471D02*
X198529455Y-196521900D01*
X198529455Y-196521900D02*
X198458026Y-196593328D01*
X198458026Y-196593328D02*
X198386598Y-196521900D01*
X198386598Y-196521900D02*
X198458026Y-196450471D01*
X198458026Y-196450471D02*
X198458026Y-196593328D01*
X199458027Y-195093328D02*
X199600884Y-195093328D01*
X199600884Y-195093328D02*
X199743741Y-195164757D01*
X199743741Y-195164757D02*
X199815170Y-195236185D01*
X199815170Y-195236185D02*
X199886598Y-195379042D01*
X199886598Y-195379042D02*
X199958027Y-195664757D01*
X199958027Y-195664757D02*
X199958027Y-196021900D01*
X199958027Y-196021900D02*
X199886598Y-196307614D01*
X199886598Y-196307614D02*
X199815170Y-196450471D01*
X199815170Y-196450471D02*
X199743741Y-196521900D01*
X199743741Y-196521900D02*
X199600884Y-196593328D01*
X199600884Y-196593328D02*
X199458027Y-196593328D01*
X199458027Y-196593328D02*
X199315170Y-196521900D01*
X199315170Y-196521900D02*
X199243741Y-196450471D01*
X199243741Y-196450471D02*
X199172312Y-196307614D01*
X199172312Y-196307614D02*
X199100884Y-196021900D01*
X199100884Y-196021900D02*
X199100884Y-195664757D01*
X199100884Y-195664757D02*
X199172312Y-195379042D01*
X199172312Y-195379042D02*
X199243741Y-195236185D01*
X199243741Y-195236185D02*
X199315170Y-195164757D01*
X199315170Y-195164757D02*
X199458027Y-195093328D01*
X177002200Y-191507200D02*
X285002200Y-191507200D01*
D11*
X264413853Y-193785528D02*
X263913853Y-193071242D01*
X263556710Y-193785528D02*
X263556710Y-192285528D01*
X263556710Y-192285528D02*
X264128139Y-192285528D01*
X264128139Y-192285528D02*
X264270996Y-192356957D01*
X264270996Y-192356957D02*
X264342425Y-192428385D01*
X264342425Y-192428385D02*
X264413853Y-192571242D01*
X264413853Y-192571242D02*
X264413853Y-192785528D01*
X264413853Y-192785528D02*
X264342425Y-192928385D01*
X264342425Y-192928385D02*
X264270996Y-192999814D01*
X264270996Y-192999814D02*
X264128139Y-193071242D01*
X264128139Y-193071242D02*
X263556710Y-193071242D01*
X265628139Y-193714100D02*
X265485282Y-193785528D01*
X265485282Y-193785528D02*
X265199568Y-193785528D01*
X265199568Y-193785528D02*
X265056710Y-193714100D01*
X265056710Y-193714100D02*
X264985282Y-193571242D01*
X264985282Y-193571242D02*
X264985282Y-192999814D01*
X264985282Y-192999814D02*
X265056710Y-192856957D01*
X265056710Y-192856957D02*
X265199568Y-192785528D01*
X265199568Y-192785528D02*
X265485282Y-192785528D01*
X265485282Y-192785528D02*
X265628139Y-192856957D01*
X265628139Y-192856957D02*
X265699568Y-192999814D01*
X265699568Y-192999814D02*
X265699568Y-193142671D01*
X265699568Y-193142671D02*
X264985282Y-193285528D01*
X266199567Y-192785528D02*
X266556710Y-193785528D01*
X266556710Y-193785528D02*
X266913853Y-192785528D01*
X267485281Y-193642671D02*
X267556710Y-193714100D01*
X267556710Y-193714100D02*
X267485281Y-193785528D01*
X267485281Y-193785528D02*
X267413853Y-193714100D01*
X267413853Y-193714100D02*
X267485281Y-193642671D01*
X267485281Y-193642671D02*
X267485281Y-193785528D01*
X267485281Y-192856957D02*
X267556710Y-192928385D01*
X267556710Y-192928385D02*
X267485281Y-192999814D01*
X267485281Y-192999814D02*
X267413853Y-192928385D01*
X267413853Y-192928385D02*
X267485281Y-192856957D01*
X267485281Y-192856957D02*
X267485281Y-192999814D01*
X269985282Y-192785528D02*
X269985282Y-193785528D01*
X269628139Y-192214100D02*
X269270996Y-193285528D01*
X269270996Y-193285528D02*
X270199567Y-193285528D01*
D10*
X178386598Y-193721900D02*
X178600884Y-193793328D01*
X178600884Y-193793328D02*
X178958026Y-193793328D01*
X178958026Y-193793328D02*
X179100884Y-193721900D01*
X179100884Y-193721900D02*
X179172312Y-193650471D01*
X179172312Y-193650471D02*
X179243741Y-193507614D01*
X179243741Y-193507614D02*
X179243741Y-193364757D01*
X179243741Y-193364757D02*
X179172312Y-193221900D01*
X179172312Y-193221900D02*
X179100884Y-193150471D01*
X179100884Y-193150471D02*
X178958026Y-193079042D01*
X178958026Y-193079042D02*
X178672312Y-193007614D01*
X178672312Y-193007614D02*
X178529455Y-192936185D01*
X178529455Y-192936185D02*
X178458026Y-192864757D01*
X178458026Y-192864757D02*
X178386598Y-192721900D01*
X178386598Y-192721900D02*
X178386598Y-192579042D01*
X178386598Y-192579042D02*
X178458026Y-192436185D01*
X178458026Y-192436185D02*
X178529455Y-192364757D01*
X178529455Y-192364757D02*
X178672312Y-192293328D01*
X178672312Y-192293328D02*
X179029455Y-192293328D01*
X179029455Y-192293328D02*
X179243741Y-192364757D01*
X179886597Y-193793328D02*
X179886597Y-192793328D01*
X179886597Y-192293328D02*
X179815169Y-192364757D01*
X179815169Y-192364757D02*
X179886597Y-192436185D01*
X179886597Y-192436185D02*
X179958026Y-192364757D01*
X179958026Y-192364757D02*
X179886597Y-192293328D01*
X179886597Y-192293328D02*
X179886597Y-192436185D01*
X180458026Y-192793328D02*
X181243741Y-192793328D01*
X181243741Y-192793328D02*
X180458026Y-193793328D01*
X180458026Y-193793328D02*
X181243741Y-193793328D01*
X182386598Y-193721900D02*
X182243741Y-193793328D01*
X182243741Y-193793328D02*
X181958027Y-193793328D01*
X181958027Y-193793328D02*
X181815169Y-193721900D01*
X181815169Y-193721900D02*
X181743741Y-193579042D01*
X181743741Y-193579042D02*
X181743741Y-193007614D01*
X181743741Y-193007614D02*
X181815169Y-192864757D01*
X181815169Y-192864757D02*
X181958027Y-192793328D01*
X181958027Y-192793328D02*
X182243741Y-192793328D01*
X182243741Y-192793328D02*
X182386598Y-192864757D01*
X182386598Y-192864757D02*
X182458027Y-193007614D01*
X182458027Y-193007614D02*
X182458027Y-193150471D01*
X182458027Y-193150471D02*
X181743741Y-193293328D01*
X183100883Y-193650471D02*
X183172312Y-193721900D01*
X183172312Y-193721900D02*
X183100883Y-193793328D01*
X183100883Y-193793328D02*
X183029455Y-193721900D01*
X183029455Y-193721900D02*
X183100883Y-193650471D01*
X183100883Y-193650471D02*
X183100883Y-193793328D01*
X183100883Y-192864757D02*
X183172312Y-192936185D01*
X183172312Y-192936185D02*
X183100883Y-193007614D01*
X183100883Y-193007614D02*
X183029455Y-192936185D01*
X183029455Y-192936185D02*
X183100883Y-192864757D01*
X183100883Y-192864757D02*
X183100883Y-193007614D01*
X184886598Y-193364757D02*
X185600884Y-193364757D01*
X184743741Y-193793328D02*
X185243741Y-192293328D01*
X185243741Y-192293328D02*
X185743741Y-193793328D01*
X186886598Y-192793328D02*
X186886598Y-193793328D01*
X186529455Y-192221900D02*
X186172312Y-193293328D01*
X186172312Y-193293328D02*
X187100883Y-193293328D01*
X263458026Y-196593328D02*
X263458026Y-195093328D01*
X264815170Y-196593328D02*
X264815170Y-195093328D01*
X264815170Y-196521900D02*
X264672312Y-196593328D01*
X264672312Y-196593328D02*
X264386598Y-196593328D01*
X264386598Y-196593328D02*
X264243741Y-196521900D01*
X264243741Y-196521900D02*
X264172312Y-196450471D01*
X264172312Y-196450471D02*
X264100884Y-196307614D01*
X264100884Y-196307614D02*
X264100884Y-195879042D01*
X264100884Y-195879042D02*
X264172312Y-195736185D01*
X264172312Y-195736185D02*
X264243741Y-195664757D01*
X264243741Y-195664757D02*
X264386598Y-195593328D01*
X264386598Y-195593328D02*
X264672312Y-195593328D01*
X264672312Y-195593328D02*
X264815170Y-195664757D01*
X265529455Y-196450471D02*
X265600884Y-196521900D01*
X265600884Y-196521900D02*
X265529455Y-196593328D01*
X265529455Y-196593328D02*
X265458027Y-196521900D01*
X265458027Y-196521900D02*
X265529455Y-196450471D01*
X265529455Y-196450471D02*
X265529455Y-196593328D01*
X265529455Y-195664757D02*
X265600884Y-195736185D01*
X265600884Y-195736185D02*
X265529455Y-195807614D01*
X265529455Y-195807614D02*
X265458027Y-195736185D01*
X265458027Y-195736185D02*
X265529455Y-195664757D01*
X265529455Y-195664757D02*
X265529455Y-195807614D01*
X268172313Y-196593328D02*
X267315170Y-196593328D01*
X267743741Y-196593328D02*
X267743741Y-195093328D01*
X267743741Y-195093328D02*
X267600884Y-195307614D01*
X267600884Y-195307614D02*
X267458027Y-195450471D01*
X267458027Y-195450471D02*
X267315170Y-195521900D01*
X269886598Y-195021900D02*
X268600884Y-196950471D01*
X270458027Y-196593328D02*
X270743741Y-196593328D01*
X270743741Y-196593328D02*
X270886598Y-196521900D01*
X270886598Y-196521900D02*
X270958027Y-196450471D01*
X270958027Y-196450471D02*
X271100884Y-196236185D01*
X271100884Y-196236185D02*
X271172313Y-195950471D01*
X271172313Y-195950471D02*
X271172313Y-195379042D01*
X271172313Y-195379042D02*
X271100884Y-195236185D01*
X271100884Y-195236185D02*
X271029456Y-195164757D01*
X271029456Y-195164757D02*
X270886598Y-195093328D01*
X270886598Y-195093328D02*
X270600884Y-195093328D01*
X270600884Y-195093328D02*
X270458027Y-195164757D01*
X270458027Y-195164757D02*
X270386598Y-195236185D01*
X270386598Y-195236185D02*
X270315170Y-195379042D01*
X270315170Y-195379042D02*
X270315170Y-195736185D01*
X270315170Y-195736185D02*
X270386598Y-195879042D01*
X270386598Y-195879042D02*
X270458027Y-195950471D01*
X270458027Y-195950471D02*
X270600884Y-196021900D01*
X270600884Y-196021900D02*
X270886598Y-196021900D01*
X270886598Y-196021900D02*
X271029456Y-195950471D01*
X271029456Y-195950471D02*
X271100884Y-195879042D01*
X271100884Y-195879042D02*
X271172313Y-195736185D01*
X177002200Y-187507200D02*
X285002200Y-187507200D01*
D12*
X178693928Y-188211638D02*
X179836785Y-188211638D01*
X179015357Y-190211638D02*
X179265357Y-188211638D01*
X180253452Y-190211638D02*
X180420119Y-188878304D01*
X180503452Y-188211638D02*
X180396309Y-188306876D01*
X180396309Y-188306876D02*
X180479643Y-188402114D01*
X180479643Y-188402114D02*
X180586786Y-188306876D01*
X180586786Y-188306876D02*
X180503452Y-188211638D01*
X180503452Y-188211638D02*
X180479643Y-188402114D01*
X181086786Y-188878304D02*
X181848690Y-188878304D01*
X181455833Y-188211638D02*
X181241548Y-189925923D01*
X181241548Y-189925923D02*
X181312976Y-190116400D01*
X181312976Y-190116400D02*
X181491548Y-190211638D01*
X181491548Y-190211638D02*
X181682024Y-190211638D01*
X182634405Y-190211638D02*
X182455833Y-190116400D01*
X182455833Y-190116400D02*
X182384405Y-189925923D01*
X182384405Y-189925923D02*
X182598690Y-188211638D01*
X184170119Y-190116400D02*
X183967738Y-190211638D01*
X183967738Y-190211638D02*
X183586785Y-190211638D01*
X183586785Y-190211638D02*
X183408214Y-190116400D01*
X183408214Y-190116400D02*
X183336785Y-189925923D01*
X183336785Y-189925923D02*
X183432024Y-189164019D01*
X183432024Y-189164019D02*
X183551071Y-188973542D01*
X183551071Y-188973542D02*
X183753452Y-188878304D01*
X183753452Y-188878304D02*
X184134404Y-188878304D01*
X184134404Y-188878304D02*
X184312976Y-188973542D01*
X184312976Y-188973542D02*
X184384404Y-189164019D01*
X184384404Y-189164019D02*
X184360595Y-189354495D01*
X184360595Y-189354495D02*
X183384404Y-189544971D01*
X185134405Y-190021161D02*
X185217738Y-190116400D01*
X185217738Y-190116400D02*
X185110595Y-190211638D01*
X185110595Y-190211638D02*
X185027262Y-190116400D01*
X185027262Y-190116400D02*
X185134405Y-190021161D01*
X185134405Y-190021161D02*
X185110595Y-190211638D01*
X185265357Y-188973542D02*
X185348690Y-189068780D01*
X185348690Y-189068780D02*
X185241548Y-189164019D01*
X185241548Y-189164019D02*
X185158214Y-189068780D01*
X185158214Y-189068780D02*
X185265357Y-188973542D01*
X185265357Y-188973542D02*
X185241548Y-189164019D01*
X187586786Y-190211638D02*
X187836786Y-188211638D01*
X187717739Y-189164019D02*
X188860596Y-189164019D01*
X188729643Y-190211638D02*
X188979643Y-188211638D01*
X189682024Y-190211638D02*
X189932024Y-188211638D01*
X189932024Y-188211638D02*
X190420119Y-189640209D01*
X190420119Y-189640209D02*
X191265358Y-188211638D01*
X191265358Y-188211638D02*
X191015358Y-190211638D01*
X191967738Y-190211638D02*
X192217738Y-188211638D01*
X195241548Y-189164019D02*
X195515358Y-189259257D01*
X195515358Y-189259257D02*
X195598691Y-189354495D01*
X195598691Y-189354495D02*
X195670120Y-189544971D01*
X195670120Y-189544971D02*
X195634405Y-189830685D01*
X195634405Y-189830685D02*
X195515358Y-190021161D01*
X195515358Y-190021161D02*
X195408215Y-190116400D01*
X195408215Y-190116400D02*
X195205834Y-190211638D01*
X195205834Y-190211638D02*
X194443929Y-190211638D01*
X194443929Y-190211638D02*
X194693929Y-188211638D01*
X194693929Y-188211638D02*
X195360596Y-188211638D01*
X195360596Y-188211638D02*
X195539167Y-188306876D01*
X195539167Y-188306876D02*
X195622501Y-188402114D01*
X195622501Y-188402114D02*
X195693929Y-188592590D01*
X195693929Y-188592590D02*
X195670120Y-188783066D01*
X195670120Y-188783066D02*
X195551072Y-188973542D01*
X195551072Y-188973542D02*
X195443929Y-189068780D01*
X195443929Y-189068780D02*
X195241548Y-189164019D01*
X195241548Y-189164019D02*
X194574882Y-189164019D01*
X196729644Y-190211638D02*
X196551072Y-190116400D01*
X196551072Y-190116400D02*
X196467739Y-190021161D01*
X196467739Y-190021161D02*
X196396310Y-189830685D01*
X196396310Y-189830685D02*
X196467739Y-189259257D01*
X196467739Y-189259257D02*
X196586786Y-189068780D01*
X196586786Y-189068780D02*
X196693929Y-188973542D01*
X196693929Y-188973542D02*
X196896310Y-188878304D01*
X196896310Y-188878304D02*
X197182024Y-188878304D01*
X197182024Y-188878304D02*
X197360596Y-188973542D01*
X197360596Y-188973542D02*
X197443929Y-189068780D01*
X197443929Y-189068780D02*
X197515358Y-189259257D01*
X197515358Y-189259257D02*
X197443929Y-189830685D01*
X197443929Y-189830685D02*
X197324882Y-190021161D01*
X197324882Y-190021161D02*
X197217739Y-190116400D01*
X197217739Y-190116400D02*
X197015358Y-190211638D01*
X197015358Y-190211638D02*
X196729644Y-190211638D01*
X199110596Y-190211638D02*
X199241548Y-189164019D01*
X199241548Y-189164019D02*
X199170120Y-188973542D01*
X199170120Y-188973542D02*
X198991548Y-188878304D01*
X198991548Y-188878304D02*
X198610596Y-188878304D01*
X198610596Y-188878304D02*
X198408215Y-188973542D01*
X199122501Y-190116400D02*
X198920120Y-190211638D01*
X198920120Y-190211638D02*
X198443929Y-190211638D01*
X198443929Y-190211638D02*
X198265358Y-190116400D01*
X198265358Y-190116400D02*
X198193929Y-189925923D01*
X198193929Y-189925923D02*
X198217739Y-189735447D01*
X198217739Y-189735447D02*
X198336787Y-189544971D01*
X198336787Y-189544971D02*
X198539168Y-189449733D01*
X198539168Y-189449733D02*
X199015358Y-189449733D01*
X199015358Y-189449733D02*
X199217739Y-189354495D01*
X200062977Y-190211638D02*
X200229644Y-188878304D01*
X200182025Y-189259257D02*
X200301072Y-189068780D01*
X200301072Y-189068780D02*
X200408215Y-188973542D01*
X200408215Y-188973542D02*
X200610596Y-188878304D01*
X200610596Y-188878304D02*
X200801072Y-188878304D01*
X202158215Y-190211638D02*
X202408215Y-188211638D01*
X202170120Y-190116400D02*
X201967739Y-190211638D01*
X201967739Y-190211638D02*
X201586787Y-190211638D01*
X201586787Y-190211638D02*
X201408215Y-190116400D01*
X201408215Y-190116400D02*
X201324882Y-190021161D01*
X201324882Y-190021161D02*
X201253453Y-189830685D01*
X201253453Y-189830685D02*
X201324882Y-189259257D01*
X201324882Y-189259257D02*
X201443929Y-189068780D01*
X201443929Y-189068780D02*
X201551072Y-188973542D01*
X201551072Y-188973542D02*
X201753453Y-188878304D01*
X201753453Y-188878304D02*
X202134406Y-188878304D01*
X202134406Y-188878304D02*
X202312977Y-188973542D01*
X204729644Y-189449733D02*
X206253454Y-189449733D01*
X208634406Y-190211638D02*
X208884406Y-188211638D01*
X208884406Y-188211638D02*
X209372501Y-189640209D01*
X209372501Y-189640209D02*
X210217740Y-188211638D01*
X210217740Y-188211638D02*
X209967740Y-190211638D01*
X211693930Y-190116400D02*
X211491549Y-190211638D01*
X211491549Y-190211638D02*
X211110596Y-190211638D01*
X211110596Y-190211638D02*
X210932025Y-190116400D01*
X210932025Y-190116400D02*
X210860596Y-189925923D01*
X210860596Y-189925923D02*
X210955835Y-189164019D01*
X210955835Y-189164019D02*
X211074882Y-188973542D01*
X211074882Y-188973542D02*
X211277263Y-188878304D01*
X211277263Y-188878304D02*
X211658215Y-188878304D01*
X211658215Y-188878304D02*
X211836787Y-188973542D01*
X211836787Y-188973542D02*
X211908215Y-189164019D01*
X211908215Y-189164019D02*
X211884406Y-189354495D01*
X211884406Y-189354495D02*
X210908215Y-189544971D01*
X213503454Y-190116400D02*
X213301073Y-190211638D01*
X213301073Y-190211638D02*
X212920121Y-190211638D01*
X212920121Y-190211638D02*
X212741549Y-190116400D01*
X212741549Y-190116400D02*
X212658216Y-190021161D01*
X212658216Y-190021161D02*
X212586787Y-189830685D01*
X212586787Y-189830685D02*
X212658216Y-189259257D01*
X212658216Y-189259257D02*
X212777263Y-189068780D01*
X212777263Y-189068780D02*
X212884406Y-188973542D01*
X212884406Y-188973542D02*
X213086787Y-188878304D01*
X213086787Y-188878304D02*
X213467740Y-188878304D01*
X213467740Y-188878304D02*
X213646311Y-188973542D01*
X215205835Y-190211638D02*
X215336787Y-189164019D01*
X215336787Y-189164019D02*
X215265359Y-188973542D01*
X215265359Y-188973542D02*
X215086787Y-188878304D01*
X215086787Y-188878304D02*
X214705835Y-188878304D01*
X214705835Y-188878304D02*
X214503454Y-188973542D01*
X215217740Y-190116400D02*
X215015359Y-190211638D01*
X215015359Y-190211638D02*
X214539168Y-190211638D01*
X214539168Y-190211638D02*
X214360597Y-190116400D01*
X214360597Y-190116400D02*
X214289168Y-189925923D01*
X214289168Y-189925923D02*
X214312978Y-189735447D01*
X214312978Y-189735447D02*
X214432026Y-189544971D01*
X214432026Y-189544971D02*
X214634407Y-189449733D01*
X214634407Y-189449733D02*
X215110597Y-189449733D01*
X215110597Y-189449733D02*
X215312978Y-189354495D01*
X216289169Y-188402114D02*
X216396311Y-188306876D01*
X216396311Y-188306876D02*
X216598692Y-188211638D01*
X216598692Y-188211638D02*
X217074883Y-188211638D01*
X217074883Y-188211638D02*
X217253454Y-188306876D01*
X217253454Y-188306876D02*
X217336788Y-188402114D01*
X217336788Y-188402114D02*
X217408216Y-188592590D01*
X217408216Y-188592590D02*
X217384407Y-188783066D01*
X217384407Y-188783066D02*
X217253454Y-189068780D01*
X217253454Y-189068780D02*
X215967740Y-190211638D01*
X215967740Y-190211638D02*
X217205835Y-190211638D01*
X218193931Y-188402114D02*
X218301073Y-188306876D01*
X218301073Y-188306876D02*
X218503454Y-188211638D01*
X218503454Y-188211638D02*
X218979645Y-188211638D01*
X218979645Y-188211638D02*
X219158216Y-188306876D01*
X219158216Y-188306876D02*
X219241550Y-188402114D01*
X219241550Y-188402114D02*
X219312978Y-188592590D01*
X219312978Y-188592590D02*
X219289169Y-188783066D01*
X219289169Y-188783066D02*
X219158216Y-189068780D01*
X219158216Y-189068780D02*
X217872502Y-190211638D01*
X217872502Y-190211638D02*
X219110597Y-190211638D01*
X220062978Y-189449733D02*
X221586788Y-189449733D01*
X222503454Y-188211638D02*
X223741549Y-188211638D01*
X223741549Y-188211638D02*
X222979645Y-188973542D01*
X222979645Y-188973542D02*
X223265359Y-188973542D01*
X223265359Y-188973542D02*
X223443930Y-189068780D01*
X223443930Y-189068780D02*
X223527264Y-189164019D01*
X223527264Y-189164019D02*
X223598692Y-189354495D01*
X223598692Y-189354495D02*
X223539168Y-189830685D01*
X223539168Y-189830685D02*
X223420121Y-190021161D01*
X223420121Y-190021161D02*
X223312978Y-190116400D01*
X223312978Y-190116400D02*
X223110597Y-190211638D01*
X223110597Y-190211638D02*
X222539168Y-190211638D01*
X222539168Y-190211638D02*
X222360597Y-190116400D01*
X222360597Y-190116400D02*
X222277264Y-190021161D01*
X227039169Y-190021161D02*
X226932026Y-190116400D01*
X226932026Y-190116400D02*
X226634407Y-190211638D01*
X226634407Y-190211638D02*
X226443931Y-190211638D01*
X226443931Y-190211638D02*
X226170121Y-190116400D01*
X226170121Y-190116400D02*
X226003455Y-189925923D01*
X226003455Y-189925923D02*
X225932026Y-189735447D01*
X225932026Y-189735447D02*
X225884407Y-189354495D01*
X225884407Y-189354495D02*
X225920121Y-189068780D01*
X225920121Y-189068780D02*
X226062978Y-188687828D01*
X226062978Y-188687828D02*
X226182026Y-188497352D01*
X226182026Y-188497352D02*
X226396312Y-188306876D01*
X226396312Y-188306876D02*
X226693931Y-188211638D01*
X226693931Y-188211638D02*
X226884407Y-188211638D01*
X226884407Y-188211638D02*
X227158217Y-188306876D01*
X227158217Y-188306876D02*
X227241550Y-188402114D01*
X228158217Y-190211638D02*
X227979645Y-190116400D01*
X227979645Y-190116400D02*
X227896312Y-190021161D01*
X227896312Y-190021161D02*
X227824883Y-189830685D01*
X227824883Y-189830685D02*
X227896312Y-189259257D01*
X227896312Y-189259257D02*
X228015359Y-189068780D01*
X228015359Y-189068780D02*
X228122502Y-188973542D01*
X228122502Y-188973542D02*
X228324883Y-188878304D01*
X228324883Y-188878304D02*
X228610597Y-188878304D01*
X228610597Y-188878304D02*
X228789169Y-188973542D01*
X228789169Y-188973542D02*
X228872502Y-189068780D01*
X228872502Y-189068780D02*
X228943931Y-189259257D01*
X228943931Y-189259257D02*
X228872502Y-189830685D01*
X228872502Y-189830685D02*
X228753455Y-190021161D01*
X228753455Y-190021161D02*
X228646312Y-190116400D01*
X228646312Y-190116400D02*
X228443931Y-190211638D01*
X228443931Y-190211638D02*
X228158217Y-190211638D01*
X229682026Y-190211638D02*
X229932026Y-188211638D01*
X229836788Y-188973542D02*
X230039169Y-188878304D01*
X230039169Y-188878304D02*
X230420121Y-188878304D01*
X230420121Y-188878304D02*
X230598693Y-188973542D01*
X230598693Y-188973542D02*
X230682026Y-189068780D01*
X230682026Y-189068780D02*
X230753455Y-189259257D01*
X230753455Y-189259257D02*
X230682026Y-189830685D01*
X230682026Y-189830685D02*
X230562979Y-190021161D01*
X230562979Y-190021161D02*
X230455836Y-190116400D01*
X230455836Y-190116400D02*
X230253455Y-190211638D01*
X230253455Y-190211638D02*
X229872502Y-190211638D01*
X229872502Y-190211638D02*
X229693931Y-190116400D01*
X231777265Y-190211638D02*
X231598693Y-190116400D01*
X231598693Y-190116400D02*
X231515360Y-190021161D01*
X231515360Y-190021161D02*
X231443931Y-189830685D01*
X231443931Y-189830685D02*
X231515360Y-189259257D01*
X231515360Y-189259257D02*
X231634407Y-189068780D01*
X231634407Y-189068780D02*
X231741550Y-188973542D01*
X231741550Y-188973542D02*
X231943931Y-188878304D01*
X231943931Y-188878304D02*
X232229645Y-188878304D01*
X232229645Y-188878304D02*
X232408217Y-188973542D01*
X232408217Y-188973542D02*
X232491550Y-189068780D01*
X232491550Y-189068780D02*
X232562979Y-189259257D01*
X232562979Y-189259257D02*
X232491550Y-189830685D01*
X232491550Y-189830685D02*
X232372503Y-190021161D01*
X232372503Y-190021161D02*
X232265360Y-190116400D01*
X232265360Y-190116400D02*
X232062979Y-190211638D01*
X232062979Y-190211638D02*
X231777265Y-190211638D01*
X233182027Y-188878304D02*
X233943931Y-188878304D01*
X233551074Y-188211638D02*
X233336789Y-189925923D01*
X233336789Y-189925923D02*
X233408217Y-190116400D01*
X233408217Y-190116400D02*
X233586789Y-190211638D01*
X233586789Y-190211638D02*
X233777265Y-190211638D01*
D10*
X178958026Y-185607614D02*
X178458026Y-185607614D01*
X178458026Y-186393328D02*
X178458026Y-184893328D01*
X178458026Y-184893328D02*
X179172312Y-184893328D01*
X179743740Y-186393328D02*
X179743740Y-185393328D01*
X179743740Y-184893328D02*
X179672312Y-184964757D01*
X179672312Y-184964757D02*
X179743740Y-185036185D01*
X179743740Y-185036185D02*
X179815169Y-184964757D01*
X179815169Y-184964757D02*
X179743740Y-184893328D01*
X179743740Y-184893328D02*
X179743740Y-185036185D01*
X180672312Y-186393328D02*
X180529455Y-186321900D01*
X180529455Y-186321900D02*
X180458026Y-186179042D01*
X180458026Y-186179042D02*
X180458026Y-184893328D01*
X181815169Y-186321900D02*
X181672312Y-186393328D01*
X181672312Y-186393328D02*
X181386598Y-186393328D01*
X181386598Y-186393328D02*
X181243740Y-186321900D01*
X181243740Y-186321900D02*
X181172312Y-186179042D01*
X181172312Y-186179042D02*
X181172312Y-185607614D01*
X181172312Y-185607614D02*
X181243740Y-185464757D01*
X181243740Y-185464757D02*
X181386598Y-185393328D01*
X181386598Y-185393328D02*
X181672312Y-185393328D01*
X181672312Y-185393328D02*
X181815169Y-185464757D01*
X181815169Y-185464757D02*
X181886598Y-185607614D01*
X181886598Y-185607614D02*
X181886598Y-185750471D01*
X181886598Y-185750471D02*
X181172312Y-185893328D01*
X182529454Y-186250471D02*
X182600883Y-186321900D01*
X182600883Y-186321900D02*
X182529454Y-186393328D01*
X182529454Y-186393328D02*
X182458026Y-186321900D01*
X182458026Y-186321900D02*
X182529454Y-186250471D01*
X182529454Y-186250471D02*
X182529454Y-186393328D01*
X182529454Y-185464757D02*
X182600883Y-185536185D01*
X182600883Y-185536185D02*
X182529454Y-185607614D01*
X182529454Y-185607614D02*
X182458026Y-185536185D01*
X182458026Y-185536185D02*
X182529454Y-185464757D01*
X182529454Y-185464757D02*
X182529454Y-185607614D01*
X184386597Y-186393328D02*
X184386597Y-184893328D01*
X185100883Y-186393328D02*
X185100883Y-184893328D01*
X185100883Y-185607614D02*
X185958026Y-185607614D01*
X185958026Y-186393328D02*
X185958026Y-184893328D01*
X186672312Y-186393328D02*
X186672312Y-184893328D01*
X186672312Y-184893328D02*
X187172312Y-185964757D01*
X187172312Y-185964757D02*
X187672312Y-184893328D01*
X187672312Y-184893328D02*
X187672312Y-186393328D01*
X188315170Y-185036185D02*
X188386598Y-184964757D01*
X188386598Y-184964757D02*
X188529456Y-184893328D01*
X188529456Y-184893328D02*
X188886598Y-184893328D01*
X188886598Y-184893328D02*
X189029456Y-184964757D01*
X189029456Y-184964757D02*
X189100884Y-185036185D01*
X189100884Y-185036185D02*
X189172313Y-185179042D01*
X189172313Y-185179042D02*
X189172313Y-185321900D01*
X189172313Y-185321900D02*
X189100884Y-185536185D01*
X189100884Y-185536185D02*
X188243741Y-186393328D01*
X188243741Y-186393328D02*
X189172313Y-186393328D01*
X189458027Y-186536185D02*
X190600884Y-186536185D01*
X190886598Y-185036185D02*
X190958026Y-184964757D01*
X190958026Y-184964757D02*
X191100884Y-184893328D01*
X191100884Y-184893328D02*
X191458026Y-184893328D01*
X191458026Y-184893328D02*
X191600884Y-184964757D01*
X191600884Y-184964757D02*
X191672312Y-185036185D01*
X191672312Y-185036185D02*
X191743741Y-185179042D01*
X191743741Y-185179042D02*
X191743741Y-185321900D01*
X191743741Y-185321900D02*
X191672312Y-185536185D01*
X191672312Y-185536185D02*
X190815169Y-186393328D01*
X190815169Y-186393328D02*
X191743741Y-186393328D01*
X193029455Y-186321900D02*
X192886597Y-186393328D01*
X192886597Y-186393328D02*
X192600883Y-186393328D01*
X192600883Y-186393328D02*
X192458026Y-186321900D01*
X192458026Y-186321900D02*
X192386597Y-186250471D01*
X192386597Y-186250471D02*
X192315169Y-186107614D01*
X192315169Y-186107614D02*
X192315169Y-185679042D01*
X192315169Y-185679042D02*
X192386597Y-185536185D01*
X192386597Y-185536185D02*
X192458026Y-185464757D01*
X192458026Y-185464757D02*
X192600883Y-185393328D01*
X192600883Y-185393328D02*
X192886597Y-185393328D01*
X192886597Y-185393328D02*
X193029455Y-185464757D01*
X193886597Y-186393328D02*
X193743740Y-186321900D01*
X193743740Y-186321900D02*
X193672311Y-186250471D01*
X193672311Y-186250471D02*
X193600883Y-186107614D01*
X193600883Y-186107614D02*
X193600883Y-185679042D01*
X193600883Y-185679042D02*
X193672311Y-185536185D01*
X193672311Y-185536185D02*
X193743740Y-185464757D01*
X193743740Y-185464757D02*
X193886597Y-185393328D01*
X193886597Y-185393328D02*
X194100883Y-185393328D01*
X194100883Y-185393328D02*
X194243740Y-185464757D01*
X194243740Y-185464757D02*
X194315169Y-185536185D01*
X194315169Y-185536185D02*
X194386597Y-185679042D01*
X194386597Y-185679042D02*
X194386597Y-186107614D01*
X194386597Y-186107614D02*
X194315169Y-186250471D01*
X194315169Y-186250471D02*
X194243740Y-186321900D01*
X194243740Y-186321900D02*
X194100883Y-186393328D01*
X194100883Y-186393328D02*
X193886597Y-186393328D01*
X195029454Y-185393328D02*
X195029454Y-186893328D01*
X195029454Y-185464757D02*
X195172312Y-185393328D01*
X195172312Y-185393328D02*
X195458026Y-185393328D01*
X195458026Y-185393328D02*
X195600883Y-185464757D01*
X195600883Y-185464757D02*
X195672312Y-185536185D01*
X195672312Y-185536185D02*
X195743740Y-185679042D01*
X195743740Y-185679042D02*
X195743740Y-186107614D01*
X195743740Y-186107614D02*
X195672312Y-186250471D01*
X195672312Y-186250471D02*
X195600883Y-186321900D01*
X195600883Y-186321900D02*
X195458026Y-186393328D01*
X195458026Y-186393328D02*
X195172312Y-186393328D01*
X195172312Y-186393328D02*
X195029454Y-186321900D01*
X196386597Y-185393328D02*
X196386597Y-186893328D01*
X196386597Y-185464757D02*
X196529455Y-185393328D01*
X196529455Y-185393328D02*
X196815169Y-185393328D01*
X196815169Y-185393328D02*
X196958026Y-185464757D01*
X196958026Y-185464757D02*
X197029455Y-185536185D01*
X197029455Y-185536185D02*
X197100883Y-185679042D01*
X197100883Y-185679042D02*
X197100883Y-186107614D01*
X197100883Y-186107614D02*
X197029455Y-186250471D01*
X197029455Y-186250471D02*
X196958026Y-186321900D01*
X196958026Y-186321900D02*
X196815169Y-186393328D01*
X196815169Y-186393328D02*
X196529455Y-186393328D01*
X196529455Y-186393328D02*
X196386597Y-186321900D01*
X198315169Y-186321900D02*
X198172312Y-186393328D01*
X198172312Y-186393328D02*
X197886598Y-186393328D01*
X197886598Y-186393328D02*
X197743740Y-186321900D01*
X197743740Y-186321900D02*
X197672312Y-186179042D01*
X197672312Y-186179042D02*
X197672312Y-185607614D01*
X197672312Y-185607614D02*
X197743740Y-185464757D01*
X197743740Y-185464757D02*
X197886598Y-185393328D01*
X197886598Y-185393328D02*
X198172312Y-185393328D01*
X198172312Y-185393328D02*
X198315169Y-185464757D01*
X198315169Y-185464757D02*
X198386598Y-185607614D01*
X198386598Y-185607614D02*
X198386598Y-185750471D01*
X198386598Y-185750471D02*
X197672312Y-185893328D01*
X199029454Y-186393328D02*
X199029454Y-185393328D01*
X199029454Y-185679042D02*
X199100883Y-185536185D01*
X199100883Y-185536185D02*
X199172312Y-185464757D01*
X199172312Y-185464757D02*
X199315169Y-185393328D01*
X199315169Y-185393328D02*
X199458026Y-185393328D01*
X199815168Y-184893328D02*
X200815168Y-184893328D01*
X200815168Y-184893328D02*
X199815168Y-186393328D01*
X199815168Y-186393328D02*
X200815168Y-186393328D01*
X201600882Y-186393328D02*
X201458025Y-186321900D01*
X201458025Y-186321900D02*
X201386596Y-186250471D01*
X201386596Y-186250471D02*
X201315168Y-186107614D01*
X201315168Y-186107614D02*
X201315168Y-185679042D01*
X201315168Y-185679042D02*
X201386596Y-185536185D01*
X201386596Y-185536185D02*
X201458025Y-185464757D01*
X201458025Y-185464757D02*
X201600882Y-185393328D01*
X201600882Y-185393328D02*
X201815168Y-185393328D01*
X201815168Y-185393328D02*
X201958025Y-185464757D01*
X201958025Y-185464757D02*
X202029454Y-185536185D01*
X202029454Y-185536185D02*
X202100882Y-185679042D01*
X202100882Y-185679042D02*
X202100882Y-186107614D01*
X202100882Y-186107614D02*
X202029454Y-186250471D01*
X202029454Y-186250471D02*
X201958025Y-186321900D01*
X201958025Y-186321900D02*
X201815168Y-186393328D01*
X201815168Y-186393328D02*
X201600882Y-186393328D01*
X202743739Y-185393328D02*
X202743739Y-186393328D01*
X202743739Y-185536185D02*
X202815168Y-185464757D01*
X202815168Y-185464757D02*
X202958025Y-185393328D01*
X202958025Y-185393328D02*
X203172311Y-185393328D01*
X203172311Y-185393328D02*
X203315168Y-185464757D01*
X203315168Y-185464757D02*
X203386597Y-185607614D01*
X203386597Y-185607614D02*
X203386597Y-186393328D01*
X204672311Y-186321900D02*
X204529454Y-186393328D01*
X204529454Y-186393328D02*
X204243740Y-186393328D01*
X204243740Y-186393328D02*
X204100882Y-186321900D01*
X204100882Y-186321900D02*
X204029454Y-186179042D01*
X204029454Y-186179042D02*
X204029454Y-185607614D01*
X204029454Y-185607614D02*
X204100882Y-185464757D01*
X204100882Y-185464757D02*
X204243740Y-185393328D01*
X204243740Y-185393328D02*
X204529454Y-185393328D01*
X204529454Y-185393328D02*
X204672311Y-185464757D01*
X204672311Y-185464757D02*
X204743740Y-185607614D01*
X204743740Y-185607614D02*
X204743740Y-185750471D01*
X204743740Y-185750471D02*
X204029454Y-185893328D01*
X205315168Y-186321900D02*
X205458025Y-186393328D01*
X205458025Y-186393328D02*
X205743739Y-186393328D01*
X205743739Y-186393328D02*
X205886596Y-186321900D01*
X205886596Y-186321900D02*
X205958025Y-186179042D01*
X205958025Y-186179042D02*
X205958025Y-186107614D01*
X205958025Y-186107614D02*
X205886596Y-185964757D01*
X205886596Y-185964757D02*
X205743739Y-185893328D01*
X205743739Y-185893328D02*
X205529454Y-185893328D01*
X205529454Y-185893328D02*
X205386596Y-185821900D01*
X205386596Y-185821900D02*
X205315168Y-185679042D01*
X205315168Y-185679042D02*
X205315168Y-185607614D01*
X205315168Y-185607614D02*
X205386596Y-185464757D01*
X205386596Y-185464757D02*
X205529454Y-185393328D01*
X205529454Y-185393328D02*
X205743739Y-185393328D01*
X205743739Y-185393328D02*
X205886596Y-185464757D01*
X206600882Y-186250471D02*
X206672311Y-186321900D01*
X206672311Y-186321900D02*
X206600882Y-186393328D01*
X206600882Y-186393328D02*
X206529454Y-186321900D01*
X206529454Y-186321900D02*
X206600882Y-186250471D01*
X206600882Y-186250471D02*
X206600882Y-186393328D01*
X207315168Y-186393328D02*
X207315168Y-184893328D01*
X207458026Y-185821900D02*
X207886597Y-186393328D01*
X207886597Y-185393328D02*
X207315168Y-185964757D01*
X208529454Y-186393328D02*
X208529454Y-185393328D01*
X208529454Y-184893328D02*
X208458026Y-184964757D01*
X208458026Y-184964757D02*
X208529454Y-185036185D01*
X208529454Y-185036185D02*
X208600883Y-184964757D01*
X208600883Y-184964757D02*
X208529454Y-184893328D01*
X208529454Y-184893328D02*
X208529454Y-185036185D01*
X209886598Y-186321900D02*
X209743740Y-186393328D01*
X209743740Y-186393328D02*
X209458026Y-186393328D01*
X209458026Y-186393328D02*
X209315169Y-186321900D01*
X209315169Y-186321900D02*
X209243740Y-186250471D01*
X209243740Y-186250471D02*
X209172312Y-186107614D01*
X209172312Y-186107614D02*
X209172312Y-185679042D01*
X209172312Y-185679042D02*
X209243740Y-185536185D01*
X209243740Y-185536185D02*
X209315169Y-185464757D01*
X209315169Y-185464757D02*
X209458026Y-185393328D01*
X209458026Y-185393328D02*
X209743740Y-185393328D01*
X209743740Y-185393328D02*
X209886598Y-185464757D01*
X211172312Y-186393328D02*
X211172312Y-185607614D01*
X211172312Y-185607614D02*
X211100883Y-185464757D01*
X211100883Y-185464757D02*
X210958026Y-185393328D01*
X210958026Y-185393328D02*
X210672312Y-185393328D01*
X210672312Y-185393328D02*
X210529454Y-185464757D01*
X211172312Y-186321900D02*
X211029454Y-186393328D01*
X211029454Y-186393328D02*
X210672312Y-186393328D01*
X210672312Y-186393328D02*
X210529454Y-186321900D01*
X210529454Y-186321900D02*
X210458026Y-186179042D01*
X210458026Y-186179042D02*
X210458026Y-186036185D01*
X210458026Y-186036185D02*
X210529454Y-185893328D01*
X210529454Y-185893328D02*
X210672312Y-185821900D01*
X210672312Y-185821900D02*
X211029454Y-185821900D01*
X211029454Y-185821900D02*
X211172312Y-185750471D01*
X212529455Y-186393328D02*
X212529455Y-184893328D01*
X212529455Y-186321900D02*
X212386597Y-186393328D01*
X212386597Y-186393328D02*
X212100883Y-186393328D01*
X212100883Y-186393328D02*
X211958026Y-186321900D01*
X211958026Y-186321900D02*
X211886597Y-186250471D01*
X211886597Y-186250471D02*
X211815169Y-186107614D01*
X211815169Y-186107614D02*
X211815169Y-185679042D01*
X211815169Y-185679042D02*
X211886597Y-185536185D01*
X211886597Y-185536185D02*
X211958026Y-185464757D01*
X211958026Y-185464757D02*
X212100883Y-185393328D01*
X212100883Y-185393328D02*
X212386597Y-185393328D01*
X212386597Y-185393328D02*
X212529455Y-185464757D01*
X212886598Y-186536185D02*
X214029455Y-186536185D01*
X214386597Y-185393328D02*
X214386597Y-186893328D01*
X214386597Y-185464757D02*
X214529455Y-185393328D01*
X214529455Y-185393328D02*
X214815169Y-185393328D01*
X214815169Y-185393328D02*
X214958026Y-185464757D01*
X214958026Y-185464757D02*
X215029455Y-185536185D01*
X215029455Y-185536185D02*
X215100883Y-185679042D01*
X215100883Y-185679042D02*
X215100883Y-186107614D01*
X215100883Y-186107614D02*
X215029455Y-186250471D01*
X215029455Y-186250471D02*
X214958026Y-186321900D01*
X214958026Y-186321900D02*
X214815169Y-186393328D01*
X214815169Y-186393328D02*
X214529455Y-186393328D01*
X214529455Y-186393328D02*
X214386597Y-186321900D01*
X216386598Y-186321900D02*
X216243740Y-186393328D01*
X216243740Y-186393328D02*
X215958026Y-186393328D01*
X215958026Y-186393328D02*
X215815169Y-186321900D01*
X215815169Y-186321900D02*
X215743740Y-186250471D01*
X215743740Y-186250471D02*
X215672312Y-186107614D01*
X215672312Y-186107614D02*
X215672312Y-185679042D01*
X215672312Y-185679042D02*
X215743740Y-185536185D01*
X215743740Y-185536185D02*
X215815169Y-185464757D01*
X215815169Y-185464757D02*
X215958026Y-185393328D01*
X215958026Y-185393328D02*
X216243740Y-185393328D01*
X216243740Y-185393328D02*
X216386598Y-185464757D01*
X217029454Y-186393328D02*
X217029454Y-184893328D01*
X217029454Y-185464757D02*
X217172312Y-185393328D01*
X217172312Y-185393328D02*
X217458026Y-185393328D01*
X217458026Y-185393328D02*
X217600883Y-185464757D01*
X217600883Y-185464757D02*
X217672312Y-185536185D01*
X217672312Y-185536185D02*
X217743740Y-185679042D01*
X217743740Y-185679042D02*
X217743740Y-186107614D01*
X217743740Y-186107614D02*
X217672312Y-186250471D01*
X217672312Y-186250471D02*
X217600883Y-186321900D01*
X217600883Y-186321900D02*
X217458026Y-186393328D01*
X217458026Y-186393328D02*
X217172312Y-186393328D01*
X217172312Y-186393328D02*
X217029454Y-186321900D01*
X177002200Y-181507200D02*
X285002200Y-181507200D01*
X178386598Y-183621900D02*
X178600884Y-183693328D01*
X178600884Y-183693328D02*
X178958026Y-183693328D01*
X178958026Y-183693328D02*
X179100884Y-183621900D01*
X179100884Y-183621900D02*
X179172312Y-183550471D01*
X179172312Y-183550471D02*
X179243741Y-183407614D01*
X179243741Y-183407614D02*
X179243741Y-183264757D01*
X179243741Y-183264757D02*
X179172312Y-183121900D01*
X179172312Y-183121900D02*
X179100884Y-183050471D01*
X179100884Y-183050471D02*
X178958026Y-182979042D01*
X178958026Y-182979042D02*
X178672312Y-182907614D01*
X178672312Y-182907614D02*
X178529455Y-182836185D01*
X178529455Y-182836185D02*
X178458026Y-182764757D01*
X178458026Y-182764757D02*
X178386598Y-182621900D01*
X178386598Y-182621900D02*
X178386598Y-182479042D01*
X178386598Y-182479042D02*
X178458026Y-182336185D01*
X178458026Y-182336185D02*
X178529455Y-182264757D01*
X178529455Y-182264757D02*
X178672312Y-182193328D01*
X178672312Y-182193328D02*
X179029455Y-182193328D01*
X179029455Y-182193328D02*
X179243741Y-182264757D01*
X179886597Y-183693328D02*
X179886597Y-182193328D01*
X180529455Y-183693328D02*
X180529455Y-182907614D01*
X180529455Y-182907614D02*
X180458026Y-182764757D01*
X180458026Y-182764757D02*
X180315169Y-182693328D01*
X180315169Y-182693328D02*
X180100883Y-182693328D01*
X180100883Y-182693328D02*
X179958026Y-182764757D01*
X179958026Y-182764757D02*
X179886597Y-182836185D01*
X181815169Y-183621900D02*
X181672312Y-183693328D01*
X181672312Y-183693328D02*
X181386598Y-183693328D01*
X181386598Y-183693328D02*
X181243740Y-183621900D01*
X181243740Y-183621900D02*
X181172312Y-183479042D01*
X181172312Y-183479042D02*
X181172312Y-182907614D01*
X181172312Y-182907614D02*
X181243740Y-182764757D01*
X181243740Y-182764757D02*
X181386598Y-182693328D01*
X181386598Y-182693328D02*
X181672312Y-182693328D01*
X181672312Y-182693328D02*
X181815169Y-182764757D01*
X181815169Y-182764757D02*
X181886598Y-182907614D01*
X181886598Y-182907614D02*
X181886598Y-183050471D01*
X181886598Y-183050471D02*
X181172312Y-183193328D01*
X183100883Y-183621900D02*
X182958026Y-183693328D01*
X182958026Y-183693328D02*
X182672312Y-183693328D01*
X182672312Y-183693328D02*
X182529454Y-183621900D01*
X182529454Y-183621900D02*
X182458026Y-183479042D01*
X182458026Y-183479042D02*
X182458026Y-182907614D01*
X182458026Y-182907614D02*
X182529454Y-182764757D01*
X182529454Y-182764757D02*
X182672312Y-182693328D01*
X182672312Y-182693328D02*
X182958026Y-182693328D01*
X182958026Y-182693328D02*
X183100883Y-182764757D01*
X183100883Y-182764757D02*
X183172312Y-182907614D01*
X183172312Y-182907614D02*
X183172312Y-183050471D01*
X183172312Y-183050471D02*
X182458026Y-183193328D01*
X183600883Y-182693328D02*
X184172311Y-182693328D01*
X183815168Y-182193328D02*
X183815168Y-183479042D01*
X183815168Y-183479042D02*
X183886597Y-183621900D01*
X183886597Y-183621900D02*
X184029454Y-183693328D01*
X184029454Y-183693328D02*
X184172311Y-183693328D01*
X184672311Y-183550471D02*
X184743740Y-183621900D01*
X184743740Y-183621900D02*
X184672311Y-183693328D01*
X184672311Y-183693328D02*
X184600883Y-183621900D01*
X184600883Y-183621900D02*
X184672311Y-183550471D01*
X184672311Y-183550471D02*
X184672311Y-183693328D01*
X184672311Y-182764757D02*
X184743740Y-182836185D01*
X184743740Y-182836185D02*
X184672311Y-182907614D01*
X184672311Y-182907614D02*
X184600883Y-182836185D01*
X184600883Y-182836185D02*
X184672311Y-182764757D01*
X184672311Y-182764757D02*
X184672311Y-182907614D01*
X197002200Y-191507200D02*
X197002200Y-194507200D01*
X261002200Y-191507200D02*
X261002200Y-198007200D01*
D13*
%TO.P,D4,1,K_1*%
%TO.N,GND*%
X169100000Y-126500000D03*
%TO.P,D4,2,A_2*%
%TO.N,Net-(D4-A)*%
X171900000Y-126500000D03*
%TD*%
D14*
%TO.P,U1,1,GND_1*%
%TO.N,GND*%
X87380000Y-66500000D03*
%TO.P,U1,2,VCC_2*%
%TO.N,+5V*%
X89920000Y-66500000D03*
%TO.P,U1,3,SCL_3*%
%TO.N,/SCL_SCREEN*%
X92460000Y-66500000D03*
%TO.P,U1,4,SDA_4*%
%TO.N,/SDA_SCREEN*%
X95000000Y-66500000D03*
%TD*%
D15*
%TO.P,SW1,1,1_1*%
%TO.N,/SW_INIT_OUT*%
X87960000Y-106500000D03*
%TO.P,SW1,2,2_2*%
%TO.N,GND*%
X93040000Y-106500000D03*
%TO.P,SW1,3,3_3*%
%TO.N,unconnected-(SW1-Pad3)*%
X87960000Y-120500000D03*
%TO.P,SW1,4,4_4*%
%TO.N,unconnected-(SW1-Pad4)*%
X93080000Y-120500000D03*
%TD*%
D16*
%TO.P,R1,1*%
%TO.N,/LED_POW*%
X183525000Y-76500000D03*
%TO.P,R1,2*%
%TO.N,Net-(D1-A)*%
X180600000Y-76500000D03*
%TD*%
%TO.P,R2,1*%
%TO.N,/LED_INIT*%
X98025000Y-126500000D03*
%TO.P,R2,2*%
%TO.N,Net-(D2-A)*%
X95100000Y-126500000D03*
%TD*%
%TO.P,R4,1*%
%TO.N,/LED_PAUSE*%
X179525000Y-126500000D03*
%TO.P,R4,2*%
%TO.N,Net-(D4-A)*%
X176600000Y-126500000D03*
%TD*%
D13*
%TO.P,D1,1,K_1*%
%TO.N,GND*%
X169100000Y-76500000D03*
%TO.P,D1,2,A_2*%
%TO.N,Net-(D1-A)*%
X171900000Y-76500000D03*
%TD*%
%TO.P,D2,1,K_1*%
%TO.N,GND*%
X89100000Y-126500000D03*
%TO.P,D2,2,A_2*%
%TO.N,Net-(D2-A)*%
X91900000Y-126500000D03*
%TD*%
D17*
%TO.P,C1,1,+_1*%
%TO.N,+5V*%
X188025000Y-76500000D03*
%TO.P,C1,2,-_2*%
%TO.N,GND*%
X190975000Y-76500000D03*
%TD*%
D18*
%TO.P,J1,1,Pin_1_1*%
%TO.N,+5V*%
X185500000Y-84480000D03*
%TO.P,J1,2,Pin_2_2*%
%TO.N,GND*%
X185500000Y-87020000D03*
%TO.P,J1,3,Pin_3_3*%
%TO.N,/CLK_ROT*%
X185500000Y-89560000D03*
%TO.P,J1,4,Pin_4_4*%
%TO.N,/DT_ROT*%
X185500000Y-92100000D03*
%TO.P,J1,5,Pin_5_5*%
%TO.N,/SW_ROT*%
X185500000Y-94640000D03*
%TO.P,J1,6,Pin_6_6*%
%TO.N,/SCL_SCREEN*%
X185500000Y-97180000D03*
%TO.P,J1,7,Pin_7_7*%
%TO.N,/SDA_SCREEN*%
X185500000Y-99720000D03*
%TO.P,J1,8,Pin_8_8*%
%TO.N,/LED_POW*%
X185500000Y-102260000D03*
%TO.P,J1,9,Pin_9_9*%
%TO.N,/LED_INIT*%
X185500000Y-104800000D03*
%TO.P,J1,10,Pin_10_10*%
%TO.N,/LED_START*%
X185500000Y-107340000D03*
%TO.P,J1,11,Pin_11_11*%
%TO.N,/LED_PAUSE*%
X185500000Y-109880000D03*
%TO.P,J1,12,Pin_12_12*%
%TO.N,/SW_INIT_OUT*%
X185500000Y-112420000D03*
%TO.P,J1,13,Pin_13_13*%
%TO.N,/SW_START_OUT*%
X185500000Y-114960000D03*
%TO.P,J1,14,Pin_14_14*%
%TO.N,/SW_PAUSE_OUT*%
X185500000Y-117500000D03*
%TD*%
D19*
%TO.P,SW4,1,CLK_1*%
%TO.N,/CLK_ROT*%
X143310000Y-70800000D03*
%TO.P,SW4,2,DT_2*%
%TO.N,/DT_ROT*%
X143310000Y-73340000D03*
%TO.P,SW4,3,SW_3*%
%TO.N,/SW_ROT*%
X143310000Y-75880000D03*
%TO.P,SW4,4,S1_4*%
%TO.N,+5V*%
X143310000Y-78420000D03*
%TO.P,SW4,5,S2_5*%
%TO.N,GND*%
X143310000Y-80960000D03*
%TD*%
D16*
%TO.P,R3,1*%
%TO.N,/LED_START*%
X139025000Y-126500000D03*
%TO.P,R3,2*%
%TO.N,Net-(D3-A)*%
X136100000Y-126500000D03*
%TD*%
D15*
%TO.P,SW3,1,1_1*%
%TO.N,/SW_PAUSE_OUT*%
X167960000Y-106500000D03*
%TO.P,SW3,2,2_2*%
%TO.N,GND*%
X173040000Y-106500000D03*
%TO.P,SW3,3,3_3*%
%TO.N,unconnected-(SW3-Pad3)*%
X167960000Y-120500000D03*
%TO.P,SW3,4,4_4*%
%TO.N,unconnected-(SW3-Pad4)*%
X173080000Y-120500000D03*
%TD*%
D17*
%TO.P,C2,1,+_1*%
%TO.N,+5V*%
X188025000Y-71000000D03*
%TO.P,C2,2,-_2*%
%TO.N,GND*%
X190975000Y-71000000D03*
%TD*%
D20*
%TO.P,C5,1,+_1*%
%TO.N,/SDA_SCREEN*%
X95000000Y-97025000D03*
%TO.P,C5,2,-_2*%
%TO.N,GND*%
X95000000Y-99975000D03*
%TD*%
D21*
%TO.P,C4,1,+_1*%
%TO.N,/SCL_SCREEN*%
X92000000Y-62500000D03*
%TO.P,C4,2,-_2*%
%TO.N,GND*%
X92000000Y-59550000D03*
%TD*%
D20*
%TO.P,C6,1,+_1*%
%TO.N,+5V*%
X90000000Y-97000000D03*
%TO.P,C6,2,-_2*%
%TO.N,GND*%
X90000000Y-99950000D03*
%TD*%
D13*
%TO.P,D3,1,K_1*%
%TO.N,GND*%
X129100000Y-126500000D03*
%TO.P,D3,2,A_2*%
%TO.N,Net-(D3-A)*%
X131900000Y-126500000D03*
%TD*%
D15*
%TO.P,SW2,1,1_1*%
%TO.N,/SW_START_OUT*%
X127960000Y-106500000D03*
%TO.P,SW2,2,2_2*%
%TO.N,GND*%
X133040000Y-106500000D03*
%TO.P,SW2,3,3_3*%
%TO.N,unconnected-(SW2-Pad3)*%
X127960000Y-120500000D03*
%TO.P,SW2,4,4_4*%
%TO.N,unconnected-(SW2-Pad4)*%
X133080000Y-120500000D03*
%TD*%
D21*
%TO.P,C3,1,+_1*%
%TO.N,+5V*%
X87000000Y-62450000D03*
%TO.P,C3,2,-_2*%
%TO.N,GND*%
X87000000Y-59500000D03*
%TD*%
%TO.N,GND*%
D22*
X92000000Y-129500000D02*
X89100000Y-126600000D01*
X85000000Y-59500000D02*
X83500000Y-61000000D01*
X190975000Y-76500000D02*
X190975000Y-85025000D01*
X188980000Y-87020000D02*
X185500000Y-87020000D01*
X133040000Y-106500000D02*
X137500000Y-106500000D01*
X169100000Y-79100000D02*
X177020000Y-87020000D01*
X94975000Y-99950000D02*
X95000000Y-99975000D01*
X102000000Y-102500000D02*
X131500000Y-102500000D01*
X83500000Y-70380000D02*
X87380000Y-66500000D01*
X137500000Y-106500000D02*
X141500000Y-102500000D01*
X190975000Y-85025000D02*
X188980000Y-87020000D01*
X131500000Y-102500000D02*
X133040000Y-104040000D01*
X89100000Y-126500000D02*
X85500000Y-126500000D01*
X154000000Y-126500000D02*
X151000000Y-129500000D01*
X133040000Y-104040000D02*
X133040000Y-106500000D01*
X169100000Y-126500000D02*
X154000000Y-126500000D01*
X89100000Y-126600000D02*
X89100000Y-126500000D01*
X151000000Y-129500000D02*
X132100000Y-129500000D01*
X129100000Y-126500000D02*
X129000000Y-126500000D01*
X171000000Y-102500000D02*
X173040000Y-104540000D01*
X83500000Y-102500000D02*
X83500000Y-100000000D01*
X93040000Y-106500000D02*
X98000000Y-106500000D01*
X90000000Y-103460000D02*
X90000000Y-99950000D01*
X83500000Y-65500000D02*
X84500000Y-66500000D01*
X87000000Y-59500000D02*
X85000000Y-59500000D01*
X85500000Y-126500000D02*
X83500000Y-124500000D01*
X141500000Y-102500000D02*
X171000000Y-102500000D01*
X90000000Y-99950000D02*
X83550000Y-99950000D01*
X83500000Y-100000000D02*
X83500000Y-70380000D01*
X93040000Y-106500000D02*
X90000000Y-103460000D01*
X132100000Y-129500000D02*
X129100000Y-126500000D01*
X173040000Y-104540000D02*
X173040000Y-106500000D01*
X84500000Y-66500000D02*
X87380000Y-66500000D01*
X90000000Y-99950000D02*
X94975000Y-99950000D01*
X98000000Y-106500000D02*
X102000000Y-102500000D01*
X126100000Y-129500000D02*
X92000000Y-129500000D01*
X91950000Y-59500000D02*
X92000000Y-59550000D01*
X83500000Y-61000000D02*
X83500000Y-65500000D01*
X169100000Y-76500000D02*
X169100000Y-79100000D01*
X83500000Y-124500000D02*
X83500000Y-102500000D01*
X177020000Y-87020000D02*
X185500000Y-87020000D01*
X190975000Y-71000000D02*
X190975000Y-76500000D01*
X87000000Y-59500000D02*
X91950000Y-59500000D01*
X129100000Y-126500000D02*
X126100000Y-129500000D01*
X83550000Y-99950000D02*
X83500000Y-100000000D01*
%TO.N,Net-(D4-A)*%
X176600000Y-126500000D02*
X171900000Y-126500000D01*
%TO.N,+5V*%
X87000000Y-62450000D02*
X87950000Y-62450000D01*
X188025000Y-76500000D02*
X188025000Y-71000000D01*
X90000000Y-64500000D02*
X89920000Y-64580000D01*
X87950000Y-62450000D02*
X90000000Y-64500000D01*
X185500000Y-79025000D02*
X188025000Y-76500000D01*
X89920000Y-66500000D02*
X89920000Y-96420000D01*
X89920000Y-96420000D02*
X90500000Y-97000000D01*
X185500000Y-84480000D02*
X185500000Y-79025000D01*
X89920000Y-64580000D02*
X89920000Y-66500000D01*
%TO.N,/SCL_SCREEN*%
X92000000Y-66040000D02*
X92460000Y-66500000D01*
X133680000Y-97180000D02*
X99000000Y-62500000D01*
X185500000Y-97180000D02*
X133680000Y-97180000D01*
X99000000Y-62500000D02*
X92000000Y-62500000D01*
X92000000Y-62500000D02*
X92000000Y-66040000D01*
%TO.N,/SDA_SCREEN*%
X185245000Y-99975000D02*
X185500000Y-99720000D01*
X96000000Y-97025000D02*
X95000000Y-97025000D01*
X98695000Y-99720000D02*
X185500000Y-99720000D01*
X98695000Y-99720000D02*
X96000000Y-97025000D01*
X95000000Y-66500000D02*
X95000000Y-97025000D01*
%TO.N,/LED_POW*%
X192000000Y-68000000D02*
X193500000Y-69500000D01*
X183525000Y-69975000D02*
X185500000Y-68000000D01*
X183525000Y-76500000D02*
X183525000Y-69975000D01*
X193500000Y-100000000D02*
X191240000Y-102260000D01*
X191240000Y-102260000D02*
X185500000Y-102260000D01*
X185500000Y-68000000D02*
X192000000Y-68000000D01*
X193500000Y-69500000D02*
X193500000Y-100000000D01*
%TO.N,Net-(D1-A)*%
X180600000Y-76500000D02*
X171900000Y-76500000D01*
%TO.N,/LED_INIT*%
X155000000Y-118000000D02*
X161500000Y-111500000D01*
X175500000Y-111500000D02*
X182200000Y-104800000D01*
X161500000Y-111500000D02*
X175500000Y-111500000D01*
X182200000Y-104800000D02*
X185500000Y-104800000D01*
X124500000Y-118000000D02*
X155000000Y-118000000D01*
X116000000Y-126500000D02*
X124500000Y-118000000D01*
X98025000Y-126500000D02*
X116000000Y-126500000D01*
%TO.N,Net-(D2-A)*%
X91900000Y-126500000D02*
X95100000Y-126500000D01*
%TO.N,/LED_PAUSE*%
X188500000Y-119500000D02*
X188500000Y-111000000D01*
X187380000Y-109880000D02*
X185500000Y-109880000D01*
X181500000Y-126500000D02*
X188500000Y-119500000D01*
X188500000Y-111000000D02*
X187380000Y-109880000D01*
X179525000Y-126500000D02*
X181500000Y-126500000D01*
%TO.N,/CLK_ROT*%
X151300000Y-70800000D02*
X143310000Y-70800000D01*
X185500000Y-89560000D02*
X170060000Y-89560000D01*
X170060000Y-89560000D02*
X151300000Y-70800000D01*
%TO.N,/DT_ROT*%
X169600000Y-92100000D02*
X150840000Y-73340000D01*
X150840000Y-73340000D02*
X143310000Y-73340000D01*
X185500000Y-92100000D02*
X169600000Y-92100000D01*
%TO.N,/SW_ROT*%
X150380000Y-75880000D02*
X143310000Y-75880000D01*
X185500000Y-94640000D02*
X169140000Y-94640000D01*
X169140000Y-94640000D02*
X150380000Y-75880000D01*
%TO.N,/LED_START*%
X172500000Y-118500000D02*
X158500000Y-118500000D01*
X158500000Y-118500000D02*
X150500000Y-126500000D01*
X183660000Y-107340000D02*
X172500000Y-118500000D01*
X185500000Y-107340000D02*
X183660000Y-107340000D01*
X150500000Y-126500000D02*
X139025000Y-126500000D01*
X138500000Y-126500000D02*
X138576527Y-126576527D01*
%TO.N,Net-(D3-A)*%
X136100000Y-126500000D02*
X131900000Y-126500000D01*
%TD*%
%TA.AperFunction,Conductor*%
%TO.N,GND*%
G36*
X194942539Y-57020185D02*
G01*
X194988294Y-57072989D01*
X194999500Y-57124500D01*
X194999500Y-130875500D01*
X194979815Y-130942539D01*
X194927011Y-130988294D01*
X194875500Y-130999500D01*
X66124500Y-130999500D01*
X66057461Y-130979815D01*
X66011706Y-130927011D01*
X66000500Y-130875500D01*
X66000500Y-125378711D01*
X69649500Y-125378711D01*
X69649500Y-125621288D01*
X69681161Y-125861785D01*
X69743947Y-126096104D01*
X69754188Y-126120827D01*
X69836776Y-126320212D01*
X69958064Y-126530289D01*
X69958066Y-126530292D01*
X69958067Y-126530293D01*
X70105733Y-126722736D01*
X70105739Y-126722743D01*
X70277256Y-126894260D01*
X70277262Y-126894265D01*
X70469711Y-127041936D01*
X70679788Y-127163224D01*
X70903900Y-127256054D01*
X71138211Y-127318838D01*
X71318586Y-127342584D01*
X71378711Y-127350500D01*
X71378712Y-127350500D01*
X71621289Y-127350500D01*
X71669388Y-127344167D01*
X71861789Y-127318838D01*
X72096100Y-127256054D01*
X72291816Y-127174986D01*
X87975001Y-127174986D01*
X87985494Y-127277697D01*
X88040641Y-127444119D01*
X88040643Y-127444124D01*
X88132684Y-127593345D01*
X88256654Y-127717315D01*
X88405875Y-127809356D01*
X88405880Y-127809358D01*
X88572302Y-127864505D01*
X88572309Y-127864506D01*
X88675019Y-127874999D01*
X88849999Y-127874999D01*
X89350000Y-127874999D01*
X89524972Y-127874999D01*
X89524986Y-127874998D01*
X89627697Y-127864505D01*
X89794119Y-127809358D01*
X89794124Y-127809356D01*
X89943345Y-127717315D01*
X90067315Y-127593345D01*
X90159356Y-127444124D01*
X90159358Y-127444119D01*
X90214505Y-127277697D01*
X90214506Y-127277690D01*
X90224999Y-127174986D01*
X90225000Y-127174973D01*
X90225000Y-126750000D01*
X89350000Y-126750000D01*
X89350000Y-127874999D01*
X88849999Y-127874999D01*
X88850000Y-127874998D01*
X88850000Y-126750000D01*
X87975001Y-126750000D01*
X87975001Y-127174986D01*
X72291816Y-127174986D01*
X72320212Y-127163224D01*
X72530289Y-127041936D01*
X72722738Y-126894265D01*
X72894265Y-126722738D01*
X73041936Y-126530289D01*
X73163224Y-126320212D01*
X73256054Y-126096100D01*
X73318838Y-125861789D01*
X73323680Y-125825013D01*
X87975000Y-125825013D01*
X87975000Y-126250000D01*
X88850000Y-126250000D01*
X89350000Y-126250000D01*
X90224999Y-126250000D01*
X90224999Y-125825024D01*
X90224998Y-125825016D01*
X90224995Y-125824983D01*
X90774500Y-125824983D01*
X90774500Y-127175001D01*
X90774501Y-127175018D01*
X90785000Y-127277796D01*
X90785001Y-127277799D01*
X90840115Y-127444119D01*
X90840186Y-127444334D01*
X90932288Y-127593656D01*
X91056344Y-127717712D01*
X91205666Y-127809814D01*
X91372203Y-127864999D01*
X91474991Y-127875500D01*
X92325008Y-127875499D01*
X92325016Y-127875498D01*
X92325019Y-127875498D01*
X92381302Y-127869748D01*
X92427797Y-127864999D01*
X92594334Y-127809814D01*
X92743656Y-127717712D01*
X92867712Y-127593656D01*
X92959814Y-127444334D01*
X92979311Y-127385493D01*
X93019084Y-127328051D01*
X93083600Y-127301228D01*
X93097017Y-127300500D01*
X93965483Y-127300500D01*
X94032522Y-127320185D01*
X94078277Y-127372989D01*
X94083186Y-127385489D01*
X94102686Y-127444334D01*
X94194788Y-127593656D01*
X94318844Y-127717712D01*
X94468166Y-127809814D01*
X94634703Y-127864999D01*
X94737491Y-127875500D01*
X95462508Y-127875499D01*
X95462516Y-127875498D01*
X95462519Y-127875498D01*
X95518802Y-127869748D01*
X95565297Y-127864999D01*
X95731834Y-127809814D01*
X95881156Y-127717712D01*
X96005212Y-127593656D01*
X96097314Y-127444334D01*
X96152499Y-127277797D01*
X96163000Y-127175009D01*
X96162999Y-125824992D01*
X96152499Y-125722203D01*
X96097314Y-125555666D01*
X96005212Y-125406344D01*
X95881156Y-125282288D01*
X95731834Y-125190186D01*
X95565297Y-125135001D01*
X95565295Y-125135000D01*
X95462510Y-125124500D01*
X94737498Y-125124500D01*
X94737480Y-125124501D01*
X94634703Y-125135000D01*
X94634700Y-125135001D01*
X94468168Y-125190185D01*
X94468163Y-125190187D01*
X94318842Y-125282289D01*
X94194789Y-125406342D01*
X94102687Y-125555663D01*
X94102686Y-125555666D01*
X94083189Y-125614505D01*
X94043416Y-125671949D01*
X93978900Y-125698772D01*
X93965483Y-125699500D01*
X93097017Y-125699500D01*
X93029978Y-125679815D01*
X92984223Y-125627011D01*
X92979311Y-125614505D01*
X92959814Y-125555666D01*
X92867712Y-125406344D01*
X92743656Y-125282288D01*
X92594334Y-125190186D01*
X92427797Y-125135001D01*
X92427795Y-125135000D01*
X92325010Y-125124500D01*
X91474998Y-125124500D01*
X91474980Y-125124501D01*
X91372203Y-125135000D01*
X91372200Y-125135001D01*
X91205668Y-125190185D01*
X91205663Y-125190187D01*
X91056342Y-125282289D01*
X90932289Y-125406342D01*
X90840187Y-125555663D01*
X90840185Y-125555668D01*
X90840115Y-125555880D01*
X90785001Y-125722203D01*
X90785001Y-125722204D01*
X90785000Y-125722204D01*
X90774500Y-125824983D01*
X90224995Y-125824983D01*
X90214505Y-125722302D01*
X90159358Y-125555880D01*
X90159356Y-125555875D01*
X90067315Y-125406654D01*
X89943345Y-125282684D01*
X89794124Y-125190643D01*
X89794119Y-125190641D01*
X89627697Y-125135494D01*
X89627690Y-125135493D01*
X89524986Y-125125000D01*
X89350000Y-125125000D01*
X89350000Y-126250000D01*
X88850000Y-126250000D01*
X88850000Y-125125000D01*
X88675029Y-125125000D01*
X88675012Y-125125001D01*
X88572302Y-125135494D01*
X88405880Y-125190641D01*
X88405875Y-125190643D01*
X88256654Y-125282684D01*
X88132684Y-125406654D01*
X88040643Y-125555875D01*
X88040641Y-125555880D01*
X87985494Y-125722302D01*
X87985493Y-125722309D01*
X87975000Y-125825013D01*
X73323680Y-125825013D01*
X73337202Y-125722302D01*
X73350500Y-125621288D01*
X73350500Y-125378711D01*
X73337806Y-125282288D01*
X73318838Y-125138211D01*
X73256054Y-124903900D01*
X73163224Y-124679788D01*
X73041936Y-124469711D01*
X72894265Y-124277262D01*
X72894260Y-124277256D01*
X72722743Y-124105739D01*
X72722736Y-124105733D01*
X72530293Y-123958067D01*
X72530292Y-123958066D01*
X72530289Y-123958064D01*
X72320212Y-123836776D01*
X72320205Y-123836773D01*
X72096104Y-123743947D01*
X71861785Y-123681161D01*
X71621289Y-123649500D01*
X71621288Y-123649500D01*
X71378712Y-123649500D01*
X71378711Y-123649500D01*
X71138214Y-123681161D01*
X70903895Y-123743947D01*
X70679794Y-123836773D01*
X70679785Y-123836777D01*
X70469706Y-123958067D01*
X70277263Y-124105733D01*
X70277256Y-124105739D01*
X70105739Y-124277256D01*
X70105733Y-124277263D01*
X69958067Y-124469706D01*
X69836777Y-124679785D01*
X69836773Y-124679794D01*
X69743947Y-124903895D01*
X69681161Y-125138214D01*
X69649500Y-125378711D01*
X66000500Y-125378711D01*
X66000500Y-119999655D01*
X86189500Y-119999655D01*
X86189500Y-121000354D01*
X86195825Y-121069966D01*
X86195828Y-121069977D01*
X86245747Y-121230175D01*
X86245749Y-121230179D01*
X86332556Y-121373777D01*
X86332560Y-121373782D01*
X86451217Y-121492439D01*
X86451222Y-121492443D01*
X86571815Y-121565343D01*
X86594822Y-121579251D01*
X86755029Y-121629173D01*
X86824653Y-121635500D01*
X89095346Y-121635499D01*
X89095353Y-121635499D01*
X89164966Y-121629174D01*
X89164969Y-121629173D01*
X89164971Y-121629173D01*
X89325178Y-121579251D01*
X89399089Y-121534570D01*
X89468777Y-121492443D01*
X89468778Y-121492441D01*
X89468783Y-121492439D01*
X89587439Y-121373783D01*
X89674251Y-121230178D01*
X89724173Y-121069971D01*
X89730500Y-121000347D01*
X89730499Y-119999655D01*
X91309500Y-119999655D01*
X91309500Y-121000354D01*
X91315825Y-121069966D01*
X91315828Y-121069977D01*
X91365747Y-121230175D01*
X91365749Y-121230179D01*
X91452556Y-121373777D01*
X91452560Y-121373782D01*
X91571217Y-121492439D01*
X91571222Y-121492443D01*
X91691815Y-121565343D01*
X91714822Y-121579251D01*
X91875029Y-121629173D01*
X91944653Y-121635500D01*
X94215346Y-121635499D01*
X94215353Y-121635499D01*
X94284966Y-121629174D01*
X94284969Y-121629173D01*
X94284971Y-121629173D01*
X94445178Y-121579251D01*
X94519089Y-121534570D01*
X94588777Y-121492443D01*
X94588778Y-121492441D01*
X94588783Y-121492439D01*
X94707439Y-121373783D01*
X94794251Y-121230178D01*
X94844173Y-121069971D01*
X94850500Y-121000347D01*
X94850499Y-119999654D01*
X94850499Y-119999653D01*
X94850499Y-119999645D01*
X94844174Y-119930033D01*
X94844171Y-119930022D01*
X94794252Y-119769824D01*
X94794250Y-119769820D01*
X94707443Y-119626222D01*
X94707439Y-119626217D01*
X94588782Y-119507560D01*
X94588777Y-119507556D01*
X94445180Y-119420750D01*
X94445179Y-119420749D01*
X94445178Y-119420749D01*
X94284971Y-119370827D01*
X94284969Y-119370826D01*
X94284967Y-119370826D01*
X94236221Y-119366396D01*
X94215347Y-119364500D01*
X94215344Y-119364500D01*
X91944645Y-119364500D01*
X91875033Y-119370825D01*
X91875022Y-119370828D01*
X91714824Y-119420747D01*
X91714820Y-119420749D01*
X91571222Y-119507556D01*
X91571217Y-119507560D01*
X91452560Y-119626217D01*
X91452556Y-119626222D01*
X91365750Y-119769819D01*
X91315826Y-119930032D01*
X91309500Y-119999655D01*
X89730499Y-119999655D01*
X89730499Y-119999654D01*
X89730499Y-119999653D01*
X89730499Y-119999645D01*
X89724174Y-119930033D01*
X89724171Y-119930022D01*
X89674252Y-119769824D01*
X89674250Y-119769820D01*
X89587443Y-119626222D01*
X89587439Y-119626217D01*
X89468782Y-119507560D01*
X89468777Y-119507556D01*
X89325180Y-119420750D01*
X89325179Y-119420749D01*
X89325178Y-119420749D01*
X89164971Y-119370827D01*
X89164969Y-119370826D01*
X89164967Y-119370826D01*
X89116221Y-119366396D01*
X89095347Y-119364500D01*
X89095344Y-119364500D01*
X86824645Y-119364500D01*
X86755033Y-119370825D01*
X86755022Y-119370828D01*
X86594824Y-119420747D01*
X86594820Y-119420749D01*
X86451222Y-119507556D01*
X86451217Y-119507560D01*
X86332560Y-119626217D01*
X86332556Y-119626222D01*
X86245750Y-119769819D01*
X86195826Y-119930032D01*
X86189500Y-119999655D01*
X66000500Y-119999655D01*
X66000500Y-105999655D01*
X86189500Y-105999655D01*
X86189500Y-107000354D01*
X86195825Y-107069966D01*
X86195828Y-107069977D01*
X86245747Y-107230175D01*
X86245749Y-107230179D01*
X86332556Y-107373777D01*
X86332560Y-107373782D01*
X86451217Y-107492439D01*
X86451222Y-107492443D01*
X86571815Y-107565343D01*
X86594822Y-107579251D01*
X86755029Y-107629173D01*
X86824653Y-107635500D01*
X89095346Y-107635499D01*
X89095353Y-107635499D01*
X89164966Y-107629174D01*
X89164969Y-107629173D01*
X89164971Y-107629173D01*
X89325178Y-107579251D01*
X89399089Y-107534570D01*
X89468777Y-107492443D01*
X89468778Y-107492441D01*
X89468783Y-107492439D01*
X89587439Y-107373783D01*
X89674251Y-107230178D01*
X89724173Y-107069971D01*
X89730500Y-107000347D01*
X89730499Y-106453922D01*
X89730499Y-105999701D01*
X91270000Y-105999701D01*
X91270000Y-106250000D01*
X92395025Y-106250000D01*
X92359930Y-106285095D01*
X92313852Y-106364905D01*
X92290000Y-106453922D01*
X92290000Y-106546078D01*
X92313852Y-106635095D01*
X92359930Y-106714905D01*
X92395025Y-106750000D01*
X91270001Y-106750000D01*
X91270001Y-107000308D01*
X91276321Y-107069875D01*
X91276323Y-107069883D01*
X91326208Y-107229970D01*
X91326209Y-107229972D01*
X91412954Y-107373467D01*
X91412957Y-107373471D01*
X91531528Y-107492042D01*
X91531532Y-107492045D01*
X91675026Y-107578789D01*
X91835123Y-107628677D01*
X91904701Y-107634999D01*
X92789999Y-107634999D01*
X92790000Y-107634998D01*
X92790000Y-106850000D01*
X93290000Y-106850000D01*
X93290000Y-107634999D01*
X94175307Y-107634999D01*
X94244875Y-107628678D01*
X94244883Y-107628676D01*
X94404970Y-107578791D01*
X94404972Y-107578790D01*
X94548467Y-107492045D01*
X94548471Y-107492042D01*
X94667042Y-107373471D01*
X94667045Y-107373467D01*
X94753789Y-107229973D01*
X94803677Y-107069876D01*
X94810000Y-107000298D01*
X94810000Y-106750000D01*
X93684975Y-106750000D01*
X93720070Y-106714905D01*
X93766148Y-106635095D01*
X93790000Y-106546078D01*
X93790000Y-106453922D01*
X93766148Y-106364905D01*
X93720070Y-106285095D01*
X93684975Y-106250000D01*
X94809999Y-106250000D01*
X94809999Y-105999691D01*
X94809996Y-105999655D01*
X126189500Y-105999655D01*
X126189500Y-107000354D01*
X126195825Y-107069966D01*
X126195828Y-107069977D01*
X126245747Y-107230175D01*
X126245749Y-107230179D01*
X126332556Y-107373777D01*
X126332560Y-107373782D01*
X126451217Y-107492439D01*
X126451222Y-107492443D01*
X126571815Y-107565343D01*
X126594822Y-107579251D01*
X126755029Y-107629173D01*
X126824653Y-107635500D01*
X129095346Y-107635499D01*
X129095353Y-107635499D01*
X129164966Y-107629174D01*
X129164969Y-107629173D01*
X129164971Y-107629173D01*
X129325178Y-107579251D01*
X129399089Y-107534570D01*
X129468777Y-107492443D01*
X129468778Y-107492441D01*
X129468783Y-107492439D01*
X129587439Y-107373783D01*
X129674251Y-107230178D01*
X129724173Y-107069971D01*
X129730500Y-107000347D01*
X129730499Y-106453922D01*
X129730499Y-105999701D01*
X131270000Y-105999701D01*
X131270000Y-106250000D01*
X132395025Y-106250000D01*
X132359930Y-106285095D01*
X132313852Y-106364905D01*
X132290000Y-106453922D01*
X132290000Y-106546078D01*
X132313852Y-106635095D01*
X132359930Y-106714905D01*
X132395025Y-106750000D01*
X131270001Y-106750000D01*
X131270001Y-107000308D01*
X131276321Y-107069875D01*
X131276323Y-107069883D01*
X131326208Y-107229970D01*
X131326209Y-107229972D01*
X131412954Y-107373467D01*
X131412957Y-107373471D01*
X131531528Y-107492042D01*
X131531532Y-107492045D01*
X131675026Y-107578789D01*
X131835123Y-107628677D01*
X131904701Y-107634999D01*
X132789999Y-107634999D01*
X132790000Y-107634998D01*
X132790000Y-106850000D01*
X133290000Y-106850000D01*
X133290000Y-107634999D01*
X134175307Y-107634999D01*
X134244875Y-107628678D01*
X134244883Y-107628676D01*
X134404970Y-107578791D01*
X134404972Y-107578790D01*
X134548467Y-107492045D01*
X134548471Y-107492042D01*
X134667042Y-107373471D01*
X134667045Y-107373467D01*
X134753789Y-107229973D01*
X134803677Y-107069876D01*
X134810000Y-107000298D01*
X134810000Y-106750000D01*
X133684975Y-106750000D01*
X133720070Y-106714905D01*
X133766148Y-106635095D01*
X133790000Y-106546078D01*
X133790000Y-106453922D01*
X133766148Y-106364905D01*
X133720070Y-106285095D01*
X133684975Y-106250000D01*
X134809999Y-106250000D01*
X134809999Y-105999691D01*
X134809996Y-105999655D01*
X166189500Y-105999655D01*
X166189500Y-107000354D01*
X166195825Y-107069966D01*
X166195828Y-107069977D01*
X166245747Y-107230175D01*
X166245749Y-107230179D01*
X166332556Y-107373777D01*
X166332560Y-107373782D01*
X166451217Y-107492439D01*
X166451222Y-107492443D01*
X166571815Y-107565343D01*
X166594822Y-107579251D01*
X166755029Y-107629173D01*
X166824653Y-107635500D01*
X169095346Y-107635499D01*
X169095353Y-107635499D01*
X169164966Y-107629174D01*
X169164969Y-107629173D01*
X169164971Y-107629173D01*
X169325178Y-107579251D01*
X169399089Y-107534570D01*
X169468777Y-107492443D01*
X169468778Y-107492441D01*
X169468783Y-107492439D01*
X169587439Y-107373783D01*
X169674251Y-107230178D01*
X169724173Y-107069971D01*
X169730500Y-107000347D01*
X169730499Y-106453922D01*
X169730499Y-105999701D01*
X171270000Y-105999701D01*
X171270000Y-106250000D01*
X172395025Y-106250000D01*
X172359930Y-106285095D01*
X172313852Y-106364905D01*
X172290000Y-106453922D01*
X172290000Y-106546078D01*
X172313852Y-106635095D01*
X172359930Y-106714905D01*
X172395025Y-106750000D01*
X171270001Y-106750000D01*
X171270001Y-107000308D01*
X171276321Y-107069875D01*
X171276323Y-107069883D01*
X171326208Y-107229970D01*
X171326209Y-107229972D01*
X171412954Y-107373467D01*
X171412957Y-107373471D01*
X171531528Y-107492042D01*
X171531532Y-107492045D01*
X171675026Y-107578789D01*
X171835123Y-107628677D01*
X171904701Y-107634999D01*
X172789999Y-107634999D01*
X172790000Y-107634998D01*
X172790000Y-106850000D01*
X173290000Y-106850000D01*
X173290000Y-107634999D01*
X174175307Y-107634999D01*
X174244875Y-107628678D01*
X174244883Y-107628676D01*
X174404970Y-107578791D01*
X174404972Y-107578790D01*
X174548467Y-107492045D01*
X174548471Y-107492042D01*
X174667042Y-107373471D01*
X174667045Y-107373467D01*
X174753789Y-107229973D01*
X174803677Y-107069876D01*
X174810000Y-107000298D01*
X174810000Y-106750000D01*
X173684975Y-106750000D01*
X173720070Y-106714905D01*
X173766148Y-106635095D01*
X173790000Y-106546078D01*
X173790000Y-106453922D01*
X173766148Y-106364905D01*
X173720070Y-106285095D01*
X173684975Y-106250000D01*
X174809999Y-106250000D01*
X174809999Y-105999691D01*
X174803678Y-105930124D01*
X174803676Y-105930116D01*
X174753791Y-105770029D01*
X174753790Y-105770027D01*
X174667045Y-105626532D01*
X174667042Y-105626528D01*
X174548471Y-105507957D01*
X174548467Y-105507954D01*
X174404973Y-105421210D01*
X174244876Y-105371322D01*
X174175298Y-105365000D01*
X173290000Y-105365000D01*
X173290000Y-106150000D01*
X172790000Y-106150000D01*
X172790000Y-105365000D01*
X171904691Y-105365000D01*
X171835123Y-105371321D01*
X171835116Y-105371323D01*
X171675029Y-105421208D01*
X171675027Y-105421209D01*
X171531532Y-105507954D01*
X171531528Y-105507957D01*
X171412957Y-105626528D01*
X171412954Y-105626532D01*
X171326210Y-105770026D01*
X171276322Y-105930123D01*
X171270000Y-105999701D01*
X169730499Y-105999701D01*
X169730499Y-105999645D01*
X169724174Y-105930033D01*
X169724171Y-105930022D01*
X169674252Y-105769824D01*
X169674250Y-105769820D01*
X169587443Y-105626222D01*
X169587439Y-105626217D01*
X169468782Y-105507560D01*
X169468777Y-105507556D01*
X169325180Y-105420750D01*
X169325179Y-105420749D01*
X169325178Y-105420749D01*
X169164971Y-105370827D01*
X169164969Y-105370826D01*
X169164967Y-105370826D01*
X169116221Y-105366396D01*
X169095347Y-105364500D01*
X169095344Y-105364500D01*
X166824645Y-105364500D01*
X166755033Y-105370825D01*
X166755022Y-105370828D01*
X166594824Y-105420747D01*
X166594820Y-105420749D01*
X166451222Y-105507556D01*
X166451217Y-105507560D01*
X166332560Y-105626217D01*
X166332556Y-105626222D01*
X166245750Y-105769819D01*
X166245750Y-105769820D01*
X166245749Y-105769822D01*
X166220788Y-105849925D01*
X166195826Y-105930032D01*
X166189500Y-105999655D01*
X134809996Y-105999655D01*
X134803678Y-105930124D01*
X134803676Y-105930116D01*
X134753791Y-105770029D01*
X134753790Y-105770027D01*
X134667045Y-105626532D01*
X134667042Y-105626528D01*
X134548471Y-105507957D01*
X134548467Y-105507954D01*
X134404973Y-105421210D01*
X134244876Y-105371322D01*
X134175298Y-105365000D01*
X133290000Y-105365000D01*
X133290000Y-106150000D01*
X132790000Y-106150000D01*
X132790000Y-105365000D01*
X131904691Y-105365000D01*
X131835123Y-105371321D01*
X131835116Y-105371323D01*
X131675029Y-105421208D01*
X131675027Y-105421209D01*
X131531532Y-105507954D01*
X131531528Y-105507957D01*
X131412957Y-105626528D01*
X131412954Y-105626532D01*
X131326210Y-105770026D01*
X131276322Y-105930123D01*
X131270000Y-105999701D01*
X129730499Y-105999701D01*
X129730499Y-105999645D01*
X129724174Y-105930033D01*
X129724171Y-105930022D01*
X129674252Y-105769824D01*
X129674250Y-105769820D01*
X129587443Y-105626222D01*
X129587439Y-105626217D01*
X129468782Y-105507560D01*
X129468777Y-105507556D01*
X129325180Y-105420750D01*
X129325179Y-105420749D01*
X129325178Y-105420749D01*
X129164971Y-105370827D01*
X129164969Y-105370826D01*
X129164967Y-105370826D01*
X129116221Y-105366396D01*
X129095347Y-105364500D01*
X129095344Y-105364500D01*
X126824645Y-105364500D01*
X126755033Y-105370825D01*
X126755022Y-105370828D01*
X126594824Y-105420747D01*
X126594820Y-105420749D01*
X126451222Y-105507556D01*
X126451217Y-105507560D01*
X126332560Y-105626217D01*
X126332556Y-105626222D01*
X126245750Y-105769819D01*
X126245750Y-105769820D01*
X126245749Y-105769822D01*
X126220788Y-105849925D01*
X126195826Y-105930032D01*
X126189500Y-105999655D01*
X94809996Y-105999655D01*
X94803678Y-105930124D01*
X94803676Y-105930116D01*
X94753791Y-105770029D01*
X94753790Y-105770027D01*
X94667045Y-105626532D01*
X94667042Y-105626528D01*
X94548471Y-105507957D01*
X94548467Y-105507954D01*
X94404973Y-105421210D01*
X94244876Y-105371322D01*
X94175298Y-105365000D01*
X93290000Y-105365000D01*
X93290000Y-106150000D01*
X92790000Y-106150000D01*
X92790000Y-105365000D01*
X91904691Y-105365000D01*
X91835123Y-105371321D01*
X91835116Y-105371323D01*
X91675029Y-105421208D01*
X91675027Y-105421209D01*
X91531532Y-105507954D01*
X91531528Y-105507957D01*
X91412957Y-105626528D01*
X91412954Y-105626532D01*
X91326210Y-105770026D01*
X91276322Y-105930123D01*
X91270000Y-105999701D01*
X89730499Y-105999701D01*
X89730499Y-105999645D01*
X89724174Y-105930033D01*
X89724171Y-105930022D01*
X89674252Y-105769824D01*
X89674250Y-105769820D01*
X89587443Y-105626222D01*
X89587439Y-105626217D01*
X89468782Y-105507560D01*
X89468777Y-105507556D01*
X89325180Y-105420750D01*
X89325179Y-105420749D01*
X89325178Y-105420749D01*
X89164971Y-105370827D01*
X89164969Y-105370826D01*
X89164967Y-105370826D01*
X89116221Y-105366396D01*
X89095347Y-105364500D01*
X89095344Y-105364500D01*
X86824645Y-105364500D01*
X86755033Y-105370825D01*
X86755022Y-105370828D01*
X86594824Y-105420747D01*
X86594820Y-105420749D01*
X86451222Y-105507556D01*
X86451217Y-105507560D01*
X86332560Y-105626217D01*
X86332556Y-105626222D01*
X86245750Y-105769819D01*
X86245750Y-105769820D01*
X86245749Y-105769822D01*
X86220788Y-105849925D01*
X86195826Y-105930032D01*
X86189500Y-105999655D01*
X66000500Y-105999655D01*
X66000500Y-100324986D01*
X88600001Y-100324986D01*
X88610494Y-100427697D01*
X88665641Y-100594119D01*
X88665643Y-100594124D01*
X88757684Y-100743345D01*
X88881654Y-100867315D01*
X89030875Y-100959356D01*
X89030880Y-100959358D01*
X89197302Y-101014505D01*
X89197309Y-101014506D01*
X89300019Y-101024999D01*
X89749999Y-101024999D01*
X90250000Y-101024999D01*
X90699972Y-101024999D01*
X90699986Y-101024998D01*
X90802697Y-101014505D01*
X90969119Y-100959358D01*
X90969124Y-100959356D01*
X91118345Y-100867315D01*
X91242315Y-100743345D01*
X91334356Y-100594124D01*
X91334358Y-100594119D01*
X91389505Y-100427697D01*
X91389506Y-100427690D01*
X91397445Y-100349986D01*
X93600001Y-100349986D01*
X93610494Y-100452697D01*
X93665641Y-100619119D01*
X93665643Y-100619124D01*
X93757684Y-100768345D01*
X93881654Y-100892315D01*
X94030875Y-100984356D01*
X94030880Y-100984358D01*
X94197302Y-101039505D01*
X94197309Y-101039506D01*
X94300019Y-101049999D01*
X94749999Y-101049999D01*
X95250000Y-101049999D01*
X95699972Y-101049999D01*
X95699986Y-101049998D01*
X95802697Y-101039505D01*
X95969119Y-100984358D01*
X95969124Y-100984356D01*
X96118345Y-100892315D01*
X96242315Y-100768345D01*
X96334356Y-100619124D01*
X96334358Y-100619119D01*
X96389505Y-100452697D01*
X96389506Y-100452690D01*
X96399999Y-100349986D01*
X96400000Y-100349973D01*
X96400000Y-100225000D01*
X95250000Y-100225000D01*
X95250000Y-101049999D01*
X94749999Y-101049999D01*
X94750000Y-101049998D01*
X94750000Y-100225000D01*
X93600001Y-100225000D01*
X93600001Y-100349986D01*
X91397445Y-100349986D01*
X91399999Y-100324986D01*
X91400000Y-100324973D01*
X91400000Y-100200000D01*
X90250000Y-100200000D01*
X90250000Y-101024999D01*
X89749999Y-101024999D01*
X89750000Y-101024998D01*
X89750000Y-100200000D01*
X88600001Y-100200000D01*
X88600001Y-100324986D01*
X66000500Y-100324986D01*
X66000500Y-99575013D01*
X88600000Y-99575013D01*
X88600000Y-99700000D01*
X89750000Y-99700000D01*
X90250000Y-99700000D01*
X91399999Y-99700000D01*
X91399999Y-99600013D01*
X93600000Y-99600013D01*
X93600000Y-99725000D01*
X94750000Y-99725000D01*
X95250000Y-99725000D01*
X96399999Y-99725000D01*
X96399999Y-99600028D01*
X96399998Y-99600013D01*
X96389505Y-99497302D01*
X96334358Y-99330880D01*
X96334356Y-99330875D01*
X96242315Y-99181654D01*
X96118345Y-99057684D01*
X95969124Y-98965643D01*
X95969119Y-98965641D01*
X95802697Y-98910494D01*
X95802690Y-98910493D01*
X95699986Y-98900000D01*
X95250000Y-98900000D01*
X95250000Y-99725000D01*
X94750000Y-99725000D01*
X94750000Y-98900000D01*
X94300028Y-98900000D01*
X94300012Y-98900001D01*
X94197302Y-98910494D01*
X94030880Y-98965641D01*
X94030875Y-98965643D01*
X93881654Y-99057684D01*
X93757684Y-99181654D01*
X93665643Y-99330875D01*
X93665641Y-99330880D01*
X93610494Y-99497302D01*
X93610493Y-99497309D01*
X93600000Y-99600013D01*
X91399999Y-99600013D01*
X91399999Y-99575028D01*
X91399998Y-99575013D01*
X91389505Y-99472302D01*
X91334358Y-99305880D01*
X91334356Y-99305875D01*
X91242315Y-99156654D01*
X91118345Y-99032684D01*
X90969124Y-98940643D01*
X90969119Y-98940641D01*
X90802697Y-98885494D01*
X90802690Y-98885493D01*
X90699986Y-98875000D01*
X90250000Y-98875000D01*
X90250000Y-99700000D01*
X89750000Y-99700000D01*
X89750000Y-98875000D01*
X89300028Y-98875000D01*
X89300012Y-98875001D01*
X89197302Y-98885494D01*
X89030880Y-98940641D01*
X89030875Y-98940643D01*
X88881654Y-99032684D01*
X88757684Y-99156654D01*
X88665643Y-99305875D01*
X88665641Y-99305880D01*
X88610494Y-99472302D01*
X88610493Y-99472309D01*
X88600000Y-99575013D01*
X66000500Y-99575013D01*
X66000500Y-62378711D01*
X69649500Y-62378711D01*
X69649500Y-62621288D01*
X69676319Y-62825008D01*
X69681162Y-62861789D01*
X69712246Y-62977796D01*
X69743947Y-63096104D01*
X69828611Y-63300500D01*
X69836776Y-63320212D01*
X69958064Y-63530289D01*
X69958066Y-63530292D01*
X69958067Y-63530293D01*
X70105733Y-63722736D01*
X70105739Y-63722743D01*
X70277256Y-63894260D01*
X70277262Y-63894265D01*
X70469711Y-64041936D01*
X70679788Y-64163224D01*
X70903900Y-64256054D01*
X71138211Y-64318838D01*
X71318586Y-64342584D01*
X71378711Y-64350500D01*
X71378712Y-64350500D01*
X71621289Y-64350500D01*
X71669388Y-64344167D01*
X71861789Y-64318838D01*
X72096100Y-64256054D01*
X72320212Y-64163224D01*
X72530289Y-64041936D01*
X72722738Y-63894265D01*
X72894265Y-63722738D01*
X73041936Y-63530289D01*
X73163224Y-63320212D01*
X73256054Y-63096100D01*
X73318838Y-62861789D01*
X73350500Y-62621288D01*
X73350500Y-62378712D01*
X73318838Y-62138211D01*
X73301896Y-62074983D01*
X85599500Y-62074983D01*
X85599500Y-62825001D01*
X85599501Y-62825019D01*
X85610000Y-62927796D01*
X85610001Y-62927799D01*
X85626569Y-62977796D01*
X85665186Y-63094334D01*
X85757288Y-63243656D01*
X85881344Y-63367712D01*
X86030666Y-63459814D01*
X86197203Y-63514999D01*
X86299991Y-63525500D01*
X87700008Y-63525499D01*
X87802797Y-63514999D01*
X87802807Y-63514995D01*
X87802831Y-63514991D01*
X87802857Y-63514992D01*
X87809533Y-63514311D01*
X87809654Y-63515500D01*
X87872506Y-63520198D01*
X87916482Y-63548560D01*
X89083181Y-64715259D01*
X89116666Y-64776582D01*
X89119500Y-64802940D01*
X89119500Y-65163695D01*
X89099815Y-65230734D01*
X89068386Y-65264012D01*
X88942496Y-65355478D01*
X88942487Y-65355485D01*
X88775482Y-65522490D01*
X88732451Y-65581717D01*
X88677120Y-65624382D01*
X88622405Y-65632448D01*
X88602658Y-65630893D01*
X87813973Y-66419579D01*
X87790015Y-66330166D01*
X87732088Y-66229834D01*
X87650166Y-66147912D01*
X87549834Y-66089985D01*
X87460419Y-66066026D01*
X88249105Y-65277340D01*
X88249104Y-65277338D01*
X88166174Y-65217087D01*
X87955802Y-65109897D01*
X87731247Y-65036934D01*
X87731248Y-65036934D01*
X87498052Y-65000000D01*
X87261948Y-65000000D01*
X87028752Y-65036934D01*
X86804197Y-65109897D01*
X86593830Y-65217084D01*
X86510894Y-65277340D01*
X87299580Y-66066026D01*
X87210166Y-66089985D01*
X87109834Y-66147912D01*
X87027912Y-66229834D01*
X86969985Y-66330166D01*
X86946026Y-66419580D01*
X86157340Y-65630894D01*
X86097084Y-65713830D01*
X85989897Y-65924197D01*
X85916934Y-66148752D01*
X85880000Y-66381947D01*
X85880000Y-66618052D01*
X85916934Y-66851247D01*
X85989897Y-67075802D01*
X86097087Y-67286174D01*
X86157338Y-67369104D01*
X86157340Y-67369105D01*
X86946026Y-66580419D01*
X86969985Y-66669834D01*
X87027912Y-66770166D01*
X87109834Y-66852088D01*
X87210166Y-66910015D01*
X87299580Y-66933973D01*
X86510893Y-67722658D01*
X86593828Y-67782914D01*
X86804197Y-67890102D01*
X87028752Y-67963065D01*
X87028751Y-67963065D01*
X87261948Y-68000000D01*
X87498052Y-68000000D01*
X87731247Y-67963065D01*
X87955802Y-67890102D01*
X88166163Y-67782918D01*
X88166169Y-67782914D01*
X88249104Y-67722658D01*
X88249105Y-67722658D01*
X87460419Y-66933973D01*
X87549834Y-66910015D01*
X87650166Y-66852088D01*
X87732088Y-66770166D01*
X87790015Y-66669834D01*
X87813973Y-66580420D01*
X88602657Y-67369104D01*
X88622404Y-67367550D01*
X88690781Y-67381914D01*
X88732451Y-67418282D01*
X88775483Y-67477510D01*
X88942490Y-67644517D01*
X89068388Y-67735987D01*
X89111051Y-67791313D01*
X89119500Y-67836302D01*
X89119500Y-95871208D01*
X89099815Y-95938247D01*
X89047011Y-95984002D01*
X89034507Y-95988913D01*
X89030667Y-95990185D01*
X88881342Y-96082289D01*
X88757289Y-96206342D01*
X88665187Y-96355663D01*
X88665185Y-96355668D01*
X88658227Y-96376666D01*
X88610001Y-96522203D01*
X88610001Y-96522204D01*
X88610000Y-96522204D01*
X88599500Y-96624983D01*
X88599500Y-97375001D01*
X88599501Y-97375019D01*
X88610000Y-97477796D01*
X88610001Y-97477799D01*
X88665185Y-97644331D01*
X88665186Y-97644334D01*
X88757288Y-97793656D01*
X88881344Y-97917712D01*
X89030666Y-98009814D01*
X89197203Y-98064999D01*
X89299991Y-98075500D01*
X90700008Y-98075499D01*
X90802797Y-98064999D01*
X90969334Y-98009814D01*
X91118656Y-97917712D01*
X91242712Y-97793656D01*
X91334814Y-97644334D01*
X91389999Y-97477797D01*
X91400500Y-97375009D01*
X91400499Y-96624992D01*
X91389999Y-96522203D01*
X91334814Y-96355666D01*
X91242712Y-96206344D01*
X91118656Y-96082288D01*
X90969334Y-95990186D01*
X90946118Y-95982493D01*
X90805496Y-95935895D01*
X90748051Y-95896122D01*
X90721228Y-95831606D01*
X90720500Y-95818189D01*
X90720500Y-67836302D01*
X90740185Y-67769263D01*
X90771609Y-67735988D01*
X90897510Y-67644517D01*
X91064517Y-67477510D01*
X91089682Y-67442872D01*
X91145011Y-67400207D01*
X91214625Y-67394228D01*
X91276420Y-67426833D01*
X91290315Y-67442870D01*
X91315483Y-67477510D01*
X91482490Y-67644517D01*
X91673567Y-67783343D01*
X91772991Y-67834002D01*
X91884003Y-67890566D01*
X91884005Y-67890566D01*
X91884008Y-67890568D01*
X92004412Y-67929689D01*
X92108631Y-67963553D01*
X92341903Y-68000500D01*
X92341908Y-68000500D01*
X92578097Y-68000500D01*
X92811368Y-67963553D01*
X92812870Y-67963065D01*
X93035992Y-67890568D01*
X93246433Y-67783343D01*
X93437510Y-67644517D01*
X93604517Y-67477510D01*
X93629682Y-67442872D01*
X93685011Y-67400207D01*
X93754625Y-67394228D01*
X93816420Y-67426833D01*
X93830315Y-67442870D01*
X93855483Y-67477510D01*
X94022490Y-67644517D01*
X94148388Y-67735987D01*
X94191051Y-67791313D01*
X94199500Y-67836302D01*
X94199500Y-95869699D01*
X94179815Y-95936738D01*
X94127011Y-95982493D01*
X94114507Y-95987403D01*
X94109953Y-95988913D01*
X94030668Y-96015185D01*
X94030663Y-96015187D01*
X93881342Y-96107289D01*
X93757289Y-96231342D01*
X93665187Y-96380663D01*
X93665185Y-96380668D01*
X93637349Y-96464670D01*
X93610001Y-96547203D01*
X93610001Y-96547204D01*
X93610000Y-96547204D01*
X93599500Y-96649983D01*
X93599500Y-97400001D01*
X93599501Y-97400019D01*
X93610000Y-97502796D01*
X93610001Y-97502799D01*
X93656901Y-97644331D01*
X93665186Y-97669334D01*
X93757288Y-97818656D01*
X93881344Y-97942712D01*
X94030666Y-98034814D01*
X94197203Y-98089999D01*
X94299991Y-98100500D01*
X95700008Y-98100499D01*
X95802797Y-98089999D01*
X95827932Y-98081669D01*
X95897759Y-98079268D01*
X95954617Y-98111695D01*
X98184707Y-100341786D01*
X98184711Y-100341789D01*
X98315814Y-100429390D01*
X98315818Y-100429392D01*
X98315821Y-100429394D01*
X98461503Y-100489738D01*
X98564823Y-100510289D01*
X98616153Y-100520499D01*
X98616157Y-100520500D01*
X98616158Y-100520500D01*
X98773843Y-100520500D01*
X184480663Y-100520500D01*
X184547702Y-100540185D01*
X184568344Y-100556818D01*
X184685354Y-100673828D01*
X184844595Y-100789524D01*
X184967992Y-100852397D01*
X185021213Y-100879515D01*
X185072009Y-100927489D01*
X185088804Y-100995310D01*
X185066267Y-101061445D01*
X185021213Y-101100485D01*
X184844594Y-101190476D01*
X184753741Y-101256485D01*
X184685354Y-101306172D01*
X184685352Y-101306174D01*
X184685351Y-101306174D01*
X184546174Y-101445351D01*
X184546174Y-101445352D01*
X184546172Y-101445354D01*
X184496485Y-101513741D01*
X184430476Y-101604594D01*
X184341117Y-101779970D01*
X184280290Y-101967173D01*
X184249500Y-102161577D01*
X184249500Y-102358422D01*
X184280290Y-102552826D01*
X184341117Y-102740029D01*
X184413346Y-102881786D01*
X184430476Y-102915405D01*
X184546172Y-103074646D01*
X184685354Y-103213828D01*
X184844595Y-103329524D01*
X184967992Y-103392397D01*
X185021213Y-103419515D01*
X185072009Y-103467489D01*
X185088804Y-103535310D01*
X185066267Y-103601445D01*
X185021213Y-103640485D01*
X184844594Y-103730476D01*
X184685355Y-103846171D01*
X184568344Y-103963182D01*
X184507021Y-103996666D01*
X184480663Y-103999500D01*
X182121155Y-103999500D01*
X181966510Y-104030261D01*
X181966498Y-104030264D01*
X181820827Y-104090602D01*
X181820814Y-104090609D01*
X181689711Y-104178210D01*
X181689707Y-104178213D01*
X175204741Y-110663181D01*
X175143418Y-110696666D01*
X175117060Y-110699500D01*
X161421155Y-110699500D01*
X161266508Y-110730261D01*
X161266498Y-110730264D01*
X161120827Y-110790602D01*
X161120814Y-110790609D01*
X160989711Y-110878210D01*
X160989707Y-110878213D01*
X154704741Y-117163181D01*
X154643418Y-117196666D01*
X154617060Y-117199500D01*
X124421156Y-117199500D01*
X124401867Y-117203337D01*
X124382578Y-117207174D01*
X124382577Y-117207174D01*
X124266510Y-117230261D01*
X124266498Y-117230264D01*
X124120827Y-117290602D01*
X124120814Y-117290609D01*
X123989712Y-117378209D01*
X123933962Y-117433960D01*
X123878211Y-117489711D01*
X115704741Y-125663181D01*
X115643418Y-125696666D01*
X115617060Y-125699500D01*
X99159517Y-125699500D01*
X99092478Y-125679815D01*
X99046723Y-125627011D01*
X99041811Y-125614505D01*
X99022314Y-125555666D01*
X98930212Y-125406344D01*
X98806156Y-125282288D01*
X98656834Y-125190186D01*
X98490297Y-125135001D01*
X98490295Y-125135000D01*
X98387510Y-125124500D01*
X97662498Y-125124500D01*
X97662480Y-125124501D01*
X97559703Y-125135000D01*
X97559700Y-125135001D01*
X97393168Y-125190185D01*
X97393163Y-125190187D01*
X97243842Y-125282289D01*
X97119789Y-125406342D01*
X97027687Y-125555663D01*
X97027685Y-125555668D01*
X97027615Y-125555880D01*
X96972501Y-125722203D01*
X96972501Y-125722204D01*
X96972500Y-125722204D01*
X96962000Y-125824983D01*
X96962000Y-127175001D01*
X96962001Y-127175018D01*
X96972500Y-127277796D01*
X96972501Y-127277799D01*
X97027615Y-127444119D01*
X97027686Y-127444334D01*
X97119788Y-127593656D01*
X97243844Y-127717712D01*
X97393166Y-127809814D01*
X97559703Y-127864999D01*
X97662491Y-127875500D01*
X98387508Y-127875499D01*
X98387516Y-127875498D01*
X98387519Y-127875498D01*
X98443802Y-127869748D01*
X98490297Y-127864999D01*
X98656834Y-127809814D01*
X98806156Y-127717712D01*
X98930212Y-127593656D01*
X99022314Y-127444334D01*
X99041811Y-127385493D01*
X99081584Y-127328051D01*
X99146100Y-127301228D01*
X99159517Y-127300500D01*
X116078844Y-127300500D01*
X116078845Y-127300499D01*
X116233497Y-127269737D01*
X116379179Y-127209394D01*
X116430674Y-127174986D01*
X127975001Y-127174986D01*
X127985494Y-127277697D01*
X128040641Y-127444119D01*
X128040643Y-127444124D01*
X128132684Y-127593345D01*
X128256654Y-127717315D01*
X128405875Y-127809356D01*
X128405880Y-127809358D01*
X128572302Y-127864505D01*
X128572309Y-127864506D01*
X128675019Y-127874999D01*
X128849999Y-127874999D01*
X129350000Y-127874999D01*
X129524972Y-127874999D01*
X129524986Y-127874998D01*
X129627697Y-127864505D01*
X129794119Y-127809358D01*
X129794124Y-127809356D01*
X129943345Y-127717315D01*
X130067315Y-127593345D01*
X130159356Y-127444124D01*
X130159358Y-127444119D01*
X130214505Y-127277697D01*
X130214506Y-127277690D01*
X130224999Y-127174986D01*
X130225000Y-127174973D01*
X130225000Y-126750000D01*
X129350000Y-126750000D01*
X129350000Y-127874999D01*
X128849999Y-127874999D01*
X128850000Y-127874998D01*
X128850000Y-126750000D01*
X127975001Y-126750000D01*
X127975001Y-127174986D01*
X116430674Y-127174986D01*
X116510289Y-127121789D01*
X116752906Y-126879172D01*
X117021122Y-126610957D01*
X117807066Y-125825013D01*
X127975000Y-125825013D01*
X127975000Y-126250000D01*
X128850000Y-126250000D01*
X129350000Y-126250000D01*
X130224999Y-126250000D01*
X130224999Y-125825024D01*
X130224998Y-125825016D01*
X130224995Y-125824983D01*
X130774500Y-125824983D01*
X130774500Y-127175001D01*
X130774501Y-127175018D01*
X130785000Y-127277796D01*
X130785001Y-127277799D01*
X130840115Y-127444119D01*
X130840186Y-127444334D01*
X130932288Y-127593656D01*
X131056344Y-127717712D01*
X131205666Y-127809814D01*
X131372203Y-127864999D01*
X131474991Y-127875500D01*
X132325008Y-127875499D01*
X132325016Y-127875498D01*
X132325019Y-127875498D01*
X132381302Y-127869748D01*
X132427797Y-127864999D01*
X132594334Y-127809814D01*
X132743656Y-127717712D01*
X132867712Y-127593656D01*
X132959814Y-127444334D01*
X132979311Y-127385493D01*
X133019084Y-127328051D01*
X133083600Y-127301228D01*
X133097017Y-127300500D01*
X134965483Y-127300500D01*
X135032522Y-127320185D01*
X135078277Y-127372989D01*
X135083186Y-127385489D01*
X135102686Y-127444334D01*
X135194788Y-127593656D01*
X135318844Y-127717712D01*
X135468166Y-127809814D01*
X135634703Y-127864999D01*
X135737491Y-127875500D01*
X136462508Y-127875499D01*
X136462516Y-127875498D01*
X136462519Y-127875498D01*
X136518802Y-127869748D01*
X136565297Y-127864999D01*
X136731834Y-127809814D01*
X136881156Y-127717712D01*
X137005212Y-127593656D01*
X137097314Y-127444334D01*
X137152499Y-127277797D01*
X137163000Y-127175009D01*
X137162999Y-125824992D01*
X137152499Y-125722203D01*
X137097314Y-125555666D01*
X137005212Y-125406344D01*
X136881156Y-125282288D01*
X136731834Y-125190186D01*
X136565297Y-125135001D01*
X136565295Y-125135000D01*
X136462510Y-125124500D01*
X135737498Y-125124500D01*
X135737480Y-125124501D01*
X135634703Y-125135000D01*
X135634700Y-125135001D01*
X135468168Y-125190185D01*
X135468163Y-125190187D01*
X135318842Y-125282289D01*
X135194789Y-125406342D01*
X135102687Y-125555663D01*
X135102686Y-125555666D01*
X135083189Y-125614505D01*
X135043416Y-125671949D01*
X134978900Y-125698772D01*
X134965483Y-125699500D01*
X133097017Y-125699500D01*
X133029978Y-125679815D01*
X132984223Y-125627011D01*
X132979311Y-125614505D01*
X132959814Y-125555666D01*
X132867712Y-125406344D01*
X132743656Y-125282288D01*
X132594334Y-125190186D01*
X132427797Y-125135001D01*
X132427795Y-125135000D01*
X132325010Y-125124500D01*
X131474998Y-125124500D01*
X131474980Y-125124501D01*
X131372203Y-125135000D01*
X131372200Y-125135001D01*
X131205668Y-125190185D01*
X131205663Y-125190187D01*
X131056342Y-125282289D01*
X130932289Y-125406342D01*
X130840187Y-125555663D01*
X130840185Y-125555668D01*
X130840115Y-125555880D01*
X130785001Y-125722203D01*
X130785001Y-125722204D01*
X130785000Y-125722204D01*
X130774500Y-125824983D01*
X130224995Y-125824983D01*
X130214505Y-125722302D01*
X130159358Y-125555880D01*
X130159356Y-125555875D01*
X130067315Y-125406654D01*
X129943345Y-125282684D01*
X129794124Y-125190643D01*
X129794119Y-125190641D01*
X129627697Y-125135494D01*
X129627690Y-125135493D01*
X129524986Y-125125000D01*
X129350000Y-125125000D01*
X129350000Y-126250000D01*
X128850000Y-126250000D01*
X128850000Y-125125000D01*
X128675029Y-125125000D01*
X128675012Y-125125001D01*
X128572302Y-125135494D01*
X128405880Y-125190641D01*
X128405875Y-125190643D01*
X128256654Y-125282684D01*
X128132684Y-125406654D01*
X128040643Y-125555875D01*
X128040641Y-125555880D01*
X127985494Y-125722302D01*
X127985493Y-125722309D01*
X127975000Y-125825013D01*
X117807066Y-125825013D01*
X117897896Y-125734183D01*
X123632422Y-119999655D01*
X126189500Y-119999655D01*
X126189500Y-121000354D01*
X126195825Y-121069966D01*
X126195828Y-121069977D01*
X126245747Y-121230175D01*
X126245749Y-121230179D01*
X126332556Y-121373777D01*
X126332560Y-121373782D01*
X126451217Y-121492439D01*
X126451222Y-121492443D01*
X126571815Y-121565343D01*
X126594822Y-121579251D01*
X126755029Y-121629173D01*
X126824653Y-121635500D01*
X129095346Y-121635499D01*
X129095353Y-121635499D01*
X129164966Y-121629174D01*
X129164969Y-121629173D01*
X129164971Y-121629173D01*
X129325178Y-121579251D01*
X129399089Y-121534570D01*
X129468777Y-121492443D01*
X129468778Y-121492441D01*
X129468783Y-121492439D01*
X129587439Y-121373783D01*
X129674251Y-121230178D01*
X129724173Y-121069971D01*
X129730500Y-121000347D01*
X129730499Y-119999655D01*
X131309500Y-119999655D01*
X131309500Y-121000354D01*
X131315825Y-121069966D01*
X131315828Y-121069977D01*
X131365747Y-121230175D01*
X131365749Y-121230179D01*
X131452556Y-121373777D01*
X131452560Y-121373782D01*
X131571217Y-121492439D01*
X131571222Y-121492443D01*
X131691815Y-121565343D01*
X131714822Y-121579251D01*
X131875029Y-121629173D01*
X131944653Y-121635500D01*
X134215346Y-121635499D01*
X134215353Y-121635499D01*
X134284966Y-121629174D01*
X134284969Y-121629173D01*
X134284971Y-121629173D01*
X134445178Y-121579251D01*
X134519089Y-121534570D01*
X134588777Y-121492443D01*
X134588778Y-121492441D01*
X134588783Y-121492439D01*
X134707439Y-121373783D01*
X134794251Y-121230178D01*
X134844173Y-121069971D01*
X134850500Y-121000347D01*
X134850499Y-119999654D01*
X134850499Y-119999653D01*
X134850499Y-119999645D01*
X134844174Y-119930033D01*
X134844171Y-119930022D01*
X134794252Y-119769824D01*
X134794250Y-119769820D01*
X134707443Y-119626222D01*
X134707439Y-119626217D01*
X134588782Y-119507560D01*
X134588777Y-119507556D01*
X134445180Y-119420750D01*
X134445179Y-119420749D01*
X134445178Y-119420749D01*
X134284971Y-119370827D01*
X134284969Y-119370826D01*
X134284967Y-119370826D01*
X134236221Y-119366396D01*
X134215347Y-119364500D01*
X134215344Y-119364500D01*
X131944645Y-119364500D01*
X131875033Y-119370825D01*
X131875022Y-119370828D01*
X131714824Y-119420747D01*
X131714820Y-119420749D01*
X131571222Y-119507556D01*
X131571217Y-119507560D01*
X131452560Y-119626217D01*
X131452556Y-119626222D01*
X131365750Y-119769819D01*
X131315826Y-119930032D01*
X131309500Y-119999655D01*
X129730499Y-119999655D01*
X129730499Y-119999654D01*
X129730499Y-119999653D01*
X129730499Y-119999645D01*
X129724174Y-119930033D01*
X129724171Y-119930022D01*
X129674252Y-119769824D01*
X129674250Y-119769820D01*
X129587443Y-119626222D01*
X129587439Y-119626217D01*
X129468782Y-119507560D01*
X129468777Y-119507556D01*
X129325180Y-119420750D01*
X129325179Y-119420749D01*
X129325178Y-119420749D01*
X129164971Y-119370827D01*
X129164969Y-119370826D01*
X129164967Y-119370826D01*
X129116221Y-119366396D01*
X129095347Y-119364500D01*
X129095344Y-119364500D01*
X126824645Y-119364500D01*
X126755033Y-119370825D01*
X126755022Y-119370828D01*
X126594824Y-119420747D01*
X126594820Y-119420749D01*
X126451222Y-119507556D01*
X126451217Y-119507560D01*
X126332560Y-119626217D01*
X126332556Y-119626222D01*
X126245750Y-119769819D01*
X126195826Y-119930032D01*
X126189500Y-119999655D01*
X123632422Y-119999655D01*
X123722915Y-119909162D01*
X124795258Y-118836819D01*
X124856581Y-118803334D01*
X124882939Y-118800500D01*
X155078844Y-118800500D01*
X155078845Y-118800499D01*
X155233497Y-118769737D01*
X155379179Y-118709394D01*
X155510289Y-118621789D01*
X161795259Y-112336819D01*
X161856582Y-112303334D01*
X161882940Y-112300500D01*
X175578844Y-112300500D01*
X175578845Y-112300499D01*
X175733497Y-112269737D01*
X175879179Y-112209394D01*
X176010289Y-112121789D01*
X182495259Y-105636819D01*
X182556582Y-105603334D01*
X182582940Y-105600500D01*
X184480663Y-105600500D01*
X184547702Y-105620185D01*
X184568344Y-105636818D01*
X184685354Y-105753828D01*
X184844595Y-105869524D01*
X184963330Y-105930022D01*
X185021213Y-105959515D01*
X185072009Y-106007489D01*
X185088804Y-106075310D01*
X185066267Y-106141445D01*
X185021213Y-106180485D01*
X184844594Y-106270476D01*
X184685355Y-106386171D01*
X184568344Y-106503182D01*
X184507021Y-106536666D01*
X184480663Y-106539500D01*
X183581154Y-106539500D01*
X183426509Y-106570261D01*
X183426501Y-106570263D01*
X183393901Y-106583767D01*
X183393900Y-106583767D01*
X183280827Y-106630602D01*
X183280814Y-106630609D01*
X183149712Y-106718209D01*
X183149710Y-106718212D01*
X172204741Y-117663181D01*
X172143418Y-117696666D01*
X172117060Y-117699500D01*
X158421154Y-117699500D01*
X158266509Y-117730261D01*
X158266497Y-117730264D01*
X158223832Y-117747936D01*
X158223833Y-117747937D01*
X158120823Y-117790604D01*
X158120814Y-117790609D01*
X157989712Y-117878209D01*
X157989710Y-117878212D01*
X150204741Y-125663181D01*
X150143418Y-125696666D01*
X150117060Y-125699500D01*
X140159517Y-125699500D01*
X140092478Y-125679815D01*
X140046723Y-125627011D01*
X140041811Y-125614505D01*
X140022314Y-125555666D01*
X139930212Y-125406344D01*
X139806156Y-125282288D01*
X139656834Y-125190186D01*
X139490297Y-125135001D01*
X139490295Y-125135000D01*
X139387510Y-125124500D01*
X138662498Y-125124500D01*
X138662480Y-125124501D01*
X138559703Y-125135000D01*
X138559700Y-125135001D01*
X138393168Y-125190185D01*
X138393163Y-125190187D01*
X138243842Y-125282289D01*
X138119789Y-125406342D01*
X138027687Y-125555663D01*
X138027685Y-125555668D01*
X138027615Y-125555880D01*
X137972501Y-125722203D01*
X137972501Y-125722204D01*
X137972500Y-125722204D01*
X137962000Y-125824983D01*
X137962000Y-125854558D01*
X137942315Y-125921597D01*
X137925683Y-125942238D01*
X137878208Y-125989714D01*
X137790609Y-126120814D01*
X137790602Y-126120827D01*
X137730264Y-126266498D01*
X137730261Y-126266510D01*
X137699500Y-126421153D01*
X137699500Y-126578846D01*
X137730261Y-126733489D01*
X137730264Y-126733501D01*
X137790602Y-126879172D01*
X137790609Y-126879185D01*
X137878210Y-127010288D01*
X137878213Y-127010292D01*
X137925681Y-127057760D01*
X137959166Y-127119083D01*
X137962000Y-127145437D01*
X137962000Y-127174998D01*
X137962001Y-127175019D01*
X137972500Y-127277796D01*
X137972501Y-127277799D01*
X138027615Y-127444119D01*
X138027686Y-127444334D01*
X138119788Y-127593656D01*
X138243844Y-127717712D01*
X138393166Y-127809814D01*
X138559703Y-127864999D01*
X138662491Y-127875500D01*
X139387508Y-127875499D01*
X139387516Y-127875498D01*
X139387519Y-127875498D01*
X139443802Y-127869748D01*
X139490297Y-127864999D01*
X139656834Y-127809814D01*
X139806156Y-127717712D01*
X139930212Y-127593656D01*
X140022314Y-127444334D01*
X140041811Y-127385493D01*
X140081584Y-127328051D01*
X140146100Y-127301228D01*
X140159517Y-127300500D01*
X150578844Y-127300500D01*
X150578845Y-127300499D01*
X150733497Y-127269737D01*
X150879179Y-127209394D01*
X150930674Y-127174986D01*
X167975001Y-127174986D01*
X167985494Y-127277697D01*
X168040641Y-127444119D01*
X168040643Y-127444124D01*
X168132684Y-127593345D01*
X168256654Y-127717315D01*
X168405875Y-127809356D01*
X168405880Y-127809358D01*
X168572302Y-127864505D01*
X168572309Y-127864506D01*
X168675019Y-127874999D01*
X168849999Y-127874999D01*
X169350000Y-127874999D01*
X169524972Y-127874999D01*
X169524986Y-127874998D01*
X169627697Y-127864505D01*
X169794119Y-127809358D01*
X169794124Y-127809356D01*
X169943345Y-127717315D01*
X170067315Y-127593345D01*
X170159356Y-127444124D01*
X170159358Y-127444119D01*
X170214505Y-127277697D01*
X170214506Y-127277690D01*
X170224999Y-127174986D01*
X170225000Y-127174973D01*
X170225000Y-126750000D01*
X169350000Y-126750000D01*
X169350000Y-127874999D01*
X168849999Y-127874999D01*
X168850000Y-127874998D01*
X168850000Y-126750000D01*
X167975001Y-126750000D01*
X167975001Y-127174986D01*
X150930674Y-127174986D01*
X151010289Y-127121789D01*
X151252906Y-126879172D01*
X151521122Y-126610957D01*
X152307066Y-125825013D01*
X167975000Y-125825013D01*
X167975000Y-126250000D01*
X168850000Y-126250000D01*
X169350000Y-126250000D01*
X170224999Y-126250000D01*
X170224999Y-125825024D01*
X170224998Y-125825016D01*
X170224995Y-125824983D01*
X170774500Y-125824983D01*
X170774500Y-127175001D01*
X170774501Y-127175018D01*
X170785000Y-127277796D01*
X170785001Y-127277799D01*
X170840115Y-127444119D01*
X170840186Y-127444334D01*
X170932288Y-127593656D01*
X171056344Y-127717712D01*
X171205666Y-127809814D01*
X171372203Y-127864999D01*
X171474991Y-127875500D01*
X172325008Y-127875499D01*
X172325016Y-127875498D01*
X172325019Y-127875498D01*
X172381302Y-127869748D01*
X172427797Y-127864999D01*
X172594334Y-127809814D01*
X172743656Y-127717712D01*
X172867712Y-127593656D01*
X172959814Y-127444334D01*
X172979311Y-127385493D01*
X173019084Y-127328051D01*
X173083600Y-127301228D01*
X173097017Y-127300500D01*
X175465483Y-127300500D01*
X175532522Y-127320185D01*
X175578277Y-127372989D01*
X175583186Y-127385489D01*
X175602686Y-127444334D01*
X175694788Y-127593656D01*
X175818844Y-127717712D01*
X175968166Y-127809814D01*
X176134703Y-127864999D01*
X176237491Y-127875500D01*
X176962508Y-127875499D01*
X176962516Y-127875498D01*
X176962519Y-127875498D01*
X177018802Y-127869748D01*
X177065297Y-127864999D01*
X177231834Y-127809814D01*
X177381156Y-127717712D01*
X177505212Y-127593656D01*
X177597314Y-127444334D01*
X177652499Y-127277797D01*
X177663000Y-127175009D01*
X177662999Y-125824992D01*
X177652499Y-125722203D01*
X177597314Y-125555666D01*
X177505212Y-125406344D01*
X177381156Y-125282288D01*
X177231834Y-125190186D01*
X177065297Y-125135001D01*
X177065295Y-125135000D01*
X176962510Y-125124500D01*
X176237498Y-125124500D01*
X176237480Y-125124501D01*
X176134703Y-125135000D01*
X176134700Y-125135001D01*
X175968168Y-125190185D01*
X175968163Y-125190187D01*
X175818842Y-125282289D01*
X175694789Y-125406342D01*
X175602687Y-125555663D01*
X175602686Y-125555666D01*
X175583189Y-125614505D01*
X175543416Y-125671949D01*
X175478900Y-125698772D01*
X175465483Y-125699500D01*
X173097017Y-125699500D01*
X173029978Y-125679815D01*
X172984223Y-125627011D01*
X172979311Y-125614505D01*
X172959814Y-125555666D01*
X172867712Y-125406344D01*
X172743656Y-125282288D01*
X172594334Y-125190186D01*
X172427797Y-125135001D01*
X172427795Y-125135000D01*
X172325010Y-125124500D01*
X171474998Y-125124500D01*
X171474980Y-125124501D01*
X171372203Y-125135000D01*
X171372200Y-125135001D01*
X171205668Y-125190185D01*
X171205663Y-125190187D01*
X171056342Y-125282289D01*
X170932289Y-125406342D01*
X170840187Y-125555663D01*
X170840185Y-125555668D01*
X170840115Y-125555880D01*
X170785001Y-125722203D01*
X170785001Y-125722204D01*
X170785000Y-125722204D01*
X170774500Y-125824983D01*
X170224995Y-125824983D01*
X170214505Y-125722302D01*
X170159358Y-125555880D01*
X170159356Y-125555875D01*
X170067315Y-125406654D01*
X169943345Y-125282684D01*
X169794124Y-125190643D01*
X169794119Y-125190641D01*
X169627697Y-125135494D01*
X169627690Y-125135493D01*
X169524986Y-125125000D01*
X169350000Y-125125000D01*
X169350000Y-126250000D01*
X168850000Y-126250000D01*
X168850000Y-125125000D01*
X168675029Y-125125000D01*
X168675012Y-125125001D01*
X168572302Y-125135494D01*
X168405880Y-125190641D01*
X168405875Y-125190643D01*
X168256654Y-125282684D01*
X168132684Y-125406654D01*
X168040643Y-125555875D01*
X168040641Y-125555880D01*
X167985494Y-125722302D01*
X167985493Y-125722309D01*
X167975000Y-125825013D01*
X152307066Y-125825013D01*
X152397896Y-125734183D01*
X158795259Y-119336819D01*
X158856582Y-119303334D01*
X158882940Y-119300500D01*
X166358916Y-119300500D01*
X166425955Y-119320185D01*
X166471710Y-119372989D01*
X166481654Y-119442147D01*
X166452629Y-119505703D01*
X166446597Y-119512181D01*
X166332560Y-119626217D01*
X166332556Y-119626222D01*
X166245750Y-119769819D01*
X166195826Y-119930032D01*
X166189500Y-119999655D01*
X166189500Y-121000354D01*
X166195825Y-121069966D01*
X166195828Y-121069977D01*
X166245747Y-121230175D01*
X166245749Y-121230179D01*
X166332556Y-121373777D01*
X166332560Y-121373782D01*
X166451217Y-121492439D01*
X166451222Y-121492443D01*
X166571815Y-121565343D01*
X166594822Y-121579251D01*
X166755029Y-121629173D01*
X166824653Y-121635500D01*
X169095346Y-121635499D01*
X169095353Y-121635499D01*
X169164966Y-121629174D01*
X169164969Y-121629173D01*
X169164971Y-121629173D01*
X169325178Y-121579251D01*
X169399089Y-121534570D01*
X169468777Y-121492443D01*
X169468778Y-121492441D01*
X169468783Y-121492439D01*
X169587439Y-121373783D01*
X169674251Y-121230178D01*
X169724173Y-121069971D01*
X169730500Y-121000347D01*
X169730499Y-119999654D01*
X169730499Y-119999653D01*
X169730499Y-119999645D01*
X169724174Y-119930033D01*
X169724171Y-119930022D01*
X169674252Y-119769824D01*
X169674250Y-119769820D01*
X169587443Y-119626222D01*
X169587439Y-119626217D01*
X169473403Y-119512181D01*
X169439918Y-119450858D01*
X169444902Y-119381166D01*
X169486774Y-119325233D01*
X169552238Y-119300816D01*
X169561084Y-119300500D01*
X171478916Y-119300500D01*
X171545955Y-119320185D01*
X171591710Y-119372989D01*
X171601654Y-119442147D01*
X171572629Y-119505703D01*
X171566597Y-119512181D01*
X171452560Y-119626217D01*
X171452556Y-119626222D01*
X171365750Y-119769819D01*
X171315826Y-119930032D01*
X171309500Y-119999655D01*
X171309500Y-121000354D01*
X171315825Y-121069966D01*
X171315828Y-121069977D01*
X171365747Y-121230175D01*
X171365749Y-121230179D01*
X171452556Y-121373777D01*
X171452560Y-121373782D01*
X171571217Y-121492439D01*
X171571222Y-121492443D01*
X171691815Y-121565343D01*
X171714822Y-121579251D01*
X171875029Y-121629173D01*
X171944653Y-121635500D01*
X174215346Y-121635499D01*
X174215353Y-121635499D01*
X174284966Y-121629174D01*
X174284969Y-121629173D01*
X174284971Y-121629173D01*
X174445178Y-121579251D01*
X174519089Y-121534570D01*
X174588777Y-121492443D01*
X174588778Y-121492441D01*
X174588783Y-121492439D01*
X174707439Y-121373783D01*
X174794251Y-121230178D01*
X174844173Y-121069971D01*
X174850500Y-121000347D01*
X174850499Y-119999654D01*
X174850499Y-119999653D01*
X174850499Y-119999645D01*
X174844174Y-119930033D01*
X174844171Y-119930022D01*
X174794252Y-119769824D01*
X174794250Y-119769820D01*
X174707443Y-119626222D01*
X174707439Y-119626217D01*
X174588782Y-119507560D01*
X174588777Y-119507556D01*
X174445180Y-119420750D01*
X174445179Y-119420749D01*
X174445178Y-119420749D01*
X174284971Y-119370827D01*
X174284969Y-119370826D01*
X174284967Y-119370826D01*
X174236221Y-119366396D01*
X174215347Y-119364500D01*
X174215344Y-119364500D01*
X173055819Y-119364500D01*
X172988780Y-119344815D01*
X172943025Y-119292011D01*
X172933081Y-119222853D01*
X172962106Y-119159297D01*
X172986930Y-119137397D01*
X173010289Y-119121789D01*
X183955259Y-108176819D01*
X184016582Y-108143334D01*
X184042940Y-108140500D01*
X184480663Y-108140500D01*
X184547702Y-108160185D01*
X184568344Y-108176818D01*
X184685354Y-108293828D01*
X184844595Y-108409524D01*
X184967992Y-108472397D01*
X185021213Y-108499515D01*
X185072009Y-108547489D01*
X185088804Y-108615310D01*
X185066267Y-108681445D01*
X185021213Y-108720485D01*
X184844594Y-108810476D01*
X184753741Y-108876485D01*
X184685354Y-108926172D01*
X184685352Y-108926174D01*
X184685351Y-108926174D01*
X184546174Y-109065351D01*
X184546174Y-109065352D01*
X184546172Y-109065354D01*
X184513545Y-109110261D01*
X184430476Y-109224594D01*
X184341117Y-109399970D01*
X184280290Y-109587173D01*
X184249500Y-109781577D01*
X184249500Y-109978422D01*
X184280290Y-110172826D01*
X184341117Y-110360029D01*
X184407194Y-110489711D01*
X184430476Y-110535405D01*
X184546172Y-110694646D01*
X184685354Y-110833828D01*
X184844595Y-110949524D01*
X184967992Y-111012397D01*
X185021213Y-111039515D01*
X185072009Y-111087489D01*
X185088804Y-111155310D01*
X185066267Y-111221445D01*
X185021213Y-111260485D01*
X184844594Y-111350476D01*
X184799912Y-111382940D01*
X184685354Y-111466172D01*
X184685352Y-111466174D01*
X184685351Y-111466174D01*
X184546174Y-111605351D01*
X184546174Y-111605352D01*
X184546172Y-111605354D01*
X184496485Y-111673741D01*
X184430476Y-111764594D01*
X184341117Y-111939970D01*
X184280290Y-112127173D01*
X184249500Y-112321577D01*
X184249500Y-112518422D01*
X184280290Y-112712826D01*
X184341117Y-112900029D01*
X184430476Y-113075405D01*
X184546172Y-113234646D01*
X184685354Y-113373828D01*
X184844595Y-113489524D01*
X184967992Y-113552397D01*
X185021213Y-113579515D01*
X185072009Y-113627489D01*
X185088804Y-113695310D01*
X185066267Y-113761445D01*
X185021213Y-113800485D01*
X184844594Y-113890476D01*
X184753741Y-113956485D01*
X184685354Y-114006172D01*
X184685352Y-114006174D01*
X184685351Y-114006174D01*
X184546174Y-114145351D01*
X184546174Y-114145352D01*
X184546172Y-114145354D01*
X184496485Y-114213741D01*
X184430476Y-114304594D01*
X184341117Y-114479970D01*
X184280290Y-114667173D01*
X184249500Y-114861577D01*
X184249500Y-115058422D01*
X184280290Y-115252826D01*
X184341117Y-115440029D01*
X184430476Y-115615405D01*
X184546172Y-115774646D01*
X184685354Y-115913828D01*
X184844595Y-116029524D01*
X184967992Y-116092397D01*
X185021213Y-116119515D01*
X185072009Y-116167489D01*
X185088804Y-116235310D01*
X185066267Y-116301445D01*
X185021213Y-116340485D01*
X184844594Y-116430476D01*
X184753741Y-116496485D01*
X184685354Y-116546172D01*
X184685352Y-116546174D01*
X184685351Y-116546174D01*
X184546174Y-116685351D01*
X184546174Y-116685352D01*
X184546172Y-116685354D01*
X184496485Y-116753741D01*
X184430476Y-116844594D01*
X184341117Y-117019970D01*
X184280290Y-117207173D01*
X184249500Y-117401577D01*
X184249500Y-117598422D01*
X184280290Y-117792826D01*
X184341117Y-117980029D01*
X184430476Y-118155405D01*
X184546172Y-118314646D01*
X184685354Y-118453828D01*
X184844595Y-118569524D01*
X184927455Y-118611743D01*
X185019970Y-118658882D01*
X185019972Y-118658882D01*
X185019975Y-118658884D01*
X185120317Y-118691487D01*
X185207173Y-118719709D01*
X185401578Y-118750500D01*
X185401583Y-118750500D01*
X185598422Y-118750500D01*
X185792826Y-118719709D01*
X185824584Y-118709390D01*
X185980025Y-118658884D01*
X186155405Y-118569524D01*
X186314646Y-118453828D01*
X186453828Y-118314646D01*
X186569524Y-118155405D01*
X186658884Y-117980025D01*
X186719709Y-117792826D01*
X186729618Y-117730261D01*
X186750500Y-117598422D01*
X186750500Y-117401577D01*
X186719709Y-117207173D01*
X186658882Y-117019970D01*
X186569523Y-116844594D01*
X186453828Y-116685354D01*
X186314646Y-116546172D01*
X186235025Y-116488324D01*
X186155403Y-116430474D01*
X185978787Y-116340485D01*
X185927990Y-116292511D01*
X185911195Y-116224690D01*
X185933732Y-116158555D01*
X185978787Y-116119515D01*
X186155403Y-116029525D01*
X186155402Y-116029525D01*
X186155405Y-116029524D01*
X186314646Y-115913828D01*
X186453828Y-115774646D01*
X186569524Y-115615405D01*
X186658884Y-115440025D01*
X186719709Y-115252826D01*
X186750500Y-115058422D01*
X186750500Y-114861577D01*
X186719709Y-114667173D01*
X186658882Y-114479970D01*
X186569523Y-114304594D01*
X186453828Y-114145354D01*
X186314646Y-114006172D01*
X186235025Y-113948324D01*
X186155403Y-113890474D01*
X185978787Y-113800485D01*
X185927990Y-113752511D01*
X185911195Y-113684690D01*
X185933732Y-113618555D01*
X185978787Y-113579515D01*
X186155403Y-113489525D01*
X186155402Y-113489525D01*
X186155405Y-113489524D01*
X186314646Y-113373828D01*
X186453828Y-113234646D01*
X186569524Y-113075405D01*
X186658884Y-112900025D01*
X186719709Y-112712826D01*
X186750500Y-112518422D01*
X186750500Y-112321577D01*
X186719709Y-112127173D01*
X186658882Y-111939970D01*
X186569523Y-111764594D01*
X186453828Y-111605354D01*
X186314646Y-111466172D01*
X186200088Y-111382940D01*
X186155403Y-111350474D01*
X185978787Y-111260485D01*
X185927990Y-111212511D01*
X185911195Y-111144690D01*
X185933732Y-111078555D01*
X185978787Y-111039515D01*
X186155403Y-110949525D01*
X186155402Y-110949525D01*
X186155405Y-110949524D01*
X186314646Y-110833828D01*
X186431656Y-110716818D01*
X186492979Y-110683334D01*
X186519337Y-110680500D01*
X186997060Y-110680500D01*
X187064099Y-110700185D01*
X187084741Y-110716819D01*
X187663181Y-111295259D01*
X187696666Y-111356582D01*
X187699500Y-111382940D01*
X187699500Y-119117060D01*
X187679815Y-119184099D01*
X187663181Y-119204741D01*
X181204741Y-125663181D01*
X181143418Y-125696666D01*
X181117060Y-125699500D01*
X180659517Y-125699500D01*
X180592478Y-125679815D01*
X180546723Y-125627011D01*
X180541811Y-125614505D01*
X180522314Y-125555666D01*
X180430212Y-125406344D01*
X180306156Y-125282288D01*
X180156834Y-125190186D01*
X179990297Y-125135001D01*
X179990295Y-125135000D01*
X179887510Y-125124500D01*
X179162498Y-125124500D01*
X179162480Y-125124501D01*
X179059703Y-125135000D01*
X179059700Y-125135001D01*
X178893168Y-125190185D01*
X178893163Y-125190187D01*
X178743842Y-125282289D01*
X178619789Y-125406342D01*
X178527687Y-125555663D01*
X178527685Y-125555668D01*
X178527615Y-125555880D01*
X178472501Y-125722203D01*
X178472501Y-125722204D01*
X178472500Y-125722204D01*
X178462000Y-125824983D01*
X178462000Y-127175001D01*
X178462001Y-127175018D01*
X178472500Y-127277796D01*
X178472501Y-127277799D01*
X178527615Y-127444119D01*
X178527686Y-127444334D01*
X178619788Y-127593656D01*
X178743844Y-127717712D01*
X178893166Y-127809814D01*
X179059703Y-127864999D01*
X179162491Y-127875500D01*
X179887508Y-127875499D01*
X179887516Y-127875498D01*
X179887519Y-127875498D01*
X179943802Y-127869748D01*
X179990297Y-127864999D01*
X180156834Y-127809814D01*
X180306156Y-127717712D01*
X180430212Y-127593656D01*
X180522314Y-127444334D01*
X180541811Y-127385493D01*
X180581584Y-127328051D01*
X180646100Y-127301228D01*
X180659517Y-127300500D01*
X181578844Y-127300500D01*
X181578845Y-127300499D01*
X181733497Y-127269737D01*
X181879179Y-127209394D01*
X182010289Y-127121789D01*
X182882078Y-126250000D01*
X183753368Y-125378711D01*
X187649500Y-125378711D01*
X187649500Y-125621288D01*
X187681161Y-125861785D01*
X187743947Y-126096104D01*
X187754188Y-126120827D01*
X187836776Y-126320212D01*
X187958064Y-126530289D01*
X187958066Y-126530292D01*
X187958067Y-126530293D01*
X188105733Y-126722736D01*
X188105739Y-126722743D01*
X188277256Y-126894260D01*
X188277262Y-126894265D01*
X188469711Y-127041936D01*
X188679788Y-127163224D01*
X188903900Y-127256054D01*
X189138211Y-127318838D01*
X189318586Y-127342584D01*
X189378711Y-127350500D01*
X189378712Y-127350500D01*
X189621289Y-127350500D01*
X189669388Y-127344167D01*
X189861789Y-127318838D01*
X190096100Y-127256054D01*
X190320212Y-127163224D01*
X190530289Y-127041936D01*
X190722738Y-126894265D01*
X190894265Y-126722738D01*
X191041936Y-126530289D01*
X191163224Y-126320212D01*
X191256054Y-126096100D01*
X191318838Y-125861789D01*
X191350500Y-125621288D01*
X191350500Y-125378712D01*
X191318838Y-125138211D01*
X191256054Y-124903900D01*
X191163224Y-124679788D01*
X191041936Y-124469711D01*
X190894265Y-124277262D01*
X190894260Y-124277256D01*
X190722743Y-124105739D01*
X190722736Y-124105733D01*
X190530293Y-123958067D01*
X190530292Y-123958066D01*
X190530289Y-123958064D01*
X190320212Y-123836776D01*
X190320205Y-123836773D01*
X190096104Y-123743947D01*
X189861785Y-123681161D01*
X189621289Y-123649500D01*
X189621288Y-123649500D01*
X189378712Y-123649500D01*
X189378711Y-123649500D01*
X189138214Y-123681161D01*
X188903895Y-123743947D01*
X188679794Y-123836773D01*
X188679785Y-123836777D01*
X188469706Y-123958067D01*
X188277263Y-124105733D01*
X188277256Y-124105739D01*
X188105739Y-124277256D01*
X188105733Y-124277263D01*
X187958067Y-124469706D01*
X187836777Y-124679785D01*
X187836773Y-124679794D01*
X187743947Y-124903895D01*
X187681161Y-125138214D01*
X187649500Y-125378711D01*
X183753368Y-125378711D01*
X183845107Y-125286972D01*
X189121786Y-120010292D01*
X189121789Y-120010289D01*
X189209394Y-119879179D01*
X189269737Y-119733497D01*
X189300500Y-119578842D01*
X189300500Y-119421158D01*
X189300500Y-110921158D01*
X189300500Y-110921155D01*
X189300499Y-110921153D01*
X189274531Y-110790606D01*
X189269737Y-110766503D01*
X189269735Y-110766498D01*
X189209397Y-110620827D01*
X189209390Y-110620814D01*
X189121790Y-110489712D01*
X189121789Y-110489711D01*
X189010289Y-110378211D01*
X188610495Y-109978417D01*
X187890292Y-109258213D01*
X187890288Y-109258210D01*
X187759185Y-109170609D01*
X187759172Y-109170602D01*
X187613501Y-109110264D01*
X187613489Y-109110261D01*
X187458845Y-109079500D01*
X187458842Y-109079500D01*
X186519337Y-109079500D01*
X186452298Y-109059815D01*
X186431656Y-109043182D01*
X186314646Y-108926172D01*
X186242493Y-108873749D01*
X186155403Y-108810474D01*
X185978787Y-108720485D01*
X185927990Y-108672511D01*
X185911195Y-108604690D01*
X185933732Y-108538555D01*
X185978787Y-108499515D01*
X186155403Y-108409525D01*
X186155402Y-108409525D01*
X186155405Y-108409524D01*
X186314646Y-108293828D01*
X186453828Y-108154646D01*
X186569524Y-107995405D01*
X186658884Y-107820025D01*
X186719709Y-107632826D01*
X186728194Y-107579252D01*
X186750500Y-107438422D01*
X186750500Y-107241577D01*
X186719709Y-107047173D01*
X186658882Y-106859970D01*
X186602849Y-106750000D01*
X186569524Y-106684595D01*
X186453828Y-106525354D01*
X186314646Y-106386172D01*
X186235025Y-106328324D01*
X186155403Y-106270474D01*
X185978787Y-106180485D01*
X185927990Y-106132511D01*
X185911195Y-106064690D01*
X185933732Y-105998555D01*
X185978787Y-105959515D01*
X186155403Y-105869525D01*
X186155402Y-105869525D01*
X186155405Y-105869524D01*
X186314646Y-105753828D01*
X186453828Y-105614646D01*
X186569524Y-105455405D01*
X186658884Y-105280025D01*
X186719709Y-105092826D01*
X186750500Y-104898422D01*
X186750500Y-104701577D01*
X186719709Y-104507173D01*
X186658882Y-104319970D01*
X186586652Y-104178211D01*
X186569524Y-104144595D01*
X186453828Y-103985354D01*
X186314646Y-103846172D01*
X186235025Y-103788324D01*
X186155403Y-103730474D01*
X185978787Y-103640485D01*
X185927990Y-103592511D01*
X185911195Y-103524690D01*
X185933732Y-103458555D01*
X185978787Y-103419515D01*
X186155403Y-103329525D01*
X186155402Y-103329525D01*
X186155405Y-103329524D01*
X186314646Y-103213828D01*
X186431656Y-103096818D01*
X186492979Y-103063334D01*
X186519337Y-103060500D01*
X191318844Y-103060500D01*
X191318845Y-103060499D01*
X191473497Y-103029737D01*
X191619179Y-102969394D01*
X191750289Y-102881789D01*
X194121789Y-100510289D01*
X194209394Y-100379179D01*
X194269738Y-100233497D01*
X194300500Y-100078842D01*
X194300500Y-99921157D01*
X194300500Y-69421158D01*
X194286985Y-69353211D01*
X194269737Y-69266502D01*
X194231628Y-69174500D01*
X194209394Y-69120821D01*
X194121789Y-68989711D01*
X194010289Y-68878211D01*
X193932578Y-68800500D01*
X192510292Y-67378213D01*
X192510288Y-67378210D01*
X192379185Y-67290609D01*
X192379172Y-67290602D01*
X192233501Y-67230264D01*
X192233489Y-67230261D01*
X192078845Y-67199500D01*
X192078842Y-67199500D01*
X185578843Y-67199500D01*
X185421158Y-67199500D01*
X185421153Y-67199500D01*
X185266510Y-67230260D01*
X185266502Y-67230262D01*
X185120824Y-67290604D01*
X185120814Y-67290609D01*
X184989711Y-67378210D01*
X184989707Y-67378213D01*
X183489711Y-68878211D01*
X183014711Y-69353211D01*
X182958960Y-69408962D01*
X182903209Y-69464712D01*
X182815609Y-69595814D01*
X182815602Y-69595827D01*
X182755264Y-69741498D01*
X182755261Y-69741510D01*
X182724500Y-69896153D01*
X182724500Y-75250270D01*
X182704815Y-75317309D01*
X182688181Y-75337951D01*
X182619789Y-75406342D01*
X182527687Y-75555663D01*
X182527685Y-75555668D01*
X182527615Y-75555880D01*
X182472501Y-75722203D01*
X182472501Y-75722204D01*
X182472500Y-75722204D01*
X182462000Y-75824983D01*
X182462000Y-77175001D01*
X182462001Y-77175018D01*
X182472500Y-77277796D01*
X182472501Y-77277799D01*
X182527685Y-77444331D01*
X182527687Y-77444336D01*
X182543104Y-77469331D01*
X182619788Y-77593656D01*
X182743844Y-77717712D01*
X182893166Y-77809814D01*
X183059703Y-77864999D01*
X183162491Y-77875500D01*
X183887508Y-77875499D01*
X183887516Y-77875498D01*
X183887519Y-77875498D01*
X183943802Y-77869748D01*
X183990297Y-77864999D01*
X184156834Y-77809814D01*
X184306156Y-77717712D01*
X184430212Y-77593656D01*
X184522314Y-77444334D01*
X184577499Y-77277797D01*
X184588000Y-77175009D01*
X184587999Y-75824992D01*
X184577499Y-75722203D01*
X184522314Y-75555666D01*
X184430212Y-75406344D01*
X184361819Y-75337951D01*
X184328334Y-75276628D01*
X184325500Y-75250270D01*
X184325500Y-70357940D01*
X184345185Y-70290901D01*
X184361819Y-70270259D01*
X185795259Y-68836819D01*
X185856582Y-68803334D01*
X185882940Y-68800500D01*
X191617060Y-68800500D01*
X191684099Y-68820185D01*
X191704741Y-68836819D01*
X192663181Y-69795259D01*
X192696666Y-69856582D01*
X192699500Y-69882940D01*
X192699500Y-99617060D01*
X192679815Y-99684099D01*
X192663181Y-99704741D01*
X190944741Y-101423181D01*
X190883418Y-101456666D01*
X190857060Y-101459500D01*
X186519337Y-101459500D01*
X186452298Y-101439815D01*
X186431656Y-101423182D01*
X186431655Y-101423181D01*
X186314646Y-101306172D01*
X186242493Y-101253749D01*
X186155403Y-101190474D01*
X185978787Y-101100485D01*
X185927990Y-101052511D01*
X185911195Y-100984690D01*
X185933732Y-100918555D01*
X185978787Y-100879515D01*
X186155403Y-100789525D01*
X186155402Y-100789525D01*
X186155405Y-100789524D01*
X186314646Y-100673828D01*
X186453828Y-100534646D01*
X186569524Y-100375405D01*
X186658884Y-100200025D01*
X186719709Y-100012826D01*
X186734228Y-99921157D01*
X186750500Y-99818422D01*
X186750500Y-99621577D01*
X186719709Y-99427173D01*
X186658882Y-99239970D01*
X186569523Y-99064594D01*
X186546339Y-99032684D01*
X186453828Y-98905354D01*
X186314646Y-98766172D01*
X186235025Y-98708324D01*
X186155403Y-98650474D01*
X185978787Y-98560485D01*
X185927990Y-98512511D01*
X185911195Y-98444690D01*
X185933732Y-98378555D01*
X185978787Y-98339515D01*
X186155403Y-98249525D01*
X186155402Y-98249525D01*
X186155405Y-98249524D01*
X186314646Y-98133828D01*
X186453828Y-97994646D01*
X186569524Y-97835405D01*
X186658884Y-97660025D01*
X186719709Y-97472826D01*
X186750500Y-97278422D01*
X186750500Y-97081577D01*
X186719709Y-96887173D01*
X186658882Y-96699970D01*
X186611743Y-96607455D01*
X186569524Y-96524595D01*
X186453828Y-96365354D01*
X186314646Y-96226172D01*
X186235025Y-96168324D01*
X186155403Y-96110474D01*
X185978787Y-96020485D01*
X185927990Y-95972511D01*
X185911195Y-95904690D01*
X185933732Y-95838555D01*
X185978787Y-95799515D01*
X186155403Y-95709525D01*
X186155402Y-95709525D01*
X186155405Y-95709524D01*
X186314646Y-95593828D01*
X186453828Y-95454646D01*
X186569524Y-95295405D01*
X186658884Y-95120025D01*
X186719709Y-94932826D01*
X186750500Y-94738422D01*
X186750500Y-94541577D01*
X186719709Y-94347173D01*
X186658882Y-94159970D01*
X186569523Y-93984594D01*
X186453828Y-93825354D01*
X186314646Y-93686172D01*
X186235025Y-93628324D01*
X186155403Y-93570474D01*
X185978787Y-93480485D01*
X185927990Y-93432511D01*
X185911195Y-93364690D01*
X185933732Y-93298555D01*
X185978787Y-93259515D01*
X186155403Y-93169525D01*
X186155402Y-93169525D01*
X186155405Y-93169524D01*
X186314646Y-93053828D01*
X186453828Y-92914646D01*
X186569524Y-92755405D01*
X186658884Y-92580025D01*
X186719709Y-92392826D01*
X186750500Y-92198422D01*
X186750500Y-92001577D01*
X186719709Y-91807173D01*
X186658882Y-91619970D01*
X186569523Y-91444594D01*
X186453828Y-91285354D01*
X186314646Y-91146172D01*
X186235025Y-91088324D01*
X186155403Y-91030474D01*
X185978787Y-90940485D01*
X185927990Y-90892511D01*
X185911195Y-90824690D01*
X185933732Y-90758555D01*
X185978787Y-90719515D01*
X186155403Y-90629525D01*
X186155402Y-90629525D01*
X186155405Y-90629524D01*
X186314646Y-90513828D01*
X186453828Y-90374646D01*
X186569524Y-90215405D01*
X186658884Y-90040025D01*
X186719709Y-89852826D01*
X186750500Y-89658422D01*
X186750500Y-89461577D01*
X186719709Y-89267173D01*
X186658882Y-89079970D01*
X186569523Y-88904594D01*
X186453828Y-88745354D01*
X186314646Y-88606172D01*
X186155405Y-88490476D01*
X185980025Y-88401116D01*
X185980024Y-88401115D01*
X185978235Y-88400204D01*
X185927439Y-88352230D01*
X185910644Y-88284409D01*
X185933181Y-88218274D01*
X185978236Y-88179234D01*
X186155141Y-88089097D01*
X186190125Y-88063678D01*
X186190126Y-88063678D01*
X185546448Y-87420000D01*
X185552661Y-87420000D01*
X185654394Y-87392741D01*
X185745606Y-87340080D01*
X185820080Y-87265606D01*
X185872741Y-87174394D01*
X185900000Y-87072661D01*
X185900000Y-87066448D01*
X186543678Y-87710126D01*
X186543678Y-87710125D01*
X186569095Y-87675143D01*
X186658418Y-87499835D01*
X186719221Y-87312705D01*
X186750000Y-87118382D01*
X186750000Y-86921617D01*
X186719221Y-86727294D01*
X186658418Y-86540164D01*
X186569096Y-86364858D01*
X186543678Y-86329873D01*
X186543677Y-86329873D01*
X185900000Y-86973551D01*
X185900000Y-86967339D01*
X185872741Y-86865606D01*
X185820080Y-86774394D01*
X185745606Y-86699920D01*
X185654394Y-86647259D01*
X185552661Y-86620000D01*
X185546447Y-86620000D01*
X186190125Y-85976320D01*
X186190125Y-85976319D01*
X186155145Y-85950905D01*
X185978235Y-85860765D01*
X185927439Y-85812790D01*
X185910644Y-85744969D01*
X185933182Y-85678834D01*
X185978236Y-85639795D01*
X185980022Y-85638884D01*
X185980025Y-85638884D01*
X186155405Y-85549524D01*
X186314646Y-85433828D01*
X186453828Y-85294646D01*
X186569524Y-85135405D01*
X186658884Y-84960025D01*
X186719709Y-84772826D01*
X186750500Y-84578422D01*
X186750500Y-84381577D01*
X186719709Y-84187173D01*
X186658882Y-83999970D01*
X186569523Y-83824594D01*
X186453828Y-83665354D01*
X186336818Y-83548344D01*
X186303334Y-83487021D01*
X186300500Y-83460663D01*
X186300500Y-79407939D01*
X186320185Y-79340900D01*
X186336814Y-79320263D01*
X187720259Y-77936817D01*
X187781582Y-77903333D01*
X187807940Y-77900499D01*
X188400002Y-77900499D01*
X188400008Y-77900499D01*
X188502797Y-77889999D01*
X188669334Y-77834814D01*
X188818656Y-77742712D01*
X188942712Y-77618656D01*
X189034814Y-77469334D01*
X189089999Y-77302797D01*
X189100500Y-77200009D01*
X189100500Y-77199986D01*
X189900001Y-77199986D01*
X189910494Y-77302697D01*
X189965641Y-77469119D01*
X189965643Y-77469124D01*
X190057684Y-77618345D01*
X190181654Y-77742315D01*
X190330875Y-77834356D01*
X190330880Y-77834358D01*
X190497302Y-77889505D01*
X190497309Y-77889506D01*
X190600019Y-77899999D01*
X190724999Y-77899999D01*
X191225000Y-77899999D01*
X191349972Y-77899999D01*
X191349986Y-77899998D01*
X191452697Y-77889505D01*
X191619119Y-77834358D01*
X191619124Y-77834356D01*
X191768345Y-77742315D01*
X191892315Y-77618345D01*
X191984356Y-77469124D01*
X191984358Y-77469119D01*
X192039505Y-77302697D01*
X192039506Y-77302690D01*
X192049999Y-77199986D01*
X192050000Y-77199973D01*
X192050000Y-76750000D01*
X191225000Y-76750000D01*
X191225000Y-77899999D01*
X190724999Y-77899999D01*
X190725000Y-77899998D01*
X190725000Y-76750000D01*
X189900001Y-76750000D01*
X189900001Y-77199986D01*
X189100500Y-77199986D01*
X189100499Y-76479740D01*
X189100499Y-75800013D01*
X189900000Y-75800013D01*
X189900000Y-76250000D01*
X190725000Y-76250000D01*
X191225000Y-76250000D01*
X192049999Y-76250000D01*
X192049999Y-75800028D01*
X192049998Y-75800013D01*
X192039505Y-75697302D01*
X191984358Y-75530880D01*
X191984356Y-75530875D01*
X191892315Y-75381654D01*
X191768345Y-75257684D01*
X191619124Y-75165643D01*
X191619119Y-75165641D01*
X191452697Y-75110494D01*
X191452690Y-75110493D01*
X191349986Y-75100000D01*
X191225000Y-75100000D01*
X191225000Y-76250000D01*
X190725000Y-76250000D01*
X190725000Y-75100000D01*
X190600027Y-75100000D01*
X190600012Y-75100001D01*
X190497302Y-75110494D01*
X190330880Y-75165641D01*
X190330875Y-75165643D01*
X190181654Y-75257684D01*
X190057684Y-75381654D01*
X189965643Y-75530875D01*
X189965641Y-75530880D01*
X189910494Y-75697302D01*
X189910493Y-75697309D01*
X189900000Y-75800013D01*
X189100499Y-75800013D01*
X189100499Y-75799998D01*
X189100498Y-75799981D01*
X189089999Y-75697203D01*
X189089998Y-75697200D01*
X189075551Y-75653603D01*
X189034814Y-75530666D01*
X188942712Y-75381344D01*
X188861819Y-75300451D01*
X188828334Y-75239128D01*
X188825500Y-75212770D01*
X188825500Y-72287230D01*
X188845185Y-72220191D01*
X188861819Y-72199549D01*
X188880884Y-72180484D01*
X188942712Y-72118656D01*
X189034814Y-71969334D01*
X189089999Y-71802797D01*
X189100500Y-71700009D01*
X189100500Y-71699986D01*
X189900001Y-71699986D01*
X189910494Y-71802697D01*
X189965641Y-71969119D01*
X189965643Y-71969124D01*
X190057684Y-72118345D01*
X190181654Y-72242315D01*
X190330875Y-72334356D01*
X190330880Y-72334358D01*
X190497302Y-72389505D01*
X190497309Y-72389506D01*
X190600019Y-72399999D01*
X190724999Y-72399999D01*
X191225000Y-72399999D01*
X191349972Y-72399999D01*
X191349986Y-72399998D01*
X191452697Y-72389505D01*
X191619119Y-72334358D01*
X191619124Y-72334356D01*
X191768345Y-72242315D01*
X191892315Y-72118345D01*
X191984356Y-71969124D01*
X191984358Y-71969119D01*
X192039505Y-71802697D01*
X192039506Y-71802690D01*
X192049999Y-71699986D01*
X192050000Y-71699973D01*
X192050000Y-71250000D01*
X191225000Y-71250000D01*
X191225000Y-72399999D01*
X190724999Y-72399999D01*
X190725000Y-72399998D01*
X190725000Y-71250000D01*
X189900001Y-71250000D01*
X189900001Y-71699986D01*
X189100500Y-71699986D01*
X189100499Y-70906287D01*
X189100499Y-70300013D01*
X189900000Y-70300013D01*
X189900000Y-70750000D01*
X190725000Y-70750000D01*
X191225000Y-70750000D01*
X192049999Y-70750000D01*
X192049999Y-70300028D01*
X192049998Y-70300013D01*
X192039505Y-70197302D01*
X191984358Y-70030880D01*
X191984356Y-70030875D01*
X191892315Y-69881654D01*
X191768345Y-69757684D01*
X191619124Y-69665643D01*
X191619119Y-69665641D01*
X191452697Y-69610494D01*
X191452690Y-69610493D01*
X191349986Y-69600000D01*
X191225000Y-69600000D01*
X191225000Y-70750000D01*
X190725000Y-70750000D01*
X190725000Y-69600000D01*
X190600027Y-69600000D01*
X190600012Y-69600001D01*
X190497302Y-69610494D01*
X190330880Y-69665641D01*
X190330875Y-69665643D01*
X190181654Y-69757684D01*
X190057684Y-69881654D01*
X189965643Y-70030875D01*
X189965641Y-70030880D01*
X189910494Y-70197302D01*
X189910493Y-70197309D01*
X189900000Y-70300013D01*
X189100499Y-70300013D01*
X189100499Y-70299998D01*
X189100498Y-70299981D01*
X189089999Y-70197203D01*
X189089998Y-70197200D01*
X189054676Y-70090606D01*
X189034814Y-70030666D01*
X188942712Y-69881344D01*
X188818656Y-69757288D01*
X188669334Y-69665186D01*
X188502797Y-69610001D01*
X188502795Y-69610000D01*
X188400010Y-69599500D01*
X187649998Y-69599500D01*
X187649980Y-69599501D01*
X187547203Y-69610000D01*
X187547200Y-69610001D01*
X187380668Y-69665185D01*
X187380663Y-69665187D01*
X187231342Y-69757289D01*
X187107289Y-69881342D01*
X187015187Y-70030663D01*
X187015185Y-70030668D01*
X186994801Y-70092184D01*
X186960001Y-70197203D01*
X186960001Y-70197204D01*
X186960000Y-70197204D01*
X186949500Y-70299983D01*
X186949500Y-71700001D01*
X186949501Y-71700018D01*
X186960000Y-71802796D01*
X186960001Y-71802799D01*
X186969051Y-71830109D01*
X187015186Y-71969334D01*
X187107096Y-72118345D01*
X187107289Y-72118657D01*
X187188181Y-72199549D01*
X187221666Y-72260872D01*
X187224500Y-72287230D01*
X187224500Y-75212770D01*
X187204815Y-75279809D01*
X187188181Y-75300451D01*
X187107289Y-75381342D01*
X187015187Y-75530663D01*
X187015185Y-75530668D01*
X187006831Y-75555880D01*
X186960001Y-75697203D01*
X186960001Y-75697204D01*
X186960000Y-75697204D01*
X186949500Y-75799983D01*
X186949500Y-76392059D01*
X186929815Y-76459098D01*
X186913180Y-76479740D01*
X184989711Y-78403211D01*
X184933960Y-78458962D01*
X184878209Y-78514712D01*
X184790609Y-78645814D01*
X184790602Y-78645827D01*
X184730264Y-78791498D01*
X184730261Y-78791510D01*
X184699500Y-78946153D01*
X184699500Y-83460663D01*
X184679815Y-83527702D01*
X184663182Y-83548344D01*
X184546171Y-83665355D01*
X184430476Y-83824594D01*
X184341117Y-83999970D01*
X184280290Y-84187173D01*
X184249500Y-84381577D01*
X184249500Y-84578422D01*
X184280290Y-84772826D01*
X184341117Y-84960029D01*
X184430476Y-85135405D01*
X184546172Y-85294646D01*
X184685354Y-85433828D01*
X184804784Y-85520600D01*
X184844596Y-85549525D01*
X185021763Y-85639795D01*
X185072560Y-85687769D01*
X185089355Y-85755590D01*
X185066818Y-85821725D01*
X185021764Y-85860765D01*
X184844859Y-85950902D01*
X184809873Y-85976320D01*
X184809872Y-85976320D01*
X185453554Y-86620000D01*
X185447339Y-86620000D01*
X185345606Y-86647259D01*
X185254394Y-86699920D01*
X185179920Y-86774394D01*
X185127259Y-86865606D01*
X185100000Y-86967339D01*
X185100000Y-86973552D01*
X184456320Y-86329872D01*
X184456320Y-86329873D01*
X184430902Y-86364859D01*
X184430899Y-86364863D01*
X184341582Y-86540161D01*
X184280778Y-86727294D01*
X184250000Y-86921617D01*
X184250000Y-87118382D01*
X184280778Y-87312705D01*
X184341581Y-87499835D01*
X184430905Y-87675145D01*
X184456319Y-87710125D01*
X184456320Y-87710125D01*
X185100000Y-87066445D01*
X185100000Y-87072661D01*
X185127259Y-87174394D01*
X185179920Y-87265606D01*
X185254394Y-87340080D01*
X185345606Y-87392741D01*
X185447339Y-87420000D01*
X185453553Y-87420000D01*
X184809873Y-88063677D01*
X184809873Y-88063678D01*
X184844858Y-88089096D01*
X185021764Y-88179234D01*
X185072560Y-88227209D01*
X185089355Y-88295030D01*
X185066818Y-88361164D01*
X185021764Y-88400204D01*
X184844594Y-88490476D01*
X184685355Y-88606171D01*
X184568344Y-88723182D01*
X184507021Y-88756666D01*
X184480663Y-88759500D01*
X170442940Y-88759500D01*
X170375901Y-88739815D01*
X170355259Y-88723181D01*
X166096470Y-84464392D01*
X158807065Y-77174986D01*
X167975001Y-77174986D01*
X167985494Y-77277697D01*
X168040641Y-77444119D01*
X168040643Y-77444124D01*
X168132684Y-77593345D01*
X168256654Y-77717315D01*
X168405875Y-77809356D01*
X168405880Y-77809358D01*
X168572302Y-77864505D01*
X168572309Y-77864506D01*
X168675019Y-77874999D01*
X168849999Y-77874999D01*
X169350000Y-77874999D01*
X169524972Y-77874999D01*
X169524986Y-77874998D01*
X169627697Y-77864505D01*
X169794119Y-77809358D01*
X169794124Y-77809356D01*
X169943345Y-77717315D01*
X170067315Y-77593345D01*
X170159356Y-77444124D01*
X170159358Y-77444119D01*
X170214505Y-77277697D01*
X170214506Y-77277690D01*
X170224999Y-77174986D01*
X170225000Y-77174973D01*
X170225000Y-76750000D01*
X169350000Y-76750000D01*
X169350000Y-77874999D01*
X168849999Y-77874999D01*
X168850000Y-77874998D01*
X168850000Y-76750000D01*
X167975001Y-76750000D01*
X167975001Y-77174986D01*
X158807065Y-77174986D01*
X158418398Y-76786319D01*
X157457092Y-75825013D01*
X167975000Y-75825013D01*
X167975000Y-76250000D01*
X168850000Y-76250000D01*
X169350000Y-76250000D01*
X170224999Y-76250000D01*
X170224999Y-75825024D01*
X170224998Y-75825016D01*
X170224995Y-75824983D01*
X170774500Y-75824983D01*
X170774500Y-77175001D01*
X170774501Y-77175018D01*
X170785000Y-77277796D01*
X170785001Y-77277799D01*
X170840185Y-77444331D01*
X170840187Y-77444336D01*
X170855604Y-77469331D01*
X170932288Y-77593656D01*
X171056344Y-77717712D01*
X171205666Y-77809814D01*
X171372203Y-77864999D01*
X171474991Y-77875500D01*
X172325008Y-77875499D01*
X172325016Y-77875498D01*
X172325019Y-77875498D01*
X172381302Y-77869748D01*
X172427797Y-77864999D01*
X172594334Y-77809814D01*
X172743656Y-77717712D01*
X172867712Y-77593656D01*
X172959814Y-77444334D01*
X172979311Y-77385493D01*
X173019084Y-77328051D01*
X173083600Y-77301228D01*
X173097017Y-77300500D01*
X179465483Y-77300500D01*
X179532522Y-77320185D01*
X179578277Y-77372989D01*
X179583186Y-77385489D01*
X179602685Y-77444331D01*
X179602686Y-77444333D01*
X179602687Y-77444336D01*
X179618104Y-77469331D01*
X179694788Y-77593656D01*
X179818844Y-77717712D01*
X179968166Y-77809814D01*
X180134703Y-77864999D01*
X180237491Y-77875500D01*
X180962508Y-77875499D01*
X180962516Y-77875498D01*
X180962519Y-77875498D01*
X181018802Y-77869748D01*
X181065297Y-77864999D01*
X181231834Y-77809814D01*
X181381156Y-77717712D01*
X181505212Y-77593656D01*
X181597314Y-77444334D01*
X181652499Y-77277797D01*
X181663000Y-77175009D01*
X181662999Y-75824992D01*
X181652499Y-75722203D01*
X181597314Y-75555666D01*
X181505212Y-75406344D01*
X181381156Y-75282288D01*
X181231834Y-75190186D01*
X181065297Y-75135001D01*
X181065295Y-75135000D01*
X180962510Y-75124500D01*
X180237498Y-75124500D01*
X180237480Y-75124501D01*
X180134703Y-75135000D01*
X180134700Y-75135001D01*
X179968168Y-75190185D01*
X179968163Y-75190187D01*
X179818842Y-75282289D01*
X179694789Y-75406342D01*
X179602687Y-75555663D01*
X179602686Y-75555666D01*
X179583189Y-75614505D01*
X179543416Y-75671949D01*
X179478900Y-75698772D01*
X179465483Y-75699500D01*
X173097017Y-75699500D01*
X173029978Y-75679815D01*
X172984223Y-75627011D01*
X172979311Y-75614505D01*
X172959814Y-75555666D01*
X172867712Y-75406344D01*
X172743656Y-75282288D01*
X172594334Y-75190186D01*
X172427797Y-75135001D01*
X172427795Y-75135000D01*
X172325010Y-75124500D01*
X171474998Y-75124500D01*
X171474980Y-75124501D01*
X171372203Y-75135000D01*
X171372200Y-75135001D01*
X171205668Y-75190185D01*
X171205663Y-75190187D01*
X171056342Y-75282289D01*
X170932289Y-75406342D01*
X170840187Y-75555663D01*
X170840185Y-75555668D01*
X170840115Y-75555880D01*
X170785001Y-75722203D01*
X170785001Y-75722204D01*
X170785000Y-75722204D01*
X170774500Y-75824983D01*
X170224995Y-75824983D01*
X170214505Y-75722302D01*
X170159358Y-75555880D01*
X170159356Y-75555875D01*
X170067315Y-75406654D01*
X169943345Y-75282684D01*
X169794124Y-75190643D01*
X169794119Y-75190641D01*
X169627697Y-75135494D01*
X169627690Y-75135493D01*
X169524986Y-75125000D01*
X169350000Y-75125000D01*
X169350000Y-76250000D01*
X168850000Y-76250000D01*
X168850000Y-75125000D01*
X168675029Y-75125000D01*
X168675012Y-75125001D01*
X168572302Y-75135494D01*
X168405880Y-75190641D01*
X168405875Y-75190643D01*
X168256654Y-75282684D01*
X168132684Y-75406654D01*
X168040643Y-75555875D01*
X168040641Y-75555880D01*
X167985494Y-75722302D01*
X167985493Y-75722309D01*
X167975000Y-75825013D01*
X157457092Y-75825013D01*
X151810292Y-70178213D01*
X151810288Y-70178210D01*
X151679185Y-70090609D01*
X151679172Y-70090602D01*
X151533501Y-70030264D01*
X151533489Y-70030261D01*
X151378845Y-69999500D01*
X151378842Y-69999500D01*
X144460894Y-69999500D01*
X144393855Y-69979815D01*
X144360577Y-69948387D01*
X144340104Y-69920208D01*
X144189792Y-69769896D01*
X144189786Y-69769890D01*
X144017820Y-69644951D01*
X143828414Y-69548444D01*
X143828413Y-69548443D01*
X143828412Y-69548443D01*
X143626243Y-69482754D01*
X143626241Y-69482753D01*
X143626240Y-69482753D01*
X143464957Y-69457208D01*
X143416287Y-69449500D01*
X143203713Y-69449500D01*
X143155042Y-69457208D01*
X142993760Y-69482753D01*
X142791585Y-69548444D01*
X142602179Y-69644951D01*
X142430213Y-69769890D01*
X142279890Y-69920213D01*
X142154951Y-70092179D01*
X142058444Y-70281585D01*
X141992753Y-70483760D01*
X141970547Y-70623963D01*
X141959500Y-70693713D01*
X141959500Y-70906287D01*
X141992754Y-71116243D01*
X142036214Y-71250000D01*
X142058444Y-71318414D01*
X142154951Y-71507820D01*
X142279890Y-71679786D01*
X142430213Y-71830109D01*
X142602182Y-71955050D01*
X142610946Y-71959516D01*
X142661742Y-72007491D01*
X142678536Y-72075312D01*
X142655998Y-72141447D01*
X142610946Y-72180484D01*
X142602182Y-72184949D01*
X142430213Y-72309890D01*
X142279890Y-72460213D01*
X142154951Y-72632179D01*
X142058444Y-72821585D01*
X141992753Y-73023760D01*
X141959500Y-73233713D01*
X141959500Y-73446286D01*
X141992753Y-73656239D01*
X142058444Y-73858414D01*
X142154951Y-74047820D01*
X142279890Y-74219786D01*
X142430213Y-74370109D01*
X142602182Y-74495050D01*
X142610946Y-74499516D01*
X142661742Y-74547491D01*
X142678536Y-74615312D01*
X142655998Y-74681447D01*
X142610946Y-74720484D01*
X142602182Y-74724949D01*
X142430213Y-74849890D01*
X142279890Y-75000213D01*
X142154951Y-75172179D01*
X142058444Y-75361585D01*
X141992753Y-75563760D01*
X141959500Y-75773713D01*
X141959500Y-75986286D01*
X141992753Y-76196239D01*
X142058444Y-76398414D01*
X142154951Y-76587820D01*
X142279890Y-76759786D01*
X142430213Y-76910109D01*
X142602182Y-77035050D01*
X142610946Y-77039516D01*
X142661742Y-77087491D01*
X142678536Y-77155312D01*
X142655998Y-77221447D01*
X142610946Y-77260484D01*
X142602182Y-77264949D01*
X142430213Y-77389890D01*
X142279890Y-77540213D01*
X142154951Y-77712179D01*
X142058444Y-77901585D01*
X141992753Y-78103760D01*
X141959500Y-78313713D01*
X141959500Y-78526287D01*
X141992754Y-78736243D01*
X142010711Y-78791510D01*
X142058444Y-78938414D01*
X142154951Y-79127820D01*
X142279890Y-79299786D01*
X142430213Y-79450109D01*
X142602179Y-79575048D01*
X142602181Y-79575049D01*
X142602184Y-79575051D01*
X142611493Y-79579794D01*
X142662290Y-79627766D01*
X142679087Y-79695587D01*
X142656552Y-79761722D01*
X142611505Y-79800760D01*
X142602446Y-79805376D01*
X142602440Y-79805380D01*
X142548282Y-79844727D01*
X142548282Y-79844728D01*
X143139766Y-80436212D01*
X143097708Y-80447482D01*
X142972292Y-80519890D01*
X142869890Y-80622292D01*
X142797482Y-80747708D01*
X142786212Y-80789766D01*
X142194728Y-80198282D01*
X142194727Y-80198282D01*
X142155380Y-80252439D01*
X142058904Y-80441782D01*
X141993242Y-80643869D01*
X141993242Y-80643872D01*
X141960000Y-80853753D01*
X141960000Y-81066246D01*
X141993242Y-81276127D01*
X141993242Y-81276130D01*
X142058904Y-81478217D01*
X142155375Y-81667550D01*
X142194728Y-81721716D01*
X142786212Y-81130233D01*
X142797482Y-81172292D01*
X142869890Y-81297708D01*
X142972292Y-81400110D01*
X143097708Y-81472518D01*
X143139765Y-81483787D01*
X142548282Y-82075269D01*
X142548282Y-82075270D01*
X142602449Y-82114624D01*
X142791782Y-82211095D01*
X142993870Y-82276757D01*
X143203754Y-82310000D01*
X143416246Y-82310000D01*
X143626127Y-82276757D01*
X143626130Y-82276757D01*
X143828217Y-82211095D01*
X144017554Y-82114622D01*
X144071716Y-82075270D01*
X144071717Y-82075270D01*
X143480233Y-81483787D01*
X143522292Y-81472518D01*
X143647708Y-81400110D01*
X143750110Y-81297708D01*
X143822518Y-81172292D01*
X143833787Y-81130234D01*
X144425270Y-81721717D01*
X144425270Y-81721716D01*
X144464622Y-81667554D01*
X144561095Y-81478217D01*
X144626757Y-81276130D01*
X144626757Y-81276127D01*
X144660000Y-81066246D01*
X144660000Y-80853753D01*
X144626757Y-80643872D01*
X144626757Y-80643869D01*
X144561095Y-80441782D01*
X144464624Y-80252449D01*
X144425270Y-80198282D01*
X144425269Y-80198282D01*
X143833787Y-80789765D01*
X143822518Y-80747708D01*
X143750110Y-80622292D01*
X143647708Y-80519890D01*
X143522292Y-80447482D01*
X143480233Y-80436212D01*
X144071716Y-79844728D01*
X144017547Y-79805373D01*
X144017547Y-79805372D01*
X144008500Y-79800763D01*
X143957706Y-79752788D01*
X143940912Y-79684966D01*
X143963451Y-79618832D01*
X144008508Y-79579793D01*
X144017816Y-79575051D01*
X144097007Y-79517515D01*
X144189786Y-79450109D01*
X144189788Y-79450106D01*
X144189792Y-79450104D01*
X144340104Y-79299792D01*
X144340106Y-79299788D01*
X144340109Y-79299786D01*
X144465048Y-79127820D01*
X144465047Y-79127820D01*
X144465051Y-79127816D01*
X144561557Y-78938412D01*
X144627246Y-78736243D01*
X144660500Y-78526287D01*
X144660500Y-78313713D01*
X144627246Y-78103757D01*
X144561557Y-77901588D01*
X144465051Y-77712184D01*
X144465049Y-77712181D01*
X144465048Y-77712179D01*
X144340109Y-77540213D01*
X144189786Y-77389890D01*
X144017820Y-77264951D01*
X144017115Y-77264591D01*
X144009054Y-77260485D01*
X143958259Y-77212512D01*
X143941463Y-77144692D01*
X143963999Y-77078556D01*
X144009054Y-77039515D01*
X144017816Y-77035051D01*
X144139839Y-76946397D01*
X144189786Y-76910109D01*
X144189788Y-76910106D01*
X144189792Y-76910104D01*
X144340104Y-76759792D01*
X144360577Y-76731613D01*
X144415906Y-76688949D01*
X144460894Y-76680500D01*
X149997060Y-76680500D01*
X150064099Y-76700185D01*
X150084741Y-76716819D01*
X168518211Y-95150289D01*
X168629711Y-95261789D01*
X168760821Y-95349394D01*
X168863833Y-95392062D01*
X168906502Y-95409737D01*
X169061152Y-95440499D01*
X169061155Y-95440500D01*
X169061157Y-95440500D01*
X169061158Y-95440500D01*
X184480663Y-95440500D01*
X184547702Y-95460185D01*
X184568344Y-95476818D01*
X184685354Y-95593828D01*
X184844595Y-95709524D01*
X184967992Y-95772397D01*
X185021213Y-95799515D01*
X185072009Y-95847489D01*
X185088804Y-95915310D01*
X185066267Y-95981445D01*
X185021213Y-96020485D01*
X184844594Y-96110476D01*
X184685355Y-96226171D01*
X184568344Y-96343182D01*
X184507021Y-96376666D01*
X184480663Y-96379500D01*
X134062940Y-96379500D01*
X133995901Y-96359815D01*
X133975259Y-96343181D01*
X113761920Y-76129841D01*
X113676668Y-76044589D01*
X123809500Y-76044589D01*
X123809500Y-76555410D01*
X123849577Y-77064641D01*
X123849577Y-77064642D01*
X123913675Y-77469336D01*
X123929486Y-77569163D01*
X124048732Y-78065860D01*
X124093444Y-78203471D01*
X124206578Y-78551664D01*
X124305921Y-78791498D01*
X124402060Y-79023598D01*
X124633963Y-79478733D01*
X124633968Y-79478741D01*
X124633970Y-79478745D01*
X124633973Y-79478752D01*
X124900855Y-79914261D01*
X124900862Y-79914272D01*
X125201102Y-80327518D01*
X125201112Y-80327532D01*
X125452862Y-80622292D01*
X125532853Y-80715949D01*
X125894051Y-81077147D01*
X125894057Y-81077152D01*
X126282467Y-81408887D01*
X126282474Y-81408892D01*
X126695729Y-81709139D01*
X126780979Y-81761380D01*
X127131247Y-81976026D01*
X127131253Y-81976028D01*
X127131267Y-81976037D01*
X127586402Y-82207940D01*
X128058330Y-82403419D01*
X128058335Y-82403421D01*
X128181859Y-82443556D01*
X128544140Y-82561268D01*
X129040837Y-82680514D01*
X129545359Y-82760423D01*
X130054595Y-82800500D01*
X130054603Y-82800500D01*
X130565397Y-82800500D01*
X130565405Y-82800500D01*
X131074641Y-82760423D01*
X131579163Y-82680514D01*
X132075860Y-82561268D01*
X132561670Y-82403419D01*
X133033598Y-82207940D01*
X133488733Y-81976037D01*
X133488751Y-81976026D01*
X133576451Y-81922284D01*
X133783734Y-81795260D01*
X133924271Y-81709139D01*
X134337526Y-81408892D01*
X134725949Y-81077147D01*
X135087147Y-80715949D01*
X135418892Y-80327526D01*
X135719139Y-79914271D01*
X135889108Y-79636905D01*
X135986026Y-79478752D01*
X135986027Y-79478748D01*
X135986037Y-79478733D01*
X136217940Y-79023598D01*
X136413419Y-78551670D01*
X136571268Y-78065860D01*
X136690514Y-77569163D01*
X136770423Y-77064641D01*
X136810500Y-76555405D01*
X136810500Y-76044595D01*
X136770423Y-75535359D01*
X136690514Y-75030837D01*
X136571268Y-74534140D01*
X136413419Y-74048330D01*
X136217940Y-73576402D01*
X135986037Y-73121267D01*
X135986028Y-73121253D01*
X135986026Y-73121247D01*
X135739043Y-72718210D01*
X135719139Y-72685729D01*
X135418892Y-72272474D01*
X135418887Y-72272467D01*
X135087152Y-71884057D01*
X135087147Y-71884051D01*
X134725949Y-71522853D01*
X134708343Y-71507816D01*
X134337532Y-71191112D01*
X134337518Y-71191102D01*
X133945503Y-70906287D01*
X133924271Y-70890861D01*
X133892786Y-70871567D01*
X133488752Y-70623973D01*
X133488745Y-70623970D01*
X133488741Y-70623968D01*
X133488733Y-70623963D01*
X133033598Y-70392060D01*
X132811324Y-70299991D01*
X132561664Y-70196578D01*
X132216007Y-70084268D01*
X132075860Y-70038732D01*
X131579163Y-69919486D01*
X131431845Y-69896153D01*
X131074641Y-69839577D01*
X130565410Y-69799500D01*
X130565405Y-69799500D01*
X130054595Y-69799500D01*
X130054589Y-69799500D01*
X129545358Y-69839577D01*
X129545357Y-69839577D01*
X129040842Y-69919485D01*
X129040839Y-69919485D01*
X129040837Y-69919486D01*
X128862958Y-69962190D01*
X128544151Y-70038729D01*
X128544145Y-70038730D01*
X128544140Y-70038732D01*
X128544128Y-70038736D01*
X128058335Y-70196578D01*
X127586404Y-70392059D01*
X127586402Y-70392060D01*
X127131267Y-70623963D01*
X127131263Y-70623965D01*
X127131254Y-70623970D01*
X127131247Y-70623973D01*
X126695738Y-70890855D01*
X126695727Y-70890862D01*
X126282481Y-71191102D01*
X126282467Y-71191112D01*
X125894057Y-71522847D01*
X125894043Y-71522860D01*
X125532860Y-71884043D01*
X125532847Y-71884057D01*
X125201112Y-72272467D01*
X125201102Y-72272481D01*
X124900862Y-72685727D01*
X124900855Y-72685738D01*
X124633973Y-73121247D01*
X124633970Y-73121254D01*
X124633965Y-73121263D01*
X124633963Y-73121267D01*
X124468357Y-73446287D01*
X124402059Y-73576404D01*
X124206578Y-74048335D01*
X124048736Y-74534128D01*
X124048729Y-74534151D01*
X124029244Y-74615312D01*
X123930075Y-75028386D01*
X123929485Y-75030842D01*
X123849577Y-75535357D01*
X123849577Y-75535358D01*
X123809500Y-76044589D01*
X113676668Y-76044589D01*
X100010790Y-62378711D01*
X187649500Y-62378711D01*
X187649500Y-62621288D01*
X187676319Y-62825008D01*
X187681162Y-62861789D01*
X187712246Y-62977796D01*
X187743947Y-63096104D01*
X187828611Y-63300500D01*
X187836776Y-63320212D01*
X187958064Y-63530289D01*
X187958066Y-63530292D01*
X187958067Y-63530293D01*
X188105733Y-63722736D01*
X188105739Y-63722743D01*
X188277256Y-63894260D01*
X188277262Y-63894265D01*
X188469711Y-64041936D01*
X188679788Y-64163224D01*
X188903900Y-64256054D01*
X189138211Y-64318838D01*
X189318586Y-64342584D01*
X189378711Y-64350500D01*
X189378712Y-64350500D01*
X189621289Y-64350500D01*
X189669388Y-64344167D01*
X189861789Y-64318838D01*
X190096100Y-64256054D01*
X190320212Y-64163224D01*
X190530289Y-64041936D01*
X190722738Y-63894265D01*
X190894265Y-63722738D01*
X191041936Y-63530289D01*
X191163224Y-63320212D01*
X191256054Y-63096100D01*
X191318838Y-62861789D01*
X191350500Y-62621288D01*
X191350500Y-62378712D01*
X191318838Y-62138211D01*
X191256054Y-61903900D01*
X191163224Y-61679788D01*
X191041936Y-61469711D01*
X190894265Y-61277262D01*
X190894260Y-61277256D01*
X190722743Y-61105739D01*
X190722736Y-61105733D01*
X190530293Y-60958067D01*
X190530292Y-60958066D01*
X190530289Y-60958064D01*
X190320212Y-60836776D01*
X190320205Y-60836773D01*
X190096104Y-60743947D01*
X189861785Y-60681161D01*
X189621289Y-60649500D01*
X189621288Y-60649500D01*
X189378712Y-60649500D01*
X189378711Y-60649500D01*
X189138214Y-60681161D01*
X188903895Y-60743947D01*
X188679794Y-60836773D01*
X188679785Y-60836777D01*
X188469706Y-60958067D01*
X188277263Y-61105733D01*
X188277256Y-61105739D01*
X188105739Y-61277256D01*
X188105733Y-61277263D01*
X187958067Y-61469706D01*
X187836777Y-61679785D01*
X187836773Y-61679794D01*
X187743947Y-61903895D01*
X187681161Y-62138214D01*
X187649500Y-62378711D01*
X100010790Y-62378711D01*
X99510292Y-61878213D01*
X99510288Y-61878210D01*
X99379185Y-61790609D01*
X99379172Y-61790602D01*
X99233501Y-61730264D01*
X99233489Y-61730261D01*
X99078845Y-61699500D01*
X99078842Y-61699500D01*
X93287230Y-61699500D01*
X93220191Y-61679815D01*
X93199549Y-61663181D01*
X93118657Y-61582289D01*
X93118656Y-61582288D01*
X92969334Y-61490186D01*
X92802797Y-61435001D01*
X92802795Y-61435000D01*
X92700010Y-61424500D01*
X91299998Y-61424500D01*
X91299981Y-61424501D01*
X91197203Y-61435000D01*
X91197200Y-61435001D01*
X91030668Y-61490185D01*
X91030663Y-61490187D01*
X90881342Y-61582289D01*
X90757289Y-61706342D01*
X90665187Y-61855663D01*
X90665185Y-61855668D01*
X90649204Y-61903895D01*
X90610001Y-62022203D01*
X90610001Y-62022204D01*
X90610000Y-62022204D01*
X90599500Y-62124983D01*
X90599500Y-62875001D01*
X90599501Y-62875019D01*
X90610000Y-62977796D01*
X90610001Y-62977799D01*
X90648618Y-63094336D01*
X90665186Y-63144334D01*
X90757288Y-63293656D01*
X90881344Y-63417712D01*
X91030666Y-63509814D01*
X91114505Y-63537595D01*
X91171948Y-63577366D01*
X91198772Y-63641882D01*
X91199500Y-63655300D01*
X91199500Y-65358111D01*
X91179815Y-65425150D01*
X91127011Y-65470905D01*
X91057853Y-65480849D01*
X90994297Y-65451824D01*
X90987819Y-65445792D01*
X90897512Y-65355485D01*
X90897510Y-65355483D01*
X90891449Y-65351079D01*
X90771614Y-65264012D01*
X90728948Y-65208682D01*
X90720500Y-65163695D01*
X90720500Y-64877031D01*
X90729939Y-64829578D01*
X90740973Y-64802940D01*
X90769737Y-64733497D01*
X90800500Y-64578842D01*
X90800500Y-64421158D01*
X90800500Y-64421155D01*
X90800499Y-64421153D01*
X90769738Y-64266510D01*
X90769737Y-64266503D01*
X90726957Y-64163222D01*
X90709397Y-64120827D01*
X90709390Y-64120814D01*
X90621790Y-63989712D01*
X90621789Y-63989711D01*
X90510289Y-63878211D01*
X89493863Y-62861785D01*
X88460292Y-61828213D01*
X88460288Y-61828210D01*
X88329185Y-61740609D01*
X88329172Y-61740602D01*
X88319888Y-61736757D01*
X88265484Y-61692916D01*
X88261801Y-61687293D01*
X88242712Y-61656344D01*
X88118656Y-61532288D01*
X87969334Y-61440186D01*
X87802797Y-61385001D01*
X87802795Y-61385000D01*
X87700010Y-61374500D01*
X86299998Y-61374500D01*
X86299981Y-61374501D01*
X86197203Y-61385000D01*
X86197200Y-61385001D01*
X86030668Y-61440185D01*
X86030663Y-61440187D01*
X85881342Y-61532289D01*
X85757289Y-61656342D01*
X85665187Y-61805663D01*
X85665185Y-61805668D01*
X85648617Y-61855668D01*
X85610001Y-61972203D01*
X85610001Y-61972204D01*
X85610000Y-61972204D01*
X85599500Y-62074983D01*
X73301896Y-62074983D01*
X73256054Y-61903900D01*
X73163224Y-61679788D01*
X73041936Y-61469711D01*
X72894265Y-61277262D01*
X72894260Y-61277256D01*
X72722743Y-61105739D01*
X72722736Y-61105733D01*
X72530293Y-60958067D01*
X72530292Y-60958066D01*
X72530289Y-60958064D01*
X72320212Y-60836776D01*
X72320205Y-60836773D01*
X72096104Y-60743947D01*
X71861785Y-60681161D01*
X71621289Y-60649500D01*
X71621288Y-60649500D01*
X71378712Y-60649500D01*
X71378711Y-60649500D01*
X71138214Y-60681161D01*
X70903895Y-60743947D01*
X70679794Y-60836773D01*
X70679785Y-60836777D01*
X70469706Y-60958067D01*
X70277263Y-61105733D01*
X70277256Y-61105739D01*
X70105739Y-61277256D01*
X70105733Y-61277263D01*
X69958067Y-61469706D01*
X69836777Y-61679785D01*
X69836773Y-61679794D01*
X69743947Y-61903895D01*
X69681161Y-62138214D01*
X69649500Y-62378711D01*
X66000500Y-62378711D01*
X66000500Y-59874986D01*
X85600001Y-59874986D01*
X85610494Y-59977697D01*
X85665641Y-60144119D01*
X85665643Y-60144124D01*
X85757684Y-60293345D01*
X85881654Y-60417315D01*
X86030875Y-60509356D01*
X86030880Y-60509358D01*
X86197302Y-60564505D01*
X86197309Y-60564506D01*
X86300019Y-60574999D01*
X86749999Y-60574999D01*
X87250000Y-60574999D01*
X87699972Y-60574999D01*
X87699986Y-60574998D01*
X87802697Y-60564505D01*
X87969119Y-60509358D01*
X87969124Y-60509356D01*
X88118345Y-60417315D01*
X88242315Y-60293345D01*
X88334356Y-60144124D01*
X88334358Y-60144119D01*
X88389505Y-59977697D01*
X88389506Y-59977690D01*
X88394891Y-59924986D01*
X90600001Y-59924986D01*
X90610494Y-60027697D01*
X90665641Y-60194119D01*
X90665643Y-60194124D01*
X90757684Y-60343345D01*
X90881654Y-60467315D01*
X91030875Y-60559356D01*
X91030880Y-60559358D01*
X91197302Y-60614505D01*
X91197309Y-60614506D01*
X91300019Y-60624999D01*
X91749999Y-60624999D01*
X92250000Y-60624999D01*
X92699972Y-60624999D01*
X92699986Y-60624998D01*
X92802697Y-60614505D01*
X92969119Y-60559358D01*
X92969124Y-60559356D01*
X93118345Y-60467315D01*
X93242315Y-60343345D01*
X93334356Y-60194124D01*
X93334358Y-60194119D01*
X93389505Y-60027697D01*
X93389506Y-60027690D01*
X93399999Y-59924986D01*
X93400000Y-59924973D01*
X93400000Y-59800000D01*
X92250000Y-59800000D01*
X92250000Y-60624999D01*
X91749999Y-60624999D01*
X91750000Y-60624998D01*
X91750000Y-59800000D01*
X90600001Y-59800000D01*
X90600001Y-59924986D01*
X88394891Y-59924986D01*
X88399999Y-59874986D01*
X88400000Y-59874973D01*
X88400000Y-59750000D01*
X87250000Y-59750000D01*
X87250000Y-60574999D01*
X86749999Y-60574999D01*
X86750000Y-60574998D01*
X86750000Y-59750000D01*
X85600001Y-59750000D01*
X85600001Y-59874986D01*
X66000500Y-59874986D01*
X66000500Y-59125013D01*
X85600000Y-59125013D01*
X85600000Y-59250000D01*
X86750000Y-59250000D01*
X87250000Y-59250000D01*
X88399999Y-59250000D01*
X88399999Y-59175013D01*
X90600000Y-59175013D01*
X90600000Y-59300000D01*
X91750000Y-59300000D01*
X92250000Y-59300000D01*
X93399999Y-59300000D01*
X93399999Y-59175028D01*
X93399998Y-59175013D01*
X93389505Y-59072302D01*
X93334358Y-58905880D01*
X93334356Y-58905875D01*
X93242315Y-58756654D01*
X93118345Y-58632684D01*
X92969124Y-58540643D01*
X92969119Y-58540641D01*
X92802697Y-58485494D01*
X92802690Y-58485493D01*
X92699986Y-58475000D01*
X92250000Y-58475000D01*
X92250000Y-59300000D01*
X91750000Y-59300000D01*
X91750000Y-58475000D01*
X91300028Y-58475000D01*
X91300012Y-58475001D01*
X91197302Y-58485494D01*
X91030880Y-58540641D01*
X91030875Y-58540643D01*
X90881654Y-58632684D01*
X90757684Y-58756654D01*
X90665643Y-58905875D01*
X90665641Y-58905880D01*
X90610494Y-59072302D01*
X90610493Y-59072309D01*
X90600000Y-59175013D01*
X88399999Y-59175013D01*
X88399999Y-59125028D01*
X88399998Y-59125013D01*
X88389505Y-59022302D01*
X88334358Y-58855880D01*
X88334356Y-58855875D01*
X88242315Y-58706654D01*
X88118345Y-58582684D01*
X87969124Y-58490643D01*
X87969119Y-58490641D01*
X87802697Y-58435494D01*
X87802690Y-58435493D01*
X87699986Y-58425000D01*
X87250000Y-58425000D01*
X87250000Y-59250000D01*
X86750000Y-59250000D01*
X86750000Y-58425000D01*
X86300028Y-58425000D01*
X86300012Y-58425001D01*
X86197302Y-58435494D01*
X86030880Y-58490641D01*
X86030875Y-58490643D01*
X85881654Y-58582684D01*
X85757684Y-58706654D01*
X85665643Y-58855875D01*
X85665641Y-58855880D01*
X85610494Y-59022302D01*
X85610493Y-59022309D01*
X85600000Y-59125013D01*
X66000500Y-59125013D01*
X66000500Y-57124500D01*
X66020185Y-57057461D01*
X66072989Y-57011706D01*
X66124500Y-57000500D01*
X194875500Y-57000500D01*
X194942539Y-57020185D01*
G37*
%TD.AperFunction*%
%TD*%
M02*
