%TF.GenerationSoftware,KiCad,Pcbnew,10.0.0*%
%TF.CreationDate,2026-05-01T17:18:59+02:00*%
%TF.ProjectId,IHM2_2copperZones,49484d32-5f32-4636-9f70-7065725a6f6e,rev?*%
%TF.SameCoordinates,Original*%
%TF.FileFunction,Copper,L2,Bot*%
%TF.FilePolarity,Positive*%
%FSLAX46Y46*%
G04 Gerber Fmt 4.6, Leading zero omitted, Abs format (unit mm)*
G04 Created by KiCad (PCBNEW 10.0.0) date 2026-05-01 17:18:59*
%MOMM*%
%LPD*%
G01*
G04 APERTURE LIST*
G04 Aperture macros list*
%AMRoundRect*
0 Rectangle with rounded corners*
0 $1 Rounding radius*
0 $2 $3 $4 $5 $6 $7 $8 $9 X,Y pos of 4 corners*
0 Add a 4 corners polygon primitive as box body*
4,1,4,$2,$3,$4,$5,$6,$7,$8,$9,$2,$3,0*
0 Add four circle primitives for the rounded corners*
1,1,$1+$1,$2,$3*
1,1,$1+$1,$4,$5*
1,1,$1+$1,$6,$7*
1,1,$1+$1,$8,$9*
0 Add four rect primitives between the rounded corners*
20,1,$1+$1,$2,$3,$4,$5,0*
20,1,$1+$1,$4,$5,$6,$7,0*
20,1,$1+$1,$6,$7,$8,$9,0*
20,1,$1+$1,$8,$9,$2,$3,0*%
G04 Aperture macros list end*
%TA.AperFunction,ComponentPad*%
%ADD10C,1.500000*%
%TD*%
%TA.AperFunction,ComponentPad*%
%ADD11C,2.000000*%
%TD*%
%TA.AperFunction,ComponentPad*%
%ADD12RoundRect,0.190500X1.079500X0.444500X-1.079500X0.444500X-1.079500X-0.444500X1.079500X-0.444500X0*%
%TD*%
%TA.AperFunction,ComponentPad*%
%ADD13C,1.700000*%
%TD*%
%TA.AperFunction,Conductor*%
%ADD14C,0.600000*%
%TD*%
G04 APERTURE END LIST*
D10*
%TO.P,J1,1,Pin_1_1*%
%TO.N,+5V*%
X185500000Y-84480000D03*
%TO.P,J1,2,Pin_2_2*%
%TO.N,GND*%
X185500000Y-87020000D03*
%TO.P,J1,3,Pin_3_3*%
%TO.N,/CLK_ROT*%
X185500000Y-89560000D03*
%TO.P,J1,4,Pin_4_4*%
%TO.N,/DT_ROT*%
X185500000Y-92100000D03*
%TO.P,J1,5,Pin_5_5*%
%TO.N,/SW_ROT*%
X185500000Y-94640000D03*
%TO.P,J1,6,Pin_6_6*%
%TO.N,/SCL_SCREEN*%
X185500000Y-97180000D03*
%TO.P,J1,7,Pin_7_7*%
%TO.N,/SDA_SCREEN*%
X185500000Y-99720000D03*
%TO.P,J1,8,Pin_8_8*%
%TO.N,/LED_POW*%
X185500000Y-102260000D03*
%TO.P,J1,9,Pin_9_9*%
%TO.N,/LED_INIT*%
X185500000Y-104800000D03*
%TO.P,J1,10,Pin_10_10*%
%TO.N,/LED_START*%
X185500000Y-107340000D03*
%TO.P,J1,11,Pin_11_11*%
%TO.N,/LED_PAUSE*%
X185500000Y-109880000D03*
%TO.P,J1,12,Pin_12_12*%
%TO.N,/SW_INIT_OUT*%
X185500000Y-112420000D03*
%TO.P,J1,13,Pin_13_13*%
%TO.N,/SW_START_OUT*%
X185500000Y-114960000D03*
%TO.P,J1,14,Pin_14_14*%
%TO.N,/SW_PAUSE_OUT*%
X185500000Y-117500000D03*
%TD*%
D11*
%TO.P,U1,1,GND_1*%
%TO.N,GND*%
X87380000Y-66500000D03*
%TO.P,U1,2,VCC_2*%
%TO.N,+5V*%
X89920000Y-66500000D03*
%TO.P,U1,3,SCL_3*%
%TO.N,/SCL_SCREEN*%
X92460000Y-66500000D03*
%TO.P,U1,4,SDA_4*%
%TO.N,/SDA_SCREEN*%
X95000000Y-66500000D03*
%TD*%
D12*
%TO.P,SW1,1,1_1*%
%TO.N,/SW_INIT_OUT*%
X87960000Y-106500000D03*
%TO.P,SW1,2,2_2*%
%TO.N,GND*%
X93040000Y-106500000D03*
%TO.P,SW1,3,3_3*%
%TO.N,unconnected-(SW1-Pad3)*%
X87960000Y-120500000D03*
%TO.P,SW1,4,4_4*%
%TO.N,unconnected-(SW1-Pad4)*%
X93080000Y-120500000D03*
%TD*%
D13*
%TO.P,SW4,1,CLK_1*%
%TO.N,/CLK_ROT*%
X143310000Y-70800000D03*
%TO.P,SW4,2,DT_2*%
%TO.N,/DT_ROT*%
X143310000Y-73340000D03*
%TO.P,SW4,3,SW_3*%
%TO.N,/SW_ROT*%
X143310000Y-75880000D03*
%TO.P,SW4,4,S1_4*%
%TO.N,+5V*%
X143310000Y-78420000D03*
%TO.P,SW4,5,S2_5*%
%TO.N,GND*%
X143310000Y-80960000D03*
%TD*%
D12*
%TO.P,SW3,1,1_1*%
%TO.N,/SW_PAUSE_OUT*%
X167960000Y-106500000D03*
%TO.P,SW3,2,2_2*%
%TO.N,GND*%
X173040000Y-106500000D03*
%TO.P,SW3,3,3_3*%
%TO.N,unconnected-(SW3-Pad3)*%
X167960000Y-120500000D03*
%TO.P,SW3,4,4_4*%
%TO.N,unconnected-(SW3-Pad4)*%
X173080000Y-120500000D03*
%TD*%
%TO.P,SW2,1,1_1*%
%TO.N,/SW_START_OUT*%
X127960000Y-106500000D03*
%TO.P,SW2,2,2_2*%
%TO.N,GND*%
X133040000Y-106500000D03*
%TO.P,SW2,3,3_3*%
%TO.N,unconnected-(SW2-Pad3)*%
X127960000Y-120500000D03*
%TO.P,SW2,4,4_4*%
%TO.N,unconnected-(SW2-Pad4)*%
X133080000Y-120500000D03*
%TD*%
%TO.N,GND*%
D14*
X143310000Y-80960000D02*
X149370000Y-87020000D01*
X173040000Y-106500000D02*
X181000000Y-98540000D01*
X149370000Y-87020000D02*
X177480000Y-87020000D01*
X181000000Y-98540000D02*
X181000000Y-89500000D01*
X185500000Y-87020000D02*
X177480000Y-87020000D01*
X183480000Y-87020000D02*
X185500000Y-87020000D01*
X87380000Y-66500000D02*
X87392405Y-66512405D01*
X181000000Y-89500000D02*
X183480000Y-87020000D01*
%TO.N,+5V*%
X89920000Y-66500000D02*
X92920000Y-69500000D01*
X92920000Y-69500000D02*
X134390000Y-69500000D01*
X143310000Y-78420000D02*
X149370000Y-84480000D01*
X134390000Y-69500000D02*
X143310000Y-78420000D01*
X149370000Y-84480000D02*
X185500000Y-84480000D01*
%TO.N,/SW_INIT_OUT*%
X191500000Y-114500000D02*
X189420000Y-112420000D01*
X191500000Y-118631370D02*
X191500000Y-114500000D01*
X187631370Y-122500000D02*
X191500000Y-118631370D01*
X87960000Y-106500000D02*
X103960000Y-122500000D01*
X103960000Y-122500000D02*
X187631370Y-122500000D01*
X189420000Y-112420000D02*
X185500000Y-112420000D01*
%TO.N,/SW_START_OUT*%
X188500000Y-116500000D02*
X188500000Y-118500000D01*
X186960000Y-114960000D02*
X188500000Y-116500000D01*
X178000000Y-120000000D02*
X173000000Y-115000000D01*
X185500000Y-114960000D02*
X186960000Y-114960000D01*
X187000000Y-120000000D02*
X178000000Y-120000000D01*
X188500000Y-118500000D02*
X187000000Y-120000000D01*
X136460000Y-115000000D02*
X127960000Y-106500000D01*
X173000000Y-115000000D02*
X136460000Y-115000000D01*
%TO.N,/SW_PAUSE_OUT*%
X167960000Y-106500000D02*
X178960000Y-117500000D01*
X178960000Y-117500000D02*
X185500000Y-117500000D01*
%TD*%
%TA.AperFunction,Conductor*%
%TO.N,GND*%
G36*
X194942539Y-57020185D02*
G01*
X194988294Y-57072989D01*
X194999500Y-57124500D01*
X194999500Y-130875500D01*
X194979815Y-130942539D01*
X194927011Y-130988294D01*
X194875500Y-130999500D01*
X66124500Y-130999500D01*
X66057461Y-130979815D01*
X66011706Y-130927011D01*
X66000500Y-130875500D01*
X66000500Y-125378711D01*
X69649500Y-125378711D01*
X69649500Y-125621288D01*
X69681161Y-125861785D01*
X69743947Y-126096104D01*
X69836773Y-126320205D01*
X69836776Y-126320212D01*
X69958064Y-126530289D01*
X69958066Y-126530292D01*
X69958067Y-126530293D01*
X70105733Y-126722736D01*
X70105739Y-126722743D01*
X70277256Y-126894260D01*
X70277262Y-126894265D01*
X70469711Y-127041936D01*
X70679788Y-127163224D01*
X70903900Y-127256054D01*
X71138211Y-127318838D01*
X71318586Y-127342584D01*
X71378711Y-127350500D01*
X71378712Y-127350500D01*
X71621289Y-127350500D01*
X71669388Y-127344167D01*
X71861789Y-127318838D01*
X72096100Y-127256054D01*
X72320212Y-127163224D01*
X72530289Y-127041936D01*
X72722738Y-126894265D01*
X72894265Y-126722738D01*
X73041936Y-126530289D01*
X73163224Y-126320212D01*
X73256054Y-126096100D01*
X73318838Y-125861789D01*
X73350500Y-125621288D01*
X73350500Y-125378712D01*
X73350500Y-125378711D01*
X187649500Y-125378711D01*
X187649500Y-125621288D01*
X187681161Y-125861785D01*
X187743947Y-126096104D01*
X187836773Y-126320205D01*
X187836776Y-126320212D01*
X187958064Y-126530289D01*
X187958066Y-126530292D01*
X187958067Y-126530293D01*
X188105733Y-126722736D01*
X188105739Y-126722743D01*
X188277256Y-126894260D01*
X188277262Y-126894265D01*
X188469711Y-127041936D01*
X188679788Y-127163224D01*
X188903900Y-127256054D01*
X189138211Y-127318838D01*
X189318586Y-127342584D01*
X189378711Y-127350500D01*
X189378712Y-127350500D01*
X189621289Y-127350500D01*
X189669388Y-127344167D01*
X189861789Y-127318838D01*
X190096100Y-127256054D01*
X190320212Y-127163224D01*
X190530289Y-127041936D01*
X190722738Y-126894265D01*
X190894265Y-126722738D01*
X191041936Y-126530289D01*
X191163224Y-126320212D01*
X191256054Y-126096100D01*
X191318838Y-125861789D01*
X191350500Y-125621288D01*
X191350500Y-125378712D01*
X191318838Y-125138211D01*
X191256054Y-124903900D01*
X191163224Y-124679788D01*
X191041936Y-124469711D01*
X190894265Y-124277262D01*
X190894260Y-124277256D01*
X190722743Y-124105739D01*
X190722736Y-124105733D01*
X190530293Y-123958067D01*
X190530292Y-123958066D01*
X190530289Y-123958064D01*
X190320212Y-123836776D01*
X190320205Y-123836773D01*
X190096104Y-123743947D01*
X189861785Y-123681161D01*
X189621289Y-123649500D01*
X189621288Y-123649500D01*
X189378712Y-123649500D01*
X189378711Y-123649500D01*
X189138214Y-123681161D01*
X188903895Y-123743947D01*
X188679794Y-123836773D01*
X188679785Y-123836777D01*
X188469706Y-123958067D01*
X188277263Y-124105733D01*
X188277256Y-124105739D01*
X188105739Y-124277256D01*
X188105733Y-124277263D01*
X187958067Y-124469706D01*
X187836777Y-124679785D01*
X187836773Y-124679794D01*
X187743947Y-124903895D01*
X187681161Y-125138214D01*
X187649500Y-125378711D01*
X73350500Y-125378711D01*
X73318838Y-125138211D01*
X73256054Y-124903900D01*
X73163224Y-124679788D01*
X73041936Y-124469711D01*
X72894265Y-124277262D01*
X72894260Y-124277256D01*
X72722743Y-124105739D01*
X72722736Y-124105733D01*
X72530293Y-123958067D01*
X72530292Y-123958066D01*
X72530289Y-123958064D01*
X72320212Y-123836776D01*
X72320205Y-123836773D01*
X72096104Y-123743947D01*
X71861785Y-123681161D01*
X71621289Y-123649500D01*
X71621288Y-123649500D01*
X71378712Y-123649500D01*
X71378711Y-123649500D01*
X71138214Y-123681161D01*
X70903895Y-123743947D01*
X70679794Y-123836773D01*
X70679785Y-123836777D01*
X70469706Y-123958067D01*
X70277263Y-124105733D01*
X70277256Y-124105739D01*
X70105739Y-124277256D01*
X70105733Y-124277263D01*
X69958067Y-124469706D01*
X69836777Y-124679785D01*
X69836773Y-124679794D01*
X69743947Y-124903895D01*
X69681161Y-125138214D01*
X69649500Y-125378711D01*
X66000500Y-125378711D01*
X66000500Y-119999655D01*
X86189500Y-119999655D01*
X86189500Y-121000354D01*
X86195825Y-121069966D01*
X86195828Y-121069977D01*
X86245747Y-121230175D01*
X86245749Y-121230179D01*
X86332556Y-121373777D01*
X86332560Y-121373782D01*
X86451217Y-121492439D01*
X86451222Y-121492443D01*
X86545015Y-121549142D01*
X86594822Y-121579251D01*
X86755029Y-121629173D01*
X86824653Y-121635500D01*
X89095346Y-121635499D01*
X89095353Y-121635499D01*
X89164966Y-121629174D01*
X89164969Y-121629173D01*
X89164971Y-121629173D01*
X89325178Y-121579251D01*
X89399089Y-121534570D01*
X89468777Y-121492443D01*
X89468778Y-121492441D01*
X89468783Y-121492439D01*
X89587439Y-121373783D01*
X89674251Y-121230178D01*
X89724173Y-121069971D01*
X89730500Y-121000347D01*
X89730499Y-119999655D01*
X91309500Y-119999655D01*
X91309500Y-121000354D01*
X91315825Y-121069966D01*
X91315828Y-121069977D01*
X91365747Y-121230175D01*
X91365749Y-121230179D01*
X91452556Y-121373777D01*
X91452560Y-121373782D01*
X91571217Y-121492439D01*
X91571222Y-121492443D01*
X91665015Y-121549142D01*
X91714822Y-121579251D01*
X91875029Y-121629173D01*
X91944653Y-121635500D01*
X94215346Y-121635499D01*
X94215353Y-121635499D01*
X94284966Y-121629174D01*
X94284969Y-121629173D01*
X94284971Y-121629173D01*
X94445178Y-121579251D01*
X94519089Y-121534570D01*
X94588777Y-121492443D01*
X94588778Y-121492441D01*
X94588783Y-121492439D01*
X94707439Y-121373783D01*
X94794251Y-121230178D01*
X94844173Y-121069971D01*
X94850500Y-121000347D01*
X94850499Y-119999654D01*
X94850499Y-119999653D01*
X94850499Y-119999645D01*
X94844174Y-119930033D01*
X94844171Y-119930022D01*
X94794252Y-119769824D01*
X94794250Y-119769820D01*
X94707443Y-119626222D01*
X94707439Y-119626217D01*
X94588782Y-119507560D01*
X94588777Y-119507556D01*
X94445180Y-119420750D01*
X94445179Y-119420749D01*
X94445178Y-119420749D01*
X94284971Y-119370827D01*
X94284969Y-119370826D01*
X94284967Y-119370826D01*
X94236221Y-119366396D01*
X94215347Y-119364500D01*
X94215344Y-119364500D01*
X91944645Y-119364500D01*
X91875033Y-119370825D01*
X91875022Y-119370828D01*
X91714824Y-119420747D01*
X91714820Y-119420749D01*
X91571222Y-119507556D01*
X91571217Y-119507560D01*
X91452560Y-119626217D01*
X91452556Y-119626222D01*
X91365750Y-119769819D01*
X91315826Y-119930032D01*
X91309500Y-119999655D01*
X89730499Y-119999655D01*
X89730499Y-119999654D01*
X89730499Y-119999653D01*
X89730499Y-119999645D01*
X89724174Y-119930033D01*
X89724171Y-119930022D01*
X89674252Y-119769824D01*
X89674250Y-119769820D01*
X89587443Y-119626222D01*
X89587439Y-119626217D01*
X89468782Y-119507560D01*
X89468777Y-119507556D01*
X89325180Y-119420750D01*
X89325179Y-119420749D01*
X89325178Y-119420749D01*
X89164971Y-119370827D01*
X89164969Y-119370826D01*
X89164967Y-119370826D01*
X89116221Y-119366396D01*
X89095347Y-119364500D01*
X89095344Y-119364500D01*
X86824645Y-119364500D01*
X86755033Y-119370825D01*
X86755022Y-119370828D01*
X86594824Y-119420747D01*
X86594820Y-119420749D01*
X86451222Y-119507556D01*
X86451217Y-119507560D01*
X86332560Y-119626217D01*
X86332556Y-119626222D01*
X86245750Y-119769819D01*
X86195826Y-119930032D01*
X86189500Y-119999655D01*
X66000500Y-119999655D01*
X66000500Y-66381947D01*
X85880000Y-66381947D01*
X85880000Y-66618052D01*
X85916934Y-66851247D01*
X85989897Y-67075802D01*
X86097087Y-67286174D01*
X86157338Y-67369104D01*
X86157340Y-67369105D01*
X86946026Y-66580419D01*
X86969985Y-66669834D01*
X87027912Y-66770166D01*
X87109834Y-66852088D01*
X87210166Y-66910015D01*
X87299580Y-66933973D01*
X86510893Y-67722658D01*
X86593828Y-67782914D01*
X86804197Y-67890102D01*
X87028752Y-67963065D01*
X87028751Y-67963065D01*
X87261948Y-68000000D01*
X87498052Y-68000000D01*
X87731247Y-67963065D01*
X87955802Y-67890102D01*
X88166163Y-67782918D01*
X88166169Y-67782914D01*
X88249104Y-67722658D01*
X88249105Y-67722658D01*
X87460419Y-66933973D01*
X87549834Y-66910015D01*
X87650166Y-66852088D01*
X87732088Y-66770166D01*
X87790015Y-66669834D01*
X87813973Y-66580420D01*
X88602657Y-67369104D01*
X88622404Y-67367550D01*
X88690781Y-67381914D01*
X88732451Y-67418282D01*
X88775483Y-67477510D01*
X88942490Y-67644517D01*
X89133567Y-67783343D01*
X89232991Y-67834002D01*
X89344003Y-67890566D01*
X89344005Y-67890566D01*
X89344008Y-67890568D01*
X89464412Y-67929689D01*
X89568631Y-67963553D01*
X89801903Y-68000500D01*
X89801908Y-68000500D01*
X90038090Y-68000500D01*
X90038092Y-68000500D01*
X90191793Y-67976155D01*
X90261083Y-67985109D01*
X90298869Y-68010947D01*
X92409707Y-70121786D01*
X92409711Y-70121789D01*
X92540814Y-70209390D01*
X92540818Y-70209392D01*
X92540821Y-70209394D01*
X92686503Y-70269738D01*
X92841153Y-70300499D01*
X92841157Y-70300500D01*
X92841158Y-70300500D01*
X127249603Y-70300500D01*
X127316642Y-70320185D01*
X127362397Y-70372989D01*
X127372341Y-70442147D01*
X127343316Y-70505703D01*
X127305901Y-70534982D01*
X127151978Y-70613409D01*
X127131253Y-70623970D01*
X127131247Y-70623973D01*
X126695738Y-70890855D01*
X126695727Y-70890862D01*
X126282481Y-71191102D01*
X126282467Y-71191112D01*
X125894057Y-71522847D01*
X125894043Y-71522860D01*
X125532860Y-71884043D01*
X125532847Y-71884057D01*
X125201112Y-72272467D01*
X125201102Y-72272481D01*
X124900862Y-72685727D01*
X124900855Y-72685738D01*
X124633973Y-73121247D01*
X124633970Y-73121254D01*
X124633965Y-73121263D01*
X124633963Y-73121267D01*
X124468357Y-73446287D01*
X124402059Y-73576404D01*
X124206578Y-74048335D01*
X124048736Y-74534128D01*
X124048729Y-74534151D01*
X124029244Y-74615312D01*
X123936840Y-75000208D01*
X123929485Y-75030842D01*
X123849577Y-75535357D01*
X123849577Y-75535358D01*
X123809500Y-76044589D01*
X123809500Y-76555410D01*
X123849577Y-77064641D01*
X123849577Y-77064642D01*
X123866018Y-77168443D01*
X123929486Y-77569163D01*
X124048732Y-78065860D01*
X124083295Y-78172233D01*
X124206578Y-78551664D01*
X124339431Y-78872398D01*
X124402060Y-79023598D01*
X124633963Y-79478733D01*
X124633968Y-79478741D01*
X124633970Y-79478745D01*
X124633973Y-79478752D01*
X124900855Y-79914261D01*
X124900862Y-79914272D01*
X125201102Y-80327518D01*
X125201112Y-80327532D01*
X125452862Y-80622292D01*
X125532853Y-80715949D01*
X125894051Y-81077147D01*
X125894057Y-81077152D01*
X126282467Y-81408887D01*
X126282474Y-81408892D01*
X126695729Y-81709139D01*
X126780979Y-81761380D01*
X127131247Y-81976026D01*
X127131253Y-81976028D01*
X127131267Y-81976037D01*
X127586402Y-82207940D01*
X128058330Y-82403419D01*
X128058335Y-82403421D01*
X128181859Y-82443556D01*
X128544140Y-82561268D01*
X129040837Y-82680514D01*
X129545359Y-82760423D01*
X130054595Y-82800500D01*
X130054603Y-82800500D01*
X130565397Y-82800500D01*
X130565405Y-82800500D01*
X131074641Y-82760423D01*
X131579163Y-82680514D01*
X132075860Y-82561268D01*
X132561670Y-82403419D01*
X133033598Y-82207940D01*
X133488733Y-81976037D01*
X133488751Y-81976026D01*
X133576451Y-81922284D01*
X133783734Y-81795260D01*
X133924271Y-81709139D01*
X134337526Y-81408892D01*
X134725949Y-81077147D01*
X135087147Y-80715949D01*
X135418892Y-80327526D01*
X135719139Y-79914271D01*
X135889108Y-79636905D01*
X135986026Y-79478752D01*
X135986027Y-79478748D01*
X135986037Y-79478733D01*
X136217940Y-79023598D01*
X136413419Y-78551670D01*
X136571268Y-78065860D01*
X136690514Y-77569163D01*
X136770423Y-77064641D01*
X136810500Y-76555405D01*
X136810500Y-76044595D01*
X136770423Y-75535359D01*
X136690514Y-75030837D01*
X136571268Y-74534140D01*
X136413419Y-74048330D01*
X136217940Y-73576402D01*
X135986037Y-73121267D01*
X135986028Y-73121253D01*
X135986026Y-73121247D01*
X135796773Y-72812417D01*
X135719139Y-72685729D01*
X135418892Y-72272474D01*
X135418887Y-72272467D01*
X135087152Y-71884057D01*
X135087147Y-71884051D01*
X134725949Y-71522853D01*
X134708343Y-71507816D01*
X134337532Y-71191112D01*
X134337518Y-71191102D01*
X133945503Y-70906287D01*
X133924271Y-70890861D01*
X133892786Y-70871567D01*
X133488752Y-70623973D01*
X133488746Y-70623970D01*
X133488736Y-70623965D01*
X133488733Y-70623963D01*
X133314099Y-70534982D01*
X133263306Y-70487011D01*
X133246511Y-70419190D01*
X133269048Y-70353055D01*
X133323763Y-70309603D01*
X133370397Y-70300500D01*
X134007060Y-70300500D01*
X134074099Y-70320185D01*
X134094741Y-70336819D01*
X141930155Y-78172233D01*
X141963640Y-78233556D01*
X141964948Y-78279310D01*
X141959500Y-78313711D01*
X141959500Y-78526286D01*
X141992753Y-78736239D01*
X142058444Y-78938414D01*
X142154951Y-79127820D01*
X142279890Y-79299786D01*
X142430213Y-79450109D01*
X142602179Y-79575048D01*
X142602181Y-79575049D01*
X142602184Y-79575051D01*
X142611493Y-79579794D01*
X142662290Y-79627766D01*
X142679087Y-79695587D01*
X142656552Y-79761722D01*
X142611505Y-79800760D01*
X142602446Y-79805376D01*
X142602440Y-79805380D01*
X142548282Y-79844727D01*
X142548282Y-79844728D01*
X143139766Y-80436212D01*
X143097708Y-80447482D01*
X142972292Y-80519890D01*
X142869890Y-80622292D01*
X142797482Y-80747708D01*
X142786212Y-80789766D01*
X142194728Y-80198282D01*
X142194727Y-80198282D01*
X142155380Y-80252439D01*
X142058904Y-80441782D01*
X141993242Y-80643869D01*
X141993242Y-80643872D01*
X141960000Y-80853753D01*
X141960000Y-81066246D01*
X141993242Y-81276127D01*
X141993242Y-81276130D01*
X142058904Y-81478217D01*
X142155375Y-81667550D01*
X142194728Y-81721716D01*
X142786212Y-81130233D01*
X142797482Y-81172292D01*
X142869890Y-81297708D01*
X142972292Y-81400110D01*
X143097708Y-81472518D01*
X143139765Y-81483787D01*
X142548282Y-82075269D01*
X142548282Y-82075270D01*
X142602449Y-82114624D01*
X142791782Y-82211095D01*
X142993870Y-82276757D01*
X143203754Y-82310000D01*
X143416246Y-82310000D01*
X143626127Y-82276757D01*
X143626130Y-82276757D01*
X143828217Y-82211095D01*
X144017554Y-82114622D01*
X144071716Y-82075270D01*
X144071717Y-82075270D01*
X143480233Y-81483787D01*
X143522292Y-81472518D01*
X143647708Y-81400110D01*
X143750110Y-81297708D01*
X143822518Y-81172292D01*
X143833787Y-81130233D01*
X144425270Y-81721717D01*
X144425270Y-81721716D01*
X144464622Y-81667554D01*
X144561095Y-81478217D01*
X144626757Y-81276130D01*
X144626757Y-81276127D01*
X144644376Y-81164891D01*
X144674305Y-81101756D01*
X144733617Y-81064825D01*
X144803479Y-81065823D01*
X144854530Y-81096608D01*
X148748211Y-84990289D01*
X148859711Y-85101789D01*
X148859712Y-85101790D01*
X148990814Y-85189390D01*
X148990827Y-85189397D01*
X149136498Y-85249735D01*
X149136503Y-85249737D01*
X149136507Y-85249737D01*
X149136508Y-85249738D01*
X149291154Y-85280500D01*
X149291157Y-85280500D01*
X149291158Y-85280500D01*
X184480663Y-85280500D01*
X184547702Y-85300185D01*
X184568344Y-85316818D01*
X184685354Y-85433828D01*
X184801051Y-85517887D01*
X184844596Y-85549525D01*
X185021763Y-85639795D01*
X185072560Y-85687769D01*
X185089355Y-85755590D01*
X185066818Y-85821725D01*
X185021764Y-85860765D01*
X184844859Y-85950902D01*
X184809873Y-85976320D01*
X184809872Y-85976320D01*
X185453554Y-86620000D01*
X185447339Y-86620000D01*
X185345606Y-86647259D01*
X185254394Y-86699920D01*
X185179920Y-86774394D01*
X185127259Y-86865606D01*
X185100000Y-86967339D01*
X185100000Y-86973552D01*
X184456320Y-86329872D01*
X184456320Y-86329873D01*
X184430902Y-86364859D01*
X184430899Y-86364863D01*
X184341582Y-86540161D01*
X184280778Y-86727294D01*
X184250000Y-86921617D01*
X184250000Y-87118382D01*
X184280778Y-87312705D01*
X184341581Y-87499835D01*
X184430905Y-87675145D01*
X184456319Y-87710125D01*
X184456320Y-87710125D01*
X185100000Y-87066445D01*
X185100000Y-87072661D01*
X185127259Y-87174394D01*
X185179920Y-87265606D01*
X185254394Y-87340080D01*
X185345606Y-87392741D01*
X185447339Y-87420000D01*
X185453553Y-87420000D01*
X184809873Y-88063677D01*
X184809873Y-88063678D01*
X184844858Y-88089096D01*
X185021764Y-88179234D01*
X185072560Y-88227209D01*
X185089355Y-88295030D01*
X185066818Y-88361164D01*
X185021764Y-88400204D01*
X184844594Y-88490476D01*
X184753741Y-88556485D01*
X184685354Y-88606172D01*
X184685352Y-88606174D01*
X184685351Y-88606174D01*
X184546174Y-88745351D01*
X184546174Y-88745352D01*
X184546172Y-88745354D01*
X184496485Y-88813741D01*
X184430476Y-88904594D01*
X184341117Y-89079970D01*
X184280290Y-89267173D01*
X184249500Y-89461577D01*
X184249500Y-89658422D01*
X184280290Y-89852826D01*
X184341117Y-90040029D01*
X184430476Y-90215405D01*
X184546172Y-90374646D01*
X184685354Y-90513828D01*
X184844595Y-90629524D01*
X184967992Y-90692397D01*
X185021213Y-90719515D01*
X185072009Y-90767489D01*
X185088804Y-90835310D01*
X185066267Y-90901445D01*
X185021213Y-90940485D01*
X184844594Y-91030476D01*
X184753741Y-91096485D01*
X184685354Y-91146172D01*
X184685352Y-91146174D01*
X184685351Y-91146174D01*
X184546174Y-91285351D01*
X184546174Y-91285352D01*
X184546172Y-91285354D01*
X184496485Y-91353741D01*
X184430476Y-91444594D01*
X184341117Y-91619970D01*
X184280290Y-91807173D01*
X184249500Y-92001577D01*
X184249500Y-92198422D01*
X184280290Y-92392826D01*
X184341117Y-92580029D01*
X184430476Y-92755405D01*
X184546172Y-92914646D01*
X184685354Y-93053828D01*
X184844595Y-93169524D01*
X184967992Y-93232397D01*
X185021213Y-93259515D01*
X185072009Y-93307489D01*
X185088804Y-93375310D01*
X185066267Y-93441445D01*
X185021213Y-93480485D01*
X184844594Y-93570476D01*
X184753741Y-93636485D01*
X184685354Y-93686172D01*
X184685352Y-93686174D01*
X184685351Y-93686174D01*
X184546174Y-93825351D01*
X184546174Y-93825352D01*
X184546172Y-93825354D01*
X184496485Y-93893741D01*
X184430476Y-93984594D01*
X184341117Y-94159970D01*
X184280290Y-94347173D01*
X184249500Y-94541577D01*
X184249500Y-94738422D01*
X184280290Y-94932826D01*
X184341117Y-95120029D01*
X184430476Y-95295405D01*
X184546172Y-95454646D01*
X184685354Y-95593828D01*
X184844595Y-95709524D01*
X184967992Y-95772397D01*
X185021213Y-95799515D01*
X185072009Y-95847489D01*
X185088804Y-95915310D01*
X185066267Y-95981445D01*
X185021213Y-96020485D01*
X184844594Y-96110476D01*
X184753741Y-96176485D01*
X184685354Y-96226172D01*
X184685352Y-96226174D01*
X184685351Y-96226174D01*
X184546174Y-96365351D01*
X184546174Y-96365352D01*
X184546172Y-96365354D01*
X184496485Y-96433741D01*
X184430476Y-96524594D01*
X184341117Y-96699970D01*
X184280290Y-96887173D01*
X184249500Y-97081577D01*
X184249500Y-97278422D01*
X184280290Y-97472826D01*
X184341117Y-97660029D01*
X184430476Y-97835405D01*
X184546172Y-97994646D01*
X184685354Y-98133828D01*
X184844595Y-98249524D01*
X184967992Y-98312397D01*
X185021213Y-98339515D01*
X185072009Y-98387489D01*
X185088804Y-98455310D01*
X185066267Y-98521445D01*
X185021213Y-98560485D01*
X184844594Y-98650476D01*
X184753741Y-98716485D01*
X184685354Y-98766172D01*
X184685352Y-98766174D01*
X184685351Y-98766174D01*
X184546174Y-98905351D01*
X184546174Y-98905352D01*
X184546172Y-98905354D01*
X184496485Y-98973741D01*
X184430476Y-99064594D01*
X184341117Y-99239970D01*
X184280290Y-99427173D01*
X184249500Y-99621577D01*
X184249500Y-99818422D01*
X184280290Y-100012826D01*
X184341117Y-100200029D01*
X184430476Y-100375405D01*
X184546172Y-100534646D01*
X184685354Y-100673828D01*
X184844595Y-100789524D01*
X184967992Y-100852397D01*
X185021213Y-100879515D01*
X185072009Y-100927489D01*
X185088804Y-100995310D01*
X185066267Y-101061445D01*
X185021213Y-101100485D01*
X184844594Y-101190476D01*
X184753741Y-101256485D01*
X184685354Y-101306172D01*
X184685352Y-101306174D01*
X184685351Y-101306174D01*
X184546174Y-101445351D01*
X184546174Y-101445352D01*
X184546172Y-101445354D01*
X184496485Y-101513741D01*
X184430476Y-101604594D01*
X184341117Y-101779970D01*
X184280290Y-101967173D01*
X184249500Y-102161577D01*
X184249500Y-102358422D01*
X184280290Y-102552826D01*
X184341117Y-102740029D01*
X184430476Y-102915405D01*
X184546172Y-103074646D01*
X184685354Y-103213828D01*
X184844595Y-103329524D01*
X184967992Y-103392397D01*
X185021213Y-103419515D01*
X185072009Y-103467489D01*
X185088804Y-103535310D01*
X185066267Y-103601445D01*
X185021213Y-103640485D01*
X184844594Y-103730476D01*
X184753741Y-103796485D01*
X184685354Y-103846172D01*
X184685352Y-103846174D01*
X184685351Y-103846174D01*
X184546174Y-103985351D01*
X184546174Y-103985352D01*
X184546172Y-103985354D01*
X184496485Y-104053741D01*
X184430476Y-104144594D01*
X184341117Y-104319970D01*
X184280290Y-104507173D01*
X184249500Y-104701577D01*
X184249500Y-104898422D01*
X184280290Y-105092826D01*
X184341117Y-105280029D01*
X184413052Y-105421208D01*
X184430476Y-105455405D01*
X184546172Y-105614646D01*
X184685354Y-105753828D01*
X184844595Y-105869524D01*
X184963330Y-105930022D01*
X185021213Y-105959515D01*
X185072009Y-106007489D01*
X185088804Y-106075310D01*
X185066267Y-106141445D01*
X185021213Y-106180485D01*
X184844594Y-106270476D01*
X184753741Y-106336485D01*
X184685354Y-106386172D01*
X184685352Y-106386174D01*
X184685351Y-106386174D01*
X184546174Y-106525351D01*
X184546174Y-106525352D01*
X184546172Y-106525354D01*
X184531115Y-106546078D01*
X184430476Y-106684594D01*
X184341117Y-106859970D01*
X184280290Y-107047173D01*
X184249500Y-107241577D01*
X184249500Y-107438422D01*
X184280290Y-107632826D01*
X184341117Y-107820029D01*
X184430476Y-107995405D01*
X184546172Y-108154646D01*
X184685354Y-108293828D01*
X184844595Y-108409524D01*
X184967992Y-108472397D01*
X185021213Y-108499515D01*
X185072009Y-108547489D01*
X185088804Y-108615310D01*
X185066267Y-108681445D01*
X185021213Y-108720485D01*
X184844594Y-108810476D01*
X184753741Y-108876485D01*
X184685354Y-108926172D01*
X184685352Y-108926174D01*
X184685351Y-108926174D01*
X184546174Y-109065351D01*
X184546174Y-109065352D01*
X184546172Y-109065354D01*
X184496485Y-109133741D01*
X184430476Y-109224594D01*
X184341117Y-109399970D01*
X184280290Y-109587173D01*
X184249500Y-109781577D01*
X184249500Y-109978422D01*
X184280290Y-110172826D01*
X184341117Y-110360029D01*
X184430476Y-110535405D01*
X184546172Y-110694646D01*
X184685354Y-110833828D01*
X184844595Y-110949524D01*
X184967992Y-111012397D01*
X185021213Y-111039515D01*
X185072009Y-111087489D01*
X185088804Y-111155310D01*
X185066267Y-111221445D01*
X185021213Y-111260485D01*
X184844594Y-111350476D01*
X184753741Y-111416485D01*
X184685354Y-111466172D01*
X184685352Y-111466174D01*
X184685351Y-111466174D01*
X184546174Y-111605351D01*
X184546174Y-111605352D01*
X184546172Y-111605354D01*
X184513545Y-111650261D01*
X184430476Y-111764594D01*
X184341117Y-111939970D01*
X184280290Y-112127173D01*
X184249500Y-112321577D01*
X184249500Y-112518422D01*
X184280290Y-112712826D01*
X184341117Y-112900029D01*
X184430476Y-113075405D01*
X184546172Y-113234646D01*
X184685354Y-113373828D01*
X184844595Y-113489524D01*
X184967992Y-113552397D01*
X185021213Y-113579515D01*
X185072009Y-113627489D01*
X185088804Y-113695310D01*
X185066267Y-113761445D01*
X185021213Y-113800485D01*
X184844594Y-113890476D01*
X184753741Y-113956485D01*
X184685354Y-114006172D01*
X184685352Y-114006174D01*
X184685351Y-114006174D01*
X184546174Y-114145351D01*
X184546174Y-114145352D01*
X184546172Y-114145354D01*
X184496485Y-114213741D01*
X184430476Y-114304594D01*
X184341117Y-114479970D01*
X184280290Y-114667173D01*
X184249500Y-114861577D01*
X184249500Y-115058422D01*
X184280290Y-115252826D01*
X184341117Y-115440029D01*
X184430476Y-115615405D01*
X184546172Y-115774646D01*
X184685354Y-115913828D01*
X184844595Y-116029524D01*
X184967992Y-116092397D01*
X185021213Y-116119515D01*
X185072009Y-116167489D01*
X185088804Y-116235310D01*
X185066267Y-116301445D01*
X185021213Y-116340485D01*
X184844594Y-116430476D01*
X184685355Y-116546171D01*
X184568344Y-116663182D01*
X184507021Y-116696666D01*
X184480663Y-116699500D01*
X179342940Y-116699500D01*
X179275901Y-116679815D01*
X179255259Y-116663181D01*
X169760063Y-107167985D01*
X169726578Y-107106662D01*
X169724253Y-107069086D01*
X169730500Y-107000347D01*
X169730499Y-106453922D01*
X169730499Y-105999701D01*
X171270000Y-105999701D01*
X171270000Y-106250000D01*
X172395025Y-106250000D01*
X172359930Y-106285095D01*
X172313852Y-106364905D01*
X172290000Y-106453922D01*
X172290000Y-106546078D01*
X172313852Y-106635095D01*
X172359930Y-106714905D01*
X172395025Y-106750000D01*
X171270001Y-106750000D01*
X171270001Y-107000308D01*
X171276321Y-107069875D01*
X171276323Y-107069883D01*
X171326208Y-107229970D01*
X171326209Y-107229972D01*
X171412954Y-107373467D01*
X171412957Y-107373471D01*
X171531528Y-107492042D01*
X171531532Y-107492045D01*
X171675026Y-107578789D01*
X171835123Y-107628677D01*
X171904701Y-107634999D01*
X172789999Y-107634999D01*
X172790000Y-107634998D01*
X172790000Y-106850000D01*
X173290000Y-106850000D01*
X173290000Y-107634999D01*
X174175307Y-107634999D01*
X174244875Y-107628678D01*
X174244883Y-107628676D01*
X174404970Y-107578791D01*
X174404972Y-107578790D01*
X174548467Y-107492045D01*
X174548471Y-107492042D01*
X174667042Y-107373471D01*
X174667045Y-107373467D01*
X174753789Y-107229973D01*
X174803677Y-107069876D01*
X174810000Y-107000298D01*
X174810000Y-106750000D01*
X173684975Y-106750000D01*
X173720070Y-106714905D01*
X173766148Y-106635095D01*
X173790000Y-106546078D01*
X173790000Y-106453922D01*
X173766148Y-106364905D01*
X173720070Y-106285095D01*
X173684975Y-106250000D01*
X174809999Y-106250000D01*
X174809999Y-105999691D01*
X174803678Y-105930124D01*
X174803676Y-105930116D01*
X174753791Y-105770029D01*
X174753790Y-105770027D01*
X174667045Y-105626532D01*
X174667042Y-105626528D01*
X174548471Y-105507957D01*
X174548467Y-105507954D01*
X174404973Y-105421210D01*
X174244876Y-105371322D01*
X174175298Y-105365000D01*
X173290000Y-105365000D01*
X173290000Y-106150000D01*
X172790000Y-106150000D01*
X172790000Y-105365000D01*
X171904691Y-105365000D01*
X171835123Y-105371321D01*
X171835116Y-105371323D01*
X171675029Y-105421208D01*
X171675027Y-105421209D01*
X171531532Y-105507954D01*
X171531528Y-105507957D01*
X171412957Y-105626528D01*
X171412954Y-105626532D01*
X171326210Y-105770026D01*
X171276322Y-105930123D01*
X171270000Y-105999701D01*
X169730499Y-105999701D01*
X169730499Y-105999645D01*
X169724174Y-105930033D01*
X169724171Y-105930022D01*
X169674252Y-105769824D01*
X169674250Y-105769820D01*
X169587443Y-105626222D01*
X169587439Y-105626217D01*
X169468782Y-105507560D01*
X169468777Y-105507556D01*
X169325180Y-105420750D01*
X169325179Y-105420749D01*
X169325178Y-105420749D01*
X169164971Y-105370827D01*
X169164969Y-105370826D01*
X169164967Y-105370826D01*
X169116221Y-105366396D01*
X169095347Y-105364500D01*
X169095344Y-105364500D01*
X166824645Y-105364500D01*
X166755033Y-105370825D01*
X166755022Y-105370828D01*
X166594824Y-105420747D01*
X166594820Y-105420749D01*
X166451222Y-105507556D01*
X166451217Y-105507560D01*
X166332560Y-105626217D01*
X166332556Y-105626222D01*
X166245750Y-105769819D01*
X166245750Y-105769820D01*
X166245749Y-105769822D01*
X166220788Y-105849925D01*
X166195826Y-105930032D01*
X166189500Y-105999655D01*
X166189500Y-107000354D01*
X166195825Y-107069966D01*
X166195828Y-107069977D01*
X166245747Y-107230175D01*
X166245749Y-107230179D01*
X166332556Y-107373777D01*
X166332560Y-107373782D01*
X166451217Y-107492439D01*
X166451222Y-107492443D01*
X166571815Y-107565343D01*
X166594822Y-107579251D01*
X166755029Y-107629173D01*
X166824653Y-107635500D01*
X167912059Y-107635499D01*
X167979098Y-107655184D01*
X167999740Y-107671818D01*
X178338211Y-118010289D01*
X178444982Y-118117060D01*
X178449712Y-118121790D01*
X178580814Y-118209390D01*
X178580827Y-118209397D01*
X178726498Y-118269735D01*
X178726503Y-118269737D01*
X178726507Y-118269737D01*
X178726508Y-118269738D01*
X178881154Y-118300500D01*
X178881157Y-118300500D01*
X178881158Y-118300500D01*
X184480663Y-118300500D01*
X184547702Y-118320185D01*
X184568344Y-118336818D01*
X184685354Y-118453828D01*
X184844595Y-118569524D01*
X184862883Y-118578842D01*
X185019970Y-118658882D01*
X185019972Y-118658882D01*
X185019975Y-118658884D01*
X185120317Y-118691487D01*
X185207173Y-118719709D01*
X185401578Y-118750500D01*
X185401583Y-118750500D01*
X185598422Y-118750500D01*
X185792826Y-118719709D01*
X185822048Y-118710214D01*
X185980025Y-118658884D01*
X186155405Y-118569524D01*
X186314646Y-118453828D01*
X186453828Y-118314646D01*
X186569524Y-118155405D01*
X186658884Y-117980025D01*
X186719709Y-117792826D01*
X186750500Y-117598422D01*
X186750500Y-117401577D01*
X186719709Y-117207173D01*
X186658882Y-117019970D01*
X186611743Y-116927455D01*
X186569524Y-116844595D01*
X186453828Y-116685354D01*
X186314646Y-116546172D01*
X186235025Y-116488324D01*
X186155403Y-116430474D01*
X185978787Y-116340485D01*
X185927990Y-116292511D01*
X185911195Y-116224690D01*
X185933732Y-116158555D01*
X185978787Y-116119515D01*
X186155403Y-116029525D01*
X186155402Y-116029525D01*
X186155405Y-116029524D01*
X186314646Y-115913828D01*
X186431656Y-115796818D01*
X186492979Y-115763334D01*
X186519337Y-115760500D01*
X186577060Y-115760500D01*
X186644099Y-115780185D01*
X186664741Y-115796819D01*
X187663181Y-116795259D01*
X187696666Y-116856582D01*
X187699500Y-116882940D01*
X187699500Y-118117060D01*
X187679815Y-118184099D01*
X187663181Y-118204741D01*
X186704741Y-119163181D01*
X186643418Y-119196666D01*
X186617060Y-119199500D01*
X178382940Y-119199500D01*
X178315901Y-119179815D01*
X178295259Y-119163181D01*
X173510292Y-114378213D01*
X173510288Y-114378210D01*
X173379185Y-114290609D01*
X173379172Y-114290602D01*
X173233501Y-114230264D01*
X173233489Y-114230261D01*
X173078845Y-114199500D01*
X173078842Y-114199500D01*
X136842939Y-114199500D01*
X136775900Y-114179815D01*
X136755258Y-114163181D01*
X129760063Y-107167985D01*
X129726578Y-107106662D01*
X129724253Y-107069086D01*
X129730500Y-107000347D01*
X129730499Y-106453922D01*
X129730499Y-105999701D01*
X131270000Y-105999701D01*
X131270000Y-106250000D01*
X132395025Y-106250000D01*
X132359930Y-106285095D01*
X132313852Y-106364905D01*
X132290000Y-106453922D01*
X132290000Y-106546078D01*
X132313852Y-106635095D01*
X132359930Y-106714905D01*
X132395025Y-106750000D01*
X131270001Y-106750000D01*
X131270001Y-107000308D01*
X131276321Y-107069875D01*
X131276323Y-107069883D01*
X131326208Y-107229970D01*
X131326209Y-107229972D01*
X131412954Y-107373467D01*
X131412957Y-107373471D01*
X131531528Y-107492042D01*
X131531532Y-107492045D01*
X131675026Y-107578789D01*
X131835123Y-107628677D01*
X131904701Y-107634999D01*
X132789999Y-107634999D01*
X132790000Y-107634998D01*
X132790000Y-106850000D01*
X133290000Y-106850000D01*
X133290000Y-107634999D01*
X134175307Y-107634999D01*
X134244875Y-107628678D01*
X134244883Y-107628676D01*
X134404970Y-107578791D01*
X134404972Y-107578790D01*
X134548467Y-107492045D01*
X134548471Y-107492042D01*
X134667042Y-107373471D01*
X134667045Y-107373467D01*
X134753789Y-107229973D01*
X134803677Y-107069876D01*
X134810000Y-107000298D01*
X134810000Y-106750000D01*
X133684975Y-106750000D01*
X133720070Y-106714905D01*
X133766148Y-106635095D01*
X133790000Y-106546078D01*
X133790000Y-106453922D01*
X133766148Y-106364905D01*
X133720070Y-106285095D01*
X133684975Y-106250000D01*
X134809999Y-106250000D01*
X134809999Y-105999691D01*
X134803678Y-105930124D01*
X134803676Y-105930116D01*
X134753791Y-105770029D01*
X134753790Y-105770027D01*
X134667045Y-105626532D01*
X134667042Y-105626528D01*
X134548471Y-105507957D01*
X134548467Y-105507954D01*
X134404973Y-105421210D01*
X134244876Y-105371322D01*
X134175298Y-105365000D01*
X133290000Y-105365000D01*
X133290000Y-106150000D01*
X132790000Y-106150000D01*
X132790000Y-105365000D01*
X131904691Y-105365000D01*
X131835123Y-105371321D01*
X131835116Y-105371323D01*
X131675029Y-105421208D01*
X131675027Y-105421209D01*
X131531532Y-105507954D01*
X131531528Y-105507957D01*
X131412957Y-105626528D01*
X131412954Y-105626532D01*
X131326210Y-105770026D01*
X131276322Y-105930123D01*
X131270000Y-105999701D01*
X129730499Y-105999701D01*
X129730499Y-105999645D01*
X129724174Y-105930033D01*
X129724171Y-105930022D01*
X129674252Y-105769824D01*
X129674250Y-105769820D01*
X129587443Y-105626222D01*
X129587439Y-105626217D01*
X129468782Y-105507560D01*
X129468777Y-105507556D01*
X129325180Y-105420750D01*
X129325179Y-105420749D01*
X129325178Y-105420749D01*
X129164971Y-105370827D01*
X129164969Y-105370826D01*
X129164967Y-105370826D01*
X129116221Y-105366396D01*
X129095347Y-105364500D01*
X129095344Y-105364500D01*
X126824645Y-105364500D01*
X126755033Y-105370825D01*
X126755022Y-105370828D01*
X126594824Y-105420747D01*
X126594820Y-105420749D01*
X126451222Y-105507556D01*
X126451217Y-105507560D01*
X126332560Y-105626217D01*
X126332556Y-105626222D01*
X126245750Y-105769819D01*
X126245750Y-105769820D01*
X126245749Y-105769822D01*
X126220788Y-105849925D01*
X126195826Y-105930032D01*
X126189500Y-105999655D01*
X126189500Y-107000354D01*
X126195825Y-107069966D01*
X126195828Y-107069977D01*
X126245747Y-107230175D01*
X126245749Y-107230179D01*
X126332556Y-107373777D01*
X126332560Y-107373782D01*
X126451217Y-107492439D01*
X126451222Y-107492443D01*
X126571815Y-107565343D01*
X126594822Y-107579251D01*
X126755029Y-107629173D01*
X126824653Y-107635500D01*
X127912059Y-107635499D01*
X127979098Y-107655184D01*
X127999740Y-107671818D01*
X135833870Y-115505947D01*
X135833891Y-115505970D01*
X135949707Y-115621786D01*
X135949711Y-115621789D01*
X136080814Y-115709390D01*
X136080816Y-115709391D01*
X136080821Y-115709394D01*
X136198199Y-115758013D01*
X136198202Y-115758014D01*
X136198203Y-115758015D01*
X136226498Y-115769735D01*
X136226503Y-115769737D01*
X136226507Y-115769737D01*
X136226508Y-115769738D01*
X136381154Y-115800500D01*
X136381157Y-115800500D01*
X136381158Y-115800500D01*
X172617060Y-115800500D01*
X172684099Y-115820185D01*
X172704741Y-115836819D01*
X177378211Y-120510289D01*
X177489708Y-120621786D01*
X177489712Y-120621790D01*
X177620814Y-120709390D01*
X177620827Y-120709397D01*
X177766498Y-120769735D01*
X177766503Y-120769737D01*
X177921153Y-120800499D01*
X177921156Y-120800500D01*
X177921158Y-120800500D01*
X187078844Y-120800500D01*
X187078845Y-120800499D01*
X187233497Y-120769737D01*
X187379179Y-120709394D01*
X187510289Y-120621789D01*
X189121788Y-119010290D01*
X189121789Y-119010289D01*
X189209394Y-118879179D01*
X189215326Y-118864859D01*
X189269735Y-118733501D01*
X189269737Y-118733497D01*
X189300500Y-118578842D01*
X189300500Y-116421158D01*
X189300500Y-116421155D01*
X189300499Y-116421153D01*
X189269737Y-116266503D01*
X189233786Y-116179709D01*
X189209397Y-116120827D01*
X189209390Y-116120814D01*
X189121790Y-115989712D01*
X189121789Y-115989711D01*
X189010289Y-115878211D01*
X188384904Y-115252826D01*
X187470292Y-114338213D01*
X187470288Y-114338210D01*
X187339185Y-114250609D01*
X187339172Y-114250602D01*
X187193501Y-114190264D01*
X187193489Y-114190261D01*
X187038845Y-114159500D01*
X187038842Y-114159500D01*
X186519337Y-114159500D01*
X186452298Y-114139815D01*
X186431656Y-114123182D01*
X186429288Y-114120814D01*
X186314646Y-114006172D01*
X186242493Y-113953749D01*
X186155403Y-113890474D01*
X185978787Y-113800485D01*
X185927990Y-113752511D01*
X185911195Y-113684690D01*
X185933732Y-113618555D01*
X185978787Y-113579515D01*
X186155403Y-113489525D01*
X186155402Y-113489525D01*
X186155405Y-113489524D01*
X186314646Y-113373828D01*
X186431656Y-113256818D01*
X186492979Y-113223334D01*
X186519337Y-113220500D01*
X189037060Y-113220500D01*
X189104099Y-113240185D01*
X189124741Y-113256819D01*
X190663181Y-114795259D01*
X190696666Y-114856582D01*
X190699500Y-114882940D01*
X190699500Y-118248430D01*
X190679815Y-118315469D01*
X190663181Y-118336111D01*
X187336111Y-121663181D01*
X187274788Y-121696666D01*
X187248430Y-121699500D01*
X174681084Y-121699500D01*
X174614045Y-121679815D01*
X174568290Y-121627011D01*
X174558346Y-121557853D01*
X174587371Y-121494297D01*
X174593403Y-121487819D01*
X174707439Y-121373783D01*
X174794251Y-121230178D01*
X174844173Y-121069971D01*
X174850500Y-121000347D01*
X174850499Y-119999654D01*
X174850499Y-119999653D01*
X174850499Y-119999645D01*
X174844174Y-119930033D01*
X174844171Y-119930022D01*
X174794252Y-119769824D01*
X174794250Y-119769820D01*
X174707443Y-119626222D01*
X174707439Y-119626217D01*
X174588782Y-119507560D01*
X174588777Y-119507556D01*
X174445180Y-119420750D01*
X174445179Y-119420749D01*
X174445178Y-119420749D01*
X174284971Y-119370827D01*
X174284969Y-119370826D01*
X174284967Y-119370826D01*
X174236221Y-119366396D01*
X174215347Y-119364500D01*
X174215344Y-119364500D01*
X171944645Y-119364500D01*
X171875033Y-119370825D01*
X171875022Y-119370828D01*
X171714824Y-119420747D01*
X171714820Y-119420749D01*
X171571222Y-119507556D01*
X171571217Y-119507560D01*
X171452560Y-119626217D01*
X171452556Y-119626222D01*
X171365750Y-119769819D01*
X171315826Y-119930032D01*
X171309500Y-119999655D01*
X171309500Y-121000354D01*
X171315825Y-121069966D01*
X171315828Y-121069977D01*
X171365747Y-121230175D01*
X171365749Y-121230179D01*
X171452556Y-121373777D01*
X171452560Y-121373782D01*
X171566597Y-121487819D01*
X171600082Y-121549142D01*
X171595098Y-121618834D01*
X171553226Y-121674767D01*
X171487762Y-121699184D01*
X171478916Y-121699500D01*
X169561084Y-121699500D01*
X169494045Y-121679815D01*
X169448290Y-121627011D01*
X169438346Y-121557853D01*
X169467371Y-121494297D01*
X169473403Y-121487819D01*
X169587439Y-121373783D01*
X169674251Y-121230178D01*
X169724173Y-121069971D01*
X169730500Y-121000347D01*
X169730499Y-119999654D01*
X169730499Y-119999653D01*
X169730499Y-119999645D01*
X169724174Y-119930033D01*
X169724171Y-119930022D01*
X169674252Y-119769824D01*
X169674250Y-119769820D01*
X169587443Y-119626222D01*
X169587439Y-119626217D01*
X169468782Y-119507560D01*
X169468777Y-119507556D01*
X169325180Y-119420750D01*
X169325179Y-119420749D01*
X169325178Y-119420749D01*
X169164971Y-119370827D01*
X169164969Y-119370826D01*
X169164967Y-119370826D01*
X169116221Y-119366396D01*
X169095347Y-119364500D01*
X169095344Y-119364500D01*
X166824645Y-119364500D01*
X166755033Y-119370825D01*
X166755022Y-119370828D01*
X166594824Y-119420747D01*
X166594820Y-119420749D01*
X166451222Y-119507556D01*
X166451217Y-119507560D01*
X166332560Y-119626217D01*
X166332556Y-119626222D01*
X166245750Y-119769819D01*
X166195826Y-119930032D01*
X166189500Y-119999655D01*
X166189500Y-121000354D01*
X166195825Y-121069966D01*
X166195828Y-121069977D01*
X166245747Y-121230175D01*
X166245749Y-121230179D01*
X166332556Y-121373777D01*
X166332560Y-121373782D01*
X166446597Y-121487819D01*
X166480082Y-121549142D01*
X166475098Y-121618834D01*
X166433226Y-121674767D01*
X166367762Y-121699184D01*
X166358916Y-121699500D01*
X134681084Y-121699500D01*
X134614045Y-121679815D01*
X134568290Y-121627011D01*
X134558346Y-121557853D01*
X134587371Y-121494297D01*
X134593403Y-121487819D01*
X134707439Y-121373783D01*
X134794251Y-121230178D01*
X134844173Y-121069971D01*
X134850500Y-121000347D01*
X134850499Y-119999654D01*
X134850499Y-119999653D01*
X134850499Y-119999645D01*
X134844174Y-119930033D01*
X134844171Y-119930022D01*
X134794252Y-119769824D01*
X134794250Y-119769820D01*
X134707443Y-119626222D01*
X134707439Y-119626217D01*
X134588782Y-119507560D01*
X134588777Y-119507556D01*
X134445180Y-119420750D01*
X134445179Y-119420749D01*
X134445178Y-119420749D01*
X134284971Y-119370827D01*
X134284969Y-119370826D01*
X134284967Y-119370826D01*
X134236221Y-119366396D01*
X134215347Y-119364500D01*
X134215344Y-119364500D01*
X131944645Y-119364500D01*
X131875033Y-119370825D01*
X131875022Y-119370828D01*
X131714824Y-119420747D01*
X131714820Y-119420749D01*
X131571222Y-119507556D01*
X131571217Y-119507560D01*
X131452560Y-119626217D01*
X131452556Y-119626222D01*
X131365750Y-119769819D01*
X131315826Y-119930032D01*
X131309500Y-119999655D01*
X131309500Y-121000354D01*
X131315825Y-121069966D01*
X131315828Y-121069977D01*
X131365747Y-121230175D01*
X131365749Y-121230179D01*
X131452556Y-121373777D01*
X131452560Y-121373782D01*
X131566597Y-121487819D01*
X131600082Y-121549142D01*
X131595098Y-121618834D01*
X131553226Y-121674767D01*
X131487762Y-121699184D01*
X131478916Y-121699500D01*
X129561084Y-121699500D01*
X129494045Y-121679815D01*
X129448290Y-121627011D01*
X129438346Y-121557853D01*
X129467371Y-121494297D01*
X129473403Y-121487819D01*
X129587439Y-121373783D01*
X129674251Y-121230178D01*
X129724173Y-121069971D01*
X129730500Y-121000347D01*
X129730499Y-119999654D01*
X129730499Y-119999653D01*
X129730499Y-119999645D01*
X129724174Y-119930033D01*
X129724171Y-119930022D01*
X129674252Y-119769824D01*
X129674250Y-119769820D01*
X129587443Y-119626222D01*
X129587439Y-119626217D01*
X129468782Y-119507560D01*
X129468777Y-119507556D01*
X129325180Y-119420750D01*
X129325179Y-119420749D01*
X129325178Y-119420749D01*
X129164971Y-119370827D01*
X129164969Y-119370826D01*
X129164967Y-119370826D01*
X129116221Y-119366396D01*
X129095347Y-119364500D01*
X129095344Y-119364500D01*
X126824645Y-119364500D01*
X126755033Y-119370825D01*
X126755022Y-119370828D01*
X126594824Y-119420747D01*
X126594820Y-119420749D01*
X126451222Y-119507556D01*
X126451217Y-119507560D01*
X126332560Y-119626217D01*
X126332556Y-119626222D01*
X126245750Y-119769819D01*
X126195826Y-119930032D01*
X126189500Y-119999655D01*
X126189500Y-121000354D01*
X126195825Y-121069966D01*
X126195828Y-121069977D01*
X126245747Y-121230175D01*
X126245749Y-121230179D01*
X126332556Y-121373777D01*
X126332560Y-121373782D01*
X126446597Y-121487819D01*
X126480082Y-121549142D01*
X126475098Y-121618834D01*
X126433226Y-121674767D01*
X126367762Y-121699184D01*
X126358916Y-121699500D01*
X104342940Y-121699500D01*
X104275901Y-121679815D01*
X104255259Y-121663181D01*
X89760063Y-107167985D01*
X89726578Y-107106662D01*
X89724253Y-107069086D01*
X89730500Y-107000347D01*
X89730499Y-106453922D01*
X89730499Y-105999701D01*
X91270000Y-105999701D01*
X91270000Y-106250000D01*
X92395025Y-106250000D01*
X92359930Y-106285095D01*
X92313852Y-106364905D01*
X92290000Y-106453922D01*
X92290000Y-106546078D01*
X92313852Y-106635095D01*
X92359930Y-106714905D01*
X92395025Y-106750000D01*
X91270001Y-106750000D01*
X91270001Y-107000308D01*
X91276321Y-107069875D01*
X91276323Y-107069883D01*
X91326208Y-107229970D01*
X91326209Y-107229972D01*
X91412954Y-107373467D01*
X91412957Y-107373471D01*
X91531528Y-107492042D01*
X91531532Y-107492045D01*
X91675026Y-107578789D01*
X91835123Y-107628677D01*
X91904701Y-107634999D01*
X92789999Y-107634999D01*
X92790000Y-107634998D01*
X92790000Y-106850000D01*
X93290000Y-106850000D01*
X93290000Y-107634999D01*
X94175307Y-107634999D01*
X94244875Y-107628678D01*
X94244883Y-107628676D01*
X94404970Y-107578791D01*
X94404972Y-107578790D01*
X94548467Y-107492045D01*
X94548471Y-107492042D01*
X94667042Y-107373471D01*
X94667045Y-107373467D01*
X94753789Y-107229973D01*
X94803677Y-107069876D01*
X94810000Y-107000298D01*
X94810000Y-106750000D01*
X93684975Y-106750000D01*
X93720070Y-106714905D01*
X93766148Y-106635095D01*
X93790000Y-106546078D01*
X93790000Y-106453922D01*
X93766148Y-106364905D01*
X93720070Y-106285095D01*
X93684975Y-106250000D01*
X94809999Y-106250000D01*
X94809999Y-105999691D01*
X94803678Y-105930124D01*
X94803676Y-105930116D01*
X94753791Y-105770029D01*
X94753790Y-105770027D01*
X94667045Y-105626532D01*
X94667042Y-105626528D01*
X94548471Y-105507957D01*
X94548467Y-105507954D01*
X94404973Y-105421210D01*
X94244876Y-105371322D01*
X94175298Y-105365000D01*
X93290000Y-105365000D01*
X93290000Y-106150000D01*
X92790000Y-106150000D01*
X92790000Y-105365000D01*
X91904691Y-105365000D01*
X91835123Y-105371321D01*
X91835116Y-105371323D01*
X91675029Y-105421208D01*
X91675027Y-105421209D01*
X91531532Y-105507954D01*
X91531528Y-105507957D01*
X91412957Y-105626528D01*
X91412954Y-105626532D01*
X91326210Y-105770026D01*
X91276322Y-105930123D01*
X91270000Y-105999701D01*
X89730499Y-105999701D01*
X89730499Y-105999645D01*
X89724174Y-105930033D01*
X89724171Y-105930022D01*
X89674252Y-105769824D01*
X89674250Y-105769820D01*
X89587443Y-105626222D01*
X89587439Y-105626217D01*
X89468782Y-105507560D01*
X89468777Y-105507556D01*
X89325180Y-105420750D01*
X89325179Y-105420749D01*
X89325178Y-105420749D01*
X89164971Y-105370827D01*
X89164969Y-105370826D01*
X89164967Y-105370826D01*
X89116221Y-105366396D01*
X89095347Y-105364500D01*
X89095344Y-105364500D01*
X86824645Y-105364500D01*
X86755033Y-105370825D01*
X86755022Y-105370828D01*
X86594824Y-105420747D01*
X86594820Y-105420749D01*
X86451222Y-105507556D01*
X86451217Y-105507560D01*
X86332560Y-105626217D01*
X86332556Y-105626222D01*
X86245750Y-105769819D01*
X86245750Y-105769820D01*
X86245749Y-105769822D01*
X86220788Y-105849925D01*
X86195826Y-105930032D01*
X86189500Y-105999655D01*
X86189500Y-107000354D01*
X86195825Y-107069966D01*
X86195828Y-107069977D01*
X86245747Y-107230175D01*
X86245749Y-107230179D01*
X86332556Y-107373777D01*
X86332560Y-107373782D01*
X86451217Y-107492439D01*
X86451222Y-107492443D01*
X86571815Y-107565343D01*
X86594822Y-107579251D01*
X86755029Y-107629173D01*
X86824653Y-107635500D01*
X87912059Y-107635499D01*
X87979098Y-107655184D01*
X87999740Y-107671818D01*
X103338211Y-123010289D01*
X103449708Y-123121786D01*
X103449712Y-123121790D01*
X103580814Y-123209390D01*
X103580827Y-123209397D01*
X103726498Y-123269735D01*
X103726503Y-123269737D01*
X103881153Y-123300499D01*
X103881156Y-123300500D01*
X103881158Y-123300500D01*
X187710214Y-123300500D01*
X187710215Y-123300499D01*
X187864867Y-123269737D01*
X188010549Y-123209394D01*
X188141659Y-123121789D01*
X192121789Y-119141659D01*
X192209394Y-119010549D01*
X192269737Y-118864867D01*
X192300500Y-118710212D01*
X192300500Y-118552528D01*
X192300500Y-114421158D01*
X192300500Y-114421155D01*
X192300499Y-114421153D01*
X192284001Y-114338213D01*
X192269737Y-114266503D01*
X192263151Y-114250602D01*
X192209397Y-114120827D01*
X192209390Y-114120814D01*
X192121790Y-113989712D01*
X192121789Y-113989711D01*
X192010289Y-113878211D01*
X191032103Y-112900025D01*
X189930292Y-111798213D01*
X189930288Y-111798210D01*
X189799185Y-111710609D01*
X189799172Y-111710602D01*
X189653501Y-111650264D01*
X189653489Y-111650261D01*
X189498845Y-111619500D01*
X189498842Y-111619500D01*
X186519337Y-111619500D01*
X186452298Y-111599815D01*
X186431656Y-111583182D01*
X186314646Y-111466172D01*
X186242493Y-111413749D01*
X186155403Y-111350474D01*
X185978787Y-111260485D01*
X185927990Y-111212511D01*
X185911195Y-111144690D01*
X185933732Y-111078555D01*
X185978787Y-111039515D01*
X186155403Y-110949525D01*
X186155402Y-110949525D01*
X186155405Y-110949524D01*
X186314646Y-110833828D01*
X186453828Y-110694646D01*
X186569524Y-110535405D01*
X186658884Y-110360025D01*
X186719709Y-110172826D01*
X186750500Y-109978422D01*
X186750500Y-109781577D01*
X186719709Y-109587173D01*
X186658882Y-109399970D01*
X186569523Y-109224594D01*
X186453828Y-109065354D01*
X186314646Y-108926172D01*
X186235025Y-108868324D01*
X186155403Y-108810474D01*
X185978787Y-108720485D01*
X185927990Y-108672511D01*
X185911195Y-108604690D01*
X185933732Y-108538555D01*
X185978787Y-108499515D01*
X186155403Y-108409525D01*
X186155402Y-108409525D01*
X186155405Y-108409524D01*
X186314646Y-108293828D01*
X186453828Y-108154646D01*
X186569524Y-107995405D01*
X186658884Y-107820025D01*
X186719709Y-107632826D01*
X186720366Y-107628676D01*
X186750500Y-107438422D01*
X186750500Y-107241577D01*
X186719709Y-107047173D01*
X186658882Y-106859970D01*
X186602849Y-106750000D01*
X186569524Y-106684595D01*
X186453828Y-106525354D01*
X186314646Y-106386172D01*
X186235025Y-106328324D01*
X186155403Y-106270474D01*
X185978787Y-106180485D01*
X185927990Y-106132511D01*
X185911195Y-106064690D01*
X185933732Y-105998555D01*
X185978787Y-105959515D01*
X186155403Y-105869525D01*
X186155402Y-105869525D01*
X186155405Y-105869524D01*
X186314646Y-105753828D01*
X186453828Y-105614646D01*
X186569524Y-105455405D01*
X186658884Y-105280025D01*
X186719709Y-105092826D01*
X186750500Y-104898422D01*
X186750500Y-104701577D01*
X186719709Y-104507173D01*
X186658882Y-104319970D01*
X186569523Y-104144594D01*
X186453828Y-103985354D01*
X186314646Y-103846172D01*
X186235025Y-103788324D01*
X186155403Y-103730474D01*
X185978787Y-103640485D01*
X185927990Y-103592511D01*
X185911195Y-103524690D01*
X185933732Y-103458555D01*
X185978787Y-103419515D01*
X186155403Y-103329525D01*
X186155402Y-103329525D01*
X186155405Y-103329524D01*
X186314646Y-103213828D01*
X186453828Y-103074646D01*
X186569524Y-102915405D01*
X186658884Y-102740025D01*
X186719709Y-102552826D01*
X186750500Y-102358422D01*
X186750500Y-102161577D01*
X186719709Y-101967173D01*
X186658882Y-101779970D01*
X186569523Y-101604594D01*
X186453828Y-101445354D01*
X186314646Y-101306172D01*
X186235025Y-101248324D01*
X186155403Y-101190474D01*
X185978787Y-101100485D01*
X185927990Y-101052511D01*
X185911195Y-100984690D01*
X185933732Y-100918555D01*
X185978787Y-100879515D01*
X186155403Y-100789525D01*
X186155402Y-100789525D01*
X186155405Y-100789524D01*
X186314646Y-100673828D01*
X186453828Y-100534646D01*
X186569524Y-100375405D01*
X186658884Y-100200025D01*
X186719709Y-100012826D01*
X186750500Y-99818422D01*
X186750500Y-99621577D01*
X186719709Y-99427173D01*
X186658882Y-99239970D01*
X186569523Y-99064594D01*
X186453828Y-98905354D01*
X186314646Y-98766172D01*
X186235025Y-98708324D01*
X186155403Y-98650474D01*
X185978787Y-98560485D01*
X185927990Y-98512511D01*
X185911195Y-98444690D01*
X185933732Y-98378555D01*
X185978787Y-98339515D01*
X186155403Y-98249525D01*
X186155402Y-98249525D01*
X186155405Y-98249524D01*
X186314646Y-98133828D01*
X186453828Y-97994646D01*
X186569524Y-97835405D01*
X186658884Y-97660025D01*
X186719709Y-97472826D01*
X186750500Y-97278422D01*
X186750500Y-97081577D01*
X186719709Y-96887173D01*
X186658882Y-96699970D01*
X186569523Y-96524594D01*
X186453828Y-96365354D01*
X186314646Y-96226172D01*
X186235025Y-96168324D01*
X186155403Y-96110474D01*
X185978787Y-96020485D01*
X185927990Y-95972511D01*
X185911195Y-95904690D01*
X185933732Y-95838555D01*
X185978787Y-95799515D01*
X186155403Y-95709525D01*
X186155402Y-95709525D01*
X186155405Y-95709524D01*
X186314646Y-95593828D01*
X186453828Y-95454646D01*
X186569524Y-95295405D01*
X186658884Y-95120025D01*
X186719709Y-94932826D01*
X186750500Y-94738422D01*
X186750500Y-94541577D01*
X186719709Y-94347173D01*
X186658882Y-94159970D01*
X186569523Y-93984594D01*
X186453828Y-93825354D01*
X186314646Y-93686172D01*
X186235025Y-93628324D01*
X186155403Y-93570474D01*
X185978787Y-93480485D01*
X185927990Y-93432511D01*
X185911195Y-93364690D01*
X185933732Y-93298555D01*
X185978787Y-93259515D01*
X186155403Y-93169525D01*
X186155402Y-93169525D01*
X186155405Y-93169524D01*
X186314646Y-93053828D01*
X186453828Y-92914646D01*
X186569524Y-92755405D01*
X186658884Y-92580025D01*
X186719709Y-92392826D01*
X186750500Y-92198422D01*
X186750500Y-92001577D01*
X186719709Y-91807173D01*
X186658882Y-91619970D01*
X186569523Y-91444594D01*
X186453828Y-91285354D01*
X186314646Y-91146172D01*
X186235025Y-91088324D01*
X186155403Y-91030474D01*
X185978787Y-90940485D01*
X185927990Y-90892511D01*
X185911195Y-90824690D01*
X185933732Y-90758555D01*
X185978787Y-90719515D01*
X186155403Y-90629525D01*
X186155402Y-90629525D01*
X186155405Y-90629524D01*
X186314646Y-90513828D01*
X186453828Y-90374646D01*
X186569524Y-90215405D01*
X186658884Y-90040025D01*
X186719709Y-89852826D01*
X186750500Y-89658422D01*
X186750500Y-89461577D01*
X186719709Y-89267173D01*
X186658882Y-89079970D01*
X186569523Y-88904594D01*
X186453828Y-88745354D01*
X186314646Y-88606172D01*
X186155405Y-88490476D01*
X185980025Y-88401116D01*
X185980024Y-88401115D01*
X185978235Y-88400204D01*
X185927439Y-88352230D01*
X185910644Y-88284409D01*
X185933181Y-88218274D01*
X185978236Y-88179234D01*
X186155141Y-88089097D01*
X186190125Y-88063678D01*
X186190126Y-88063678D01*
X185546448Y-87420000D01*
X185552661Y-87420000D01*
X185654394Y-87392741D01*
X185745606Y-87340080D01*
X185820080Y-87265606D01*
X185872741Y-87174394D01*
X185900000Y-87072661D01*
X185900000Y-87066448D01*
X186543678Y-87710126D01*
X186543678Y-87710125D01*
X186569095Y-87675143D01*
X186658418Y-87499835D01*
X186719221Y-87312705D01*
X186750000Y-87118382D01*
X186750000Y-86921617D01*
X186719221Y-86727294D01*
X186658418Y-86540164D01*
X186569096Y-86364858D01*
X186543678Y-86329873D01*
X186543677Y-86329873D01*
X185900000Y-86973551D01*
X185900000Y-86967339D01*
X185872741Y-86865606D01*
X185820080Y-86774394D01*
X185745606Y-86699920D01*
X185654394Y-86647259D01*
X185552661Y-86620000D01*
X185546447Y-86620000D01*
X186190125Y-85976320D01*
X186190125Y-85976319D01*
X186155145Y-85950905D01*
X185978235Y-85860765D01*
X185927439Y-85812790D01*
X185910644Y-85744969D01*
X185933182Y-85678834D01*
X185978236Y-85639795D01*
X185980022Y-85638884D01*
X185980025Y-85638884D01*
X186155405Y-85549524D01*
X186314646Y-85433828D01*
X186453828Y-85294646D01*
X186569524Y-85135405D01*
X186658884Y-84960025D01*
X186719709Y-84772826D01*
X186750500Y-84578422D01*
X186750500Y-84381577D01*
X186719709Y-84187173D01*
X186658882Y-83999970D01*
X186569523Y-83824594D01*
X186453828Y-83665354D01*
X186314646Y-83526172D01*
X186155405Y-83410476D01*
X185980029Y-83321117D01*
X185792826Y-83260290D01*
X185598422Y-83229500D01*
X185598417Y-83229500D01*
X185401583Y-83229500D01*
X185401578Y-83229500D01*
X185207173Y-83260290D01*
X185019970Y-83321117D01*
X184844594Y-83410476D01*
X184685355Y-83526171D01*
X184568344Y-83643182D01*
X184507021Y-83676666D01*
X184480663Y-83679500D01*
X149752940Y-83679500D01*
X149685901Y-83659815D01*
X149665259Y-83643181D01*
X144689843Y-78667765D01*
X144656358Y-78606442D01*
X144655051Y-78560687D01*
X144660500Y-78526287D01*
X144660500Y-78313713D01*
X144627246Y-78103757D01*
X144561557Y-77901588D01*
X144465051Y-77712184D01*
X144465049Y-77712181D01*
X144465048Y-77712179D01*
X144340109Y-77540213D01*
X144189786Y-77389890D01*
X144017820Y-77264951D01*
X144017115Y-77264591D01*
X144009054Y-77260485D01*
X143958259Y-77212512D01*
X143941463Y-77144692D01*
X143963999Y-77078556D01*
X144009054Y-77039515D01*
X144017816Y-77035051D01*
X144139839Y-76946397D01*
X144189786Y-76910109D01*
X144189788Y-76910106D01*
X144189792Y-76910104D01*
X144340104Y-76759792D01*
X144340106Y-76759788D01*
X144340109Y-76759786D01*
X144465048Y-76587820D01*
X144465047Y-76587820D01*
X144465051Y-76587816D01*
X144561557Y-76398412D01*
X144627246Y-76196243D01*
X144660500Y-75986287D01*
X144660500Y-75773713D01*
X144627246Y-75563757D01*
X144561557Y-75361588D01*
X144465051Y-75172184D01*
X144465049Y-75172181D01*
X144465048Y-75172179D01*
X144340109Y-75000213D01*
X144189786Y-74849890D01*
X144017820Y-74724951D01*
X144017115Y-74724591D01*
X144009054Y-74720485D01*
X143958259Y-74672512D01*
X143941463Y-74604692D01*
X143963999Y-74538556D01*
X144009054Y-74499515D01*
X144017816Y-74495051D01*
X144039789Y-74479086D01*
X144189786Y-74370109D01*
X144189788Y-74370106D01*
X144189792Y-74370104D01*
X144340104Y-74219792D01*
X144340106Y-74219788D01*
X144340109Y-74219786D01*
X144464674Y-74048335D01*
X144465051Y-74047816D01*
X144561557Y-73858412D01*
X144627246Y-73656243D01*
X144660500Y-73446287D01*
X144660500Y-73233713D01*
X144627246Y-73023757D01*
X144561557Y-72821588D01*
X144465051Y-72632184D01*
X144465049Y-72632181D01*
X144465048Y-72632179D01*
X144340109Y-72460213D01*
X144189786Y-72309890D01*
X144017820Y-72184951D01*
X144017115Y-72184591D01*
X144009054Y-72180485D01*
X143958259Y-72132512D01*
X143941463Y-72064692D01*
X143963999Y-71998556D01*
X144009054Y-71959515D01*
X144017816Y-71955051D01*
X144115551Y-71884043D01*
X144189786Y-71830109D01*
X144189788Y-71830106D01*
X144189792Y-71830104D01*
X144340104Y-71679792D01*
X144340106Y-71679788D01*
X144340109Y-71679786D01*
X144465048Y-71507820D01*
X144465047Y-71507820D01*
X144465051Y-71507816D01*
X144561557Y-71318412D01*
X144627246Y-71116243D01*
X144660500Y-70906287D01*
X144660500Y-70693713D01*
X144627246Y-70483757D01*
X144561557Y-70281588D01*
X144465051Y-70092184D01*
X144465049Y-70092181D01*
X144465048Y-70092179D01*
X144340109Y-69920213D01*
X144189786Y-69769890D01*
X144017820Y-69644951D01*
X143828414Y-69548444D01*
X143828413Y-69548443D01*
X143828412Y-69548443D01*
X143626243Y-69482754D01*
X143626241Y-69482753D01*
X143626240Y-69482753D01*
X143464957Y-69457208D01*
X143416287Y-69449500D01*
X143203713Y-69449500D01*
X143155042Y-69457208D01*
X142993760Y-69482753D01*
X142791585Y-69548444D01*
X142602179Y-69644951D01*
X142430213Y-69769890D01*
X142279890Y-69920213D01*
X142154951Y-70092179D01*
X142058444Y-70281585D01*
X141992753Y-70483760D01*
X141989278Y-70505703D01*
X141959500Y-70693713D01*
X141959500Y-70906287D01*
X141992754Y-71116243D01*
X142017079Y-71191108D01*
X142058444Y-71318414D01*
X142154951Y-71507820D01*
X142279890Y-71679786D01*
X142430213Y-71830109D01*
X142602182Y-71955050D01*
X142610946Y-71959516D01*
X142661742Y-72007491D01*
X142678536Y-72075312D01*
X142655998Y-72141447D01*
X142610946Y-72180484D01*
X142602182Y-72184949D01*
X142430213Y-72309890D01*
X142279890Y-72460213D01*
X142154951Y-72632179D01*
X142058444Y-72821585D01*
X141992753Y-73023760D01*
X141959500Y-73233713D01*
X141959500Y-73446286D01*
X141992753Y-73656239D01*
X142058444Y-73858414D01*
X142154951Y-74047820D01*
X142279890Y-74219786D01*
X142430213Y-74370109D01*
X142602182Y-74495050D01*
X142610946Y-74499516D01*
X142661742Y-74547491D01*
X142678536Y-74615312D01*
X142655998Y-74681447D01*
X142610946Y-74720484D01*
X142602182Y-74724949D01*
X142430213Y-74849890D01*
X142279890Y-75000213D01*
X142154951Y-75172179D01*
X142058444Y-75361585D01*
X141992753Y-75563759D01*
X141975186Y-75674672D01*
X141945256Y-75737806D01*
X141885945Y-75774737D01*
X141816082Y-75773739D01*
X141765032Y-75742954D01*
X134900292Y-68878213D01*
X134900288Y-68878210D01*
X134769185Y-68790609D01*
X134769172Y-68790602D01*
X134623501Y-68730264D01*
X134623489Y-68730261D01*
X134468845Y-68699500D01*
X134468842Y-68699500D01*
X93302940Y-68699500D01*
X93235901Y-68679815D01*
X93215259Y-68663181D01*
X92728150Y-68176072D01*
X92694665Y-68114749D01*
X92699649Y-68045057D01*
X92741521Y-67989124D01*
X92796433Y-67965918D01*
X92811368Y-67963553D01*
X93035992Y-67890568D01*
X93246433Y-67783343D01*
X93437510Y-67644517D01*
X93604517Y-67477510D01*
X93629682Y-67442872D01*
X93685011Y-67400207D01*
X93754625Y-67394228D01*
X93816420Y-67426833D01*
X93830315Y-67442870D01*
X93855483Y-67477510D01*
X94022490Y-67644517D01*
X94213567Y-67783343D01*
X94312991Y-67834002D01*
X94424003Y-67890566D01*
X94424005Y-67890566D01*
X94424008Y-67890568D01*
X94544412Y-67929689D01*
X94648631Y-67963553D01*
X94881903Y-68000500D01*
X94881908Y-68000500D01*
X95118097Y-68000500D01*
X95351368Y-67963553D01*
X95352870Y-67963065D01*
X95575992Y-67890568D01*
X95786433Y-67783343D01*
X95977510Y-67644517D01*
X96144517Y-67477510D01*
X96283343Y-67286433D01*
X96390568Y-67075992D01*
X96463553Y-66851368D01*
X96476414Y-66770166D01*
X96500500Y-66618097D01*
X96500500Y-66381902D01*
X96463553Y-66148631D01*
X96390566Y-65924003D01*
X96283342Y-65713566D01*
X96223277Y-65630894D01*
X96144517Y-65522490D01*
X95977510Y-65355483D01*
X95786433Y-65216657D01*
X95575996Y-65109433D01*
X95351368Y-65036446D01*
X95118097Y-64999500D01*
X95118092Y-64999500D01*
X94881908Y-64999500D01*
X94881903Y-64999500D01*
X94648631Y-65036446D01*
X94424003Y-65109433D01*
X94213566Y-65216657D01*
X94130047Y-65277338D01*
X94022490Y-65355483D01*
X94022488Y-65355485D01*
X94022487Y-65355485D01*
X93855484Y-65522488D01*
X93830318Y-65557127D01*
X93774987Y-65599792D01*
X93705374Y-65605771D01*
X93643579Y-65573165D01*
X93629682Y-65557127D01*
X93604517Y-65522490D01*
X93437510Y-65355483D01*
X93246433Y-65216657D01*
X93035996Y-65109433D01*
X92811368Y-65036446D01*
X92578097Y-64999500D01*
X92578092Y-64999500D01*
X92341908Y-64999500D01*
X92341903Y-64999500D01*
X92108631Y-65036446D01*
X91884003Y-65109433D01*
X91673566Y-65216657D01*
X91590047Y-65277338D01*
X91482490Y-65355483D01*
X91482488Y-65355485D01*
X91482487Y-65355485D01*
X91315484Y-65522488D01*
X91290318Y-65557127D01*
X91234987Y-65599792D01*
X91165374Y-65605771D01*
X91103579Y-65573165D01*
X91089682Y-65557127D01*
X91064517Y-65522490D01*
X90897510Y-65355483D01*
X90706433Y-65216657D01*
X90495996Y-65109433D01*
X90271368Y-65036446D01*
X90038097Y-64999500D01*
X90038092Y-64999500D01*
X89801908Y-64999500D01*
X89801903Y-64999500D01*
X89568631Y-65036446D01*
X89344003Y-65109433D01*
X89133566Y-65216657D01*
X89050047Y-65277338D01*
X88942490Y-65355483D01*
X88942488Y-65355485D01*
X88942487Y-65355485D01*
X88775482Y-65522490D01*
X88732451Y-65581717D01*
X88677120Y-65624382D01*
X88622405Y-65632448D01*
X88602658Y-65630893D01*
X87813973Y-66419579D01*
X87790015Y-66330166D01*
X87732088Y-66229834D01*
X87650166Y-66147912D01*
X87549834Y-66089985D01*
X87460419Y-66066026D01*
X88249105Y-65277340D01*
X88249104Y-65277338D01*
X88166174Y-65217087D01*
X87955802Y-65109897D01*
X87731247Y-65036934D01*
X87731248Y-65036934D01*
X87498052Y-65000000D01*
X87261948Y-65000000D01*
X87028752Y-65036934D01*
X86804197Y-65109897D01*
X86593830Y-65217084D01*
X86510894Y-65277340D01*
X87299580Y-66066026D01*
X87210166Y-66089985D01*
X87109834Y-66147912D01*
X87027912Y-66229834D01*
X86969985Y-66330166D01*
X86946026Y-66419580D01*
X86157340Y-65630894D01*
X86097084Y-65713830D01*
X85989897Y-65924197D01*
X85916934Y-66148752D01*
X85880000Y-66381947D01*
X66000500Y-66381947D01*
X66000500Y-62378711D01*
X69649500Y-62378711D01*
X69649500Y-62621288D01*
X69681161Y-62861785D01*
X69743947Y-63096104D01*
X69836773Y-63320205D01*
X69836776Y-63320212D01*
X69958064Y-63530289D01*
X69958066Y-63530292D01*
X69958067Y-63530293D01*
X70105733Y-63722736D01*
X70105739Y-63722743D01*
X70277256Y-63894260D01*
X70277262Y-63894265D01*
X70469711Y-64041936D01*
X70679788Y-64163224D01*
X70903900Y-64256054D01*
X71138211Y-64318838D01*
X71318586Y-64342584D01*
X71378711Y-64350500D01*
X71378712Y-64350500D01*
X71621289Y-64350500D01*
X71669388Y-64344167D01*
X71861789Y-64318838D01*
X72096100Y-64256054D01*
X72320212Y-64163224D01*
X72530289Y-64041936D01*
X72722738Y-63894265D01*
X72894265Y-63722738D01*
X73041936Y-63530289D01*
X73163224Y-63320212D01*
X73256054Y-63096100D01*
X73318838Y-62861789D01*
X73350500Y-62621288D01*
X73350500Y-62378712D01*
X73350500Y-62378711D01*
X187649500Y-62378711D01*
X187649500Y-62621288D01*
X187681161Y-62861785D01*
X187743947Y-63096104D01*
X187836773Y-63320205D01*
X187836776Y-63320212D01*
X187958064Y-63530289D01*
X187958066Y-63530292D01*
X187958067Y-63530293D01*
X188105733Y-63722736D01*
X188105739Y-63722743D01*
X188277256Y-63894260D01*
X188277262Y-63894265D01*
X188469711Y-64041936D01*
X188679788Y-64163224D01*
X188903900Y-64256054D01*
X189138211Y-64318838D01*
X189318586Y-64342584D01*
X189378711Y-64350500D01*
X189378712Y-64350500D01*
X189621289Y-64350500D01*
X189669388Y-64344167D01*
X189861789Y-64318838D01*
X190096100Y-64256054D01*
X190320212Y-64163224D01*
X190530289Y-64041936D01*
X190722738Y-63894265D01*
X190894265Y-63722738D01*
X191041936Y-63530289D01*
X191163224Y-63320212D01*
X191256054Y-63096100D01*
X191318838Y-62861789D01*
X191350500Y-62621288D01*
X191350500Y-62378712D01*
X191318838Y-62138211D01*
X191256054Y-61903900D01*
X191163224Y-61679788D01*
X191041936Y-61469711D01*
X190894265Y-61277262D01*
X190894260Y-61277256D01*
X190722743Y-61105739D01*
X190722736Y-61105733D01*
X190530293Y-60958067D01*
X190530292Y-60958066D01*
X190530289Y-60958064D01*
X190320212Y-60836776D01*
X190320205Y-60836773D01*
X190096104Y-60743947D01*
X189861785Y-60681161D01*
X189621289Y-60649500D01*
X189621288Y-60649500D01*
X189378712Y-60649500D01*
X189378711Y-60649500D01*
X189138214Y-60681161D01*
X188903895Y-60743947D01*
X188679794Y-60836773D01*
X188679785Y-60836777D01*
X188469706Y-60958067D01*
X188277263Y-61105733D01*
X188277256Y-61105739D01*
X188105739Y-61277256D01*
X188105733Y-61277263D01*
X187958067Y-61469706D01*
X187836777Y-61679785D01*
X187836773Y-61679794D01*
X187743947Y-61903895D01*
X187681161Y-62138214D01*
X187649500Y-62378711D01*
X73350500Y-62378711D01*
X73318838Y-62138211D01*
X73256054Y-61903900D01*
X73163224Y-61679788D01*
X73041936Y-61469711D01*
X72894265Y-61277262D01*
X72894260Y-61277256D01*
X72722743Y-61105739D01*
X72722736Y-61105733D01*
X72530293Y-60958067D01*
X72530292Y-60958066D01*
X72530289Y-60958064D01*
X72320212Y-60836776D01*
X72320205Y-60836773D01*
X72096104Y-60743947D01*
X71861785Y-60681161D01*
X71621289Y-60649500D01*
X71621288Y-60649500D01*
X71378712Y-60649500D01*
X71378711Y-60649500D01*
X71138214Y-60681161D01*
X70903895Y-60743947D01*
X70679794Y-60836773D01*
X70679785Y-60836777D01*
X70469706Y-60958067D01*
X70277263Y-61105733D01*
X70277256Y-61105739D01*
X70105739Y-61277256D01*
X70105733Y-61277263D01*
X69958067Y-61469706D01*
X69836777Y-61679785D01*
X69836773Y-61679794D01*
X69743947Y-61903895D01*
X69681161Y-62138214D01*
X69649500Y-62378711D01*
X66000500Y-62378711D01*
X66000500Y-57124500D01*
X66020185Y-57057461D01*
X66072989Y-57011706D01*
X66124500Y-57000500D01*
X194875500Y-57000500D01*
X194942539Y-57020185D01*
G37*
%TD.AperFunction*%
%TD*%
M02*
