%TF.GenerationSoftware,KiCad,Pcbnew,10.0.0*%
%TF.CreationDate,2026-05-01T17:19:00+02:00*%
%TF.ProjectId,IHM2_2copperZones,49484d32-5f32-4636-9f70-7065725a6f6e,rev?*%
%TF.SameCoordinates,Original*%
%TF.FileFunction,Soldermask,Top*%
%TF.FilePolarity,Negative*%
%FSLAX46Y46*%
G04 Gerber Fmt 4.6, Leading zero omitted, Abs format (unit mm)*
G04 Created by KiCad (PCBNEW 10.0.0) date 2026-05-01 17:19:00*
%MOMM*%
%LPD*%
G01*
G04 APERTURE LIST*
G04 Aperture macros list*
%AMRoundRect*
0 Rectangle with rounded corners*
0 $1 Rounding radius*
0 $2 $3 $4 $5 $6 $7 $8 $9 X,Y pos of 4 corners*
0 Add a 4 corners polygon primitive as box body*
4,1,4,$2,$3,$4,$5,$6,$7,$8,$9,$2,$3,0*
0 Add four circle primitives for the rounded corners*
1,1,$1+$1,$2,$3*
1,1,$1+$1,$4,$5*
1,1,$1+$1,$6,$7*
1,1,$1+$1,$8,$9*
0 Add four rect primitives between the rounded corners*
20,1,$1+$1,$2,$3,$4,$5,0*
20,1,$1+$1,$4,$5,$6,$7,0*
20,1,$1+$1,$6,$7,$8,$9,0*
20,1,$1+$1,$8,$9,$2,$3,0*%
G04 Aperture macros list end*
%ADD10C,1.500000*%
%ADD11RoundRect,0.250000X-0.375000X-0.625000X0.375000X-0.625000X0.375000X0.625000X-0.375000X0.625000X0*%
%ADD12C,2.000000*%
%ADD13C,3.200000*%
%ADD14RoundRect,0.190500X1.079500X0.444500X-1.079500X0.444500X-1.079500X-0.444500X1.079500X-0.444500X0*%
%ADD15RoundRect,0.250000X0.312500X0.625000X-0.312500X0.625000X-0.312500X-0.625000X0.312500X-0.625000X0*%
%ADD16RoundRect,0.250000X-0.325000X-0.650000X0.325000X-0.650000X0.325000X0.650000X-0.325000X0.650000X0*%
%ADD17C,1.700000*%
%ADD18RoundRect,0.250000X-0.650000X0.325000X-0.650000X-0.325000X0.650000X-0.325000X0.650000X0.325000X0*%
%ADD19RoundRect,0.250000X0.650000X-0.325000X0.650000X0.325000X-0.650000X0.325000X-0.650000X-0.325000X0*%
G04 APERTURE END LIST*
D10*
%TO.C,J1*%
X185500000Y-84480000D03*
X185500000Y-87020000D03*
X185500000Y-89560000D03*
X185500000Y-92100000D03*
X185500000Y-94640000D03*
X185500000Y-97180000D03*
X185500000Y-99720000D03*
X185500000Y-102260000D03*
X185500000Y-104800000D03*
X185500000Y-107340000D03*
X185500000Y-109880000D03*
X185500000Y-112420000D03*
X185500000Y-114960000D03*
X185500000Y-117500000D03*
%TD*%
D11*
%TO.C,D4*%
X169100000Y-126500000D03*
X171900000Y-126500000D03*
%TD*%
D12*
%TO.C,U1*%
X87380000Y-66500000D03*
X89920000Y-66500000D03*
X92460000Y-66500000D03*
X95000000Y-66500000D03*
%TD*%
D13*
%TO.C,REF\u002A\u002A*%
X189500000Y-125500000D03*
%TD*%
D14*
%TO.C,SW1*%
X87960000Y-106500000D03*
X93040000Y-106500000D03*
X87960000Y-120500000D03*
X93080000Y-120500000D03*
%TD*%
D15*
%TO.C,R1*%
X183525000Y-76500000D03*
X180600000Y-76500000D03*
%TD*%
%TO.C,R2*%
X98025000Y-126500000D03*
X95100000Y-126500000D03*
%TD*%
%TO.C,R4*%
X179525000Y-126500000D03*
X176600000Y-126500000D03*
%TD*%
D11*
%TO.C,D1*%
X169100000Y-76500000D03*
X171900000Y-76500000D03*
%TD*%
%TO.C,D2*%
X89100000Y-126500000D03*
X91900000Y-126500000D03*
%TD*%
D13*
%TO.C,REF\u002A\u002A*%
X189500000Y-62500000D03*
%TD*%
%TO.C,REF\u002A\u002A*%
X71500000Y-62500000D03*
%TD*%
D16*
%TO.C,C1*%
X188025000Y-76500000D03*
X190975000Y-76500000D03*
%TD*%
D17*
%TO.C,SW4*%
X143310000Y-70800000D03*
X143310000Y-73340000D03*
X143310000Y-75880000D03*
X143310000Y-78420000D03*
X143310000Y-80960000D03*
%TD*%
D15*
%TO.C,R3*%
X139025000Y-126500000D03*
X136100000Y-126500000D03*
%TD*%
D14*
%TO.C,SW3*%
X167960000Y-106500000D03*
X173040000Y-106500000D03*
X167960000Y-120500000D03*
X173080000Y-120500000D03*
%TD*%
D16*
%TO.C,C2*%
X188025000Y-71000000D03*
X190975000Y-71000000D03*
%TD*%
D18*
%TO.C,C5*%
X95000000Y-97025000D03*
X95000000Y-99975000D03*
%TD*%
D19*
%TO.C,C4*%
X92000000Y-62500000D03*
X92000000Y-59550000D03*
%TD*%
D13*
%TO.C,REF\u002A\u002A*%
X71500000Y-125500000D03*
%TD*%
D18*
%TO.C,C6*%
X90000000Y-97000000D03*
X90000000Y-99950000D03*
%TD*%
D11*
%TO.C,D3*%
X129100000Y-126500000D03*
X131900000Y-126500000D03*
%TD*%
D14*
%TO.C,SW2*%
X127960000Y-106500000D03*
X133040000Y-106500000D03*
X127960000Y-120500000D03*
X133080000Y-120500000D03*
%TD*%
D19*
%TO.C,C3*%
X87000000Y-62450000D03*
X87000000Y-59500000D03*
%TD*%
M02*
