<svg id="svg" version="1.1" width="400" height="400" viewBox="0 0 400 400" xmlns="http://www.w3.org/2000/svg" xmlns:xlink="http://www.w3.org/1999/xlink"><g id="svgg"><path id="path0" d="M60.200 178.410 C 59.320 178.586,52.132 178.742,44.226 178.758 C 35.072 178.777,29.705 178.935,29.446 179.194 C 29.223 179.417,28.716 179.600,28.320 179.600 C 27.924 179.600,27.600 179.750,27.600 179.932 C 27.600 180.115,27.105 180.520,26.500 180.832 C 25.092 181.559,24.731 181.932,24.014 183.400 C 23.692 184.060,23.107 185.078,22.714 185.662 C 22.321 186.246,22.000 187.198,22.000 187.778 C 22.000 188.359,21.635 189.225,21.190 189.703 C 20.744 190.182,20.405 190.849,20.436 191.187 C 20.597 192.943,20.325 194.330,19.682 195.025 C 19.260 195.480,18.922 196.543,18.862 197.600 C 18.806 198.590,18.589 199.460,18.380 199.533 C 18.171 199.607,18.000 200.001,18.000 200.410 C 18.000 200.818,17.820 201.264,17.600 201.400 C 17.380 201.536,17.200 202.095,17.200 202.643 C 17.200 203.191,16.840 204.384,16.400 205.294 C 15.960 206.205,15.600 207.456,15.600 208.075 C 15.600 208.694,15.420 209.200,15.200 209.200 C 14.980 209.200,14.800 209.920,14.800 210.800 C 14.800 211.680,14.611 212.400,14.380 212.400 C 14.112 212.400,13.986 213.705,14.032 216.000 C 14.072 217.980,14.218 219.600,14.355 219.600 C 14.492 219.600,14.844 220.140,15.136 220.800 C 15.459 221.531,15.967 222.000,16.434 222.000 C 16.855 222.000,17.200 222.180,17.200 222.400 C 17.200 222.620,17.830 222.800,18.600 222.800 C 19.370 222.800,20.000 222.941,20.000 223.113 C 20.000 223.947,47.512 224.021,50.017 223.194 C 51.435 222.726,51.600 222.534,51.600 221.355 C 51.600 219.924,52.325 218.000,52.864 218.000 C 53.049 218.000,53.179 217.865,53.153 217.700 C 52.948 216.403,53.270 213.596,53.600 213.800 C 54.174 214.155,54.094 213.062,53.500 212.421 C 53.094 211.984,53.112 211.942,53.600 212.200 C 54.023 212.424,54.082 212.388,53.799 212.078 C 53.530 211.782,49.710 211.616,42.099 211.568 L 30.800 211.498 30.800 209.549 C 30.800 208.477,30.980 207.600,31.200 207.600 C 31.420 207.600,31.600 207.060,31.600 206.400 C 31.600 205.740,31.774 205.200,31.987 205.200 C 32.201 205.200,32.279 204.951,32.163 204.647 C 32.046 204.342,32.231 203.420,32.575 202.598 C 32.919 201.775,33.200 200.567,33.200 199.913 C 33.200 199.259,33.523 198.246,33.919 197.662 C 34.314 197.078,34.689 195.970,34.752 195.200 C 34.816 194.430,35.032 193.629,35.234 193.420 C 35.435 193.211,35.600 192.793,35.600 192.491 C 35.600 191.752,36.597 190.800,37.371 190.800 C 37.717 190.800,38.000 190.620,38.000 190.400 C 38.000 190.143,41.875 190.000,48.826 190.000 C 60.003 190.000,61.200 189.844,61.200 188.386 C 61.200 187.954,61.386 187.600,61.614 187.600 C 61.887 187.600,61.873 187.311,61.574 186.752 C 61.324 186.285,61.298 186.014,61.517 186.149 C 61.735 186.283,62.014 185.810,62.138 185.097 C 62.659 182.086,62.911 181.200,63.245 181.200 C 63.957 181.200,63.574 180.038,62.614 179.282 C 62.071 178.855,61.741 178.392,61.880 178.253 C 62.019 178.114,62.058 178.021,61.967 178.046 C 61.875 178.071,61.080 178.235,60.200 178.410 M75.000 178.400 C 74.864 178.620,74.144 178.800,73.400 178.800 C 72.656 178.800,71.936 178.980,71.800 179.200 C 71.664 179.420,71.193 179.600,70.753 179.600 C 70.313 179.600,70.064 179.780,70.200 180.000 C 70.429 180.371,69.960 180.549,69.000 180.456 C 68.780 180.434,67.970 181.305,67.200 182.390 C 66.430 183.475,65.665 184.371,65.500 184.381 C 65.335 184.392,65.200 184.745,65.200 185.167 C 65.200 185.588,65.017 185.994,64.793 186.069 C 64.417 186.194,64.289 186.700,63.718 190.300 C 63.605 191.015,63.373 191.600,63.202 191.600 C 62.901 191.600,62.619 192.653,62.129 195.600 C 62.001 196.370,61.784 197.090,61.646 197.200 C 61.243 197.522,60.400 200.179,60.400 201.128 C 60.400 201.608,60.220 202.000,60.000 202.000 C 59.780 202.000,59.600 202.540,59.600 203.200 C 59.600 203.860,59.420 204.400,59.200 204.400 C 58.980 204.400,58.800 204.942,58.800 205.605 C 58.800 206.268,58.642 207.123,58.449 207.505 C 57.922 208.548,57.200 210.971,57.200 211.695 C 57.200 212.046,57.001 212.400,56.758 212.481 C 56.479 212.574,56.323 213.859,56.337 215.946 L 56.359 219.264 58.127 221.032 C 59.553 222.458,60.169 222.800,61.314 222.800 C 62.095 222.800,62.793 222.972,62.867 223.182 C 63.072 223.771,89.910 223.850,90.497 223.263 C 90.751 223.009,91.266 222.800,91.639 222.800 C 92.557 222.800,95.498 221.100,95.444 220.601 C 95.420 220.381,95.760 220.201,96.199 220.201 C 96.638 220.200,96.999 220.020,97.000 219.800 C 97.000 219.580,97.406 218.832,97.901 218.138 C 98.395 217.444,98.800 216.589,98.800 216.238 C 98.800 215.887,98.941 215.600,99.113 215.600 C 99.285 215.600,99.466 215.113,99.515 214.518 C 99.564 213.922,99.784 213.256,100.002 213.038 C 100.221 212.819,100.400 212.141,100.400 211.532 C 100.400 210.923,100.760 209.783,101.200 209.000 C 101.640 208.217,102.000 207.052,102.000 206.411 C 102.000 205.771,102.180 205.136,102.400 205.000 C 102.620 204.864,102.800 204.324,102.800 203.800 C 102.800 203.276,102.980 202.736,103.200 202.600 C 103.420 202.464,103.600 201.913,103.600 201.376 C 103.600 200.839,103.780 200.400,104.000 200.400 C 104.220 200.400,104.400 199.860,104.400 199.200 C 104.400 198.540,104.543 198.000,104.718 198.000 C 104.893 198.000,105.081 197.325,105.136 196.500 C 105.190 195.675,105.407 194.940,105.618 194.867 C 105.828 194.793,106.000 194.208,106.000 193.567 C 106.000 192.925,106.180 192.400,106.400 192.400 C 106.620 192.400,106.800 191.871,106.800 191.224 C 106.800 190.577,106.980 189.936,107.200 189.800 C 107.420 189.664,107.600 189.034,107.600 188.400 C 107.600 187.766,107.788 187.131,108.018 186.989 C 108.720 186.555,108.349 182.878,107.528 182.135 C 107.128 181.773,106.800 181.250,106.800 180.974 C 106.800 180.384,103.705 178.800,102.554 178.800 C 102.117 178.800,101.537 178.577,101.263 178.303 C 100.868 177.908,100.690 177.928,100.389 178.403 C 100.138 178.802,100.010 178.834,100.006 178.500 C 99.998 177.831,77.970 177.774,76.725 178.440 C 76.128 178.760,75.978 178.760,76.175 178.440 C 76.327 178.195,76.182 178.000,75.847 178.000 C 75.517 178.000,75.136 178.180,75.000 178.400 M170.006 178.300 C 170.002 178.626,169.365 178.800,168.176 178.800 C 166.900 178.800,166.438 178.939,166.638 179.262 C 166.815 179.548,166.748 179.615,166.463 179.439 C 165.980 179.140,163.600 180.343,163.600 180.886 C 163.600 181.059,163.324 181.200,162.987 181.200 C 162.651 181.200,162.258 181.515,162.115 181.900 C 161.972 182.285,161.528 182.891,161.128 183.247 C 160.727 183.603,160.400 184.188,160.400 184.547 C 160.400 184.906,160.241 185.200,160.047 185.200 C 159.680 185.200,159.249 186.280,158.932 187.993 C 158.831 188.538,158.611 189.078,158.445 189.193 C 157.923 189.549,157.521 190.924,157.329 193.000 C 157.228 194.100,156.977 195.060,156.773 195.133 C 156.568 195.207,156.400 195.882,156.400 196.633 C 156.400 197.385,156.220 198.000,156.000 198.000 C 155.780 198.000,155.600 198.529,155.600 199.176 C 155.600 199.823,155.420 200.464,155.200 200.600 C 154.980 200.736,154.800 201.287,154.800 201.824 C 154.800 202.361,154.609 202.800,154.376 202.800 C 154.143 202.800,154.048 202.953,154.164 203.141 C 154.280 203.329,154.116 203.824,153.800 204.241 C 153.484 204.658,153.220 205.527,153.213 206.172 C 153.200 207.356,152.595 209.619,151.951 210.895 C 151.758 211.277,151.600 212.042,151.600 212.595 C 151.600 213.148,151.441 213.600,151.246 213.600 C 150.523 213.600,150.267 218.113,150.962 218.621 C 151.313 218.878,151.600 219.340,151.600 219.647 C 151.600 220.852,154.341 222.800,156.037 222.800 C 156.954 222.800,157.546 222.964,157.412 223.181 C 157.265 223.418,162.443 223.572,171.218 223.590 C 182.485 223.613,185.198 223.518,184.953 223.109 C 184.764 222.796,184.936 222.830,185.400 223.200 C 185.839 223.550,186.028 223.591,185.853 223.300 C 185.635 222.937,185.944 222.800,186.976 222.800 C 187.759 222.800,188.400 222.620,188.400 222.400 C 188.400 222.180,188.625 221.998,188.900 221.996 C 189.663 221.989,193.200 218.574,193.200 217.843 C 193.200 217.490,193.380 217.200,193.600 217.200 C 193.820 217.200,194.000 216.851,194.000 216.424 C 194.000 215.997,194.190 215.530,194.421 215.387 C 194.653 215.244,194.767 214.918,194.675 214.663 C 194.583 214.409,194.700 213.840,194.934 213.400 C 195.169 212.960,195.415 212.240,195.481 211.800 C 195.596 211.041,196.061 209.850,196.847 208.305 C 197.041 207.923,197.200 207.169,197.200 206.629 C 197.200 206.089,197.380 205.536,197.600 205.400 C 197.820 205.264,198.000 204.623,198.000 203.976 C 198.000 203.329,198.180 202.800,198.400 202.800 C 198.620 202.800,198.800 202.170,198.800 201.400 C 198.800 200.630,198.980 200.000,199.200 200.000 C 199.420 200.000,199.600 199.550,199.600 199.000 C 199.600 198.450,199.780 198.000,200.000 198.000 C 200.220 198.000,200.400 197.280,200.400 196.400 C 200.400 195.520,200.580 194.800,200.800 194.800 C 201.020 194.800,201.200 194.361,201.200 193.824 C 201.200 193.287,201.380 192.736,201.600 192.600 C 201.820 192.464,202.000 191.654,202.000 190.800 C 202.000 189.946,202.180 189.136,202.400 189.000 C 203.071 188.586,202.898 182.441,202.196 181.739 C 201.864 181.407,201.712 180.942,201.858 180.706 C 202.008 180.463,201.937 180.392,201.694 180.542 C 201.458 180.688,200.993 180.536,200.661 180.204 C 200.329 179.872,199.864 179.600,199.629 179.600 C 199.393 179.600,199.200 179.420,199.200 179.200 C 199.200 178.980,198.379 178.800,197.376 178.800 C 196.373 178.800,195.654 178.636,195.778 178.435 C 196.039 178.013,195.234 178.076,194.500 178.535 C 194.225 178.707,194.000 178.667,194.000 178.447 C 194.000 178.190,189.983 178.034,182.800 178.012 C 175.381 177.990,171.600 178.117,171.600 178.389 C 171.600 178.886,170.715 178.757,170.306 178.200 C 170.124 177.952,170.010 177.990,170.006 178.300 M214.000 178.280 C 214.000 178.495,213.415 178.623,212.700 178.565 C 208.449 178.216,206.800 179.261,206.800 182.305 C 206.800 182.771,206.620 183.264,206.400 183.400 C 206.180 183.536,206.000 184.087,206.000 184.624 C 206.000 185.161,205.812 185.600,205.582 185.600 C 205.353 185.600,205.201 185.825,205.246 186.100 C 205.290 186.375,205.194 186.902,205.031 187.271 C 204.054 189.496,204.629 189.795,210.000 189.862 C 216.842 189.946,216.560 189.917,216.123 190.500 C 215.917 190.775,215.698 191.717,215.636 192.592 C 215.574 193.468,215.145 194.716,214.683 195.365 C 214.221 196.014,214.058 196.411,214.321 196.249 C 214.585 196.086,214.800 196.143,214.800 196.376 C 214.800 196.609,214.620 196.800,214.400 196.800 C 214.180 196.800,214.000 197.430,214.000 198.200 C 214.000 198.970,213.820 199.600,213.600 199.600 C 213.380 199.600,213.200 199.924,213.200 200.320 C 213.200 200.716,212.975 201.282,212.700 201.579 C 212.300 202.010,212.300 202.061,212.700 201.835 C 213.402 201.439,213.322 201.897,212.475 203.138 C 212.076 203.722,211.715 204.740,211.671 205.400 C 211.628 206.060,211.415 206.660,211.197 206.733 C 210.978 206.807,210.800 207.291,210.800 207.810 C 210.800 208.328,210.620 208.864,210.400 209.000 C 210.180 209.136,210.000 209.957,210.000 210.824 C 210.000 211.691,209.820 212.400,209.600 212.400 C 209.380 212.400,209.200 212.839,209.200 213.376 C 209.200 213.913,209.020 214.464,208.800 214.600 C 208.580 214.736,208.400 215.362,208.400 215.990 C 208.400 216.619,208.203 217.199,207.963 217.279 C 207.723 217.359,207.498 217.897,207.463 218.474 C 207.428 219.051,207.288 219.454,207.150 219.369 C 207.013 219.284,206.883 219.616,206.862 220.107 C 206.841 220.598,206.773 221.360,206.712 221.800 C 206.646 222.270,206.807 222.559,207.100 222.500 C 207.375 222.445,207.600 222.670,207.600 223.000 C 207.600 223.330,207.791 223.600,208.024 223.600 C 208.257 223.600,208.312 223.375,208.147 223.100 C 207.921 222.725,207.990 222.706,208.423 223.025 C 208.748 223.264,211.504 223.501,214.724 223.565 C 220.963 223.691,222.000 223.377,222.000 221.362 C 222.000 220.859,222.180 220.336,222.400 220.200 C 222.620 220.064,222.800 219.153,222.800 218.176 C 222.800 217.199,222.980 216.400,223.200 216.400 C 223.420 216.400,223.600 216.040,223.600 215.600 C 223.600 215.160,223.780 214.800,224.000 214.800 C 224.220 214.800,224.400 214.080,224.400 213.200 C 224.400 212.320,224.580 211.600,224.800 211.600 C 225.020 211.600,225.200 211.150,225.200 210.600 C 225.200 210.050,225.380 209.600,225.600 209.600 C 225.820 209.600,226.000 208.970,226.000 208.200 C 226.000 207.350,226.196 206.798,226.500 206.794 C 226.833 206.790,226.800 206.658,226.400 206.400 C 226.000 206.142,225.967 206.010,226.300 206.006 C 226.575 206.003,226.800 205.640,226.800 205.200 C 226.800 204.760,226.980 204.400,227.200 204.400 C 227.420 204.400,227.600 203.851,227.600 203.181 C 227.600 202.510,227.960 201.216,228.400 200.306 C 228.840 199.395,229.200 198.244,229.200 197.748 C 229.200 197.253,229.380 196.736,229.600 196.600 C 229.820 196.464,230.000 195.913,230.000 195.376 C 230.000 194.839,230.180 194.400,230.400 194.400 C 230.620 194.400,230.800 193.770,230.800 193.000 C 230.800 192.230,230.980 191.600,231.200 191.600 C 231.420 191.600,231.600 191.240,231.600 190.800 C 231.600 190.038,231.867 190.000,237.200 190.000 C 240.875 190.000,242.800 189.854,242.800 189.576 C 242.800 189.343,242.980 189.264,243.200 189.400 C 243.420 189.536,243.600 189.367,243.600 189.024 C 243.600 188.681,243.735 188.399,243.900 188.397 C 244.417 188.391,245.200 186.299,245.200 184.920 C 245.200 184.194,245.380 183.600,245.600 183.600 C 245.820 183.600,246.000 183.139,246.000 182.576 C 246.000 182.013,246.149 181.645,246.331 181.758 C 246.828 182.064,246.637 179.521,246.095 178.600 C 245.836 178.160,245.619 177.980,245.612 178.200 C 245.598 178.675,232.164 178.678,221.300 178.207 C 216.597 178.002,214.000 178.029,214.000 178.280 M316.990 178.416 C 316.859 178.627,316.133 178.800,315.376 178.800 C 314.619 178.800,314.000 178.980,314.000 179.200 C 314.000 179.420,313.707 179.600,313.348 179.600 C 312.644 179.600,308.400 183.731,308.400 184.417 C 308.400 184.646,308.040 185.220,307.600 185.692 C 307.160 186.164,306.800 186.864,306.800 187.247 C 306.800 187.630,306.508 188.235,306.151 188.592 C 305.692 189.051,305.568 189.648,305.727 190.629 C 305.851 191.393,305.813 191.932,305.643 191.827 C 305.473 191.721,305.333 192.261,305.333 193.026 C 305.333 193.937,305.035 194.695,304.467 195.224 C 303.831 195.816,303.600 196.501,303.600 197.792 C 303.600 198.760,303.443 199.650,303.252 199.768 C 302.901 199.985,302.442 201.602,302.115 203.779 C 302.017 204.427,301.654 205.165,301.307 205.419 C 300.845 205.757,300.739 206.268,300.911 207.331 C 301.070 208.310,300.999 208.753,300.692 208.691 C 300.441 208.641,300.190 209.140,300.134 209.800 C 299.946 212.015,299.515 214.000,299.222 214.000 C 298.049 214.000,299.197 220.902,300.394 221.050 C 300.617 221.078,301.070 221.123,301.400 221.150 C 301.730 221.178,301.979 221.335,301.953 221.500 C 301.803 222.446,302.122 222.800,303.120 222.800 C 303.736 222.800,304.482 223.025,304.779 223.300 C 305.210 223.700,305.261 223.700,305.035 223.300 C 304.880 223.025,304.907 222.800,305.096 222.800 C 305.285 222.800,305.666 223.025,305.942 223.300 C 306.685 224.040,328.572 223.882,329.499 223.131 C 329.972 222.747,330.070 222.739,329.853 223.100 C 329.664 223.415,329.784 223.600,330.176 223.600 C 330.519 223.600,330.800 223.420,330.800 223.200 C 330.800 222.980,331.340 222.800,332.000 222.800 C 332.660 222.800,333.200 222.620,333.200 222.400 C 333.200 222.180,333.434 222.000,333.721 222.000 C 334.437 222.000,338.000 218.481,338.000 217.773 C 338.000 217.458,338.180 217.200,338.400 217.200 C 338.620 217.200,338.800 216.660,338.800 216.000 C 338.800 215.340,338.980 214.800,339.200 214.800 C 339.420 214.800,339.600 214.080,339.600 213.200 C 339.600 212.320,339.780 211.600,340.000 211.600 C 340.220 211.600,340.400 211.161,340.400 210.624 C 340.400 210.087,340.580 209.536,340.800 209.400 C 341.020 209.264,341.200 208.623,341.200 207.976 C 341.200 207.329,341.380 206.800,341.600 206.800 C 341.820 206.800,342.000 206.350,342.000 205.800 C 342.000 205.250,342.180 204.800,342.400 204.800 C 342.620 204.800,342.800 204.091,342.800 203.224 C 342.800 202.357,342.980 201.536,343.200 201.400 C 343.420 201.264,343.600 200.634,343.600 200.000 C 343.600 199.366,343.780 198.736,344.000 198.600 C 344.220 198.464,344.400 197.913,344.400 197.376 C 344.400 196.839,344.580 196.400,344.800 196.400 C 345.020 196.400,345.200 195.691,345.200 194.824 C 345.200 193.957,345.380 193.136,345.600 193.000 C 345.820 192.864,346.000 192.234,346.000 191.600 C 346.000 190.966,346.180 190.336,346.400 190.200 C 346.620 190.064,346.800 189.344,346.800 188.600 C 346.800 187.856,346.980 187.136,347.200 187.000 C 347.420 186.864,347.600 186.123,347.600 185.353 C 347.600 184.583,347.456 184.042,347.280 184.151 C 347.104 184.259,346.918 183.724,346.867 182.961 C 346.756 181.312,344.371 178.800,342.917 178.800 C 342.412 178.800,341.997 178.575,341.994 178.300 C 341.990 177.967,341.858 178.000,341.600 178.400 C 341.369 178.758,341.210 178.808,341.206 178.525 C 341.198 177.924,317.360 177.817,316.990 178.416 M352.681 178.253 C 352.542 178.391,351.747 178.574,350.914 178.658 C 350.081 178.742,349.212 178.839,348.982 178.872 C 348.507 178.942,348.445 180.579,348.900 181.033 C 349.065 181.198,349.197 181.528,349.194 181.767 C 349.191 182.005,349.013 181.930,348.800 181.600 C 348.486 181.115,348.411 181.172,348.406 181.900 C 348.403 182.395,348.580 182.800,348.800 182.800 C 349.020 182.800,349.200 183.160,349.200 183.600 C 349.200 184.040,349.335 184.401,349.500 184.403 C 349.665 184.404,349.846 185.349,349.903 186.503 C 349.960 187.656,350.185 188.660,350.403 188.733 C 350.621 188.807,350.800 189.446,350.800 190.153 C 350.800 190.861,350.975 191.615,351.189 191.829 C 351.404 192.044,351.612 193.153,351.652 194.294 C 351.693 195.436,351.840 196.299,351.979 196.213 C 352.118 196.127,352.262 196.806,352.299 197.722 C 352.335 198.639,352.553 199.451,352.783 199.528 C 353.012 199.604,353.200 200.372,353.200 201.233 C 353.200 202.185,353.388 202.800,353.680 202.800 C 354.024 202.800,354.038 202.922,353.727 203.233 C 353.417 203.543,353.420 203.998,353.738 204.841 C 354.073 205.729,354.061 206.210,353.691 206.803 C 353.421 207.235,353.200 208.132,353.200 208.795 C 353.200 209.458,353.020 210.000,352.800 210.000 C 352.580 210.000,352.400 210.540,352.400 211.200 C 352.400 211.860,352.220 212.400,352.000 212.400 C 351.780 212.400,351.600 213.109,351.600 213.976 C 351.600 214.843,351.420 215.664,351.200 215.800 C 350.980 215.936,350.800 216.397,350.800 216.824 C 350.800 217.251,350.620 217.600,350.400 217.600 C 350.180 217.600,350.000 218.230,350.000 219.000 C 350.000 219.770,349.814 220.400,349.586 220.400 C 349.359 220.400,349.744 220.959,350.443 221.642 C 351.449 222.626,351.597 222.956,351.156 223.235 C 350.789 223.468,351.279 223.603,352.600 223.633 C 356.805 223.727,361.806 223.515,361.999 223.234 C 362.109 223.073,362.541 222.816,362.957 222.661 C 363.374 222.507,363.598 222.265,363.456 222.123 C 363.314 221.981,363.514 221.504,363.899 221.064 C 364.285 220.623,364.362 220.402,364.070 220.573 C 363.650 220.820,363.629 220.711,363.970 220.042 C 364.207 219.579,364.580 218.842,364.800 218.405 C 365.020 217.968,365.200 217.058,365.200 216.382 C 365.200 215.664,365.366 215.256,365.600 215.400 C 365.831 215.543,366.000 215.169,366.000 214.518 C 366.000 213.897,366.360 212.404,366.800 211.200 C 367.240 209.996,367.600 208.694,367.600 208.306 C 367.600 207.918,367.780 207.600,368.000 207.600 C 368.220 207.600,368.400 207.317,368.400 206.971 C 368.400 206.626,368.672 206.071,369.004 205.739 C 369.336 205.407,369.505 204.970,369.380 204.768 C 369.255 204.565,369.523 204.400,369.976 204.400 C 370.512 204.400,370.800 204.140,370.800 203.658 C 370.800 203.250,371.309 202.485,371.931 201.958 C 372.553 201.431,373.177 200.685,373.318 200.300 C 373.459 199.915,373.851 199.600,374.187 199.600 C 374.524 199.600,374.800 199.357,374.800 199.059 C 374.800 198.762,375.326 197.968,375.969 197.295 C 376.612 196.622,377.032 195.966,376.903 195.836 C 376.773 195.706,376.977 195.600,377.357 195.600 C 377.737 195.600,377.936 195.420,377.800 195.200 C 377.664 194.980,377.833 194.800,378.176 194.800 C 378.519 194.800,378.800 194.552,378.800 194.248 C 378.800 193.945,379.520 192.955,380.400 192.048 C 381.280 191.141,382.000 190.168,382.000 189.886 C 382.000 189.603,382.540 189.054,383.200 188.664 C 383.860 188.274,384.400 187.695,384.400 187.377 C 384.400 187.060,384.580 186.800,384.800 186.800 C 385.020 186.800,385.200 186.513,385.200 186.163 C 385.200 185.812,385.560 185.431,386.000 185.316 C 386.440 185.201,386.800 184.807,386.800 184.442 C 386.800 184.076,387.160 183.517,387.600 183.200 C 388.040 182.883,388.400 182.303,388.400 181.912 C 388.400 181.467,388.700 181.200,389.200 181.200 C 390.310 181.200,390.244 179.772,389.100 179.053 C 387.145 177.825,374.448 178.332,374.102 179.652 C 373.995 180.063,373.792 180.400,373.651 180.400 C 373.510 180.400,373.173 180.895,372.902 181.500 C 372.631 182.105,371.736 183.320,370.915 184.200 C 370.093 185.080,369.408 185.890,369.393 186.000 C 369.288 186.786,367.863 188.798,367.020 189.350 C 366.459 189.718,366.000 190.374,366.000 190.809 C 366.000 191.244,365.820 191.600,365.600 191.600 C 365.380 191.600,365.200 190.826,365.200 189.880 C 365.200 188.934,365.030 187.989,364.822 187.780 C 364.615 187.571,364.390 186.258,364.324 184.863 C 364.257 183.467,364.067 182.241,363.901 182.139 C 363.736 182.037,363.600 181.243,363.600 180.376 L 363.600 178.800 361.700 178.749 C 360.655 178.721,358.234 178.681,356.320 178.660 C 354.406 178.639,353.056 178.485,353.320 178.317 C 353.621 178.126,353.639 178.010,353.367 178.006 C 353.128 178.003,352.820 178.114,352.681 178.253 M117.500 178.722 C 115.605 178.843,115.431 179.015,115.492 180.696 C 115.502 180.968,115.350 181.093,115.155 180.972 C 114.960 180.851,114.800 181.293,114.800 181.953 C 114.800 182.613,114.620 183.264,114.400 183.400 C 114.180 183.536,114.000 184.141,114.000 184.744 C 114.000 185.347,113.815 186.025,113.589 186.251 C 113.363 186.477,113.138 187.215,113.089 187.892 C 113.040 188.568,112.865 189.039,112.700 188.937 C 112.535 188.836,112.400 189.203,112.400 189.753 C 112.400 190.303,112.220 190.864,112.000 191.000 C 111.780 191.136,111.600 191.921,111.600 192.744 C 111.600 194.267,110.844 196.391,110.300 196.397 C 110.135 196.399,110.000 196.996,110.000 197.725 C 110.000 198.454,109.640 199.795,109.200 200.706 C 108.760 201.616,108.400 202.786,108.400 203.306 C 108.400 203.825,108.040 204.995,107.600 205.906 C 107.160 206.816,106.800 208.037,106.800 208.619 C 106.800 209.201,106.472 210.154,106.071 210.738 C 105.670 211.322,105.302 212.503,105.254 213.362 C 105.206 214.221,104.848 215.391,104.458 215.962 C 104.069 216.533,103.717 217.505,103.678 218.121 C 103.638 218.738,103.419 219.592,103.190 220.019 C 102.333 221.621,102.826 223.423,104.176 223.621 C 106.513 223.963,135.798 223.549,135.933 223.172 C 136.007 222.968,137.042 222.800,138.233 222.800 C 139.425 222.800,140.400 222.642,140.400 222.449 C 140.400 222.255,140.940 221.873,141.600 221.600 C 142.260 221.327,142.800 220.838,142.800 220.514 C 142.800 220.190,143.153 219.833,143.585 219.720 C 144.017 219.607,144.601 218.994,144.883 218.357 C 145.165 217.721,145.531 217.200,145.698 217.200 C 145.864 217.200,146.000 216.559,146.000 215.776 C 146.000 214.993,146.142 214.440,146.315 214.548 C 146.488 214.655,146.670 214.260,146.719 213.671 C 146.767 213.082,146.985 212.540,147.203 212.467 C 147.422 212.393,147.600 211.999,147.600 211.590 C 147.600 211.182,147.780 210.736,148.000 210.600 C 148.220 210.464,148.400 209.463,148.400 208.376 C 148.400 207.289,148.580 206.400,148.800 206.400 C 149.020 206.400,149.200 205.950,149.200 205.400 C 149.200 204.850,149.020 204.400,148.800 204.400 C 148.580 204.400,148.400 203.950,148.400 203.400 C 148.400 202.850,148.220 202.400,148.000 202.400 C 147.780 202.400,147.600 202.130,147.600 201.800 C 147.600 201.470,147.420 201.200,147.200 201.200 C 146.980 201.200,146.800 201.020,146.800 200.800 C 146.800 200.580,147.076 200.400,147.413 200.400 C 148.678 200.400,152.014 196.194,151.460 195.297 C 151.331 195.089,151.484 194.576,151.800 194.159 C 152.116 193.742,152.380 193.085,152.387 192.700 C 152.394 192.315,152.580 192.000,152.800 192.000 C 153.020 192.000,153.200 191.550,153.200 191.000 C 153.200 190.450,153.380 190.000,153.600 190.000 C 153.838 190.000,154.000 188.486,154.000 186.259 C 154.000 182.093,153.317 180.828,150.326 179.453 C 149.073 178.876,123.845 178.315,117.500 178.722 M269.283 179.027 C 268.797 179.367,268.400 179.995,268.400 180.423 C 268.400 180.850,268.258 181.200,268.085 181.200 C 267.912 181.200,267.733 181.515,267.688 181.900 C 267.642 182.285,267.559 182.960,267.503 183.400 C 267.446 183.840,267.174 184.345,266.898 184.521 C 266.602 184.710,266.492 185.228,266.630 185.778 C 266.759 186.292,266.670 186.833,266.432 186.980 C 266.195 187.127,266.000 187.687,266.000 188.224 C 266.000 188.761,265.820 189.200,265.600 189.200 C 265.380 189.200,265.200 190.010,265.200 191.000 C 265.200 191.990,265.020 192.800,264.800 192.800 C 264.580 192.800,264.400 193.239,264.400 193.776 C 264.400 194.313,264.220 194.864,264.000 195.000 C 263.780 195.136,263.600 195.657,263.600 196.157 C 263.600 196.657,263.475 197.191,263.323 197.344 C 263.171 197.496,262.986 198.017,262.912 198.502 C 262.838 198.986,262.602 199.558,262.389 199.771 C 262.175 199.985,262.000 200.739,262.000 201.447 C 262.000 202.154,261.798 202.801,261.550 202.883 C 261.303 202.966,261.100 203.518,261.100 204.109 C 261.100 204.701,260.943 205.088,260.750 204.969 C 260.558 204.850,260.400 205.473,260.400 206.353 C 260.400 207.233,260.220 208.064,260.000 208.200 C 259.780 208.336,259.600 208.797,259.600 209.224 C 259.600 209.651,259.420 210.000,259.200 210.000 C 258.980 210.000,258.800 210.542,258.800 211.205 C 258.800 211.868,258.620 212.768,258.400 213.205 C 258.180 213.642,257.820 214.358,257.600 214.795 C 257.380 215.232,257.200 216.132,257.200 216.795 C 257.200 217.458,257.020 218.000,256.800 218.000 C 256.580 218.000,256.400 218.641,256.400 219.424 C 256.400 220.271,256.238 220.747,256.000 220.600 C 255.759 220.451,255.600 220.980,255.600 221.930 L 255.600 223.508 268.282 223.805 C 281.298 224.110,286.485 223.944,286.728 223.215 C 286.804 222.987,287.752 222.800,288.833 222.800 C 289.915 222.800,290.800 222.620,290.800 222.400 C 290.800 222.180,291.025 221.999,291.300 221.998 C 291.918 221.996,295.600 218.701,295.600 218.151 C 295.600 217.931,295.938 217.388,296.351 216.944 C 296.765 216.501,297.205 215.432,297.329 214.569 C 297.744 211.682,298.088 210.400,298.445 210.400 C 298.640 210.400,298.800 209.781,298.800 209.024 C 298.800 208.267,298.980 207.536,299.200 207.400 C 299.735 207.069,299.714 204.400,299.176 204.400 C 298.943 204.400,298.869 204.212,299.011 203.982 C 299.153 203.753,299.048 203.298,298.777 202.973 C 298.507 202.647,298.400 202.267,298.540 202.127 C 298.679 201.988,298.602 201.643,298.369 201.362 C 298.050 200.978,298.448 200.358,299.972 198.865 C 301.087 197.773,302.000 196.602,302.000 196.263 C 302.000 195.924,302.180 195.536,302.400 195.400 C 302.620 195.264,302.800 194.544,302.800 193.800 C 302.800 193.056,302.980 192.336,303.200 192.200 C 303.420 192.064,303.600 191.524,303.600 191.000 C 303.600 190.476,303.780 189.936,304.000 189.800 C 304.220 189.664,304.400 189.023,304.400 188.376 C 304.400 187.705,304.615 187.197,304.900 187.194 C 305.232 187.190,305.199 187.060,304.800 186.806 C 304.292 186.483,304.282 186.293,304.730 185.570 C 305.021 185.101,305.066 184.836,304.830 184.982 C 304.591 185.129,304.400 184.959,304.400 184.600 C 304.400 184.244,304.565 184.055,304.766 184.179 C 304.968 184.304,304.928 183.864,304.679 183.203 C 304.429 182.541,304.084 182.000,303.912 182.000 C 303.741 182.000,303.600 181.640,303.600 181.200 C 303.600 180.667,303.333 180.400,302.800 180.400 C 302.360 180.400,302.000 180.220,302.000 180.000 C 302.000 179.780,301.655 179.600,301.233 179.600 C 300.812 179.600,300.392 179.375,300.300 179.100 C 300.023 178.268,270.465 178.199,269.283 179.027 M90.217 190.372 C 90.091 190.577,90.170 190.858,90.393 190.996 C 90.940 191.334,90.913 193.483,90.357 193.826 C 90.049 194.017,90.079 194.204,90.457 194.444 C 90.857 194.697,90.868 194.789,90.500 194.794 C 90.225 194.797,90.000 195.261,90.000 195.824 C 90.000 196.495,89.841 196.749,89.538 196.562 C 89.250 196.384,89.185 196.452,89.365 196.743 C 89.524 197.000,89.385 197.748,89.057 198.405 C 88.730 199.062,88.628 199.600,88.831 199.600 C 89.034 199.600,89.200 199.791,89.200 200.024 C 89.200 200.257,89.020 200.336,88.800 200.200 C 88.580 200.064,88.400 200.313,88.400 200.753 C 88.400 201.193,88.220 201.664,88.000 201.800 C 87.780 201.936,87.600 202.631,87.600 203.344 C 87.600 204.703,86.814 206.792,86.300 206.797 C 86.135 206.799,86.000 207.438,86.000 208.218 C 86.000 211.085,84.876 211.600,78.618 211.600 L 73.200 211.600 73.200 209.600 C 73.200 208.500,73.380 207.600,73.600 207.600 C 73.820 207.600,74.000 206.981,74.000 206.224 C 74.000 205.467,74.180 204.736,74.400 204.600 C 74.620 204.464,74.800 204.001,74.800 203.571 C 74.800 203.141,74.967 202.477,75.171 202.095 C 75.724 201.059,76.134 199.886,76.217 199.107 C 76.257 198.726,76.459 198.186,76.666 197.907 C 76.873 197.628,77.095 196.770,77.161 196.000 C 77.227 195.230,77.442 194.297,77.640 193.926 C 77.838 193.556,78.000 192.785,78.000 192.214 C 78.000 191.573,78.269 191.092,78.700 190.959 C 79.085 190.840,79.670 190.586,80.000 190.395 C 80.823 189.918,90.511 189.897,90.217 190.372 M137.592 190.985 C 138.065 191.869,138.008 192.113,137.039 193.385 L 135.959 194.800 131.580 194.860 C 129.171 194.893,126.975 194.938,126.700 194.960 C 126.425 194.982,126.142 194.595,126.072 194.100 C 126.002 193.605,126.108 193.200,126.308 193.200 C 126.508 193.200,126.910 192.480,127.200 191.600 L 127.728 190.000 132.396 190.000 C 136.947 190.000,137.078 190.025,137.592 190.985 M185.701 191.554 C 185.929 192.437,185.903 193.057,185.626 193.334 C 185.391 193.569,185.200 194.354,185.200 195.080 C 185.200 195.806,185.020 196.400,184.800 196.400 C 184.580 196.400,184.400 197.030,184.400 197.800 C 184.400 198.570,184.220 199.200,184.000 199.200 C 183.780 199.200,183.600 199.740,183.600 200.400 C 183.600 201.060,183.420 201.600,183.200 201.600 C 182.980 201.600,182.800 202.129,182.800 202.776 C 182.800 203.423,182.620 204.064,182.400 204.200 C 182.180 204.336,182.000 204.966,182.000 205.600 C 182.000 206.234,181.817 206.866,181.593 207.004 C 181.370 207.142,181.274 207.396,181.381 207.569 C 181.487 207.741,181.316 208.224,181.000 208.641 C 180.684 209.058,180.420 209.638,180.413 209.929 C 180.378 211.360,179.374 211.600,173.429 211.600 L 167.600 211.600 167.600 210.424 C 167.600 209.777,167.760 209.148,167.956 209.027 C 168.294 208.818,168.585 207.526,168.997 204.403 C 169.099 203.635,169.366 202.945,169.591 202.870 C 169.816 202.795,170.000 202.399,170.000 201.990 C 170.000 201.582,170.180 201.136,170.400 201.000 C 170.620 200.864,170.800 200.311,170.800 199.771 C 170.800 199.231,170.959 198.477,171.153 198.095 C 172.120 196.195,172.458 195.281,172.385 194.765 C 172.198 193.438,172.483 192.811,173.900 191.434 L 175.400 189.978 180.375 190.089 L 185.350 190.200 185.701 191.554 M289.200 191.904 C 289.200 193.334,289.013 193.924,288.447 194.278 C 287.843 194.655,281.523 195.048,279.300 194.845 C 278.707 194.792,278.622 192.557,279.200 192.200 C 279.420 192.064,279.600 191.513,279.600 190.976 L 279.600 190.000 284.400 190.000 L 289.200 190.000 289.200 191.904 M331.504 190.617 C 332.139 191.062,332.293 191.426,332.055 191.917 C 331.873 192.293,331.554 192.960,331.344 193.400 C 331.135 193.840,330.911 194.920,330.846 195.800 C 330.782 196.680,330.565 197.460,330.364 197.533 C 330.164 197.607,330.000 198.102,330.000 198.633 C 330.000 199.165,329.820 199.600,329.600 199.600 C 329.380 199.600,329.200 199.949,329.200 200.376 C 329.200 200.803,329.020 201.264,328.800 201.400 C 328.580 201.536,328.400 202.076,328.400 202.600 C 328.400 203.124,328.201 203.676,327.957 203.826 C 327.649 204.017,327.679 204.204,328.057 204.444 C 328.457 204.697,328.468 204.789,328.100 204.794 C 327.825 204.797,327.600 205.239,327.600 205.776 C 327.600 206.313,327.420 206.864,327.200 207.000 C 326.980 207.136,326.800 207.659,326.800 208.162 C 326.800 208.665,326.517 209.645,326.171 210.339 L 325.541 211.600 320.620 211.600 C 315.162 211.600,314.487 211.325,314.968 209.302 C 315.113 208.696,315.303 207.754,315.390 207.208 C 315.478 206.663,315.741 206.153,315.975 206.075 C 316.209 205.997,316.400 205.498,316.400 204.967 C 316.400 204.435,316.545 204.000,316.722 204.000 C 316.899 204.000,317.088 203.235,317.142 202.300 C 317.196 201.365,317.411 200.540,317.620 200.467 C 317.829 200.393,318.000 199.898,318.000 199.367 C 318.000 198.835,318.180 198.400,318.400 198.400 C 318.620 198.400,318.800 197.781,318.800 197.024 C 318.800 196.267,318.980 195.536,319.200 195.400 C 319.420 195.264,319.600 194.608,319.600 193.942 C 319.600 193.120,320.017 192.298,320.900 191.382 L 322.200 190.032 326.411 190.016 C 329.580 190.004,330.840 190.153,331.504 190.617 M237.600 197.525 C 237.050 198.116,236.537 199.140,236.459 199.800 C 236.382 200.460,236.112 201.132,235.859 201.294 C 235.547 201.494,235.592 201.594,236.000 201.607 C 236.471 201.621,236.441 201.746,235.860 202.186 C 235.453 202.494,235.243 202.947,235.394 203.191 C 235.545 203.435,235.428 203.932,235.134 204.294 C 234.684 204.850,234.688 204.900,235.158 204.617 C 235.594 204.354,235.672 204.509,235.516 205.328 C 235.406 205.904,235.470 206.281,235.658 206.164 C 235.846 206.048,236.000 206.149,236.000 206.390 C 236.000 206.693,238.568 206.814,244.400 206.784 C 249.260 206.759,252.800 206.585,252.800 206.371 C 252.800 206.167,253.149 206.000,253.576 206.000 C 254.003 206.000,254.481 205.792,254.638 205.538 C 254.821 205.242,254.747 205.185,254.432 205.380 C 253.847 205.742,254.754 203.977,255.386 203.523 C 255.598 203.371,255.743 202.511,255.707 201.613 C 255.669 200.669,255.802 200.078,256.021 200.213 C 256.229 200.342,256.400 200.077,256.400 199.624 C 256.400 199.171,256.580 198.800,256.800 198.800 C 257.020 198.800,257.200 198.440,257.200 198.000 C 257.200 197.560,257.020 197.200,256.800 197.200 C 256.580 197.200,256.400 197.481,256.400 197.824 C 256.400 198.167,256.215 198.333,255.989 198.193 C 255.764 198.054,255.629 197.638,255.689 197.270 C 255.790 196.663,254.996 196.593,247.200 196.525 L 238.600 196.449 237.600 197.525 M133.716 207.600 C 133.831 208.040,133.762 208.400,133.563 208.400 C 133.363 208.400,133.200 208.625,133.200 208.900 C 133.198 210.944,131.509 211.600,126.253 211.600 C 121.101 211.600,119.887 211.046,121.500 209.433 C 121.665 209.268,121.800 208.976,121.800 208.783 C 121.800 206.679,133.180 205.549,133.716 207.600 M284.501 208.598 C 284.344 211.113,283.546 211.472,277.922 211.560 C 273.284 211.633,273.165 211.614,273.577 210.844 C 273.809 210.409,274.000 209.681,274.000 209.226 C 274.000 208.772,274.180 208.400,274.400 208.400 C 274.620 208.400,274.800 208.034,274.800 207.588 C 274.800 206.809,275.005 206.780,279.700 206.888 L 284.600 207.000 284.501 208.598 " stroke="none" fill="#0541a4" fill-rule="evenodd"></path><path id="path1" d="M159.500 49.965 C 158.534 50.284,157.993 51.416,158.050 53.000 C 158.324 60.609,157.932 91.200,157.560 91.200 C 157.131 91.200,154.893 92.102,153.505 92.834 C 153.123 93.035,152.493 93.204,152.105 93.209 C 151.717 93.214,150.950 93.570,150.400 94.000 C 149.850 94.430,149.096 94.786,148.724 94.791 C 148.352 94.796,147.936 94.980,147.800 95.200 C 147.664 95.420,147.203 95.600,146.776 95.600 C 146.349 95.600,146.000 95.780,146.000 96.000 C 146.000 96.220,145.640 96.400,145.200 96.400 C 144.760 96.400,144.400 96.580,144.400 96.800 C 144.400 97.020,144.040 97.200,143.600 97.200 C 143.160 97.200,142.800 97.380,142.800 97.600 C 142.800 97.820,142.455 98.000,142.033 98.000 C 141.612 98.000,141.207 98.135,141.133 98.300 C 141.013 98.570,138.911 99.778,136.503 100.960 C 136.010 101.202,135.605 101.535,135.603 101.700 C 135.601 101.865,135.410 102.000,135.178 102.000 C 134.946 102.000,133.696 102.720,132.400 103.600 C 131.104 104.480,129.869 105.200,129.655 105.200 C 129.442 105.200,129.207 105.335,129.133 105.500 C 128.933 105.950,125.902 108.216,125.100 108.514 C 124.715 108.658,124.400 109.051,124.400 109.387 C 124.400 109.724,124.112 110.000,123.760 110.000 C 123.409 110.000,122.617 110.540,122.000 111.200 C 121.383 111.860,120.691 112.400,120.460 112.400 C 120.000 112.400,105.207 127.032,105.189 127.506 C 105.182 127.668,104.462 128.603,103.589 129.586 C 102.715 130.568,102.000 131.538,102.000 131.742 C 102.000 131.946,101.460 132.629,100.800 133.260 C 100.140 133.891,99.600 134.636,99.600 134.915 C 99.600 135.195,99.240 135.683,98.800 136.000 C 98.360 136.317,98.000 136.857,98.000 137.200 C 98.000 137.543,97.640 138.083,97.200 138.400 C 96.760 138.717,96.400 139.214,96.400 139.505 C 96.400 139.796,96.040 140.420,95.600 140.892 C 95.160 141.364,94.800 141.987,94.800 142.275 C 94.800 142.564,94.641 142.800,94.447 142.800 C 94.252 142.800,93.993 143.115,93.871 143.500 C 93.654 144.185,92.396 146.404,92.000 146.800 C 91.522 147.278,90.800 148.839,90.800 149.395 C 90.800 149.728,90.620 150.000,90.400 150.000 C 90.180 150.000,90.000 150.360,90.000 150.800 C 90.000 151.240,89.820 151.600,89.600 151.600 C 89.380 151.600,89.200 151.960,89.200 152.400 C 89.200 152.840,89.020 153.200,88.800 153.200 C 88.580 153.200,88.400 153.560,88.400 154.000 C 88.400 154.440,88.220 154.800,88.000 154.800 C 87.780 154.800,87.600 155.155,87.600 155.588 C 87.600 156.021,87.240 157.017,86.800 157.800 C 86.360 158.583,86.000 159.557,86.000 159.963 C 86.000 160.370,85.722 160.933,85.382 161.215 C 85.042 161.497,84.856 161.969,84.969 162.264 C 85.082 162.559,85.001 162.800,84.787 162.800 C 84.574 162.800,84.400 163.340,84.400 164.000 C 84.400 164.660,84.220 165.200,84.000 165.200 C 83.780 165.200,83.600 165.549,83.600 165.976 C 83.600 166.403,83.420 166.864,83.200 167.000 C 82.980 167.136,82.800 167.921,82.800 168.744 C 82.800 169.567,82.605 170.435,82.366 170.674 C 82.128 170.912,81.993 171.533,82.066 172.054 L 82.200 173.000 104.448 173.103 C 124.981 173.199,126.739 173.154,127.248 172.527 C 127.725 171.939,127.718 171.895,127.200 172.202 C 126.870 172.397,127.185 171.885,127.900 171.064 C 128.615 170.244,129.200 169.291,129.200 168.948 C 129.200 168.604,129.572 167.801,130.027 167.162 C 130.482 166.523,130.707 165.994,130.527 165.987 C 130.347 165.980,130.470 165.755,130.800 165.487 C 131.130 165.219,131.655 164.505,131.968 163.900 C 132.280 163.295,132.685 162.800,132.868 162.800 C 133.050 162.800,133.200 162.480,133.200 162.088 C 133.200 161.697,133.560 161.117,134.000 160.800 C 134.440 160.483,134.800 159.995,134.800 159.715 C 134.800 159.436,135.340 158.691,136.000 158.060 C 136.660 157.429,137.200 156.738,137.200 156.523 C 137.200 156.309,137.735 155.608,138.389 154.967 C 139.043 154.325,139.583 153.569,139.589 153.287 C 139.595 153.006,139.915 152.656,140.300 152.510 C 140.930 152.271,142.249 150.994,144.624 148.326 C 145.580 147.251,148.718 144.675,149.361 144.437 C 149.602 144.348,150.091 143.943,150.447 143.537 C 150.803 143.132,151.271 142.800,151.488 142.800 C 151.704 142.800,152.446 142.260,153.137 141.600 C 153.828 140.940,154.664 140.400,154.996 140.400 C 155.328 140.400,155.600 140.220,155.600 140.000 C 155.600 139.780,155.864 139.600,156.186 139.600 C 156.508 139.600,156.965 139.240,157.200 138.800 C 157.435 138.360,158.032 138.000,158.526 138.000 C 159.019 138.000,159.683 137.640,160.000 137.200 C 160.317 136.760,160.771 136.400,161.009 136.400 C 161.675 136.400,163.593 135.437,163.597 135.100 C 163.599 134.935,163.943 134.800,164.362 134.800 C 165.021 134.800,166.189 134.314,169.295 132.750 C 169.677 132.557,170.352 132.400,170.795 132.400 C 171.238 132.400,171.600 132.220,171.600 132.000 C 171.600 131.780,172.140 131.600,172.800 131.600 C 173.460 131.600,174.000 131.420,174.000 131.200 C 174.000 130.980,174.529 130.800,175.176 130.800 C 175.823 130.800,176.464 130.620,176.600 130.400 C 176.736 130.180,177.467 130.000,178.224 130.000 C 178.981 130.000,179.600 129.820,179.600 129.600 C 179.600 129.380,180.399 129.200,181.376 129.200 C 182.353 129.200,183.264 129.020,183.400 128.800 C 183.536 128.580,184.411 128.400,185.344 128.400 C 186.277 128.400,187.228 128.212,187.457 127.983 C 188.011 127.429,212.011 127.451,212.565 128.005 C 212.782 128.222,213.723 128.400,214.656 128.400 C 215.589 128.400,216.464 128.580,216.600 128.800 C 216.736 129.020,217.636 129.200,218.600 129.200 C 219.564 129.200,220.464 129.380,220.600 129.600 C 220.736 129.820,221.366 130.000,222.000 130.000 C 222.634 130.000,223.264 130.180,223.400 130.400 C 223.536 130.620,224.177 130.800,224.824 130.800 C 225.471 130.800,226.000 130.980,226.000 131.200 C 226.000 131.420,226.439 131.600,226.976 131.600 C 227.513 131.600,228.064 131.780,228.200 132.000 C 228.336 132.220,228.876 132.400,229.400 132.400 C 229.924 132.400,230.464 132.580,230.600 132.800 C 230.736 133.020,231.197 133.200,231.624 133.200 C 232.051 133.200,232.400 133.380,232.400 133.600 C 232.400 133.820,232.672 134.000,233.005 134.000 C 233.580 134.000,233.990 134.168,236.100 135.270 C 236.595 135.528,237.720 136.113,238.600 136.570 C 239.480 137.026,240.290 137.490,240.400 137.600 C 240.796 137.996,243.015 139.254,243.700 139.471 C 244.085 139.593,244.400 139.852,244.400 140.047 C 244.400 140.241,244.632 140.400,244.916 140.400 C 245.200 140.400,246.228 141.120,247.200 142.000 C 248.172 142.880,249.120 143.600,249.306 143.600 C 249.491 143.600,250.219 144.139,250.922 144.798 C 251.625 145.457,252.348 145.997,252.528 145.998 C 253.026 146.001,262.799 156.039,262.804 156.552 C 262.806 156.798,263.346 157.425,264.004 157.945 C 264.662 158.465,265.200 159.060,265.200 159.267 C 265.200 159.474,265.920 160.704,266.800 162.000 C 267.680 163.296,268.400 164.546,268.400 164.778 C 268.400 165.010,268.580 165.200,268.800 165.200 C 269.020 165.200,269.200 165.436,269.200 165.725 C 269.200 166.013,269.560 166.636,270.000 167.108 C 270.440 167.580,270.816 168.199,270.836 168.483 C 270.856 168.767,271.359 169.900,271.954 171.000 L 273.035 173.000 293.618 173.200 C 316.729 173.425,317.200 173.409,317.200 172.438 C 317.200 172.065,317.420 171.540,317.690 171.270 C 318.077 170.883,318.077 170.615,317.690 169.995 C 317.420 169.564,317.200 168.974,317.200 168.685 C 317.200 167.921,316.255 166.007,315.876 166.003 C 315.698 166.001,315.663 165.822,315.797 165.604 C 315.932 165.387,315.783 164.622,315.468 163.904 C 315.152 163.187,314.675 161.970,314.407 161.200 C 314.139 160.430,313.733 159.350,313.506 158.800 C 313.279 158.250,312.916 157.350,312.700 156.800 C 312.261 155.683,311.878 154.919,310.762 152.933 C 310.343 152.186,310.000 151.236,310.000 150.821 C 310.000 150.406,309.865 150.007,309.700 149.933 C 309.430 149.813,308.222 147.711,307.040 145.303 C 306.798 144.810,306.465 144.405,306.300 144.403 C 306.135 144.401,306.000 144.040,306.000 143.600 C 306.000 143.160,305.820 142.800,305.600 142.800 C 305.380 142.800,305.200 142.564,305.200 142.275 C 305.200 141.987,304.840 141.364,304.400 140.892 C 303.960 140.420,303.600 139.796,303.600 139.505 C 303.600 139.214,303.240 138.717,302.800 138.400 C 302.360 138.083,302.000 137.546,302.000 137.208 C 302.000 136.869,301.640 136.368,301.200 136.093 C 300.760 135.818,300.400 135.325,300.400 134.997 C 300.400 134.668,300.209 134.400,299.976 134.400 C 299.743 134.400,299.650 134.243,299.769 134.050 C 299.888 133.858,299.538 133.365,298.992 132.955 C 298.447 132.546,298.000 132.021,298.000 131.791 C 298.000 131.560,297.285 130.568,296.411 129.586 C 295.538 128.603,294.818 127.681,294.811 127.535 C 294.805 127.389,293.208 125.656,291.262 123.684 C 289.316 121.712,287.611 119.806,287.474 119.449 C 287.337 119.092,287.048 118.800,286.832 118.800 C 286.616 118.800,285.215 117.583,283.719 116.095 C 282.224 114.608,280.370 112.949,279.600 112.409 C 278.830 111.870,277.518 110.747,276.685 109.914 C 275.851 109.081,274.906 108.400,274.585 108.400 C 274.263 108.400,274.000 108.220,274.000 108.000 C 274.000 107.780,273.757 107.600,273.459 107.600 C 273.162 107.600,272.354 107.060,271.663 106.400 C 270.972 105.740,270.142 105.200,269.818 105.200 C 269.493 105.200,269.056 104.878,268.845 104.484 C 268.634 104.090,267.953 103.506,267.331 103.185 C 266.709 102.864,266.110 102.511,266.000 102.401 C 265.606 102.005,263.387 100.746,262.700 100.529 C 262.315 100.407,262.000 100.148,262.000 99.953 C 262.000 99.759,261.584 99.600,261.075 99.600 C 260.567 99.600,259.764 99.240,259.292 98.800 C 258.820 98.360,258.156 98.000,257.817 98.000 C 257.478 98.000,257.199 97.865,257.197 97.700 C 257.193 97.341,255.256 96.400,254.520 96.400 C 254.234 96.400,254.000 96.264,254.000 96.098 C 254.000 95.931,253.415 95.558,252.700 95.267 C 251.985 94.977,250.708 94.393,249.862 93.970 C 249.016 93.546,247.981 93.200,247.562 93.200 C 247.143 93.200,246.800 93.020,246.800 92.800 C 246.800 92.580,246.558 92.400,246.263 92.400 C 245.968 92.400,244.933 91.981,243.963 91.468 L 242.200 90.536 242.096 70.454 C 242.016 54.912,241.880 50.330,241.496 50.187 C 240.878 49.957,160.187 49.738,159.500 49.965 M32.999 178.401 C 32.820 178.691,37.242 178.795,47.358 178.737 C 61.051 178.659,62.027 178.700,62.788 179.389 C 63.501 180.034,63.600 180.045,63.600 179.476 C 63.600 179.120,63.268 178.651,62.862 178.433 C 61.822 177.877,33.343 177.846,32.999 178.401 M116.643 178.330 C 116.531 178.512,123.225 178.685,131.520 178.715 C 140.624 178.747,146.283 178.628,145.800 178.413 C 144.789 177.962,116.919 177.884,116.643 178.330 M194.000 178.334 C 194.000 178.480,194.844 178.648,195.874 178.707 C 196.905 178.766,197.626 178.693,197.477 178.543 C 197.115 178.182,194.000 177.994,194.000 178.334 M208.400 178.340 C 208.400 178.526,209.660 178.661,211.199 178.640 C 212.739 178.618,213.999 178.465,213.999 178.300 C 214.000 178.135,212.740 178.000,211.200 178.000 C 209.660 178.000,208.400 178.153,208.400 178.340 M222.086 178.219 C 222.440 178.573,245.600 178.672,245.600 178.320 C 245.600 178.144,240.260 178.000,233.733 178.000 C 227.207 178.000,221.965 178.099,222.086 178.219 M268.962 178.862 L 268.200 179.724 269.206 179.078 C 270.089 178.510,271.917 178.442,284.292 178.516 C 292.036 178.562,298.064 178.478,297.686 178.328 C 295.615 177.508,269.734 177.988,268.962 178.862 M349.058 178.736 C 348.696 179.136,348.400 179.618,348.400 179.808 C 348.400 179.998,348.656 179.804,348.968 179.376 C 349.496 178.655,350.025 178.605,356.372 178.667 C 360.131 178.704,363.126 178.604,363.028 178.446 C 362.578 177.718,349.738 177.984,349.058 178.736 M375.452 178.315 C 375.345 178.489,378.154 178.577,381.694 178.512 C 386.946 178.415,388.302 178.506,389.065 179.006 C 390.045 179.648,390.344 179.304,389.520 178.480 C 388.972 177.932,375.785 177.778,375.452 178.315 M200.400 179.904 C 200.400 180.071,200.764 180.435,201.209 180.713 C 201.959 181.181,201.981 181.159,201.513 180.409 C 201.009 179.603,200.400 179.326,200.400 179.904 M309.874 181.924 C 309.063 182.754,308.400 183.569,308.400 183.734 C 308.400 183.899,309.120 183.276,310.001 182.351 C 310.881 181.425,311.544 180.611,311.475 180.541 C 311.405 180.472,310.685 181.094,309.874 181.924 M246.243 181.433 C 245.915 182.286,245.935 182.998,246.277 182.656 C 246.583 182.351,246.886 180.800,246.640 180.800 C 246.555 180.800,246.376 181.085,246.243 181.433 M62.800 182.067 C 62.800 182.543,62.925 182.808,63.078 182.655 C 63.511 182.223,63.571 181.200,63.165 181.200 C 62.964 181.200,62.800 181.590,62.800 182.067 M304.677 183.900 C 304.379 184.424,304.441 186.800,304.753 186.800 C 304.917 186.800,305.047 186.080,305.040 185.200 C 305.028 183.564,304.975 183.374,304.677 183.900 M154.054 185.600 C 154.054 187.180,154.107 187.290,154.488 186.500 C 154.800 185.853,154.800 185.347,154.488 184.700 C 154.107 183.910,154.054 184.020,154.054 185.600 M368.493 187.100 C 367.288 188.841,367.027 189.354,367.498 189.063 C 367.943 188.788,369.687 186.000,369.414 186.000 C 369.326 186.000,368.912 186.495,368.493 187.100 M243.600 189.024 C 243.600 189.367,243.420 189.536,243.200 189.400 C 242.980 189.264,242.800 189.343,242.800 189.576 C 242.800 190.284,243.545 190.050,244.000 189.200 C 244.290 188.658,244.295 188.400,244.014 188.400 C 243.786 188.400,243.600 188.681,243.600 189.024 M382.700 188.957 C 381.969 189.512,381.784 190.000,382.304 190.000 C 382.471 190.000,382.832 189.640,383.107 189.200 C 383.689 188.268,383.644 188.240,382.700 188.957 M331.084 191.200 C 331.298 192.018,331.662 192.205,332.130 191.737 C 332.421 191.446,331.684 190.400,331.188 190.400 C 331.016 190.400,330.969 190.760,331.084 191.200 M304.777 193.243 C 304.451 193.853,304.447 194.207,304.763 194.523 C 305.079 194.839,305.208 194.799,305.231 194.380 C 305.247 194.061,305.322 193.485,305.395 193.100 C 305.575 192.160,305.326 192.217,304.777 193.243 M111.092 193.842 C 110.931 194.002,110.800 194.409,110.800 194.747 C 110.800 195.197,110.918 195.242,111.245 194.915 C 111.490 194.670,111.621 194.263,111.537 194.010 C 111.452 193.757,111.252 193.681,111.092 193.842 M237.464 197.129 C 236.505 198.189,236.646 198.554,237.633 197.567 C 238.092 197.108,238.391 196.657,238.298 196.564 C 238.205 196.471,237.830 196.725,237.464 197.129 M255.708 197.220 C 255.677 197.640,255.819 198.088,256.025 198.216 C 256.231 198.343,256.400 198.087,256.400 197.647 C 256.400 196.604,255.784 196.223,255.708 197.220 M33.492 198.242 C 33.331 198.402,33.205 198.908,33.212 199.367 C 33.223 200.136,33.256 200.145,33.640 199.485 C 34.088 198.716,33.973 197.760,33.492 198.242 M198.806 200.900 C 198.811 201.628,198.886 201.685,199.200 201.200 C 199.701 200.424,199.701 200.000,199.200 200.000 C 198.980 200.000,198.803 200.405,198.806 200.900 M255.600 200.800 C 255.600 201.547,255.707 201.653,256.080 201.280 C 256.453 200.907,256.453 200.693,256.080 200.320 C 255.707 199.947,255.600 200.053,255.600 200.800 M298.400 202.300 C 298.400 202.549,298.592 202.872,298.827 203.017 C 299.062 203.162,299.158 203.533,299.040 203.840 C 298.922 204.148,298.999 204.400,299.213 204.400 C 299.426 204.400,299.594 204.175,299.587 203.900 C 299.571 203.267,298.400 201.688,298.400 202.300 M235.000 204.000 C 234.864 204.220,234.898 204.403,235.076 204.406 C 235.254 204.409,235.156 204.567,234.859 204.755 C 234.436 205.023,234.418 205.285,234.773 205.949 C 235.428 207.174,236.069 207.013,235.741 205.707 C 235.590 205.106,235.467 204.386,235.467 204.107 C 235.467 203.496,235.331 203.465,235.000 204.000 M254.353 205.100 C 254.327 205.265,254.327 205.535,254.353 205.700 C 254.379 205.865,254.040 206.000,253.600 206.000 C 253.160 206.000,252.800 206.180,252.800 206.400 C 252.800 207.303,254.493 206.410,254.636 205.432 C 254.687 205.084,254.655 204.800,254.565 204.800 C 254.474 204.800,254.379 204.935,254.353 205.100 M300.400 207.310 C 300.400 207.883,300.587 208.468,300.816 208.610 C 301.089 208.779,301.138 208.477,300.960 207.734 C 300.592 206.201,300.400 206.056,300.400 207.310 M57.492 208.642 C 57.331 208.802,57.205 209.308,57.212 209.767 C 57.223 210.536,57.256 210.545,57.640 209.885 C 58.088 209.116,57.973 208.160,57.492 208.642 M299.616 210.981 C 299.351 211.300,299.194 211.859,299.267 212.222 C 299.356 212.663,299.555 212.470,299.865 211.641 C 300.382 210.262,300.329 210.121,299.616 210.981 M297.488 212.933 C 297.042 214.066,297.115 214.645,297.638 214.122 C 297.878 213.882,298.008 213.351,297.926 212.942 C 297.782 212.226,297.766 212.226,297.488 212.933 M55.867 214.267 C 55.467 214.666,55.557 217.314,55.994 218.000 C 56.259 218.416,56.358 217.895,56.317 216.300 C 56.285 215.035,56.230 214.000,56.196 214.000 C 56.162 214.000,56.013 214.120,55.867 214.267 M298.446 216.500 C 298.495 218.682,298.652 218.472,298.897 215.900 C 298.975 215.075,298.896 214.400,298.720 214.400 C 298.544 214.400,298.421 215.345,298.446 216.500 M52.064 219.019 C 51.507 220.242,51.494 220.400,51.953 220.400 C 52.148 220.400,52.418 220.085,52.554 219.700 C 52.689 219.315,52.905 218.775,53.034 218.500 C 53.162 218.225,53.101 218.000,52.898 218.000 C 52.695 218.000,52.320 218.458,52.064 219.019 M56.850 220.300 C 57.610 221.269,59.338 222.796,59.496 222.637 C 59.650 222.483,56.817 219.600,56.511 219.600 C 56.396 219.600,56.549 219.915,56.850 220.300 M349.333 222.196 C 349.333 223.460,349.426 223.575,350.316 223.413 C 351.723 223.158,351.757 223.010,350.676 221.845 C 349.429 220.499,349.333 220.524,349.333 222.196 M362.700 222.703 C 362.315 222.789,362.000 223.025,362.000 223.229 C 362.000 223.740,363.093 223.697,363.416 223.173 C 363.754 222.628,363.573 222.509,362.700 222.703 M61.400 223.200 C 61.536 223.420,61.907 223.600,62.224 223.600 C 62.541 223.600,62.800 223.420,62.800 223.200 C 62.800 222.980,62.429 222.800,61.976 222.800 C 61.523 222.800,61.264 222.980,61.400 223.200 M136.000 223.197 C 136.000 223.416,136.355 223.541,136.790 223.474 C 138.042 223.283,138.241 222.800,137.067 222.800 C 136.480 222.800,136.000 222.979,136.000 223.197 M156.184 223.175 C 156.312 223.381,156.760 223.523,157.180 223.492 C 158.177 223.416,157.796 222.800,156.753 222.800 C 156.313 222.800,156.057 222.969,156.184 223.175 M286.800 223.165 C 286.800 223.571,287.823 223.511,288.255 223.078 C 288.408 222.925,288.143 222.800,287.667 222.800 C 287.190 222.800,286.800 222.964,286.800 223.165 M83.400 228.744 C 83.180 228.964,82.370 229.201,81.600 229.271 C 80.164 229.403,79.746 231.162,80.666 233.200 C 80.944 233.814,81.002 234.214,81.226 237.000 C 81.297 237.880,81.680 239.190,82.077 239.912 C 82.501 240.682,82.800 242.046,82.800 243.212 C 82.800 244.305,82.980 245.200,83.200 245.200 C 83.420 245.200,83.600 245.560,83.600 246.000 C 83.600 246.440,83.780 246.800,84.000 246.800 C 84.220 246.800,84.400 247.419,84.400 248.176 C 84.400 248.933,84.580 249.664,84.800 249.800 C 85.020 249.936,85.200 250.397,85.200 250.824 C 85.200 251.251,85.380 251.600,85.600 251.600 C 85.820 251.600,86.000 252.140,86.000 252.800 C 86.000 253.460,86.174 254.000,86.387 254.000 C 86.601 254.000,86.672 254.268,86.546 254.597 C 86.415 254.937,86.592 255.299,86.958 255.439 C 87.343 255.587,87.600 256.150,87.600 256.843 C 87.600 257.479,87.780 258.000,88.000 258.000 C 88.220 258.000,88.400 258.360,88.400 258.800 C 88.400 259.240,88.580 259.600,88.800 259.600 C 89.020 259.600,89.200 259.935,89.200 260.345 C 89.200 260.754,89.944 262.509,90.854 264.245 C 91.764 265.980,92.709 267.804,92.954 268.297 C 93.199 268.790,93.535 269.195,93.700 269.197 C 93.865 269.199,94.000 269.560,94.000 270.000 C 94.000 270.440,94.180 270.800,94.400 270.800 C 94.620 270.800,94.800 271.160,94.800 271.600 C 94.800 272.040,94.950 272.400,95.132 272.400 C 95.315 272.400,95.715 272.895,96.022 273.500 C 97.084 275.598,99.645 279.219,99.939 279.038 C 100.101 278.938,100.260 279.199,100.291 279.619 C 100.342 280.290,102.519 283.865,103.203 284.400 C 103.343 284.510,103.575 284.915,103.717 285.300 C 103.859 285.685,104.251 286.000,104.587 286.000 C 104.924 286.000,105.200 286.294,105.200 286.653 C 105.200 287.012,105.527 287.597,105.928 287.953 C 106.328 288.309,106.772 288.915,106.915 289.300 C 107.058 289.685,107.451 290.000,107.787 290.000 C 108.133 290.000,108.400 290.348,108.400 290.800 C 108.400 291.333,108.667 291.600,109.200 291.600 C 109.640 291.600,110.000 291.861,110.000 292.180 C 110.000 292.956,116.361 299.271,116.842 298.974 C 117.050 298.846,117.194 298.889,117.163 299.070 C 117.006 299.973,117.275 300.400,118.000 300.400 C 118.533 300.400,118.800 300.667,118.800 301.200 C 118.800 301.640,119.064 302.000,119.386 302.000 C 119.708 302.000,120.165 302.360,120.400 302.800 C 120.635 303.240,121.016 303.600,121.245 303.600 C 121.475 303.600,122.354 304.320,123.200 305.200 C 124.046 306.080,124.897 306.800,125.093 306.800 C 125.289 306.800,125.798 307.124,126.225 307.519 C 126.651 307.915,128.170 309.028,129.600 309.992 C 131.030 310.956,132.260 311.892,132.333 312.072 C 132.407 312.253,132.746 312.400,133.086 312.400 C 133.427 312.400,134.027 312.770,134.419 313.222 C 134.812 313.675,135.495 314.072,135.939 314.105 C 136.382 314.139,136.673 314.282,136.586 314.423 C 136.499 314.564,136.916 314.932,137.514 315.240 C 138.111 315.548,138.949 316.115,139.375 316.500 C 139.802 316.885,140.443 317.200,140.800 317.200 C 141.157 317.200,141.810 317.537,142.252 317.948 C 142.693 318.359,143.717 318.935,144.527 319.228 C 145.337 319.521,146.000 319.905,146.000 320.080 C 146.000 320.256,146.422 320.400,146.938 320.400 C 147.454 320.400,148.202 320.760,148.600 321.200 C 148.998 321.640,149.656 322.000,150.062 322.000 C 150.468 322.000,150.800 322.157,150.800 322.348 C 150.800 322.539,151.615 322.924,152.610 323.203 C 153.606 323.482,154.517 323.865,154.634 324.055 C 154.751 324.245,155.214 324.400,155.662 324.400 C 156.110 324.400,156.988 324.764,157.613 325.209 C 158.237 325.654,159.435 326.059,160.274 326.109 C 161.113 326.159,162.119 326.487,162.509 326.838 C 162.899 327.189,164.249 327.700,165.509 327.974 C 166.769 328.247,168.122 328.641,168.516 328.849 C 168.910 329.057,169.408 329.119,169.621 328.987 C 169.835 328.855,170.576 329.029,171.267 329.373 C 171.958 329.718,173.025 330.000,173.638 330.000 C 174.251 330.000,174.864 330.180,175.000 330.400 C 175.136 330.620,176.126 330.800,177.200 330.800 C 178.274 330.800,179.264 330.980,179.400 331.200 C 179.536 331.420,180.501 331.600,181.544 331.600 C 182.587 331.600,183.645 331.805,183.895 332.055 C 184.179 332.339,185.868 332.502,188.371 332.487 C 190.583 332.474,192.489 332.621,192.608 332.813 C 192.904 333.291,208.313 333.265,208.609 332.786 C 208.737 332.578,210.724 332.441,213.023 332.482 C 215.821 332.531,217.363 332.397,217.682 332.078 C 217.945 331.815,218.988 331.600,220.000 331.600 C 221.012 331.600,222.035 331.405,222.273 331.167 C 222.512 330.928,223.536 330.733,224.550 330.733 C 225.564 330.733,226.496 330.568,226.621 330.367 C 226.745 330.165,227.456 330.000,228.200 330.000 C 228.944 330.000,229.666 329.817,229.804 329.593 C 229.942 329.370,230.234 329.298,230.453 329.433 C 230.672 329.568,231.199 329.363,231.625 328.977 C 232.199 328.458,232.400 328.417,232.400 328.818 C 232.400 329.240,232.507 329.253,232.880 328.880 C 233.144 328.616,233.763 328.400,234.256 328.400 C 234.749 328.400,235.264 328.220,235.400 328.000 C 235.536 327.780,236.089 327.600,236.629 327.600 C 237.491 327.600,239.016 326.984,239.600 326.400 C 239.710 326.290,240.430 326.140,241.200 326.066 C 241.970 325.993,242.972 325.588,243.426 325.166 C 243.880 324.744,244.824 324.400,245.526 324.400 C 246.227 324.400,246.800 324.234,246.800 324.031 C 246.800 323.828,247.475 323.456,248.300 323.203 C 250.201 322.622,251.518 322.019,252.862 321.114 C 253.446 320.721,254.177 320.400,254.486 320.400 C 254.796 320.400,255.436 320.040,255.908 319.600 C 256.380 319.160,257.089 318.796,257.483 318.791 C 257.877 318.786,258.650 318.430,259.200 318.000 C 259.750 317.570,260.423 317.214,260.697 317.209 C 260.970 317.204,261.418 316.840,261.693 316.400 C 261.968 315.960,262.509 315.600,262.896 315.600 C 263.283 315.600,263.600 315.420,263.600 315.200 C 263.600 314.980,263.836 314.800,264.125 314.800 C 264.413 314.800,265.036 314.440,265.508 314.000 C 265.980 313.560,266.644 313.200,266.983 313.200 C 267.322 313.200,267.600 313.020,267.600 312.800 C 267.600 312.580,267.825 312.399,268.100 312.398 C 268.375 312.397,269.175 311.857,269.878 311.198 C 270.581 310.539,271.301 310.000,271.478 309.999 C 271.655 309.999,272.430 309.459,273.200 308.800 C 273.970 308.141,274.753 307.601,274.940 307.601 C 275.126 307.600,275.756 307.104,276.340 306.499 C 276.923 305.893,278.109 304.868,278.976 304.220 C 281.044 302.676,293.200 290.499,293.200 289.972 C 293.200 289.747,293.638 289.126,294.173 288.591 C 294.708 288.056,295.651 286.939,296.268 286.109 C 296.886 285.279,297.664 284.330,297.998 284.000 C 298.332 283.670,298.860 282.905,299.170 282.300 C 299.481 281.695,299.885 281.200,300.068 281.200 C 300.250 281.200,300.400 280.880,300.400 280.488 C 300.400 280.097,300.760 279.517,301.200 279.200 C 301.640 278.883,302.000 278.369,302.000 278.059 C 302.000 277.748,302.315 277.201,302.700 276.843 C 303.085 276.484,303.625 275.788,303.900 275.296 C 305.169 273.022,305.445 272.590,306.100 271.845 C 306.485 271.407,306.800 270.633,306.800 270.125 C 306.800 269.616,306.954 269.200,307.142 269.200 C 307.330 269.200,308.249 267.625,309.183 265.700 C 310.117 263.775,311.043 261.887,311.241 261.505 C 311.438 261.123,311.600 260.538,311.600 260.205 C 311.600 259.872,311.757 259.600,311.948 259.600 C 312.139 259.600,312.524 258.785,312.803 257.790 C 313.082 256.794,313.465 255.883,313.655 255.766 C 313.845 255.649,314.000 255.023,314.000 254.376 C 314.000 253.729,314.180 253.200,314.400 253.200 C 314.620 253.200,314.800 252.876,314.800 252.480 C 314.800 252.084,314.968 251.589,315.173 251.380 C 315.378 251.171,315.603 250.460,315.673 249.800 C 315.743 249.140,316.115 248.251,316.500 247.825 C 316.885 247.398,317.227 246.498,317.259 245.825 C 317.368 243.583,317.406 243.408,318.098 242.000 C 318.477 241.230,318.858 239.674,318.944 238.542 C 319.030 237.410,319.224 236.285,319.374 236.042 C 319.524 235.799,319.552 235.447,319.436 235.259 C 319.320 235.071,319.484 234.576,319.800 234.159 C 320.677 233.000,320.601 229.207,319.700 229.177 C 319.315 229.165,310.856 229.167,300.902 229.182 C 287.066 229.202,282.614 229.091,282.002 228.708 C 281.363 228.309,281.039 228.308,280.405 228.704 C 279.968 228.977,279.081 229.200,278.433 229.200 C 277.126 229.200,275.600 230.891,275.600 232.338 C 275.600 232.786,275.419 233.264,275.199 233.401 C 274.978 233.537,274.909 234.095,275.046 234.641 C 275.202 235.264,275.071 235.886,274.692 236.316 C 274.360 236.692,273.958 237.630,273.798 238.400 C 273.638 239.170,273.273 240.250,272.985 240.800 C 272.325 242.063,271.858 243.323,271.924 243.662 C 271.952 243.806,271.710 244.143,271.387 244.411 C 271.064 244.679,270.800 245.148,270.800 245.454 C 270.800 245.760,270.641 246.323,270.447 246.705 C 270.252 247.087,269.848 247.940,269.547 248.600 C 269.247 249.260,268.911 249.890,268.801 250.000 C 268.323 250.476,267.600 252.039,267.600 252.595 C 267.600 252.928,267.420 253.200,267.200 253.200 C 266.980 253.200,266.800 253.425,266.800 253.700 C 266.799 253.975,266.394 254.679,265.900 255.264 C 265.405 255.850,264.190 257.454,263.200 258.830 C 262.210 260.206,261.219 261.528,260.998 261.766 C 260.777 262.005,259.787 263.189,258.798 264.397 C 256.748 266.902,252.874 270.800,252.435 270.800 C 252.273 270.800,251.434 271.517,250.570 272.393 C 249.707 273.270,248.845 273.990,248.656 273.993 C 248.466 273.997,247.451 274.720,246.400 275.600 C 245.349 276.480,244.315 277.200,244.103 277.200 C 243.891 277.200,243.236 277.645,242.649 278.190 C 242.062 278.734,241.490 279.173,241.378 279.166 C 241.006 279.140,236.607 281.393,236.104 281.867 C 235.831 282.124,235.021 282.463,234.304 282.619 C 233.587 282.776,232.571 283.241,232.046 283.652 C 231.521 284.063,230.844 284.400,230.541 284.400 C 230.237 284.400,229.632 284.580,229.195 284.800 C 228.758 285.020,228.042 285.380,227.605 285.600 C 227.168 285.820,226.369 286.000,225.829 286.000 C 225.289 286.000,224.736 286.180,224.600 286.400 C 224.464 286.620,224.003 286.800,223.576 286.800 C 223.149 286.800,222.800 286.935,222.800 287.100 C 222.800 287.265,221.945 287.455,220.900 287.522 C 219.855 287.589,218.829 287.814,218.620 288.022 C 218.411 288.230,217.682 288.400,217.000 288.400 C 216.318 288.400,215.589 288.563,215.380 288.762 C 214.153 289.929,187.821 289.936,186.620 288.769 C 186.411 288.566,185.592 288.400,184.800 288.400 C 184.008 288.400,183.189 288.233,182.980 288.030 C 182.771 287.826,181.789 287.593,180.797 287.513 C 179.805 287.433,178.742 287.211,178.435 287.022 C 178.025 286.768,177.965 286.821,178.210 287.217 C 178.394 287.514,177.989 287.362,177.310 286.879 C 176.632 286.395,175.710 286.000,175.262 286.000 C 174.814 286.000,174.336 285.820,174.200 285.600 C 174.064 285.380,173.524 285.200,173.000 285.200 C 172.476 285.200,171.945 285.034,171.819 284.831 C 171.694 284.628,171.065 284.346,170.423 284.205 C 169.781 284.064,169.041 283.690,168.779 283.374 C 168.517 283.058,167.867 282.800,167.334 282.800 C 166.802 282.800,165.980 282.440,165.508 282.000 C 165.036 281.560,164.357 281.200,164.000 281.200 C 163.643 281.200,163.002 280.885,162.575 280.499 C 162.149 280.114,160.945 279.366,159.900 278.837 C 158.855 278.307,158.000 277.723,158.000 277.537 C 158.000 277.352,157.642 277.200,157.203 277.200 C 156.765 277.200,156.182 276.840,155.907 276.400 C 155.632 275.960,155.224 275.600,155.000 275.600 C 154.775 275.600,154.107 275.150,153.513 274.600 C 152.920 274.050,152.266 273.600,152.060 273.600 C 151.854 273.600,151.582 273.330,151.455 273.000 C 151.329 272.670,151.054 272.400,150.845 272.400 C 150.308 272.400,141.200 263.274,141.200 262.736 C 141.200 262.493,140.874 262.003,140.475 261.647 C 140.076 261.291,139.167 260.145,138.456 259.100 C 137.744 258.055,136.990 257.200,136.781 257.200 C 136.571 257.200,136.400 256.840,136.400 256.400 C 136.400 255.960,136.248 255.600,136.063 255.600 C 135.877 255.600,135.295 254.745,134.768 253.700 C 134.242 252.655,133.694 251.710,133.552 251.600 C 132.977 251.157,131.600 248.325,131.600 247.588 C 131.600 247.155,131.420 246.800,131.200 246.800 C 130.980 246.800,130.800 246.528,130.800 246.195 C 130.800 245.862,130.620 245.232,130.400 244.795 C 130.180 244.358,129.820 243.642,129.600 243.205 C 129.380 242.768,129.200 242.059,129.200 241.629 C 129.200 241.199,129.020 240.736,128.800 240.600 C 128.580 240.464,128.400 240.003,128.400 239.576 C 128.400 239.149,128.220 238.800,128.000 238.800 C 127.780 238.800,127.600 238.355,127.600 237.812 C 127.600 237.269,127.224 236.156,126.765 235.338 C 126.227 234.379,125.997 233.418,126.119 232.626 C 126.228 231.911,126.042 230.945,125.671 230.307 L 125.036 229.215 105.618 229.074 C 94.938 228.996,85.660 228.801,85.000 228.639 C 84.316 228.472,83.628 228.517,83.400 228.744 " stroke="none" fill="#535a5b" fill-rule="evenodd"></path></g></svg>